<svg width="512" height="512" viewBox="0 0 512 512" fill="none" xmlns="http://www.w3.org/2000/svg">
<g clip-path="url(#clip0_440_436)">
<mask id="mask0_440_436" style="mask-type:luminance" maskUnits="userSpaceOnUse" x="0" y="0" width="512" height="512">
<path d="M512 0H0V512H512V0Z" fill="white"/>
</mask>
<g mask="url(#mask0_440_436)">
<path d="M485.715 62.4966L449.37 96.6002L385.766 301.239L85.2716 278.659" stroke="#82817F" stroke-width="15" stroke-linecap="round" stroke-linejoin="round"/>
<path d="M486.999 60.5586L449.369 95.6002L386.297 298.5C385.986 299.517 385.012 300.183 383.951 300.104L80.2016 277.393" stroke="#AAA9A2" stroke-width="4" stroke-linecap="round" stroke-linejoin="round"/>
<path d="M482.547 60.8984L447.37 93.6L384.736 295.062C384.386 296.207 383.288 296.957 382.094 296.868L83.1226 274.44" stroke="#BFC0C1" stroke-width="4" stroke-linecap="round" stroke-linejoin="round"/>
<path d="M425.213 191.01L391.35 302.438C390.484 305.276 387.765 307.133 384.806 306.907L88.5986 284.523" stroke="#454141" stroke-width="4" stroke-linecap="round" stroke-linejoin="round"/>
<path d="M488.357 67.2568L453.94 100.33" stroke="#454141" stroke-width="4" stroke-linecap="round" stroke-linejoin="round"/>
<path d="M407.285 55.7212L388.451 285.646" stroke="#82817F" stroke-width="8" stroke-linecap="round" stroke-linejoin="round"/>
<path d="M409.196 56.2744L390.37 286.208" stroke="#BAB6B1" stroke-width="4" stroke-linecap="round" stroke-linejoin="round"/>
<path d="M407.271 56.8535L390.796 52.6905" stroke="#82817F" stroke-width="8" stroke-linecap="round" stroke-linejoin="round"/>
<path d="M407.447 54.8613L390.972 50.6983" stroke="#BAB6B1" stroke-width="4" stroke-linecap="round" stroke-linejoin="round"/>
<path d="M301.144 296.24L340.795 340.045C348.561 348.624 347.398 361.959 338.31 369.123C331.73 374.31 322.556 379.41 310.192 382.129" stroke="#8E8D8D" stroke-width="15" stroke-linecap="round" stroke-linejoin="round"/>
<path d="M351.249 356.865C350.429 363.064 347.387 368.973 342.247 373.184C334.295 379.7 323.208 386.105 308.266 389.52" stroke="#454141" stroke-width="4" stroke-linecap="round" stroke-linejoin="round"/>
<mask id="mask1_440_436" style="mask-type:luminance" maskUnits="userSpaceOnUse" x="295" y="291" width="48" height="50">
<path d="M295.769 301.185L332.291 340.85L342.335 330.804L307.197 291.198L295.769 301.185Z" fill="url(#paint0_linear_440_436)"/>
</mask>
<g mask="url(#mask1_440_436)">
<path d="M295.769 301.185L332.291 340.85L342.335 330.804L307.197 291.198L295.769 301.185Z" fill="url(#paint1_linear_440_436)"/>
</g>
<path d="M322.975 328.652L336.612 343.717C342.193 349.883 341.357 359.467 334.826 364.617" stroke="#BAB6B1" stroke-width="4" stroke-linecap="round" stroke-linejoin="round"/>
<path d="M341.586 339.54C351.053 350.173 345.429 364.298 336.297 370.581C334.429 372.36 335.929 376.049 339.279 373.661C347.242 367.985 358.429 352.548 344.515 336.616C341.991 334.361 338.992 336.798 341.586 339.54Z" fill="url(#paint2_radial_440_436)"/>
<path d="M386.752 298.21L426.278 337.758V389.51L122.367 395.139L89.0036 410.995C87.5406 411.69 85.9726 412.142 84.3626 412.332" stroke="#8E8D8D" stroke-width="15" stroke-linecap="round" stroke-linejoin="round"/>
<mask id="mask2_440_436" style="mask-type:luminance" maskUnits="userSpaceOnUse" x="383" y="295" width="42" height="42">
<path d="M383.337 305.79L414.86 336.332L424.154 325.661L395.39 295.804L383.337 305.79Z" fill="url(#paint3_linear_440_436)"/>
</mask>
<g mask="url(#mask2_440_436)">
<path d="M383.337 305.79L414.86 336.332L424.154 325.661L395.39 295.804L383.337 305.79Z" fill="url(#paint4_linear_440_436)"/>
</g>
<path d="M401.087 314.291C408.367 321.424 414.367 327.487 422.111 335.082C424.617 337.174 427.054 334.237 424.655 331.911C417.43 324.737 410.617 318.048 404.015 311.367C401.492 309.111 398.492 311.548 401.087 314.291Z" fill="url(#paint5_radial_440_436)"/>
<path d="M426.019 350.271C426.106 360.462 426.048 368.992 426.135 379.839C426.423 383.091 430.224 382.743 430.177 379.402C430.158 369.22 430.085 359.673 430.157 350.28C429.973 346.901 426.129 346.497 426.019 350.271Z" fill="url(#paint6_radial_440_436)"/>
<path d="M417.138 383.963L121.054 389.521L87.3746 405.638C85.9536 406.389 84.7006 406.799 83.4106 406.899" stroke="#BCBCBC" stroke-width="4" stroke-linecap="round" stroke-linejoin="round"/>
<path d="M427.278 395.074L124.207 400.702L90.2876 416.559C88.8236 417.255 87.2566 417.706 85.6466 417.895" stroke="#454141" stroke-width="4" stroke-linecap="round" stroke-linejoin="round"/>
<path d="M420.764 340.048V375.681V380.785" stroke="#6B6868" stroke-width="4" stroke-linecap="round" stroke-linejoin="round"/>
<path d="M381.238 300.501L420.763 340.049" stroke="#454141" stroke-width="4" stroke-linecap="round" stroke-linejoin="round"/>
<path d="M62.269 416.626C64.155 416.538 81.5979 413.001 83.6327 412.55" stroke="#8E8D8D" stroke-width="15" stroke-linecap="round" stroke-linejoin="round"/>
<path d="M60.2057 410.697C63.6446 410.337 89.6905 404.604 91.5916 404.269" stroke="#BCBCBC" stroke-width="4" stroke-linecap="round" stroke-linejoin="round"/>
<path d="M63.5049 422.181C66.0556 421.8 89.0131 416.732 90.7672 416.362" stroke="#454141" stroke-width="4" stroke-linecap="round" stroke-linejoin="round"/>
<path d="M179.088 394.089L410.474 370.982L426.278 353.271" stroke="#82817F" stroke-width="8" stroke-linecap="round" stroke-linejoin="round"/>
<path d="M177.823 391.672L409.208 368.566L425.013 350.856" stroke="#BFBFBF" stroke-width="3" stroke-linecap="round" stroke-linejoin="round"/>
<path d="M180.295 396.466L410.884 373.438C411.397 373.387 411.87 373.146 412.213 372.761L427.485 355.649" stroke="#454141" stroke-width="3" stroke-linecap="round" stroke-linejoin="round"/>
<path d="M168.359 398.25L399.745 375.143L415.549 357.432" stroke="#82817F" stroke-width="8" stroke-linecap="round" stroke-linejoin="round"/>
<path d="M167.094 395.834L398.479 372.728L414.284 355.018" stroke="#BFBFBF" stroke-width="3" stroke-linecap="round" stroke-linejoin="round"/>
<path d="M169.566 400.628L400.155 377.6C400.668 377.549 401.141 377.308 401.484 376.923L416.756 359.811" stroke="#454141" stroke-width="3" stroke-linecap="round" stroke-linejoin="round"/>
<path d="M153.754 398.25L385.14 375.143L400.944 357.432" stroke="#82817F" stroke-width="8" stroke-linecap="round" stroke-linejoin="round"/>
<path d="M152.489 395.834L383.874 372.728L399.679 355.018" stroke="#BFBFBF" stroke-width="3" stroke-linecap="round" stroke-linejoin="round"/>
<path d="M154.961 400.628L385.55 377.6C386.063 377.549 386.536 377.308 386.879 376.923L402.151 359.811" stroke="#454141" stroke-width="3" stroke-linecap="round" stroke-linejoin="round"/>
<path d="M440.575 112.982L79.2625 131.951" stroke="#82817F" stroke-width="8" stroke-linecap="round" stroke-linejoin="round"/>
<path d="M440.575 110.916L79.2625 129.885" stroke="#BFC0C1" stroke-width="4" stroke-linecap="round" stroke-linejoin="round"/>
<path d="M80.4406 235.832L395.36 251.598" stroke="#82817F" stroke-width="8" stroke-linecap="round" stroke-linejoin="round"/>
<path d="M77.2256 207.701L407.619 212.371" stroke="#82817F" stroke-width="8" stroke-linecap="round" stroke-linejoin="round"/>
<path d="M420 172.477L76.2296 179.563" stroke="#82817F" stroke-width="8" stroke-linecap="round" stroke-linejoin="round"/>
<path d="M76.6715 154.142L430.78 136.735" stroke="#82817F" stroke-width="8" stroke-linecap="round" stroke-linejoin="round"/>
<path d="M83.1216 263.592L383.496 286.356" stroke="#82817F" stroke-width="8" stroke-linecap="round" stroke-linejoin="round"/>
<path d="M80.5836 233.67L395.625 250.923" stroke="#BFC0C1" stroke-width="4" stroke-linecap="round" stroke-linejoin="round"/>
<path d="M77.2256 205.625L407.619 210.295" stroke="#BFC0C1" stroke-width="4" stroke-linecap="round" stroke-linejoin="round"/>
<path d="M420 170.331L76.2296 177.417" stroke="#BFC0C1" stroke-width="4" stroke-linecap="round" stroke-linejoin="round"/>
<path d="M76.6715 152.112L430.78 134.705" stroke="#BFC0C1" stroke-width="4" stroke-linecap="round" stroke-linejoin="round"/>
<path d="M83.1216 261.592L383.496 284.356" stroke="#BFC0C1" stroke-width="4" stroke-linecap="round" stroke-linejoin="round"/>
<path d="M80.5626 238.731L391.816 255.823" stroke="#5B5757" stroke-width="2" stroke-linecap="round" stroke-linejoin="round"/>
<path d="M77.2256 210.712L403.782 215.383" stroke="#5B5757" stroke-width="2" stroke-linecap="round" stroke-linejoin="round"/>
<path d="M416.11 175.66L76.2306 182.641" stroke="#5B5757" stroke-width="2" stroke-linecap="round" stroke-linejoin="round"/>
<path d="M76.6715 157.213L426.856 140.032" stroke="#5B5757" stroke-width="2" stroke-linecap="round" stroke-linejoin="round"/>
<path d="M83.1216 266.623L379.743 289.092" stroke="#5B5757" stroke-width="2" stroke-linecap="round" stroke-linejoin="round"/>
<path d="M442.999 103.904L384.463 301.917" stroke="#82817F" stroke-width="8" stroke-linecap="round" stroke-linejoin="round"/>
<path d="M441.693 101.252L383.156 299.266" stroke="#D7DADC" stroke-width="4" stroke-linecap="round" stroke-linejoin="round"/>
<path d="M438.435 103.219L379.671 303.971" stroke="#82817F" stroke-width="8" stroke-linecap="round" stroke-linejoin="round"/>
<path d="M437.129 100.567L378.363 301.319" stroke="#D7DADC" stroke-width="4" stroke-linecap="round" stroke-linejoin="round"/>
<path d="M432.731 102.306L372.825 304.883" stroke="#82817F" stroke-width="8" stroke-linecap="round" stroke-linejoin="round"/>
<path d="M431.424 99.6543L371.518 302.232" stroke="#D7DADC" stroke-width="4" stroke-linecap="round" stroke-linejoin="round"/>
<path d="M403.742 95.8804L394.626 211.656" stroke="#BAB6B1" stroke-width="8" stroke-linecap="round" stroke-linejoin="round"/>
<path d="M401.867 93.5942L392.752 209.37" stroke="#82817F" stroke-width="4" stroke-linecap="round" stroke-linejoin="round"/>
<path d="M397.255 94.5977L387.759 216.187" stroke="#BAB6B1" stroke-width="8" stroke-linecap="round" stroke-linejoin="round"/>
<path d="M395.382 92.3115L385.884 213.901" stroke="#82817F" stroke-width="4" stroke-linecap="round" stroke-linejoin="round"/>
<path d="M391.188 94.8076L378.576 227.553" stroke="#BAB6B1" stroke-width="8" stroke-linecap="round" stroke-linejoin="round"/>
<path d="M389.315 92.5205L376.702 225.267" stroke="#82817F" stroke-width="4" stroke-linecap="round" stroke-linejoin="round"/>
<path d="M403.953 95.6268L387.354 93.5702" stroke="#82817F" stroke-width="8" stroke-linecap="round" stroke-linejoin="round"/>
<path d="M404.023 93.6278L387.423 91.5712" stroke="#BAB6B1" stroke-width="4" stroke-linecap="round" stroke-linejoin="round"/>
<path d="M387.205 222.013L371.263 225.893" stroke="#82817F" stroke-width="8" stroke-linecap="round" stroke-linejoin="round"/>
<path d="M387.275 220.014L371.333 223.894" stroke="#BAB6B1" stroke-width="4" stroke-linecap="round" stroke-linejoin="round"/>
<path d="M486.153 62.7907L463.576 56.732" stroke="#82817F" stroke-width="15" stroke-linejoin="round"/>
<path d="M488.914 61.9503L465.237 55.87" stroke="#AAA9A2" stroke-width="4" stroke-linecap="round" stroke-linejoin="round"/>
<path d="M488.015 59.7774L466.105 54.2706L465.801 54.1945" stroke="#BFC0C1" stroke-width="4" stroke-linecap="round" stroke-linejoin="round"/>
<path d="M486.167 67.1483L464.77 62.1591" stroke="#454141" stroke-width="4" stroke-linecap="round" stroke-linejoin="round"/>
<path d="M77.0475 123.491L76.905 140.251L104.407 140.52L104.467 123.445L77.0475 123.491Z" fill="url(#paint7_linear_440_436)"/>
<path d="M77.0475 123.491L76.905 140.251L104.407 140.52L104.467 123.445L77.0475 123.491Z" stroke="#0A1419" stroke-width="7.88352" stroke-linecap="round" stroke-linejoin="round"/>
<path d="M86.0983 126.924L92.1628 279.283" stroke="#82817F" stroke-width="8" stroke-linecap="round" stroke-linejoin="round"/>
<path d="M131.074 124.404L126.392 281.694" stroke="#82817F" stroke-width="8" stroke-linecap="round" stroke-linejoin="round"/>
<path d="M181.474 122.091L169.825 284.818" stroke="#82817F" stroke-width="8" stroke-linecap="round" stroke-linejoin="round"/>
<path d="M232.954 118.427L209.801 287.813" stroke="#82817F" stroke-width="8" stroke-linecap="round" stroke-linejoin="round"/>
<path d="M286.094 115.782L256.665 291.323" stroke="#82817F" stroke-width="8" stroke-linecap="round" stroke-linejoin="round"/>
<path d="M339.799 114.54L301.618 294.689" stroke="#82817F" stroke-width="8" stroke-linecap="round" stroke-linejoin="round"/>
<path d="M391.61 112.496L346.311 298.035" stroke="#82817F" stroke-width="8" stroke-linecap="round" stroke-linejoin="round"/>
<path d="M129.063 124.404L124.381 281.694" stroke="#BAB6B1" stroke-width="4" stroke-linecap="round" stroke-linejoin="round"/>
<path d="M179.463 122.091L167.814 284.818" stroke="#BAB6B1" stroke-width="4" stroke-linecap="round" stroke-linejoin="round"/>
<path d="M230.944 118.427L207.79 287.813" stroke="#BAB6B1" stroke-width="4" stroke-linecap="round" stroke-linejoin="round"/>
<path d="M284.082 115.782L254.654 291.323" stroke="#BAB6B1" stroke-width="4" stroke-linecap="round" stroke-linejoin="round"/>
<path d="M337.788 114.54L299.606 294.689" stroke="#BAB6B1" stroke-width="4" stroke-linecap="round" stroke-linejoin="round"/>
<path d="M389.516 112.496L344.217 298.035" stroke="#BAB6B1" stroke-width="4" stroke-linecap="round" stroke-linejoin="round"/>
<path d="M83.9843 124.857L90.0497 277.216" stroke="#D7DADC" stroke-width="4" stroke-linecap="round" stroke-linejoin="round"/>
<path d="M80.7383 127.099L87.0899 278.666" stroke="#82817F" stroke-width="8" stroke-linecap="round" stroke-linejoin="round"/>
<path d="M78.6767 124.979L85.0283 276.547" stroke="#D7DADC" stroke-width="4" stroke-linecap="round" stroke-linejoin="round"/>
<path d="M68.5621 125.348L75.6804 278.658" stroke="#82817F" stroke-width="8" stroke-linecap="round" stroke-linejoin="round"/>
<path d="M66.4919 123.237L73.6092 276.548" stroke="#D7DADC" stroke-width="4" stroke-linecap="round" stroke-linejoin="round"/>
<path d="M74.536 125.362L82.5258 278.639" stroke="#82817F" stroke-width="8" stroke-linecap="round" stroke-linejoin="round"/>
<path d="M72.4443 123.273L80.4331 276.551" stroke="#D7DADC" stroke-width="4" stroke-linecap="round" stroke-linejoin="round"/>
<path d="M92.2496 266.611L92.6626 266.688" stroke="#82817F" stroke-width="8" stroke-linecap="round" stroke-linejoin="round"/>
<path d="M92.2496 264.611L92.6626 264.688" stroke="#BFC0C1" stroke-width="4" stroke-linecap="round" stroke-linejoin="round"/>
<path d="M92.2496 269.644L92.5455 269.673" stroke="#5B5757" stroke-width="2" stroke-linecap="round" stroke-linejoin="round"/>
<path d="M90.1176 236.594L90.5338 236.651" stroke="#82817F" stroke-width="8" stroke-linecap="round" stroke-linejoin="round"/>
<path d="M90.0222 234.597L90.4384 234.654" stroke="#BFC0C1" stroke-width="4" stroke-linecap="round" stroke-linejoin="round"/>
<path d="M90.2622 239.623L90.5592 239.638" stroke="#5B5757" stroke-width="2" stroke-linecap="round" stroke-linejoin="round"/>
<path d="M87.4826 206.953L87.8995 207.004" stroke="#82817F" stroke-width="8" stroke-linecap="round" stroke-linejoin="round"/>
<path d="M87.3596 204.957L87.7766 205.008" stroke="#BFC0C1" stroke-width="4" stroke-linecap="round" stroke-linejoin="round"/>
<path d="M87.669 209.979L87.9662 209.99" stroke="#5B5757" stroke-width="2" stroke-linecap="round" stroke-linejoin="round"/>
<path d="M86.8056 176.465L87.2249 176.491" stroke="#82817F" stroke-width="8" stroke-linecap="round" stroke-linejoin="round"/>
<path d="M86.5574 174.481L86.9768 174.506" stroke="#BFC0C1" stroke-width="4" stroke-linecap="round" stroke-linejoin="round"/>
<path d="M87.1817 179.474L87.479 179.466" stroke="#5B5757" stroke-width="2" stroke-linecap="round" stroke-linejoin="round"/>
<path d="M86.3536 149.793L86.7735 149.804" stroke="#82817F" stroke-width="8" stroke-linecap="round" stroke-linejoin="round"/>
<path d="M86.0387 147.818L86.4587 147.829" stroke="#BFC0C1" stroke-width="4" stroke-linecap="round" stroke-linejoin="round"/>
<path d="M86.8309 152.787L87.1277 152.769" stroke="#5B5757" stroke-width="2" stroke-linecap="round" stroke-linejoin="round"/>
<path d="M78.4806 124.678L78.9006 124.687" stroke="#82817F" stroke-width="8" stroke-linecap="round" stroke-linejoin="round"/>
<path d="M78.1539 122.705L78.5739 122.714" stroke="#BFC0C1" stroke-width="4" stroke-linecap="round" stroke-linejoin="round"/>
<path d="M78.9758 127.669L79.2726 127.65" stroke="#5B5757" stroke-width="2" stroke-linecap="round" stroke-linejoin="round"/>
<path d="M77.0475 123.491L76.905 140.251L77.1474 140.721L77.2081 123.647L77.0475 123.491Z" fill="url(#paint8_linear_440_436)"/>
<path d="M77.0475 123.491L76.905 140.251L77.1474 140.721L77.2081 123.647L77.0475 123.491Z" stroke="#0A1419" stroke-width="7.88352" stroke-linecap="round" stroke-linejoin="round"/>
<path d="M89.521 278.533L63.7616 281.599" stroke="#82817F" stroke-width="15" stroke-linecap="round" stroke-linejoin="round"/>
<path d="M88.4914 279.874L62.2709 283.977" stroke="#AAA9A2" stroke-width="4" stroke-linecap="round" stroke-linejoin="round"/>
<path d="M88.2599 275.802L61.5105 280.048" stroke="#BFC0C1" stroke-width="4" stroke-linecap="round" stroke-linejoin="round"/>
<path d="M61.5327 287.952L89.25 284.88" stroke="#454141" stroke-width="4" stroke-linecap="round" stroke-linejoin="round"/>
<path d="M126.856 405.556L156.429 405.555L160.752 442.068C160.995 443.959 159.522 445.633 157.615 445.633C156.604 445.633 155.653 445.149 155.058 444.33L126.856 405.556Z" fill="url(#paint9_linear_440_436)"/>
<path d="M126.856 405.556L156.429 405.555L160.752 442.068C160.995 443.959 159.522 445.633 157.615 445.633C156.604 445.633 155.653 445.149 155.058 444.33L126.856 405.556Z" stroke="#565656" stroke-width="8" stroke-linecap="round" stroke-linejoin="round"/>
<path d="M126.867 405.156C126.867 405.156 154.035 405.581 155.577 405.7" stroke="#6F6F6F" stroke-width="8" stroke-linecap="round" stroke-linejoin="round"/>
<path d="M190.691 441.379C190.691 457.34 179.711 469.717 162.987 470.278C145.918 470.792 135.282 457.34 135.282 441.379C135.282 425.418 146.234 412.479 162.987 412.479C178.287 412.479 190.691 425.418 190.691 441.379Z" fill="#282423"/>
<path d="M190.691 441.379C190.691 457.34 179.711 469.717 162.987 470.278C145.918 470.792 135.282 457.34 135.282 441.379C135.282 425.418 146.234 412.479 162.987 412.479C178.287 412.479 190.691 425.418 190.691 441.379Z" stroke="#282423" stroke-width="7.38132" stroke-linecap="round" stroke-linejoin="round"/>
<path d="M189.664 441.379C189.664 457.34 177.261 470.278 161.96 470.278C146.659 470.278 134.255 457.34 134.255 441.379C134.255 425.418 146.659 412.479 161.96 412.479C177.261 412.479 189.664 425.418 189.664 441.379Z" fill="#4C4645"/>
<path d="M189.664 441.379C189.664 457.34 177.261 470.278 161.96 470.278C146.659 470.278 134.255 457.34 134.255 441.379C134.255 425.418 146.659 412.479 161.96 412.479C177.261 412.479 189.664 425.418 189.664 441.379Z" stroke="#282423" stroke-width="7.38132" stroke-linecap="round" stroke-linejoin="round"/>
<path d="M181.224 441.568C181.224 452.66 172.605 461.651 161.972 461.651C151.338 461.651 142.719 452.66 142.719 441.568C142.719 430.477 151.338 421.485 161.972 421.485C172.605 421.485 181.224 430.477 181.224 441.568Z" fill="url(#paint10_linear_440_436)"/>
<path d="M174.521 441.379C174.521 448.616 168.897 454.481 161.96 454.481C155.023 454.481 149.399 448.616 149.399 441.379C149.399 434.142 155.023 428.277 161.96 428.277C168.897 428.277 174.521 434.142 174.521 441.379Z" fill="#514D4B"/>
<path d="M174.521 441.379C174.521 448.616 168.897 454.481 161.96 454.481C155.023 454.481 149.399 448.616 149.399 441.379C149.399 434.142 155.023 428.277 161.96 428.277C168.897 428.277 174.521 434.142 174.521 441.379Z" stroke="#464140" stroke-width="4.61333" stroke-miterlimit="10"/>
<path d="M132.326 405.906L159.547 405.863L163.807 440.282C164.038 442.08 162.638 443.671 160.825 443.671C159.864 443.671 158.96 443.211 158.394 442.433L132.326 405.906Z" fill="url(#paint11_linear_440_436)"/>
<path d="M132.326 405.906L159.547 405.863L163.807 440.282C164.038 442.08 162.638 443.671 160.825 443.671C159.864 443.671 158.96 443.211 158.394 442.433L132.326 405.906Z" stroke="#918E8D" stroke-width="7.60469" stroke-linecap="round" stroke-linejoin="round"/>
<path d="M101.525 409.892L131.099 409.89L135.421 446.404C135.664 448.295 134.191 449.969 132.284 449.969C131.273 449.969 130.322 449.485 129.727 448.666L101.525 409.892Z" fill="url(#paint12_linear_440_436)"/>
<path d="M101.525 409.892L131.099 409.89L135.421 446.404C135.664 448.295 134.191 449.969 132.284 449.969C131.273 449.969 130.322 449.485 129.727 448.666L101.525 409.892Z" stroke="#565656" stroke-width="8" stroke-linecap="round" stroke-linejoin="round"/>
<path d="M101.536 409.492C101.536 409.492 128.705 409.916 130.247 410.035" stroke="#6F6F6F" stroke-width="8" stroke-linecap="round" stroke-linejoin="round"/>
<path d="M167.553 447.486C167.553 464.276 156.003 477.296 138.409 477.887C120.454 478.428 109.264 464.276 109.264 447.486C109.264 430.696 120.786 417.083 138.409 417.083C154.505 417.083 167.553 430.696 167.553 447.486Z" fill="#282423"/>
<path d="M167.553 447.486C167.553 464.276 156.003 477.296 138.409 477.887C120.454 478.428 109.264 464.276 109.264 447.486C109.264 430.696 120.786 417.083 138.409 417.083C154.505 417.083 167.553 430.696 167.553 447.486Z" stroke="#282423" stroke-width="7.76502" stroke-linecap="round" stroke-linejoin="round"/>
<path d="M166.473 447.486C166.473 464.276 153.425 477.887 137.329 477.887C121.232 477.887 108.184 464.276 108.184 447.486C108.184 430.696 121.232 417.083 137.329 417.083C153.425 417.083 166.473 430.696 166.473 447.486Z" fill="#4C4645"/>
<path d="M166.473 447.486C166.473 464.276 153.425 477.887 137.329 477.887C121.232 477.887 108.184 464.276 108.184 447.486C108.184 430.696 121.232 417.083 137.329 417.083C153.425 417.083 166.473 430.696 166.473 447.486Z" stroke="#282423" stroke-width="7.76502" stroke-linecap="round" stroke-linejoin="round"/>
<path d="M157.594 447.685C157.594 459.353 148.527 468.811 137.341 468.811C126.155 468.811 117.088 459.353 117.088 447.685C117.088 436.017 126.155 426.558 137.341 426.558C148.527 426.558 157.594 436.017 157.594 447.685Z" fill="url(#paint13_linear_440_436)"/>
<path d="M150.543 447.486C150.543 455.098 144.627 461.268 137.329 461.268C130.031 461.268 124.115 455.098 124.115 447.486C124.115 439.872 130.031 433.702 137.329 433.702C144.627 433.702 150.543 439.872 150.543 447.486Z" fill="#514D4B"/>
<path d="M150.543 447.486C150.543 455.098 144.627 461.268 137.329 461.268C130.031 461.268 124.115 455.098 124.115 447.486C124.115 439.872 130.031 433.702 137.329 433.702C144.627 433.702 150.543 439.872 150.543 447.486Z" stroke="#464140" stroke-width="4.85314" stroke-miterlimit="10"/>
<path d="M419.71 401.028L448.307 401.105L459.214 439.319C459.793 441.169 458.411 443.049 456.471 443.049C455.647 443.049 454.863 442.696 454.317 442.077L419.71 401.028Z" fill="url(#paint14_linear_440_436)"/>
<path d="M419.71 401.028L448.307 401.105L459.214 439.319C459.793 441.169 458.411 443.049 456.471 443.049C455.647 443.049 454.863 442.696 454.317 442.077L419.71 401.028Z" stroke="#6E6D6D" stroke-width="8" stroke-linecap="round" stroke-linejoin="round"/>
<path d="M446.843 401.067L420.037 401.098" stroke="#827F7F" stroke-width="8" stroke-linecap="round"/>
<path d="M480.819 442.071C480.819 458.986 471.008 472.329 456.058 472.698C432.603 473.035 431.296 458.986 431.296 442.071C431.296 425.157 434.386 411.444 456.058 411.444C469.733 411.444 480.819 425.157 480.819 442.071Z" fill="#282423"/>
<path d="M480.819 442.071C480.819 458.986 471.008 472.329 456.058 472.698C432.603 473.035 431.296 458.986 431.296 442.071C431.296 425.157 434.386 411.444 456.058 411.444C469.733 411.444 480.819 425.157 480.819 442.071Z" stroke="#282423" stroke-width="7.18375" stroke-linecap="round" stroke-linejoin="round"/>
<path d="M474.322 442.071C474.322 458.986 463.237 472.698 449.561 472.698C435.885 472.698 424.8 458.986 424.8 442.071C424.8 425.157 435.885 411.444 449.561 411.444C463.237 411.444 474.322 425.157 474.322 442.071Z" fill="#4C4645"/>
<path d="M474.322 442.071C474.322 458.986 463.237 472.698 449.561 472.698C435.885 472.698 424.8 458.986 424.8 442.071C424.8 425.157 435.885 411.444 449.561 411.444C463.237 411.444 474.322 425.157 474.322 442.071Z" stroke="#282423" stroke-width="7.18375" stroke-linecap="round" stroke-linejoin="round"/>
<path d="M466.779 442.271C466.779 454.026 459.075 463.554 449.572 463.554C440.068 463.554 432.364 454.026 432.364 442.271C432.364 430.517 440.068 420.988 449.572 420.988C459.075 420.988 466.779 430.517 466.779 442.271Z" fill="url(#paint15_linear_440_436)"/>
<path d="M460.788 442.071C460.788 449.74 455.762 455.956 449.561 455.956C443.361 455.956 438.335 449.74 438.335 442.071C438.335 434.401 443.361 428.186 449.561 428.186C455.762 428.186 460.788 434.401 460.788 442.071Z" fill="#514D4B"/>
<path d="M460.788 442.071C460.788 449.74 455.762 455.956 449.561 455.956C443.361 455.956 438.335 449.74 438.335 442.071C438.335 434.401 443.361 428.186 449.561 428.186C455.762 428.186 460.788 434.401 460.788 442.071Z" stroke="#464140" stroke-width="4.48984" stroke-miterlimit="10"/>
<g opacity="0.2">
<path d="M455.014 435.79C455.882 435.623 458.206 439.82 457.7 441.783C457.193 443.745 454.502 441.811 454.297 440.705C454.092 439.598 454.239 435.94 455.014 435.79Z" fill="white"/>
</g>
<path d="M411.188 400.664H439.312L450.646 441.554C451.248 443.477 449.812 445.43 447.796 445.43C446.94 445.43 446.125 445.063 445.558 444.42L411.188 400.664Z" fill="url(#paint16_linear_440_436)"/>
<path d="M411.188 400.664H439.312L450.646 441.554C451.248 443.477 449.812 445.43 447.796 445.43C446.94 445.43 446.125 445.063 445.558 444.42L411.188 400.664Z" stroke="#918E8D" stroke-width="8.31264" stroke-linecap="round" stroke-linejoin="round"/>
<path d="M394.38 405.365L422.976 405.442L433.884 443.656C434.463 445.506 433.081 447.386 431.141 447.386C430.317 447.386 429.533 447.033 428.987 446.414L394.38 405.365Z" fill="url(#paint17_linear_440_436)"/>
<path d="M394.38 405.365L422.976 405.442L433.884 443.656C434.463 445.506 433.081 447.386 431.141 447.386C430.317 447.386 429.533 447.033 428.987 446.414L394.38 405.365Z" stroke="#6E6D6D" stroke-width="8" stroke-linecap="round" stroke-linejoin="round"/>
<path d="M421.513 405.403L394.707 405.434" stroke="#827F7F" stroke-width="8" stroke-linecap="round"/>
<path d="M455.489 446.407C455.489 463.321 445.678 476.664 430.728 477.033C407.273 477.371 405.966 463.321 405.966 446.407C405.966 429.492 409.056 415.779 430.728 415.779C444.403 415.779 455.489 429.492 455.489 446.407Z" fill="#282423"/>
<path d="M455.489 446.407C455.489 463.321 445.678 476.664 430.728 477.033C407.273 477.371 405.966 463.321 405.966 446.407C405.966 429.492 409.056 415.779 430.728 415.779C444.403 415.779 455.489 429.492 455.489 446.407Z" stroke="#282423" stroke-width="7.18375" stroke-linecap="round" stroke-linejoin="round"/>
<path d="M448.992 446.407C448.992 463.321 437.906 477.033 424.231 477.033C410.555 477.033 399.47 463.321 399.47 446.407C399.47 429.492 410.555 415.779 424.231 415.779C437.906 415.779 448.992 429.492 448.992 446.407Z" fill="#4C4645"/>
<path d="M448.992 446.407C448.992 463.321 437.906 477.033 424.231 477.033C410.555 477.033 399.47 463.321 399.47 446.407C399.47 429.492 410.555 415.779 424.231 415.779C437.906 415.779 448.992 429.492 448.992 446.407Z" stroke="#282423" stroke-width="7.18375" stroke-linecap="round" stroke-linejoin="round"/>
<path d="M441.449 446.607C441.449 458.361 433.745 467.89 424.242 467.89C414.738 467.89 407.034 458.361 407.034 446.607C407.034 434.853 414.738 425.323 424.242 425.323C433.745 425.323 441.449 434.853 441.449 446.607Z" fill="url(#paint18_linear_440_436)"/>
<path d="M435.458 446.407C435.458 454.076 430.431 460.291 424.231 460.291C418.031 460.291 413.005 454.076 413.005 446.407C413.005 438.737 418.031 432.521 424.231 432.521C430.431 432.521 435.458 438.737 435.458 446.407Z" fill="#514D4B"/>
<path d="M435.458 446.407C435.458 454.076 430.431 460.291 424.231 460.291C418.031 460.291 413.005 454.076 413.005 446.407C413.005 438.737 418.031 432.521 424.231 432.521C430.431 432.521 435.458 438.737 435.458 446.407Z" stroke="#464140" stroke-width="4.48984" stroke-miterlimit="10"/>
<g opacity="0.2">
<path d="M429.684 440.125C430.552 439.959 432.876 444.156 432.37 446.118C431.863 448.081 429.172 446.146 428.967 445.04C428.762 443.934 428.908 440.275 429.684 440.125Z" fill="white"/>
</g>
<g opacity="0.2">
<path d="M143.747 441.251C144.769 441.085 147.504 445.251 146.908 447.2C146.312 449.148 143.145 447.227 142.903 446.129C142.662 445.031 142.834 441.399 143.747 441.251Z" fill="white"/>
</g>
<path d="M389.945 52.7622L363.137 289.919" stroke="#82817F" stroke-width="8" stroke-linecap="round" stroke-linejoin="round"/>
<path d="M391.845 53.3882L365.037 290.545" stroke="#BAB6B1" stroke-width="4" stroke-linecap="round" stroke-linejoin="round"/>
<path d="M335.788 210.132C356.022 210.44 372.215 227.059 371.927 247.221C371.639 267.383 354.977 283.503 334.744 283.195C314.51 282.888 298.316 266.268 298.605 246.107C298.893 225.945 315.555 209.825 335.788 210.132Z" stroke="#80B231" stroke-width="5.64892"/>
<path d="M331.116 124.749C324.439 124.75 324.089 132.287 329.432 132.906C324.204 132.303 323.037 140.66 329.991 141.516C328.56 157.304 325.037 170.248 316.81 179.52C281.193 219.663 282.231 273.387 289.72 283.55C299.865 297.316 352.401 303.136 361.683 293.049C373.334 280.385 384.118 227.505 364.551 186.23C357.96 172.325 361.643 155.273 362.958 145.956C370.748 146.274 368.947 138.203 364.377 137.592C369.062 138.219 371.483 130.03 365.907 129.342C356.64 128.197 338.814 125.824 331.116 124.749Z" fill="url(#paint19_radial_440_436)"/>
<path d="M331.116 124.749C324.439 124.75 324.089 132.287 329.432 132.906C324.204 132.303 323.037 140.66 329.991 141.516C328.56 157.304 325.037 170.248 316.81 179.52C281.193 219.663 282.231 273.387 289.72 283.55C299.865 297.316 352.401 303.136 361.683 293.049C373.334 280.385 384.118 227.505 364.551 186.23C357.96 172.325 361.643 155.273 362.958 145.956C370.748 146.274 368.947 138.203 364.377 137.592C369.062 138.219 371.483 130.03 365.907 129.342C356.64 128.197 338.814 125.824 331.116 124.749Z" stroke="#003000" stroke-width="5.55843" stroke-linecap="round" stroke-linejoin="round"/>
<path d="M328.471 132.783C344.359 134.769 364.32 137.79 364.32 137.79" stroke="#003000" stroke-width="5.55843"/>
<path d="M329.991 141.516C328.707 155.679 325.74 167.553 319.203 176.542C318.454 177.572 333.154 188.691 340.496 194.074C346.386 191.539 363.648 184.192 363.272 183.151C358.483 169.886 361.739 154.595 362.958 145.956C353.832 145.779 323.037 140.66 329.991 141.516Z" fill="url(#paint20_linear_440_436)"/>
<path d="M329.991 141.516C328.707 155.679 325.74 167.553 319.203 176.542C318.454 177.572 333.154 188.691 340.496 194.074C346.386 191.539 363.648 184.192 363.272 183.151C358.483 169.886 361.739 154.595 362.958 145.956C353.832 145.779 323.037 140.66 329.991 141.516Z" stroke="#664A30" stroke-width="5.55843" stroke-linecap="round" stroke-linejoin="round"/>
<path d="M327.545 141.161C345.298 144.821 365.997 145.982 365.997 145.982" stroke="#003000" stroke-width="5.55843"/>
<path d="M369.097 106.946C362.429 102.274 341.479 100.053 335.726 101.817C330.423 103.444 327.396 121.195 333.251 122.117C339.068 123.175 359.844 126.704 366.698 126.704C371.022 126.705 373.258 109.861 369.097 106.946Z" fill="#9B6E42"/>
<path d="M369.097 106.946C362.429 102.274 341.479 100.053 335.726 101.817C330.423 103.444 327.396 121.195 333.251 122.117C339.068 123.175 359.844 126.704 366.698 126.704C371.022 126.705 373.258 109.861 369.097 106.946Z" stroke="#7B491A" stroke-width="5.55843"/>
<path d="M365.293 107.348C360.681 105.467 352.068 102.233 345.961 105.698C343.121 107.309 341.722 117.594 344.2 119.212C350.016 120.269 359.13 123.286 365.962 122.751C369.269 122.492 370.944 109.655 365.293 107.348Z" fill="#DEBA86"/>
<path d="M361.066 109.091C357.02 106.192 351.474 104.84 345.801 106.842C342.72 107.929 341.722 117.594 344.2 119.211C350.016 120.269 353.448 122.024 360.281 121.49C363.587 121.231 365.196 112.05 361.066 109.091Z" fill="#C5925B"/>
<path d="M346.873 108.393C345.366 109.116 348.459 112.837 351.357 112.425C353.498 112.12 349.516 107.125 346.873 108.393Z" fill="#905B2D"/>
<path d="M348.087 117.316C346.58 118.039 347.4 119.575 350.298 119.162C352.439 118.857 350.73 116.048 348.087 117.316Z" fill="#905B2D"/>
<path d="M357.864 112.73C356.357 113.453 359.507 115.884 360.29 114.722C361.165 113.424 360.507 111.461 357.864 112.73Z" fill="#905B2D"/>
<path d="M338.154 115.461C336.648 116.184 334.618 115.442 335.401 114.28C336.276 112.982 340.797 114.193 338.154 115.461Z" fill="#905B2D"/>
<path d="M340.605 107.985C341.762 110.598 337.218 108.569 338.001 107.407C338.876 106.109 339.418 105.309 340.605 107.985Z" fill="#905B2D"/>
<path d="M355.663 107.52C356.821 110.133 352.276 108.105 353.059 106.943C353.934 105.645 354.477 104.844 355.663 107.52Z" fill="#905B2D"/>
<path d="M367.699 110.252C368.856 112.865 364.819 110.558 365.602 109.396C366.477 108.098 366.513 107.576 367.699 110.252Z" fill="#905B2D"/>
<path d="M364.816 120.119C365.328 118.249 362.561 117.716 362.262 119.083C361.895 120.763 364.539 121.131 364.816 120.119Z" fill="#905B2D"/>
<path d="M345.75 129.01C344.924 128.998 342.251 132.256 349.083 133.672C353.4 134.565 358.57 135.354 364.144 135.986C366.796 136.287 368.096 131.929 366.371 131.561C362.95 130.83 349.491 129.065 345.75 129.01Z" fill="#629104"/>
<path d="M363.832 133.87C364.345 132 356.505 130.874 356.207 132.241C355.84 133.921 363.555 134.882 363.832 133.87Z" fill="#CEDBAC"/>
<path d="M360.235 291.276C349.282 302.468 296.359 292.592 291.097 282.68C287.879 276.618 287.777 270.652 287.611 266.914C295.707 272.576 355.594 283.276 364.616 283.922C363.648 287.669 362.472 288.99 360.235 291.276Z" fill="#1F321E"/>
<path d="M345.058 137.317C344.232 137.304 341.559 140.563 348.392 141.978C352.708 142.872 357.878 143.66 363.452 144.293C366.104 144.594 367.404 140.236 365.68 139.868C362.258 139.136 348.799 137.372 345.058 137.317Z" fill="#629104"/>
<g opacity="0.36">
<path d="M317.369 181.318C282.208 219.105 286.421 281.255 291.992 281.906C293.886 282.127 285.176 229.029 320.087 184.463C320.272 181.814 318.967 181.993 317.369 181.318Z" fill="white"/>
</g>
<g opacity="0.36">
<path d="M328.844 157.121C327.736 164.945 325.046 170.892 322.03 175.438C320.505 177.735 324.437 177.301 324.813 177.957C325.189 178.613 328.468 171.064 330.544 165.15C331.699 161.86 329.289 153.98 328.844 157.121Z" fill="white"/>
</g>
<g opacity="0.22">
<path d="M316.144 264.712C315.038 278.429 310.516 284.798 309.665 291.731C321.072 295.61 339.15 296.787 344.049 295.83C345.918 295.465 347.037 271.577 349.382 261.734C350.19 258.343 316.681 258.057 316.144 264.712Z" fill="white"/>
</g>
<path d="M362.186 141.46C362.688 140.246 359.162 139.532 358.863 140.899C358.497 142.579 361.786 142.427 362.186 141.46Z" fill="#CEDBAC"/>
<g opacity="0.22">
<path d="M364.708 230.745C358.842 233.194 350.568 200.177 357.516 199.183C364.729 198.151 372.015 227.695 364.708 230.745Z" fill="white"/>
</g>
<g opacity="0.51">
<path d="M362.668 220.189C360.618 220.848 359.595 210.797 361.444 210.469C363.351 210.132 365.959 219.132 362.668 220.189Z" fill="white"/>
</g>
<path d="M368.148 281.905C363.059 292.243 298.623 286.713 285.801 270.11C284.42 257.362 286.276 242.115 287.672 237.004C293.715 248.82 360.393 260.423 375.62 248.298C375.023 255.12 371.554 274.987 368.148 281.905Z" fill="url(#paint21_linear_440_436)"/>
<path d="M368.148 281.905C363.059 292.243 298.623 286.713 285.801 270.11C284.42 257.362 286.276 242.115 287.672 237.004C293.715 248.82 360.393 260.423 375.62 248.298C375.023 255.12 371.554 274.987 368.148 281.905Z" stroke="#664A30" stroke-width="5.42683" stroke-linecap="round" stroke-linejoin="round"/>
<g opacity="0.36">
<path d="M289.72 243.266C288.086 253.417 287.351 262.261 288.51 269.419C290.131 270.997 291.525 271.229 292.804 272.385C293.248 261.478 293.58 245.151 294.283 245.602C295.338 246.279 291.156 244.312 289.72 243.266Z" fill="white"/>
</g>
<path d="M226.694 51.0573C208.014 49.0534 199.655 70.735 198.424 75.3856C197.192 80.0362 187.023 119.005 186.054 123.028C185.086 127.052 191.57 128.512 192.723 124.187C193.277 122.112 199.045 94.9825 204.099 77.4818C207.368 66.1617 215.188 56.5715 227.028 57.5843C235.811 58.336 242.711 67.3778 244.61 80.334C247.783 101.989 242.634 122.463 242.349 124.727C241.856 128.636 247.546 129.674 248.593 125.322C251.002 115.317 253.346 89.7582 251.019 78.9483C249.817 73.3667 246.248 53.1547 226.694 51.0573Z" fill="url(#paint22_linear_440_436)"/>
<path d="M226.694 51.0573C208.014 49.0534 199.655 70.735 198.424 75.3856C197.192 80.0362 187.023 119.005 186.054 123.028C185.086 127.052 191.57 128.512 192.723 124.187C193.277 122.112 199.045 94.9825 204.099 77.4818C207.368 66.1617 215.607 55.2923 227.447 56.3051C236.231 57.0569 244.836 67.0827 246.117 80.1251C248.299 102.345 244.167 122.145 243.882 124.409C243.389 128.318 247.546 129.674 248.593 125.322C251.002 115.317 253.346 89.7582 251.019 78.9483C249.817 73.3667 246.248 53.1547 226.694 51.0573Z" fill="url(#paint23_linear_440_436)"/>
<path d="M286.39 100.088L157.353 91.9281L126.083 259.046L154.431 279.708L283.849 281.433L303.053 114.182L282.345 106.24L286.39 100.088Z" fill="url(#paint24_linear_440_436)"/>
<path d="M286.39 100.088L157.353 91.9281L126.083 259.046L154.431 279.708L283.849 281.433L303.053 114.182L282.345 106.24L286.39 100.088Z" stroke="#BC249A" stroke-width="5.46906" stroke-linecap="round" stroke-linejoin="round"/>
<path d="M178.069 105.638L154.431 279.708L283.849 281.433L303.053 114.181L178.069 105.638Z" fill="url(#paint25_linear_440_436)"/>
<path d="M178.069 105.638L154.431 279.708L283.849 281.433L303.053 114.181L178.069 105.638Z" stroke="#D738B2" stroke-width="5.46906" stroke-linecap="round" stroke-linejoin="round"/>
<path d="M282.608 101.526L162.635 95.0068L184.458 99.7642L183.486 107.739L178.614 107.424L296.282 114.313L279.347 107.257L282.608 101.526Z" fill="#B30C82"/>
<path d="M277.883 113.108L296.282 114.313L279.347 107.257L277.883 113.108Z" fill="#941943"/>
<path d="M177.374 104.508L183.595 107.158L184.305 99.6475L177.374 104.508Z" fill="#941943"/>
<path d="M128.874 257.999L159.286 94.3237L184.53 99.945L177.91 104.372L150.617 260.402L128.874 257.999Z" fill="url(#paint26_linear_440_436)"/>
<path d="M129.298 258.202L153.54 275.858L148.716 259.822L129.298 258.202Z" fill="#DF49CD"/>
<path d="M178.728 106.866L153.54 275.859L148.716 259.822L178.728 106.866Z" fill="#A53597"/>
<path d="M302.806 113.48L280.578 107.173L285.951 99.4176L157.665 91.851L126.233 259.053L154.077 278.891" stroke="#990F4E" stroke-width="5.46906" stroke-linecap="round" stroke-linejoin="round"/>
<path d="M303.584 114.406C301.713 114.194 179.506 106.023 178.606 106.766C177.705 107.509 153.095 278.827 153.893 279.5" stroke="#D738B2" stroke-width="5.46906" stroke-linecap="round" stroke-linejoin="round"/>
<path d="M178.606 106.766C177.705 107.509 153.095 278.826 153.893 279.5" stroke="#BC249A" stroke-width="5.46906" stroke-linecap="round" stroke-linejoin="round"/>
<path d="M212.796 130.367C208.017 129.658 205.937 138.775 211.769 140.153C219.024 141.867 222.047 131.741 212.796 130.367Z" fill="#941943"/>
<path d="M272.72 131.885C267.94 131.176 265.858 140.292 271.689 141.671C278.944 143.385 281.971 133.259 272.72 131.885Z" fill="#941943"/>
<path d="M269.8 115.768C269.74 119.65 267.586 131.181 268.353 134.807C268.75 136.693 282.233 122.47 274.122 115.956C272.33 115.699 269.807 115.313 269.8 115.768Z" fill="#F84BC4"/>
<path d="M212.323 111.434C210.949 114.621 207.723 126.861 208.552 133.634C208.78 135.489 224.508 118.111 216.397 111.598C214.605 111.341 212.505 111.015 212.323 111.434Z" fill="#F84BC4"/>
<path d="M251.872 58.0659C231.866 55.8703 223.037 78.476 221.744 83.3279C220.451 88.1798 209.779 128.836 208.764 133.034C207.749 137.232 214.699 138.792 215.909 134.281C216.49 132.116 222.516 103.805 227.83 85.5488C231.268 73.7403 239.586 63.7638 252.265 64.8866C261.671 65.7199 269.106 75.2037 271.209 88.7499C274.724 111.39 269.325 132.753 269.032 135.116C268.526 139.197 274.621 140.312 275.719 135.772C278.243 125.333 280.613 98.6433 278.062 87.3372C276.745 81.4993 272.814 60.3639 251.872 58.0659Z" fill="url(#paint27_linear_440_436)"/>
<path d="M251.872 58.0659C231.866 55.8703 223.037 78.476 221.744 83.3279C220.451 88.1798 209.779 128.836 208.764 133.034C207.749 137.232 214.699 138.792 215.909 134.281C216.49 132.116 222.516 103.805 227.83 85.5488C231.268 73.7403 240.028 62.4297 252.707 63.5525C262.113 64.3858 271.38 74.9071 272.822 88.5398C275.279 111.766 270.964 132.428 270.671 134.792C270.165 138.873 274.621 140.312 275.719 135.772C278.243 125.333 280.613 98.6433 278.062 87.3372C276.745 81.4993 272.814 60.3639 251.872 58.0659Z" fill="url(#paint28_linear_440_436)"/>
<path d="M298.708 75.1174L246.999 72.8176L245.375 86.4918L231.254 103.627L220.883 266.046L275.165 279.032L295.645 264.307L306.319 108.921L298.283 89.6198L298.708 75.1174Z" fill="#F6F6F6"/>
<path d="M298.708 75.1174L246.999 72.8176L245.375 86.4918L231.254 103.627L220.883 266.046L275.165 279.032L295.645 264.307L306.319 108.921L298.283 89.6198L298.708 75.1174Z" stroke="#B8B8B6" stroke-width="6" stroke-linejoin="round"/>
<path d="M296.709 76.9939L248.61 75.0498L247.44 87.5005L234.123 103.81L286.049 107.009L296.454 92.7597L296.709 76.9939Z" fill="#E9E9E9"/>
<path d="M296.709 76.994L248.486 75.042L247.44 87.5006L296.512 90.8847L296.709 76.994Z" fill="#D1D1D1"/>
<path d="M285.893 107.116L276.137 275.587L293.963 263.197L304.275 109.542L297.11 92.3006L285.893 107.116Z" fill="#A9A9A9"/>
<path d="M229.693 128.077L222.301 243.841L276.838 252.835L297.17 242.107L304.674 132.866L284.082 131.55L229.693 128.077Z" fill="#55B9FD"/>
<path d="M229.693 128.077L222.301 243.841L276.838 252.835L297.17 242.107L304.674 132.866L284.082 131.55L229.693 128.077Z" stroke="#0089E5" stroke-width="6" stroke-linejoin="round"/>
<path d="M277.215 250.855L295.62 240.881L302.957 134.26L284.087 133.429L277.215 250.855Z" fill="#1A7088"/>
<path d="M276.325 90.2218C276.568 84.7211 252.109 77.152 251.53 84.2546C251.35 86.4546 250.441 89.9859 250.765 93.9465C251.619 104.426 283.005 103.299 283.864 95.1402C284.393 90.1107 276.273 91.3889 276.325 90.2218Z" fill="#D9D9D9"/>
<path d="M244.052 116.69C243.82 124.341 272.207 125.281 272.593 118.649C272.961 112.302 244.259 109.843 244.052 116.69Z" fill="#BFD9E4"/>
<path d="M246.059 119.953C252.505 124.444 272.272 124.176 272.593 118.649C272.961 112.302 244.769 119.055 246.059 119.953Z" fill="#53A7E1"/>
<path d="M287.09 107.041C290.758 107.426 295.506 107.604 303.421 108.593C297.863 106.001 293.516 103.469 290.227 102.006C287.931 104.616 286.316 106.959 287.09 107.041Z" fill="#878785"/>
<path d="M291.769 100.451C294.71 102.418 297.008 103.692 302.994 107.438C301.088 102.575 298.952 96.802 297.078 92.7984C294.782 95.4084 291.122 100.018 291.769 100.451Z" fill="#878785"/>
<path d="M276.63 83.4775C276.873 77.9768 252.109 77.152 251.53 84.2546C251.35 86.4546 250.843 89.9734 250.765 93.9465C250.643 100.105 275.289 100.552 275.654 94.2402C275.853 90.8059 276.579 84.6446 276.63 83.4775Z" fill="#D9D9D9"/>
<path d="M276.63 83.4775C276.873 77.9768 252.109 77.152 251.53 84.2546C251.35 86.4546 250.843 89.9734 250.765 93.9465C250.643 100.105 275.289 100.552 275.654 94.2402C275.853 90.8059 276.579 84.6446 276.63 83.4775Z" stroke="#B8B8B6" stroke-width="6"/>
<path d="M273.261 84.8526C273.647 81.1135 254.801 79.2297 254.536 85.0547C254.277 90.7388 272.606 91.1947 273.261 84.8526Z" fill="white"/>
<path d="M299.397 74.7295L298.109 90.3692L305.865 108.887L295.816 263.216L276.012 278.392" stroke="#8D8585" stroke-width="6" stroke-linecap="round" stroke-linejoin="round"/>
<path d="M286.256 131.479L304.106 133.175L297.472 241.33L278.874 251.89" stroke="#015267" stroke-width="6" stroke-linecap="round" stroke-linejoin="round"/>
<path d="M273.119 219.601C279.464 219.695 284.54 224.923 284.447 231.268C284.353 237.614 279.125 242.69 272.78 242.596C266.434 242.502 261.358 237.274 261.452 230.929C261.546 224.584 266.774 219.508 273.119 219.601Z" stroke="#FFCE6C" stroke-width="11.1052"/>
<path d="M225.974 224.814C228.272 224.848 230.11 226.742 230.076 229.04C230.042 231.338 228.149 233.176 225.851 233.142C223.552 233.109 221.714 231.215 221.748 228.917C221.782 226.619 223.675 224.78 225.974 224.814Z" stroke="#FFCE6C" stroke-width="6.5706"/>
<path d="M294.954 177.214C289.082 182.001 274.754 197.152 254.812 206.087C228.797 217.744 216.802 216.859 204.79 218.525C195.435 219.821 197.978 231.801 203.99 235.349C226.933 248.894 247.64 254.423 268.56 242.847C298.205 226.443 305.536 208.568 309.813 187.849C311.33 180.495 300.606 172.606 294.954 177.214Z" fill="#FFAE2C"/>
<path d="M294.954 177.214C289.082 182.001 274.754 197.152 254.812 206.087C228.797 217.744 216.802 216.859 204.79 218.525C195.435 219.821 197.978 231.801 203.99 235.349C226.933 248.894 247.64 254.423 268.56 242.847C298.205 226.443 305.536 208.568 309.813 187.849C311.33 180.495 300.606 172.606 294.954 177.214Z" stroke="#B97100" stroke-width="5.80435"/>
<path d="M200.316 222.446C195.734 221.187 193.99 225.082 199.852 227.742C205.583 230.342 206.188 224.059 200.316 222.446Z" fill="#8E6049"/>
<path d="M200.316 222.446C195.734 221.187 193.99 225.082 199.852 227.742C205.583 230.342 206.188 224.059 200.316 222.446Z" stroke="#8E6049" stroke-width="5.80435"/>
<path d="M294.172 178.882C289.535 184.873 273.865 208.29 255.364 219.919C227.434 237.475 214.844 236.553 204.218 241.704C195.719 245.823 199.645 256.72 205.991 259.625C232.8 271.896 265.542 264.79 283.302 248.784C308.47 226.101 311.57 207.032 311.051 185.882C310.867 178.376 298.637 173.116 294.172 178.882Z" fill="#FFB93E"/>
<path d="M294.172 178.882C289.535 184.873 273.865 208.29 255.364 219.919C227.434 237.475 214.844 236.553 204.218 241.704C195.719 245.823 199.645 256.72 205.991 259.625C232.8 271.896 265.542 264.79 283.302 248.784C308.47 226.101 311.57 207.032 311.051 185.882C310.867 178.376 298.637 173.116 294.172 178.882Z" stroke="#C57A00" stroke-width="5.80435"/>
<path d="M200.747 246.535C195.999 246.344 195.181 250.533 201.493 251.798C207.663 253.035 206.832 246.778 200.747 246.535Z" fill="#8E6049"/>
<path d="M200.747 246.535C195.999 246.344 195.181 250.533 201.493 251.798C207.663 253.035 206.832 246.778 200.747 246.535Z" stroke="#8E6049" stroke-width="5.80435"/>
<path d="M297.927 181.603C295.627 188.821 288.944 216.194 275.557 233.465C255.347 259.539 243.205 262.993 234.992 271.477C228.423 278.263 235.849 287.151 242.807 287.703C272.199 290.029 300.514 272.119 311.703 250.99C327.56 221.048 323.928 202.073 316.183 182.386C313.434 175.398 300.141 174.654 297.927 181.603Z" fill="#FFCE6C"/>
<path d="M297.927 181.603C295.627 188.821 288.944 216.194 275.557 233.465C255.347 259.539 243.205 262.993 234.992 271.477C228.423 278.263 235.849 287.151 242.807 287.703C272.199 290.029 300.514 272.119 311.703 250.99C327.56 221.048 323.928 202.073 316.183 182.386C313.434 175.398 300.141 174.654 297.927 181.603Z" stroke="#DE9012" stroke-width="5.80435"/>
<path d="M233.389 277.206C228.864 278.657 229.533 282.872 235.896 281.894C242.116 280.939 239.188 275.346 233.389 277.206Z" fill="#8E6049"/>
<path d="M233.389 277.206C228.864 278.657 229.533 282.872 235.896 281.894C242.116 280.939 239.188 275.346 233.389 277.206Z" stroke="#8E6049" stroke-width="3.86957"/>
<path d="M294.125 251.8C296.247 252.776 304.584 243.162 310.02 231.911C315.641 220.276 318.353 206.422 313.761 205.887C310.174 205.469 305.471 225.39 303.008 230.031C300.545 234.672 290.709 250.228 294.125 251.8Z" fill="#FFDF95"/>
<path d="M294.144 165.214C293.751 167.718 294.064 168.451 294.213 172.038C294.443 177.595 292.804 181.736 295.771 181.28C300.531 180.548 309.202 169.201 309.12 163.434C309.016 156.119 294.862 160.641 294.144 165.214Z" fill="#875943"/>
<path d="M294.144 165.214C293.751 167.718 294.064 168.451 294.213 172.038C294.443 177.595 292.804 181.736 295.771 181.28C300.531 180.548 309.202 169.201 309.12 163.434C309.016 156.119 294.862 160.641 294.144 165.214Z" stroke="#754C37" stroke-width="3.86957"/>
<path d="M294.144 165.214C293.751 167.719 297.257 167.341 300.474 171.936C303.286 175.953 303.465 183.371 306.432 182.915C311.193 182.183 309.202 169.202 309.12 163.434C309.016 156.119 294.862 160.641 294.144 165.214Z" fill="#966C5A"/>
<path d="M294.144 165.214C293.751 167.719 297.257 167.341 300.474 171.936C303.286 175.953 303.465 183.371 306.432 182.915C311.193 182.183 309.202 169.202 309.12 163.434C309.016 156.119 294.862 160.641 294.144 165.214Z" stroke="#754C37" stroke-width="5.80435"/>
<path d="M158.898 80.7923C159.262 33.5313 100.388 24.7089 95.3823 70.7779C94.4884 81.0022 89.4079 166.292 88.6264 174.113C87.8448 181.933 86.9216 217.232 118.191 221.009C149.604 224.802 151.93 190.887 151.942 182.854C151.954 174.821 159.38 86.0397 158.898 80.7923Z" fill="url(#paint29_linear_440_436)"/>
<path d="M158.898 80.7923C159.262 33.5313 100.388 24.7089 95.3823 70.7779C94.4884 81.0022 89.4079 166.292 88.6264 174.113C87.8448 181.933 86.9216 217.232 118.191 221.009C149.604 224.802 151.93 190.887 151.942 182.854C151.954 174.821 159.38 86.0397 158.898 80.7923Z" stroke="#A04210" stroke-width="5.99908"/>
<path d="M148.348 59.8288C147.311 50.8276 106.771 64.5513 98.9926 104.165C99.4717 108.924 150.801 81.1102 148.348 59.8288Z" fill="url(#paint30_linear_440_436)"/>
<path d="M148.348 59.8288C147.311 50.8276 106.771 64.5513 98.9926 104.165C99.4717 108.924 150.801 81.1102 148.348 59.8288Z" fill="url(#paint31_linear_440_436)" fill-opacity="0.45"/>
<path d="M149.109 108.014C147.466 99.0508 108.809 117.108 98.6214 155.446C99.0878 158.254 153.865 133.95 149.109 108.014Z" fill="url(#paint32_linear_440_436)"/>
<path d="M149.109 108.014C147.466 99.0508 108.809 117.108 98.6214 155.446C99.0878 158.254 153.865 133.95 149.109 108.014Z" fill="url(#paint33_linear_440_436)" fill-opacity="0.45"/>
<path d="M148.381 158.587C147.291 149.588 109.226 166.537 97.9746 203.729C98.441 206.537 151.131 181.29 148.381 158.587Z" fill="url(#paint34_linear_440_436)"/>
<path d="M148.381 158.587C147.291 149.588 109.226 166.537 97.9746 203.729C98.441 206.537 151.131 181.29 148.381 158.587Z" fill="url(#paint35_linear_440_436)" fill-opacity="0.45"/>
<path d="M189.247 163.342C221.616 171.255 242.014 205.522 233.682 239.605C225.35 273.687 192.037 291.263 159.668 283.35C127.299 275.437 107.22 244.809 115.551 210.726C123.883 176.644 156.878 155.429 189.247 163.342Z" fill="url(#paint36_radial_440_436)"/>
<path d="M189.247 163.342C221.616 171.255 242.014 205.522 233.682 239.605C225.35 273.687 192.037 291.263 159.668 283.35C127.299 275.437 107.22 244.809 115.551 210.726C123.883 176.644 156.878 155.429 189.247 163.342Z" stroke="#093404" stroke-width="5.77938"/>
<path d="M173.538 169.042C163.871 170.367 153.785 172.907 157.084 172.629C160.383 172.351 169.611 171.031 177.897 173.029C182.118 174.047 189.082 174.919 194.531 178.211C199.759 181.37 203.52 186.94 205.555 188.463C208.51 190.673 215.083 193.001 218.526 197.569C225.853 207.292 230.753 214.331 231.952 216.906C233.78 220.83 230.131 199.359 223.553 192.101C222.008 190.397 219.354 185.811 215.368 182.717C212.348 180.373 208.956 179.5 206.747 178.378C203.995 176.982 197.864 171.439 191.272 171.297C184.68 171.154 178.852 168.314 173.538 169.042Z" fill="url(#paint37_radial_440_436)"/>
<path d="M169.722 164.65C159.28 165.723 152.757 171.91 155.812 170.517C158.342 169.363 175.236 167.799 176.258 166.665C178.878 163.758 193.241 167.257 195.657 167.985C199.164 169.042 180.436 163.549 169.722 164.65Z" fill="url(#paint38_radial_440_436)"/>
<path d="M172.283 176.9C162.643 175.815 152.658 175.155 155.908 175.695C159.158 176.235 168.101 179.185 174.743 184.624C181.386 190.064 182.167 192.798 186.381 194.337C190.595 195.876 190.536 196.116 193.48 199.888C196.423 203.66 196.91 207.595 198.375 210.497C199.84 213.399 202.244 212.46 204.016 212.13C205.788 211.8 206.341 214.479 207.733 219.652C209.126 224.826 214.017 227.548 214.902 231.834C215.787 236.121 214.275 240.33 216.593 243.694C218.911 247.059 223.864 250.944 225.791 252.051C226.897 252.687 230.898 241.205 231.23 238.243C231.343 237.232 230.268 230.249 227.943 227.9C225.618 225.551 225.298 224.53 223.652 220.746C220.56 213.631 219.204 220.167 218.526 218.984C217.849 217.801 218.136 217.617 216.105 214.068C214.073 210.519 214.176 207.114 210.896 203.255C206.393 197.957 208.123 195.328 203.121 192.07C198.12 188.812 192.655 186.459 187.654 183.201C182.652 179.944 181.923 177.985 172.283 176.9Z" fill="url(#paint39_radial_440_436)"/>
<path d="M165.666 184.783C159.062 177.611 150.292 174.45 152.65 177.054C154.895 179.534 156.858 187.66 162.119 194.56C167.379 201.46 169.729 204.016 172.403 207.734C174.71 210.944 173.001 213.023 175.038 217.414C177.075 221.805 180.85 223.61 181.643 226.799C182.435 229.988 185.322 233.252 185.616 237.849C185.735 239.719 187.35 241.76 188.978 243.893C192.167 248.068 191.863 246.215 192.711 250.51C193.516 254.587 201.745 257.581 200.585 261.625C197.507 272.351 203.676 263.957 205.242 273.828C205.481 275.337 214.429 267.72 215.073 266.944C215.716 266.167 213.652 256.712 208.728 250.743C206.615 248.184 206.189 245.246 205.412 241.15C203.953 233.449 204.365 235.591 203.964 234.272C203.564 232.953 205.486 231.789 202.68 228.884C199.898 226.004 197.121 223.035 192.464 218.845C188.723 215.479 191.473 210.743 187.331 206.369C183.189 201.994 180.898 201.041 176.756 196.667C172.614 192.292 172.333 192.023 165.666 184.783Z" fill="url(#paint40_radial_440_436)"/>
<path d="M155.171 193.017C150.902 184.089 151.152 175.62 149.611 178.91C145.727 187.197 147.699 190.986 146.889 194.966C145.482 201.887 145.189 203.727 148.167 208.737C150.197 212.15 148.872 221.475 152.009 225.07C154.873 228.351 157.739 232.783 157.602 236.097C157.464 239.412 146.443 234.177 157.516 244.208C158.856 245.421 160.672 252.193 161.623 254.745C163.485 259.743 163.917 259.053 165.346 262.376C166.971 266.156 167.101 266.195 167.47 270.363C167.84 274.531 177.211 273.886 174.798 282.375C174.161 284.617 192.331 280.811 193.159 280.26C193.986 279.709 186.427 273.204 189.207 265.432C190.362 262.202 183.844 262.525 181.867 258.076C178.719 250.989 178.245 248.684 176.391 245.028C174.554 241.403 175.366 237.795 173.636 231.592C172.098 226.076 164.509 223.728 161.797 218.247C159.085 212.766 161.938 208.839 161.479 206.618C160.226 200.557 159.481 202.031 155.171 193.017Z" fill="url(#paint41_radial_440_436)"/>
<path d="M140.392 195.008C142.286 185.465 147.328 177.043 144.829 179.621C138.534 186.118 136.989 189.883 134.95 193.376C131.406 199.45 130.937 202.838 131.121 208.794C131.234 212.399 127.997 219.816 129.767 224.338C131.382 228.464 132.978 232.751 131.782 235.85C130.585 238.948 132.874 240.272 132.901 245.215C132.912 247.091 135.139 251.763 136.518 255.031C138.588 259.935 140.374 261.071 140.637 264.731C140.936 268.894 142.206 268.552 143.903 272.609C144.929 275.063 145.995 276.078 148.004 276.83C148.911 277.17 152.985 278.65 158.787 280.518C154.555 272.673 155.366 270.038 154.37 265.223C153.184 259.481 148.326 256.56 147.774 252.433C147.227 248.343 146.794 244.745 144.708 238.671C143.999 236.605 142.283 231.489 143.524 228.113C144.765 224.737 139.203 221.51 138.809 218.339C138.044 212.178 141.117 213.445 141.405 211.174C142.188 204.977 138.404 205.018 140.392 195.008Z" fill="url(#paint42_radial_440_436)"/>
<path d="M133.593 189.16C139.457 181.5 147.585 176.366 144.259 177.477C135.88 180.276 134.276 183.633 131.33 186.648C126.461 191.63 125.406 192.88 122.945 198.32C121.456 201.613 120.629 205.863 117.835 211.584C115.861 215.627 120.38 223.441 117.967 225.647C115.554 227.854 115.848 229.368 116.686 233.403C117.065 235.228 117.354 238.08 118.167 241.561C120.293 250.664 132.253 267.451 129.966 263.174C126.626 256.931 127.863 248.843 125.34 243.591C124.192 241.201 124.261 237.618 125.108 231.155C125.396 228.956 124.192 223.903 125.095 221.102C126.2 217.677 125.822 213.972 125.318 210.821C124.895 208.177 124.276 206.755 126.659 202.602C129.758 197.203 127.443 197.194 133.593 189.16Z" fill="url(#paint43_radial_440_436)"/>
<g opacity="0.7">
<mask id="mask3_440_436" style="mask-type:luminance" maskUnits="userSpaceOnUse" x="135" y="174" width="66" height="69">
<path d="M175.719 175.196C193.019 179.425 203.449 197.648 198.996 215.863C194.543 234.078 176.882 245.434 159.583 241.205C142.284 236.976 131.853 218.753 136.306 200.538C140.759 182.323 158.42 170.967 175.719 175.196Z" fill="url(#paint44_radial_440_436)"/>
</mask>
<g mask="url(#mask3_440_436)">
<path d="M175.719 175.196C193.019 179.425 203.449 197.648 198.996 215.863C194.543 234.078 176.882 245.434 159.583 241.205C142.284 236.976 131.853 218.753 136.306 200.538C140.759 182.323 158.42 170.967 175.719 175.196Z" fill="url(#paint45_radial_440_436)"/>
</g>
</g>
<path d="M155.222 171.584C152.842 168.968 145.676 173.575 146.714 176.246C147.752 178.916 157.602 174.201 155.222 171.584Z" fill="#062802"/>
<path d="M151.493 174.234C156.598 172.07 150.638 165.986 146.838 164.56C143.664 163.371 148.033 156.258 143.518 158.429C139.035 160.585 140.477 169.432 145.404 169.648C149.211 169.815 148.05 175.694 151.493 174.234Z" fill="#527824"/>
<path d="M87.1743 225.21C69.7121 223.633 57.2079 250.007 76.1981 269.781C84.5103 278.436 93.551 273.13 97.5735 273.699C101.744 274.289 105.996 282.764 121.586 275.98C145.407 265.615 146.078 233.881 124.979 231.007C120.113 230.344 114.436 231.525 105.852 230.199C96.9737 228.827 93.1936 225.754 87.1743 225.21Z" fill="url(#paint46_radial_440_436)"/>
<path d="M87.1743 225.21C69.7121 223.633 57.2079 250.007 76.1981 269.781C84.5103 278.436 93.551 273.13 97.5735 273.699C101.744 274.289 105.996 282.764 121.586 275.98C145.407 265.615 146.078 233.881 124.979 231.007C120.113 230.344 114.436 231.525 105.852 230.199C96.9737 228.827 93.1936 225.754 87.1743 225.21Z" stroke="#6F040F" stroke-width="5.97416"/>
<g opacity="0.7">
<mask id="mask4_440_436" style="mask-type:luminance" maskUnits="userSpaceOnUse" x="70" y="225" width="33" height="26">
<path d="M88.1044 225.636C96.8596 226.874 103.174 233.492 102.196 240.403C101.218 247.313 93.3156 251.919 84.5604 250.68C75.8052 249.441 69.4907 242.824 70.4687 235.913C71.4467 229.002 79.3493 224.397 88.1044 225.636Z" fill="url(#paint47_radial_440_436)"/>
</mask>
<g mask="url(#mask4_440_436)">
<path d="M88.1044 225.636C96.8596 226.874 103.174 233.492 102.196 240.403C101.218 247.313 93.3156 251.919 84.5604 250.68C75.8052 249.441 69.4907 242.824 70.4687 235.913C71.4467 229.002 79.3493 224.397 88.1044 225.636Z" fill="url(#paint48_radial_440_436)"/>
</g>
</g>
<path d="M102.698 229.179C112.787 230.835 104.026 205.987 87.9465 207.476C85.9351 213.995 90.4457 227.167 102.698 229.179Z" fill="url(#paint49_radial_440_436)"/>
<path d="M102.698 229.179C112.787 230.835 104.026 205.987 87.9465 207.476C85.9351 213.995 90.4457 227.167 102.698 229.179Z" stroke="#1E6A03" stroke-width="5.97416"/>
<path d="M124.371 220.027C127.954 217.89 116.936 211.719 115.093 214.533C110.835 221.031 101.253 229.724 104.877 232.193C106.761 233.477 118.426 223.571 124.371 220.027Z" fill="#3B2716"/>
<path d="M60.5473 129.471L67.2746 282.924" stroke="#82817F" stroke-width="8" stroke-linecap="round" stroke-linejoin="round"/>
<path d="M106.406 126.821L101.504 285.612" stroke="#82817F" stroke-width="8" stroke-linecap="round" stroke-linejoin="round"/>
<path d="M161.659 123.477L148.465 289.237" stroke="#82817F" stroke-width="8" stroke-linecap="round" stroke-linejoin="round"/>
<path d="M213.139 120.59L188.442 292.188" stroke="#82817F" stroke-width="8" stroke-linecap="round" stroke-linejoin="round"/>
<path d="M266.058 117.375L234.423 295.704" stroke="#82817F" stroke-width="8" stroke-linecap="round" stroke-linejoin="round"/>
<path d="M321.133 114.322L280.92 298.939" stroke="#82817F" stroke-width="8" stroke-linecap="round" stroke-linejoin="round"/>
<path d="M372.039 110.913L324.51 302.36" stroke="#82817F" stroke-width="8" stroke-linecap="round" stroke-linejoin="round"/>
<path d="M104.395 126.821L99.4927 285.612" stroke="#BAB6B1" stroke-width="4" stroke-linecap="round" stroke-linejoin="round"/>
<path d="M159.649 123.477L146.455 289.237" stroke="#BAB6B1" stroke-width="4" stroke-linecap="round" stroke-linejoin="round"/>
<path d="M211.129 120.59L186.431 292.188" stroke="#BAB6B1" stroke-width="4" stroke-linecap="round" stroke-linejoin="round"/>
<path d="M264.047 117.375L232.412 295.704" stroke="#BAB6B1" stroke-width="4" stroke-linecap="round" stroke-linejoin="round"/>
<path d="M319.122 114.322L278.908 298.939" stroke="#BAB6B1" stroke-width="4" stroke-linecap="round" stroke-linejoin="round"/>
<path d="M369.945 110.913L322.416 302.36" stroke="#BAB6B1" stroke-width="4" stroke-linecap="round" stroke-linejoin="round"/>
<path d="M58.4333 127.403L65.1606 280.857" stroke="#D7DADC" stroke-width="4" stroke-linecap="round" stroke-linejoin="round"/>
<path d="M385.858 404.999H413.982L425.316 445.89C425.918 447.812 424.482 449.766 422.466 449.766C421.609 449.766 420.795 449.399 420.228 448.756L385.858 404.999Z" fill="url(#paint50_linear_440_436)"/>
<path d="M385.858 404.999H413.982L425.316 445.89C425.918 447.812 424.482 449.766 422.466 449.766C421.609 449.766 420.795 449.399 420.228 448.756L385.858 404.999Z" stroke="#918E8D" stroke-width="8.31264" stroke-linecap="round" stroke-linejoin="round"/>
<path d="M153.754 398.25L385.14 375.143L400.944 357.432" stroke="#82817F" stroke-width="8" stroke-linecap="round" stroke-linejoin="round"/>
<path d="M152.489 395.834L383.874 372.728L399.679 355.018" stroke="#BFBFBF" stroke-width="3" stroke-linecap="round" stroke-linejoin="round"/>
<path d="M154.961 400.628L385.55 377.6C386.063 377.549 386.536 377.308 386.879 376.923L402.151 359.811" stroke="#454141" stroke-width="3" stroke-linecap="round" stroke-linejoin="round"/>
<path d="M426.795 353.332L400.751 360.963" stroke="#82817F" stroke-width="8" stroke-linecap="round" stroke-linejoin="round"/>
<path d="M427.889 350.834L401.845 358.465" stroke="#BFBFBF" stroke-width="3" stroke-linecap="round" stroke-linejoin="round"/>
<path d="M426.492 355.803L399.648 363.392" stroke="#454141" stroke-width="3" stroke-linecap="round" stroke-linejoin="round"/>
<path d="M125.361 397.174L126.327 397.137" stroke="#82817F" stroke-width="10" stroke-linecap="round" stroke-linejoin="round"/>
<path d="M126.454 394.677L127.422 394.64" stroke="#BFBFBF" stroke-width="5" stroke-linecap="round" stroke-linejoin="round"/>
<path d="M125.057 399.645L125.225 399.566" stroke="#454141" stroke-width="5" stroke-linecap="round" stroke-linejoin="round"/>
<path d="M195.614 394.665L196.58 394.628" stroke="#82817F" stroke-width="10" stroke-linecap="round" stroke-linejoin="round"/>
<path d="M196.707 392.168L197.675 392.131" stroke="#BFBFBF" stroke-width="5" stroke-linecap="round" stroke-linejoin="round"/>
<path d="M195.31 397.136L195.478 397.057" stroke="#454141" stroke-width="5" stroke-linecap="round" stroke-linejoin="round"/>
<path d="M275.81 300.402L315.461 344.207C323.227 352.786 322.064 366.121 312.976 373.285C306.396 378.472 297.222 383.572 284.858 386.291" stroke="#8E8D8D" stroke-width="15" stroke-linecap="round" stroke-linejoin="round"/>
<path d="M325.915 361.027C325.095 367.226 322.053 373.135 316.913 377.346C308.961 383.862 297.874 390.267 282.932 393.682" stroke="#454141" stroke-width="4" stroke-linecap="round" stroke-linejoin="round"/>
<mask id="mask5_440_436" style="mask-type:luminance" maskUnits="userSpaceOnUse" x="270" y="295" width="48" height="51">
<path d="M270.436 305.346L306.958 345.012L317.002 334.966L281.864 295.36L270.436 305.346Z" fill="url(#paint51_linear_440_436)"/>
</mask>
<g mask="url(#mask5_440_436)">
<path d="M270.436 305.346L306.958 345.012L317.002 334.966L281.864 295.36L270.436 305.346Z" fill="url(#paint52_linear_440_436)"/>
</g>
<path d="M297.641 332.814L311.278 347.879C316.859 354.045 316.023 363.629 309.492 368.779" stroke="#BAB6B1" stroke-width="4" stroke-linecap="round" stroke-linejoin="round"/>
<path d="M316.253 343.702C325.72 354.335 320.096 368.459 310.964 374.742C309.096 376.521 310.596 380.21 313.946 377.822C321.909 372.147 333.096 356.71 319.181 340.778C316.658 338.522 313.659 340.959 316.253 343.702Z" fill="url(#paint53_radial_440_436)"/>
<path d="M361.418 302.372L400.944 341.92V393.672L97.0335 399.301L63.6705 415.157C62.2075 415.852 60.6395 416.304 59.0295 416.494" stroke="#8E8D8D" stroke-width="15" stroke-linecap="round" stroke-linejoin="round"/>
<mask id="mask6_440_436" style="mask-type:luminance" maskUnits="userSpaceOnUse" x="358" y="299" width="41" height="42">
<path d="M358.004 309.952L389.527 340.493L398.821 329.822L370.057 299.966L358.004 309.952Z" fill="url(#paint54_linear_440_436)"/>
</mask>
<g mask="url(#mask6_440_436)">
<path d="M358.004 309.952L389.527 340.493L398.821 329.822L370.057 299.966L358.004 309.952Z" fill="url(#paint55_linear_440_436)"/>
</g>
<path d="M375.754 318.452C383.034 325.585 389.034 331.649 396.777 339.244C399.284 341.336 401.721 338.398 399.321 336.073C392.097 328.899 385.283 322.21 378.682 315.528C376.159 313.273 373.159 315.71 375.754 318.452Z" fill="url(#paint56_radial_440_436)"/>
<path d="M400.686 354.432C400.773 364.624 400.714 373.154 400.802 384C401.09 387.253 404.891 386.905 404.844 383.564C404.825 373.382 404.752 363.835 404.824 354.442C404.64 351.063 400.796 350.659 400.686 354.432Z" fill="url(#paint57_radial_440_436)"/>
<path d="M391.804 388.125L95.7205 393.683L62.0415 409.8C60.6205 410.551 59.3675 410.961 58.0775 411.061" stroke="#BCBCBC" stroke-width="4" stroke-linecap="round" stroke-linejoin="round"/>
<path d="M401.944 399.236L98.8735 404.864L64.9545 420.721C63.4905 421.417 61.9235 421.868 60.3135 422.057" stroke="#454141" stroke-width="4" stroke-linecap="round" stroke-linejoin="round"/>
<path d="M395.43 344.21V379.843V384.947" stroke="#6B6868" stroke-width="4" stroke-linecap="round" stroke-linejoin="round"/>
<path d="M355.904 304.663L395.429 344.211" stroke="#454141" stroke-width="4" stroke-linecap="round" stroke-linejoin="round"/>
<path d="M420.757 108.244L55.2522 127.509" stroke="#82817F" stroke-width="8" stroke-linecap="round" stroke-linejoin="round"/>
<path d="M420.757 106.177L55.2522 125.443" stroke="#BFC0C1" stroke-width="4" stroke-linecap="round" stroke-linejoin="round"/>
<path d="M58.5389 235.248L376.888 251.544" stroke="#82817F" stroke-width="8" stroke-linecap="round" stroke-linejoin="round"/>
<path d="M56.5248 207.229L389.566 210.06" stroke="#82817F" stroke-width="8" stroke-linecap="round" stroke-linejoin="round"/>
<path d="M401.284 171.71L54.206 177.548" stroke="#82817F" stroke-width="8" stroke-linecap="round" stroke-linejoin="round"/>
<path d="M54.206 152.126L412.947 133.541" stroke="#82817F" stroke-width="8" stroke-linecap="round" stroke-linejoin="round"/>
<path d="M60.657 264.003L365.001 290.442" stroke="#82817F" stroke-width="8" stroke-linecap="round" stroke-linejoin="round"/>
<path d="M58.559 233.198L376.909 249.494" stroke="#BFC0C1" stroke-width="4" stroke-linecap="round" stroke-linejoin="round"/>
<path d="M56.5248 205.153L389.566 207.983" stroke="#BFC0C1" stroke-width="4" stroke-linecap="round" stroke-linejoin="round"/>
<path d="M401.284 169.564L54.206 175.402" stroke="#BFC0C1" stroke-width="4" stroke-linecap="round" stroke-linejoin="round"/>
<path d="M54.206 150.096L412.947 131.51" stroke="#BFC0C1" stroke-width="4" stroke-linecap="round" stroke-linejoin="round"/>
<path d="M60.657 262.003L365.001 288.442" stroke="#BFC0C1" stroke-width="4" stroke-linecap="round" stroke-linejoin="round"/>
<path d="M58.5389 238.259L373.1 254.394" stroke="#5B5757" stroke-width="2" stroke-linecap="round" stroke-linejoin="round"/>
<path d="M56.5248 210.241L385.729 213.071" stroke="#5B5757" stroke-width="2" stroke-linecap="round" stroke-linejoin="round"/>
<path d="M397.394 174.893L54.206 180.625" stroke="#5B5757" stroke-width="2" stroke-linecap="round" stroke-linejoin="round"/>
<path d="M54.206 155.197L409.023 136.838" stroke="#5B5757" stroke-width="2" stroke-linecap="round" stroke-linejoin="round"/>
<path d="M60.657 267.034L361.248 293.178" stroke="#5B5757" stroke-width="2" stroke-linecap="round" stroke-linejoin="round"/>
<path d="M387.211 296.943L370.895 302.229" stroke="#82817F" stroke-width="15" stroke-linecap="round" stroke-linejoin="round"/>
<path d="M389.545 297.573L369.115 304.075" stroke="#AAA9A2" stroke-width="4" stroke-linecap="round" stroke-linejoin="round"/>
<path d="M386.665 294.063L367.617 300.365" stroke="#BFC0C1" stroke-width="4" stroke-linecap="round" stroke-linejoin="round"/>
<path d="M363.855 310.655L390.475 302.122" stroke="#454141" stroke-width="4" stroke-linecap="round" stroke-linejoin="round"/>
<path d="M462.335 56.4858L425.852 91.3108L360.432 305.401L59.9385 282.821" stroke="#82817F" stroke-width="15" stroke-linecap="round" stroke-linejoin="round"/>
<path d="M464.787 53.146L425.851 90.312L360.963 302.662C360.652 303.679 359.678 304.345 358.617 304.266L54.8685 281.555" stroke="#AAA9A2" stroke-width="4" stroke-linecap="round" stroke-linejoin="round"/>
<path d="M460.335 53.4858L423.852 88.3108L359.402 299.224C359.052 300.369 357.954 301.119 356.76 301.03L57.7895 278.602" stroke="#BFC0C1" stroke-width="4" stroke-linecap="round" stroke-linejoin="round"/>
<path d="M399.879 195.172L366.016 306.6C365.15 309.438 362.431 311.295 359.472 311.069L63.2654 288.685" stroke="#454141" stroke-width="4" stroke-linecap="round" stroke-linejoin="round"/>
<path d="M466.145 59.8438L430.422 95.0417" stroke="#454141" stroke-width="4" stroke-linecap="round" stroke-linejoin="round"/>
<path d="M106.154 410.169L134.79 410.124L139.272 446.332C139.515 448.223 138.042 449.897 136.135 449.897C135.124 449.897 134.173 449.413 133.578 448.594L106.154 410.169Z" fill="url(#paint58_linear_440_436)"/>
<path d="M106.154 410.169L134.79 410.124L139.272 446.332C139.515 448.223 138.042 449.897 136.135 449.897C135.124 449.897 134.173 449.413 133.578 448.594L106.154 410.169Z" stroke="#918E8D" stroke-width="8" stroke-linecap="round" stroke-linejoin="round"/>
<path d="M52.8144 123.45L52.6719 140.21L53.739 140.22L80.1737 140.478L80.2344 123.403L53.9157 123.448L52.8144 123.45Z" fill="url(#paint59_linear_440_436)"/>
<path d="M52.8144 123.45L52.6719 140.21L53.739 140.22L80.1737 140.478L80.2344 123.403L53.9157 123.448L52.8144 123.45Z" stroke="#0A1419" stroke-width="7.88352" stroke-linecap="round" stroke-linejoin="round"/>
</g>
</g>
<defs>
<linearGradient id="paint0_linear_440_436" x1="308.087" y1="304.627" x2="337.963" y2="336.678" gradientUnits="userSpaceOnUse">
<stop offset="0.28" stop-color="white" stop-opacity="0.7"/>
<stop offset="0.57" stop-color="white" stop-opacity="0.35"/>
<stop offset="1" stop-color="white" stop-opacity="0"/>
</linearGradient>
<linearGradient id="paint1_linear_440_436" x1="308.087" y1="304.627" x2="337.963" y2="336.678" gradientUnits="userSpaceOnUse">
<stop offset="0.28" stop-color="#4E4A49"/>
<stop offset="0.53" stop-color="#4E4A49"/>
<stop offset="1" stop-color="#4E4A49"/>
</linearGradient>
<radialGradient id="paint2_radial_440_436" cx="0" cy="0" r="1" gradientUnits="userSpaceOnUse" gradientTransform="translate(347.961 357.44) rotate(-0.037) scale(19.4533)">
<stop offset="0.27" stop-color="#C8C9CA"/>
<stop offset="0.53" stop-color="#ABABAC"/>
<stop offset="1" stop-color="#8E8D8D"/>
</radialGradient>
<linearGradient id="paint3_linear_440_436" x1="385.337" y1="298.253" x2="412.713" y2="324.304" gradientUnits="userSpaceOnUse">
<stop offset="0.28" stop-color="white" stop-opacity="0.7"/>
<stop offset="0.57" stop-color="white" stop-opacity="0.35"/>
<stop offset="1" stop-color="white" stop-opacity="0"/>
</linearGradient>
<linearGradient id="paint4_linear_440_436" x1="385.337" y1="298.253" x2="412.713" y2="324.304" gradientUnits="userSpaceOnUse">
<stop offset="0.28" stop-color="#4E4A49"/>
<stop offset="0.53" stop-color="#4E4A49"/>
<stop offset="1" stop-color="#4E4A49"/>
</linearGradient>
<radialGradient id="paint5_radial_440_436" cx="0" cy="0" r="1" gradientUnits="userSpaceOnUse" gradientTransform="translate(412.399 322.502) rotate(-0.037) scale(17.0512 17.0512)">
<stop offset="0.27" stop-color="#BEBFC0"/>
<stop offset="0.53" stop-color="#9A9899"/>
<stop offset="1" stop-color="#757272"/>
</radialGradient>
<radialGradient id="paint6_radial_440_436" cx="0" cy="0" r="1" gradientUnits="userSpaceOnUse" gradientTransform="translate(428.189 364.08) rotate(45.055) scale(17.0529)">
<stop offset="0.27" stop-color="#BEBFC0"/>
<stop offset="0.53" stop-color="#A6A6A7"/>
<stop offset="1" stop-color="#8E8D8D"/>
</radialGradient>
<linearGradient id="paint7_linear_440_436" x1="79.711" y1="125.189" x2="101.677" y2="138.385" gradientUnits="userSpaceOnUse">
<stop stop-color="#24465B"/>
<stop offset="0.5" stop-color="#213746"/>
<stop offset="1" stop-color="#1F2831"/>
</linearGradient>
<linearGradient id="paint8_linear_440_436" x1="79.711" y1="125.189" x2="101.677" y2="138.385" gradientUnits="userSpaceOnUse">
<stop stop-color="#24465B"/>
<stop offset="0.5" stop-color="#213746"/>
<stop offset="1" stop-color="#1F2831"/>
</linearGradient>
<linearGradient id="paint9_linear_440_436" x1="143.989" y1="410.435" x2="157.364" y2="441.56" gradientUnits="userSpaceOnUse">
<stop stop-color="#4C4C4C"/>
<stop offset="0.5" stop-color="#262626"/>
<stop offset="1"/>
</linearGradient>
<linearGradient id="paint10_linear_440_436" x1="147.147" y1="413.89" x2="175.738" y2="454.988" gradientUnits="userSpaceOnUse">
<stop stop-color="#4C4645"/>
<stop offset="0.51" stop-color="#6A6565"/>
<stop offset="1" stop-color="#888485"/>
</linearGradient>
<linearGradient id="paint11_linear_440_436" x1="148.869" y1="410.529" x2="161.583" y2="440.116" gradientUnits="userSpaceOnUse">
<stop stop-color="#BCBCBC"/>
<stop offset="0.5" stop-color="#A5A4A4"/>
<stop offset="1" stop-color="#8E8D8D"/>
</linearGradient>
<linearGradient id="paint12_linear_440_436" x1="118.658" y1="414.771" x2="132.033" y2="445.896" gradientUnits="userSpaceOnUse">
<stop stop-color="#4C4C4C"/>
<stop offset="0.5" stop-color="#262626"/>
<stop offset="1"/>
</linearGradient>
<linearGradient id="paint13_linear_440_436" x1="121.746" y1="418.568" x2="151.823" y2="461.803" gradientUnits="userSpaceOnUse">
<stop stop-color="#4C4645"/>
<stop offset="0.51" stop-color="#6A6565"/>
<stop offset="1" stop-color="#888485"/>
</linearGradient>
<linearGradient id="paint14_linear_440_436" x1="429.489" y1="406.842" x2="454.364" y2="446.967" gradientUnits="userSpaceOnUse">
<stop stop-color="#4E4E4E"/>
<stop offset="0.5" stop-color="#595959"/>
<stop offset="1" stop-color="#646464"/>
</linearGradient>
<linearGradient id="paint15_linear_440_436" x1="436.322" y1="412.939" x2="468.049" y2="451.401" gradientUnits="userSpaceOnUse">
<stop stop-color="#4C4645"/>
<stop offset="0.51" stop-color="#6A6565"/>
<stop offset="1" stop-color="#888485"/>
</linearGradient>
<linearGradient id="paint16_linear_440_436" x1="429.62" y1="406.704" x2="455.468" y2="448.397" gradientUnits="userSpaceOnUse">
<stop stop-color="#BCBCBC"/>
<stop offset="0.5" stop-color="#A5A4A4"/>
<stop offset="1" stop-color="#8E8D8D"/>
</linearGradient>
<linearGradient id="paint17_linear_440_436" x1="404.158" y1="411.178" x2="429.033" y2="451.303" gradientUnits="userSpaceOnUse">
<stop stop-color="#4E4E4E"/>
<stop offset="0.5" stop-color="#595959"/>
<stop offset="1" stop-color="#646464"/>
</linearGradient>
<linearGradient id="paint18_linear_440_436" x1="410.992" y1="417.275" x2="442.719" y2="455.737" gradientUnits="userSpaceOnUse">
<stop stop-color="#4C4645"/>
<stop offset="0.51" stop-color="#6A6565"/>
<stop offset="1" stop-color="#888485"/>
</linearGradient>
<radialGradient id="paint19_radial_440_436" cx="0" cy="0" r="1" gradientUnits="userSpaceOnUse" gradientTransform="translate(359.174 233.921) rotate(7.952) scale(48.7197 48.5409)">
<stop stop-color="#93CB3A"/>
<stop offset="0.73" stop-color="#648D23"/>
<stop offset="1" stop-color="#354F0C"/>
</radialGradient>
<linearGradient id="paint20_linear_440_436" x1="334.233" y1="165.332" x2="359.676" y2="169.357" gradientUnits="userSpaceOnUse">
<stop stop-color="#78623C"/>
<stop offset="0.48" stop-color="#B19A6C"/>
<stop offset="1" stop-color="#EAD29D"/>
</linearGradient>
<linearGradient id="paint21_linear_440_436" x1="313.303" y1="264.161" x2="364.428" y2="270.925" gradientUnits="userSpaceOnUse">
<stop stop-color="#78623C"/>
<stop offset="0.48" stop-color="#B19A6C"/>
<stop offset="1" stop-color="#EAD29D"/>
</linearGradient>
<linearGradient id="paint22_linear_440_436" x1="216.12" y1="133.027" x2="227.359" y2="51.7835" gradientUnits="userSpaceOnUse">
<stop stop-color="#CF56A6"/>
<stop offset="0.48" stop-color="#D970B7"/>
<stop offset="1" stop-color="#E389C9"/>
</linearGradient>
<linearGradient id="paint23_linear_440_436" x1="216.12" y1="133.027" x2="227.359" y2="51.7835" gradientUnits="userSpaceOnUse">
<stop stop-color="#D556AA"/>
<stop offset="0.48" stop-color="#EA6BC2"/>
<stop offset="1" stop-color="#FF80D9"/>
</linearGradient>
<linearGradient id="paint24_linear_440_436" x1="273.476" y1="271.595" x2="208.769" y2="147.886" gradientUnits="userSpaceOnUse">
<stop stop-color="#EA62BC"/>
<stop offset="0.48" stop-color="#F57ECF"/>
<stop offset="1" stop-color="#FF9AE1"/>
</linearGradient>
<linearGradient id="paint25_linear_440_436" x1="273.476" y1="271.595" x2="208.769" y2="147.886" gradientUnits="userSpaceOnUse">
<stop stop-color="#F959CB"/>
<stop offset="0.38" stop-color="#F869CE"/>
<stop offset="1" stop-color="#F678D0"/>
</linearGradient>
<linearGradient id="paint26_linear_440_436" x1="141.44" y1="259.366" x2="168.426" y2="108.107" gradientUnits="userSpaceOnUse">
<stop stop-color="#C140B3"/>
<stop offset="0.48" stop-color="#CE45B7"/>
<stop offset="1" stop-color="#DB4ABA"/>
</linearGradient>
<linearGradient id="paint27_linear_440_436" x1="241.001" y1="143.644" x2="252.872" y2="58.8679" gradientUnits="userSpaceOnUse">
<stop stop-color="#CF56A6"/>
<stop offset="0.48" stop-color="#D970B7"/>
<stop offset="1" stop-color="#E389C9"/>
</linearGradient>
<linearGradient id="paint28_linear_440_436" x1="241.001" y1="143.644" x2="252.872" y2="58.8679" gradientUnits="userSpaceOnUse">
<stop stop-color="#EA62BC"/>
<stop offset="0.48" stop-color="#F57ECF"/>
<stop offset="1" stop-color="#FF9AE1"/>
</linearGradient>
<linearGradient id="paint29_linear_440_436" x1="97.1503" y1="126.348" x2="148.439" y2="129.918" gradientUnits="userSpaceOnUse">
<stop stop-color="#C46D3C"/>
<stop offset="0.19" stop-color="#E1A262"/>
<stop offset="0.53" stop-color="#FED888"/>
<stop offset="0.78" stop-color="#D79857"/>
<stop offset="1" stop-color="#B05827"/>
</linearGradient>
<linearGradient id="paint30_linear_440_436" x1="139.212" y1="86.0637" x2="122.097" y2="68.0668" gradientUnits="userSpaceOnUse">
<stop stop-color="#FDEABF"/>
<stop offset="0.61" stop-color="#EDC78E"/>
<stop offset="1" stop-color="#DDA45C"/>
</linearGradient>
<linearGradient id="paint31_linear_440_436" x1="100.773" y1="102.222" x2="135.343" y2="61.1647" gradientUnits="userSpaceOnUse">
<stop stop-color="#FDEABF"/>
<stop offset="0.83" stop-color="#E0B779"/>
<stop offset="1" stop-color="#C38434"/>
</linearGradient>
<linearGradient id="paint32_linear_440_436" x1="138.841" y1="137.345" x2="121.726" y2="119.348" gradientUnits="userSpaceOnUse">
<stop stop-color="#FDEABF"/>
<stop offset="0.61" stop-color="#EDC78E"/>
<stop offset="1" stop-color="#DDA45C"/>
</linearGradient>
<linearGradient id="paint33_linear_440_436" x1="100.402" y1="153.503" x2="134.972" y2="112.446" gradientUnits="userSpaceOnUse">
<stop stop-color="#FDEABF"/>
<stop offset="0.83" stop-color="#E0B779"/>
<stop offset="1" stop-color="#C38434"/>
</linearGradient>
<linearGradient id="paint34_linear_440_436" x1="138.194" y1="185.627" x2="121.079" y2="167.631" gradientUnits="userSpaceOnUse">
<stop stop-color="#FDEABF"/>
<stop offset="0.61" stop-color="#EDC78E"/>
<stop offset="1" stop-color="#DDA45C"/>
</linearGradient>
<linearGradient id="paint35_linear_440_436" x1="99.7547" y1="201.786" x2="134.325" y2="160.728" gradientUnits="userSpaceOnUse">
<stop stop-color="#FDEABF"/>
<stop offset="0.83" stop-color="#E0B779"/>
<stop offset="1" stop-color="#C38434"/>
</linearGradient>
<radialGradient id="paint36_radial_440_436" cx="0" cy="0" r="1" gradientUnits="userSpaceOnUse" gradientTransform="translate(170.992 212.324) rotate(13.7371) scale(59.8945 63.0648)">
<stop stop-color="#97D92E"/>
<stop offset="0.73" stop-color="#6B9F18"/>
<stop offset="1" stop-color="#3F6503"/>
</radialGradient>
<radialGradient id="paint37_radial_440_436" cx="0" cy="0" r="1" gradientUnits="userSpaceOnUse" gradientTransform="translate(180.412 171.943) rotate(-0.550889) scale(52.4463 54.8928)">
<stop stop-color="#3C7630"/>
<stop offset="0.73" stop-color="#225C19"/>
<stop offset="1" stop-color="#084102"/>
</radialGradient>
<radialGradient id="paint38_radial_440_436" cx="0" cy="0" r="1" gradientUnits="userSpaceOnUse" gradientTransform="translate(177.818 161.867) rotate(-20.3552) scale(53.1138 54.203)">
<stop stop-color="#3C7630"/>
<stop offset="0.73" stop-color="#204F18"/>
<stop offset="1" stop-color="#052801"/>
</radialGradient>
<radialGradient id="paint39_radial_440_436" cx="0" cy="0" r="1" gradientUnits="userSpaceOnUse" gradientTransform="translate(177.375 183.741) rotate(13.7371) scale(67.8292 71.4196)">
<stop stop-color="#3C7630"/>
<stop offset="0.73" stop-color="#225C19"/>
<stop offset="1" stop-color="#084102"/>
</radialGradient>
<radialGradient id="paint40_radial_440_436" cx="0" cy="0" r="1" gradientUnits="userSpaceOnUse" gradientTransform="translate(171.709 190.014) rotate(27.4628) scale(68.0171 71.2222)">
<stop stop-color="#3C7630"/>
<stop offset="0.73" stop-color="#225C19"/>
<stop offset="1" stop-color="#084102"/>
</radialGradient>
<radialGradient id="paint41_radial_440_436" cx="0" cy="0" r="1" gradientUnits="userSpaceOnUse" gradientTransform="translate(164.089 197.224) rotate(45.075) scale(68.7466 70.4665)">
<stop stop-color="#3C7630"/>
<stop offset="0.73" stop-color="#225C19"/>
<stop offset="1" stop-color="#084102"/>
</radialGradient>
<radialGradient id="paint42_radial_440_436" cx="0" cy="0" r="1" gradientUnits="userSpaceOnUse" gradientTransform="translate(135.297 205.053) rotate(64.9376) scale(54.1522 53.6241)">
<stop stop-color="#3C7630"/>
<stop offset="0.73" stop-color="#225C19"/>
<stop offset="1" stop-color="#084102"/>
</radialGradient>
<radialGradient id="paint43_radial_440_436" cx="0" cy="0" r="1" gradientUnits="userSpaceOnUse" gradientTransform="translate(135.366 184.975) rotate(91.5542) scale(54.1199 51.648)">
<stop stop-color="#3C7630"/>
<stop offset="0.73" stop-color="#225C19"/>
<stop offset="1" stop-color="#084102"/>
</radialGradient>
<radialGradient id="paint44_radial_440_436" cx="0" cy="0" r="1" gradientUnits="userSpaceOnUse" gradientTransform="translate(167.651 208.2) rotate(13.7371) scale(31.2437 32.8975)">
<stop stop-color="white"/>
<stop offset="0.5" stop-color="white" stop-opacity="0.5"/>
<stop offset="1" stop-color="white" stop-opacity="0"/>
</radialGradient>
<radialGradient id="paint45_radial_440_436" cx="0" cy="0" r="1" gradientUnits="userSpaceOnUse" gradientTransform="translate(167.651 208.2) rotate(13.7371) scale(31.2437 32.8975)">
<stop stop-color="white"/>
<stop offset="0.35" stop-color="white"/>
<stop offset="1" stop-color="white"/>
</radialGradient>
<radialGradient id="paint46_radial_440_436" cx="0" cy="0" r="1" gradientUnits="userSpaceOnUse" gradientTransform="translate(89.9085 237.882) rotate(8.05448) scale(47.5242 37.5134)">
<stop stop-color="#FF2F34"/>
<stop offset="0.73" stop-color="#C11A23"/>
<stop offset="1" stop-color="#830411"/>
</radialGradient>
<radialGradient id="paint47_radial_440_436" cx="0" cy="0" r="1" gradientUnits="userSpaceOnUse" gradientTransform="translate(86.3324 238.158) rotate(8.05448) scale(15.5132 12.2454)">
<stop stop-color="white"/>
<stop offset="0.5" stop-color="white" stop-opacity="0.5"/>
<stop offset="1" stop-color="white" stop-opacity="0"/>
</radialGradient>
<radialGradient id="paint48_radial_440_436" cx="0" cy="0" r="1" gradientUnits="userSpaceOnUse" gradientTransform="translate(86.3324 238.158) rotate(8.05448) scale(15.5132 12.2454)">
<stop stop-color="white"/>
<stop offset="0.35" stop-color="white"/>
<stop offset="1" stop-color="white"/>
</radialGradient>
<radialGradient id="paint49_radial_440_436" cx="0" cy="0" r="1" gradientUnits="userSpaceOnUse" gradientTransform="translate(114.396 222.808) rotate(8.05448) scale(5.75042 4.53912)">
<stop stop-color="#4EAC15"/>
<stop offset="0.73" stop-color="#499F10"/>
<stop offset="1" stop-color="#44910A"/>
</radialGradient>
<linearGradient id="paint50_linear_440_436" x1="404.29" y1="411.039" x2="430.137" y2="452.732" gradientUnits="userSpaceOnUse">
<stop stop-color="#BCBCBC"/>
<stop offset="0.5" stop-color="#A5A4A4"/>
<stop offset="1" stop-color="#8E8D8D"/>
</linearGradient>
<linearGradient id="paint51_linear_440_436" x1="282.754" y1="308.788" x2="312.629" y2="340.84" gradientUnits="userSpaceOnUse">
<stop offset="0.28" stop-color="white" stop-opacity="0.7"/>
<stop offset="0.57" stop-color="white" stop-opacity="0.35"/>
<stop offset="1" stop-color="white" stop-opacity="0"/>
</linearGradient>
<linearGradient id="paint52_linear_440_436" x1="282.754" y1="308.788" x2="312.629" y2="340.84" gradientUnits="userSpaceOnUse">
<stop offset="0.28" stop-color="#4E4A49"/>
<stop offset="0.53" stop-color="#4E4A49"/>
<stop offset="1" stop-color="#4E4A49"/>
</linearGradient>
<radialGradient id="paint53_radial_440_436" cx="0" cy="0" r="1" gradientUnits="userSpaceOnUse" gradientTransform="translate(322.628 361.602) rotate(-0.037) scale(19.4533)">
<stop offset="0.27" stop-color="#C8C9CA"/>
<stop offset="0.53" stop-color="#ABABAC"/>
<stop offset="1" stop-color="#8E8D8D"/>
</radialGradient>
<linearGradient id="paint54_linear_440_436" x1="360.004" y1="302.414" x2="387.38" y2="328.466" gradientUnits="userSpaceOnUse">
<stop offset="0.28" stop-color="white" stop-opacity="0.7"/>
<stop offset="0.57" stop-color="white" stop-opacity="0.35"/>
<stop offset="1" stop-color="white" stop-opacity="0"/>
</linearGradient>
<linearGradient id="paint55_linear_440_436" x1="360.004" y1="302.414" x2="387.38" y2="328.466" gradientUnits="userSpaceOnUse">
<stop offset="0.28" stop-color="#4E4A49"/>
<stop offset="0.53" stop-color="#4E4A49"/>
<stop offset="1" stop-color="#4E4A49"/>
</linearGradient>
<radialGradient id="paint56_radial_440_436" cx="0" cy="0" r="1" gradientUnits="userSpaceOnUse" gradientTransform="translate(387.066 326.664) rotate(-0.037) scale(17.0512 17.0512)">
<stop offset="0.27" stop-color="#BEBFC0"/>
<stop offset="0.53" stop-color="#9A9899"/>
<stop offset="1" stop-color="#757272"/>
</radialGradient>
<radialGradient id="paint57_radial_440_436" cx="0" cy="0" r="1" gradientUnits="userSpaceOnUse" gradientTransform="translate(402.856 368.242) rotate(45.055) scale(17.0529)">
<stop offset="0.27" stop-color="#BEBFC0"/>
<stop offset="0.53" stop-color="#A6A6A7"/>
<stop offset="1" stop-color="#8E8D8D"/>
</radialGradient>
<linearGradient id="paint58_linear_440_436" x1="123.557" y1="415.033" x2="136.932" y2="446.158" gradientUnits="userSpaceOnUse">
<stop stop-color="#BCBCBC"/>
<stop offset="0.5" stop-color="#A5A4A4"/>
<stop offset="1" stop-color="#8E8D8D"/>
</linearGradient>
<linearGradient id="paint59_linear_440_436" x1="54.0319" y1="128.677" x2="75.9981" y2="141.873" gradientUnits="userSpaceOnUse">
<stop stop-color="#24465B"/>
<stop offset="0.5" stop-color="#213746"/>
<stop offset="1" stop-color="#1F2831"/>
</linearGradient>
<clipPath id="clip0_440_436">
<rect width="512" height="512" fill="white"/>
</clipPath>
</defs>
</svg>
