<svg xmlns="http://www.w3.org/2000/svg" xmlns:xlink="http://www.w3.org/1999/xlink" viewBox="0 0 512 512" width="512" height="512" style="width: 100%; height: 100%; transform: translate3d(0,0,0); content-visibility: visible;" preserveAspectRatio="xMidYMid meet"><defs><clipPath id="__lottie_element_2"><rect width="512" height="512" x="0" y="0"></rect></clipPath><linearGradient id="__lottie_element_8" spreadMethod="pad" gradientUnits="userSpaceOnUse" x1="40.59299850463867" y1="30.64699935913086" x2="-70.58300018310547" y2="-47.70600128173828"><stop offset="0%" stop-color="rgb(119,226,34)"></stop><stop offset="50%" stop-color="rgb(107,199,26)"></stop><stop offset="100%" stop-color="rgb(94,173,18)"></stop></linearGradient><radialGradient id="__lottie_element_9" spreadMethod="pad" gradientUnits="userSpaceOnUse" cx="-32.40700149536133" cy="-14.352999687194824" r="89.99144273383716" fx="-32.40700149536133" fy="-14.352999687194824"><stop offset="0%" stop-color="rgb(67,200,21)" stop-opacity="1"></stop><stop offset="50%" stop-color="rgb(67,200,21)" stop-opacity="0.5"></stop><stop offset="100%" stop-color="rgb(67,200,21)" stop-opacity="0"></stop></radialGradient><radialGradient id="__lottie_element_10" spreadMethod="pad" gradientUnits="userSpaceOnUse" cx="-72.96600341796875" cy="-82.35299682617188" r="69.26817687514833" fx="-72.96600341796875" fy="-82.35299682617188"><stop offset="0%" stop-color="rgb(152,224,36)" stop-opacity="0.800000011920929"></stop><stop offset="50%" stop-color="rgb(135,225,35)" stop-opacity="0.4000000059604645"></stop><stop offset="100%" stop-color="rgb(119,226,34)" stop-opacity="0"></stop></radialGradient><linearGradient id="__lottie_element_11" spreadMethod="pad" gradientUnits="userSpaceOnUse" x1="45.034000396728516" y1="23.64699935913086" x2="-38.375999450683594" y2="-35.137001037597656"><stop offset="0%" stop-color="rgb(41,127,0)" stop-opacity="0.5"></stop><stop offset="50%" stop-color="rgb(41,127,0)" stop-opacity="0.75"></stop><stop offset="100%" stop-color="rgb(41,127,0)" stop-opacity="1"></stop></linearGradient><linearGradient id="__lottie_element_12" spreadMethod="pad" gradientUnits="userSpaceOnUse" x1="-12.38700008392334" y1="-3.8489999771118164" x2="15.979999542236328" y2="18.968000411987305"><stop offset="0%" stop-color="rgb(138,249,58)" stop-opacity="0.20000000298023224"></stop><stop offset="50%" stop-color="rgb(138,249,58)" stop-opacity="0.6000000238418579"></stop><stop offset="100%" stop-color="rgb(138,249,58)" stop-opacity="1"></stop></linearGradient><radialGradient id="__lottie_element_13" spreadMethod="pad" gradientUnits="userSpaceOnUse" cx="1.593000054359436" cy="-28.00200080871582" r="112.13800275325775" fx="1.593000054359436" fy="-28.00200080871582"><stop offset="0%" stop-color="rgb(197,255,113)" stop-opacity="0"></stop><stop offset="49%" stop-color="rgb(184,255,114)" stop-opacity="0.5"></stop><stop offset="99%" stop-color="rgb(170,255,115)" stop-opacity="1"></stop></radialGradient><radialGradient id="__lottie_element_16" spreadMethod="pad" gradientUnits="userSpaceOnUse"><stop></stop><stop></stop><stop></stop></radialGradient><radialGradient id="__lottie_element_20" spreadMethod="pad" gradientUnits="userSpaceOnUse" cx="-0.5199999809265137" cy="0.03700000047683716" r="23.179999828338623" fx="-0.5199999809265137" fy="0.03700000047683716"><stop offset="0%" stop-color="rgb(176,255,83)"></stop><stop offset="50%" stop-color="rgb(159,254,89)"></stop><stop offset="100%" stop-color="rgb(141,254,95)"></stop></radialGradient><linearGradient id="__lottie_element_24" spreadMethod="pad" gradientUnits="userSpaceOnUse" x1="-2.119999885559082" y1="-83.29499816894531" x2="3.5269999504089355" y2="81.88200378417969"><stop offset="0%" stop-color="rgb(119,226,34)"></stop><stop offset="50%" stop-color="rgb(100,192,26)"></stop><stop offset="100%" stop-color="rgb(82,157,18)"></stop></linearGradient><radialGradient id="__lottie_element_25" spreadMethod="pad" gradientUnits="userSpaceOnUse" cx="-38.119998931884766" cy="-8.295000076293945" r="107.15550110930161" fx="-38.119998931884766" fy="-8.295000076293945"><stop offset="0%" stop-color="rgb(67,200,21)" stop-opacity="1"></stop><stop offset="50%" stop-color="rgb(67,200,21)" stop-opacity="0.5"></stop><stop offset="100%" stop-color="rgb(67,200,21)" stop-opacity="0"></stop></radialGradient><radialGradient id="__lottie_element_26" spreadMethod="pad" gradientUnits="userSpaceOnUse" cx="22.8799991607666" cy="78.70500183105469" r="46.12923384523811" fx="22.8799991607666" fy="78.70500183105469"><stop offset="0%" stop-color="rgb(152,224,36)" stop-opacity="0.800000011920929"></stop><stop offset="50%" stop-color="rgb(135,225,35)" stop-opacity="0.4000000059604645"></stop><stop offset="100%" stop-color="rgb(119,226,34)" stop-opacity="0"></stop></radialGradient><linearGradient id="__lottie_element_27" spreadMethod="pad" gradientUnits="userSpaceOnUse" x1="33.4119987487793" y1="62.6349983215332" x2="6.940999984741211" y2="-39.012001037597656"><stop offset="0%" stop-color="rgb(41,127,0)" stop-opacity="0.5"></stop><stop offset="50%" stop-color="rgb(41,127,0)" stop-opacity="0.75"></stop><stop offset="100%" stop-color="rgb(41,127,0)" stop-opacity="1"></stop></linearGradient><radialGradient id="__lottie_element_28" spreadMethod="pad" gradientUnits="userSpaceOnUse" cx="6.343999862670898" cy="0.32899999618530273" r="64.80914217654464" fx="6.343999862670898" fy="0.32899999618530273"><stop offset="0%" stop-color="rgb(138,249,58)" stop-opacity="1"></stop><stop offset="50%" stop-color="rgb(138,249,58)" stop-opacity="0.5"></stop><stop offset="100%" stop-color="rgb(138,249,58)" stop-opacity="0"></stop></radialGradient><radialGradient id="__lottie_element_29" spreadMethod="pad" gradientUnits="userSpaceOnUse" cx="-1.8980000019073486" cy="-18.138999938964844" r="48.960999727249146" fx="-1.8980000019073486" fy="-18.138999938964844"><stop offset="1%" stop-color="rgb(170,255,115)" stop-opacity="1"></stop><stop offset="51%" stop-color="rgb(184,255,114)" stop-opacity="0.5"></stop><stop offset="100%" stop-color="rgb(197,255,113)" stop-opacity="0"></stop></radialGradient><linearGradient id="__lottie_element_30" spreadMethod="pad" gradientUnits="userSpaceOnUse" x1="74.83200073242188" y1="-11.416999816894531" x2="-34.11800003051758" y2="33.053001403808594"><stop offset="1%" stop-color="rgb(170,255,115)" stop-opacity="1"></stop><stop offset="51%" stop-color="rgb(184,255,114)" stop-opacity="0.5"></stop><stop offset="100%" stop-color="rgb(197,255,113)" stop-opacity="0"></stop></linearGradient><linearGradient id="__lottie_element_34" spreadMethod="pad" gradientUnits="userSpaceOnUse" x1="-31.207000732421875" y1="-71.06400299072266" x2="19.617000579833984" y2="80.3479995727539"><stop offset="0%" stop-color="rgb(119,226,34)"></stop><stop offset="50%" stop-color="rgb(100,192,26)"></stop><stop offset="100%" stop-color="rgb(82,157,18)"></stop></linearGradient><radialGradient id="__lottie_element_35" spreadMethod="pad" gradientUnits="userSpaceOnUse" cx="56.792999267578125" cy="13.935999870300293" r="91.7029381622238" fx="56.792999267578125" fy="13.935999870300293"><stop offset="0%" stop-color="rgb(67,200,21)" stop-opacity="1"></stop><stop offset="50%" stop-color="rgb(67,200,21)" stop-opacity="0.5"></stop><stop offset="100%" stop-color="rgb(67,200,21)" stop-opacity="0"></stop></radialGradient><radialGradient id="__lottie_element_36" spreadMethod="pad" gradientUnits="userSpaceOnUse" cx="-69.20700073242188" cy="31.93600082397461" r="49.39176392571359" fx="-69.20700073242188" fy="31.93600082397461"><stop offset="0%" stop-color="rgb(152,224,36)" stop-opacity="1"></stop><stop offset="50%" stop-color="rgb(135,225,35)" stop-opacity="0.5"></stop><stop offset="100%" stop-color="rgb(119,226,34)" stop-opacity="0"></stop></radialGradient><linearGradient id="__lottie_element_37" spreadMethod="pad" gradientUnits="userSpaceOnUse" x1="-24.58799934387207" y1="-49.202999114990234" x2="16.288999557495117" y2="72.5770034790039"><stop offset="20%" stop-color="rgb(41,127,0)" stop-opacity="0.5"></stop><stop offset="42%" stop-color="rgb(41,127,0)" stop-opacity="0.75"></stop><stop offset="100%" stop-color="rgb(41,127,0)" stop-opacity="1"></stop></linearGradient><radialGradient id="__lottie_element_38" spreadMethod="pad" gradientUnits="userSpaceOnUse" cx="0.3449999988079071" cy="-2.3320000171661377" r="41.28829464266533" fx="0.3449999988079071" fy="-2.3320000171661377"><stop offset="0%" stop-color="rgb(138,249,58)" stop-opacity="1"></stop><stop offset="50%" stop-color="rgb(138,249,58)" stop-opacity="0.5"></stop><stop offset="100%" stop-color="rgb(138,249,58)" stop-opacity="0"></stop></radialGradient><linearGradient id="__lottie_element_39" spreadMethod="pad" gradientUnits="userSpaceOnUse" x1="-3.193000078201294" y1="-32.06399917602539" x2="-13.892999649047852" y2="-90.65799713134766"><stop offset="0%" stop-color="rgb(197,255,113)" stop-opacity="0"></stop><stop offset="49%" stop-color="rgb(184,255,114)" stop-opacity="0.5"></stop><stop offset="99%" stop-color="rgb(170,255,115)" stop-opacity="1"></stop></linearGradient><radialGradient id="__lottie_element_40" spreadMethod="pad" gradientUnits="userSpaceOnUse" cx="-43.19300079345703" cy="30.93600082397461" r="70.88400077819824" fx="-43.19300079345703" fy="30.93600082397461"><stop offset="1%" stop-color="rgb(170,255,115)" stop-opacity="1"></stop><stop offset="51%" stop-color="rgb(184,255,114)" stop-opacity="0.5"></stop><stop offset="100%" stop-color="rgb(197,255,113)" stop-opacity="0"></stop></radialGradient><linearGradient id="__lottie_element_44" spreadMethod="pad" gradientUnits="userSpaceOnUse" x1="-9.343000411987305" y1="-2.8489999771118164" x2="48.540000915527344" y2="57.85599899291992"><stop offset="0%" stop-color="rgb(138,235,37)"></stop><stop offset="50%" stop-color="rgb(110,197,28)"></stop><stop offset="100%" stop-color="rgb(83,159,18)"></stop></linearGradient><radialGradient id="__lottie_element_48" spreadMethod="pad" gradientUnits="userSpaceOnUse"><stop></stop><stop></stop><stop></stop></radialGradient></defs><g clip-path="url(#__lottie_element_2)"><g style="display: none;"><g><path fill="url(#__lottie_element_48)"></path><path stroke-linecap="butt" stroke-linejoin="miter" fill-opacity="0" stroke-miterlimit="4"></path></g><g><path></path></g></g><g style="display: block;" transform="matrix(1,0,0,1,0,0)" opacity="1"><g opacity="1" transform="matrix(1,0,0,1,251.27000427246094,358.79400634765625)"><path fill="url(#__lottie_element_44)" fill-opacity="1" d=" M-12.402000427246094,-108.0260009765625 C-18.392000198364258,-99.54000091552734 -34.61899948120117,-43.749000549316406 -26.134000778198242,21.898000717163086 C-22.621000289916992,49.08000183105469 -14.871000289916992,77.9520034790039 -0.4020000100135803,105.85600280761719 C6.6570000648498535,110.7969970703125 25.715999603271484,107.9739990234375 28.540000915527344,90.3270034790039 C25.677000045776367,84.24400329589844 6.0329999923706055,57.250999450683594 -4.63700008392334,17.621000289916992 C-19.461000442504883,-37.4379997253418 -10.989999771118164,-96.0260009765625 -12.402000427246094,-108.0260009765625z"></path></g><g opacity="0.5" transform="matrix(1,0,0,1,257.0090026855469,358.79400634765625)"><path fill="rgb(41,127,0)" fill-opacity="1" d=" M-18.141000747680664,-108.0260009765625 C-24.259000778198242,-90.61399841308594 -28.81399917602539,-15.031999588012695 -1.6119999885559082,73.62100219726562 C8.47599983215332,106.4990005493164 -12.96500015258789,91.9739990234375 -18.847000122070312,77.62100219726562 C-16.57900047302246,82.93800354003906 -8.871000289916992,100.59100341796875 -6.140999794006348,105.85600280761719 C0.9179999828338623,110.7969970703125 19.97599983215332,107.9739990234375 22.799999237060547,90.3270034790039 C19.937000274658203,84.24400329589844 0.2939999997615814,57.250999450683594 -10.37600040435791,17.621000289916992 C-25.200000762939453,-37.4379997253418 -16.729000091552734,-96.0260009765625 -18.141000747680664,-108.0260009765625z"></path></g><g opacity="1" transform="matrix(1,0,0,1,251.27000427246094,358.79400634765625)"><path stroke-linecap="round" stroke-linejoin="round" fill-opacity="0" stroke="rgb(51,147,0)" stroke-opacity="1" stroke-width="8" d=" M-12.402000427246094,-108.0260009765625 C-18.392000198364258,-99.54000091552734 -34.61899948120117,-43.749000549316406 -26.134000778198242,21.898000717163086 C-22.621000289916992,49.08000183105469 -14.871000289916992,77.9520034790039 -0.4020000100135803,105.85600280761719 C6.6570000648498535,110.7969970703125 25.715999603271484,107.9739990234375 28.540000915527344,90.3270034790039 C25.677000045776367,84.24400329589844 6.0329999923706055,57.250999450683594 -4.63700008392334,17.621000289916992 C-19.461000442504883,-37.4379997253418 -10.989999771118164,-96.0260009765625 -12.402000427246094,-108.0260009765625z"></path></g><g opacity="1" transform="matrix(1,0,0,1,251.27000427246094,358.79400634765625)"><path stroke-linecap="round" stroke-linejoin="round" fill-opacity="0" stroke="rgb(42,109,3)" stroke-opacity="1" stroke-width="8" d=" M-0.7289999723434448,105.2229995727539 C-0.6200000047683716,105.43399810791016 -0.5109999775886536,105.6449966430664 -0.4020000100135803,105.85600280761719 C6.6570000648498535,110.7969970703125 25.715999603271484,107.9739990234375 28.540000915527344,90.3270034790039 C25.677000045776367,84.24400329589844 6.0329999923706055,57.250999450683594 -4.63700008392334,17.621000289916992 C-19.461000442504883,-37.4379997253418 -10.989999771118164,-96.0260009765625 -12.402000427246094,-108.0260009765625"></path></g></g><g style="display: block;" transform="matrix(1,0,0,1,-0.00039312741137109697,-0.0008177624549716711)" opacity="1"><g opacity="1" transform="matrix(1,0,0,1,142.13400268554688,249.00900268554688)"><path fill="url(#__lottie_element_34)" fill-opacity="1" d=" M7.086999893188477,98.46499633789062 C-50.0890007019043,122.81800079345703 -81.85399627685547,93.1709976196289 -85.38300323486328,61.75899887084961 C-88.16999816894531,36.95800018310547 -70.55999755859375,12.347000122070312 -38.79499816894531,1.7589999437332153 C-66.3239974975586,2.4649999141693115 -94.2760009765625,-17.277999877929688 -95.97100067138672,-52.59400177001953 C-97.60199737548828,-86.58599853515625 -64.0770034790039,-107.96399688720703 -33.854000091552734,-105.53500366210938 C45.20500183105469,-99.18199920654297 74.85299682617188,-8.123000144958496 96.02899932861328,8.817999839782715 C68.5,24.347000122070312 57.375999450683594,77.0459976196289 7.086999893188477,98.46499633789062z"></path><path fill="url(#__lottie_element_35)" fill-opacity="1" d=" M7.086999893188477,98.46499633789062 C-50.0890007019043,122.81800079345703 -81.85399627685547,93.1709976196289 -85.38300323486328,61.75899887084961 C-88.16999816894531,36.95800018310547 -70.55999755859375,12.347000122070312 -38.79499816894531,1.7589999437332153 C-66.3239974975586,2.4649999141693115 -94.2760009765625,-17.277999877929688 -95.97100067138672,-52.59400177001953 C-97.60199737548828,-86.58599853515625 -64.0770034790039,-107.96399688720703 -33.854000091552734,-105.53500366210938 C45.20500183105469,-99.18199920654297 74.85299682617188,-8.123000144958496 96.02899932861328,8.817999839782715 C68.5,24.347000122070312 57.375999450683594,77.0459976196289 7.086999893188477,98.46499633789062z"></path><path fill="url(#__lottie_element_36)" fill-opacity="1" d=" M7.086999893188477,98.46499633789062 C-50.0890007019043,122.81800079345703 -81.85399627685547,93.1709976196289 -85.38300323486328,61.75899887084961 C-88.16999816894531,36.95800018310547 -70.55999755859375,12.347000122070312 -38.79499816894531,1.7589999437332153 C-66.3239974975586,2.4649999141693115 -94.2760009765625,-17.277999877929688 -95.97100067138672,-52.59400177001953 C-97.60199737548828,-86.58599853515625 -64.0770034790039,-107.96399688720703 -33.854000091552734,-105.53500366210938 C45.20500183105469,-99.18199920654297 74.85299682617188,-8.123000144958496 96.02899932861328,8.817999839782715 C68.5,24.347000122070312 57.375999450683594,77.0459976196289 7.086999893188477,98.46499633789062z"></path></g><g opacity="0.4" transform="matrix(1,0,0,1,145.51499938964844,259.1470031738281)"><path fill="url(#__lottie_element_37)" fill-opacity="1" d=" M4.764999866485596,85.1500015258789 C-55.5880012512207,111.62100219726562 -85.23600006103516,83.03199768066406 -88.76499938964844,51.619998931884766 C-40.38600158691406,59.3489990234375 4.190000057220459,-10.994999885559082 -42.17599868774414,-8.380000114440918 C-67.08399963378906,-3.2260000705718994 -91.44000244140625,-27.707000732421875 -92.64700317382812,-42.96799850463867 C-66.1760025024414,-6.9679999351501465 23.823999404907227,-12.26200008392334 4.764999866485596,-42.96799850463867 C37.5890007019043,-28.143999099731445 47.11800003051758,-65.2030029296875 16.177000045776367,-95.58300018310547 C57.0099983215332,-66.08599853515625 77.10900115966797,-13.751999855041504 92.64700317382812,-1.3209999799728394 C65.11799621582031,14.208000183105469 60.7869987487793,60.57899856567383 4.764999866485596,85.1500015258789z"></path></g><g opacity="0.4" transform="matrix(1,0,0,1,171.8090057373047,264.5780029296875)"><path fill="rgb(135,250,88)" fill-opacity="1" d=" M61.88199996948242,-6.750999927520752 C55.198001861572266,-8.642999649047852 -37.9010009765625,-17.481000900268555 -61.88199996948242,-12.39799976348877 C-36.941001892089844,-11.456999778747559 -35.529998779296875,-7.2220001220703125 -59.058998107910156,12.071999549865723 C-52.47100067138672,7.836999893188477 -31.715999603271484,-7.820000171661377 -28.94099998474121,-5.809999942779541 C-26.166000366210938,-3.799999952316284 -29.555999755859375,4.872000217437744 -36.47100067138672,7.366000175476074 C-25.02899932861328,2.364000082015991 -0.8169999718666077,-18.93199920654297 -18.35300064086914,6.659999847412109 C-7.53000020980835,-3.2219998836517334 -0.23499999940395355,-2.986999988555908 -10.588000297546387,13.954000473022461 C-0.33000001311302185,2.450000047683716 15.765000343322754,-8.633999824523926 13.411999702453613,5.953999996185303 C22.76300048828125,-4.5289998054504395 35.25,-5.4070000648498535 28,8.777999877929688 C42.11800003051758,-6.281000137329102 60.03300094604492,-4.419000148773193 61.88199996948242,-6.750999927520752z"></path></g><g opacity="0.5" transform="matrix(1,0,0,1,172.51600646972656,235.4739990234375)"><path fill="rgb(135,250,88)" fill-opacity="1" d=" M31.19099998474121,-24.224000930786133 C38.551998138427734,-10.032999992370605 28.235000610351562,5.4120001792907715 18.822999954223633,-9.175999641418457 C26.822999954223633,7.295000076293945 22.55500030517578,10.32699966430664 16,4.940999984741211 C16.283000946044922,11.052000045776367 -18.990999221801758,-14.475000381469727 -29.64699935913086,-22.35300064086914 C-17.531999588012695,-10.114999771118164 1.659999966621399,27.020000457763672 -29.177000045776367,0.7059999704360962 C-25.31399917602539,12.123000144958496 -29.788999557495117,10.489999771118164 -49.4119987487793,-1.6469999551773071 C-40.569000244140625,8.682999610900879 -33.83399963378906,20.483999252319336 -58.82400131225586,6.822999954223633 C-54.5890007019043,11.057999610900879 -50.65999984741211,16.39299964904785 -62.11800003051758,16.235000610351562 C-38.7239990234375,12.748000144958496 62.41899871826172,20.232999801635742 62.117000579833984,22.35300064086914 C55.441001892089844,15.92199993133545 39.51599884033203,-12.687000274658203 31.19099998474121,-24.224000930786133z"></path></g><g opacity="0.2" transform="matrix(1,0,0,1,193.39999389648438,282.5350036621094)"><path fill="rgb(140,253,94)" fill-opacity="1" d=" M21.415000915527344,-24.474000930786133 C19.464000701904297,-18.4689998626709 -14.321000099182129,20.156999588012695 -21.809999465942383,28.83099937438965 C-17.325000762939453,21.45199966430664 12.645999908447266,-16.767000198364258 15.692000389099121,-24.972000122070312 C17.523000717163086,-29.905000686645508 23.371000289916992,-30.4950008392334 21.415000915527344,-24.474000930786133z"></path><path stroke-linecap="round" stroke-linejoin="round" fill-opacity="0" stroke="rgb(140,253,94)" stroke-opacity="1" stroke-width="2" d=" M21.415000915527344,-24.474000930786133 C19.464000701904297,-18.4689998626709 -14.321000099182129,20.156999588012695 -21.809999465942383,28.83099937438965 C-17.325000762939453,21.45199966430664 12.645999908447266,-16.767000198364258 15.692000389099121,-24.972000122070312 C17.523000717163086,-29.905000686645508 23.371000289916992,-30.4950008392334 21.415000915527344,-24.474000930786133z"></path></g><g opacity="0.3" transform="matrix(1,0,0,1,149.1699981689453,286.92498779296875)"><path fill="rgb(140,253,94)" fill-opacity="1" d=" M39.22800064086914,-32.62799835205078 C35.9900016784668,-27.20800018310547 -30.952999114990234,30.464000701904297 -40.183998107910156,37.255001068115234 C-34.16999816894531,31.058000564575195 28.965999603271484,-27.06399917602539 33.7599983215332,-34.38600158691406 C36.641998291015625,-38.78799819946289 42.474998474121094,-38.0629997253418 39.22800064086914,-32.62799835205078z"></path><path stroke-linecap="round" stroke-linejoin="round" fill-opacity="0" stroke="rgb(140,253,94)" stroke-opacity="1" stroke-width="2" d=" M39.22800064086914,-32.62799835205078 C35.9900016784668,-27.20800018310547 -30.952999114990234,30.464000701904297 -40.183998107910156,37.255001068115234 C-34.16999816894531,31.058000564575195 28.965999603271484,-27.06399917602539 33.7599983215332,-34.38600158691406 C36.641998291015625,-38.78799819946289 42.474998474121094,-38.0629997253418 39.22800064086914,-32.62799835205078z"></path></g><g opacity="0.2" transform="matrix(1,0,0,1,116.34600067138672,273.1600036621094)"><path fill="rgb(140,253,94)" fill-opacity="1" d=" M26.52199935913086,-18.863000869750977 C23.284000396728516,-13.442999839782715 -18.246999740600586,16.698999404907227 -27.47800064086914,23.489999771118164 C-21.464000701904297,17.292999267578125 16.260000228881836,-13.300000190734863 21.054000854492188,-20.621999740600586 C23.93600082397461,-25.02400016784668 29.768999099731445,-24.29800033569336 26.52199935913086,-18.863000869750977z"></path><path stroke-linecap="round" stroke-linejoin="round" fill-opacity="0" stroke="rgb(140,253,94)" stroke-opacity="1" stroke-width="2" d=" M26.52199935913086,-18.863000869750977 C23.284000396728516,-13.442999839782715 -18.246999740600586,16.698999404907227 -27.47800064086914,23.489999771118164 C-21.464000701904297,17.292999267578125 16.260000228881836,-13.300000190734863 21.054000854492188,-20.621999740600586 C23.93600082397461,-25.02400016784668 29.768999099731445,-24.29800033569336 26.52199935913086,-18.863000869750977z"></path></g><g opacity="0.25" transform="matrix(1,0,0,1,199.11500549316406,234.67100524902344)"><path fill="rgb(140,253,94)" fill-opacity="1" d=" M9.04800033569336,19.273000717163086 C-0.8339999914169312,5.15500020980835 -8.95199966430664,-11.78600025177002 -15.305000305175781,-22.020999908447266 C-8.246000289916992,-14.255999565124512 6.223999977111816,5.508999824523926 14.342000007629395,17.1560001373291 C17.35099983215332,21.472999572753906 12.678999900817871,24.459999084472656 9.04800033569336,19.273000717163086z"></path><path stroke-linecap="round" stroke-linejoin="round" fill-opacity="0" stroke="rgb(140,253,94)" stroke-opacity="1" stroke-width="2" d=" M9.04800033569336,19.273000717163086 C-0.8339999914169312,5.15500020980835 -8.95199966430664,-11.78600025177002 -15.305000305175781,-22.020999908447266 C-8.246000289916992,-14.255999565124512 6.223999977111816,5.508999824523926 14.342000007629395,17.1560001373291 C17.35099983215332,21.472999572753906 12.678999900817871,24.459999084472656 9.04800033569336,19.273000717163086z"></path></g><g opacity="0.5" transform="matrix(1,0,0,1,152.02699279785156,222.0260009765625)"><path fill="rgb(140,253,94)" fill-opacity="1" d=" M23.665000915527344,28.035999298095703 C12.16100025177002,12.508000373840332 -25.097000122070312,-22.118000030517578 -32.452999114990234,-30.905000686645508 C-25.891000747680664,-25.291000366210938 17.312000274658203,13.5649995803833 31.43000030517578,26.976999282836914 C35.244998931884766,30.60099983215332 27.43400001525879,33.12300109863281 23.665000915527344,28.035999298095703z"></path><path stroke-linecap="round" stroke-linejoin="round" fill-opacity="0" stroke="rgb(140,253,94)" stroke-opacity="1" stroke-width="2" d=" M23.665000915527344,28.035999298095703 C12.16100025177002,12.508000373840332 -25.097000122070312,-22.118000030517578 -32.452999114990234,-30.905000686645508 C-25.891000747680664,-25.291000366210938 17.312000274658203,13.5649995803833 31.43000030517578,26.976999282836914 C35.244998931884766,30.60099983215332 27.43400001525879,33.12300109863281 23.665000915527344,28.035999298095703z"></path></g><g opacity="0.5" transform="matrix(1,0,0,1,118.6719970703125,231.43800354003906)"><path fill="rgb(140,253,94)" fill-opacity="1" d=" M19.253999710083008,18.270999908447266 C3.7249999046325684,2.742000102996826 -18.56599998474121,-11.765000343322754 -25.922000885009766,-20.552000045776367 C-19.360000610351562,-14.937999725341797 13.255000114440918,4.860000133514404 24.548999786376953,16.15399932861328 C28.268999099731445,19.874000549316406 23.731000900268555,22.74799919128418 19.253999710083008,18.270999908447266z"></path><path stroke-linecap="round" stroke-linejoin="round" fill-opacity="0" stroke="rgb(140,253,94)" stroke-opacity="1" stroke-width="2" d=" M19.253999710083008,18.270999908447266 C3.7249999046325684,2.742000102996826 -18.56599998474121,-11.765000343322754 -25.922000885009766,-20.552000045776367 C-19.360000610351562,-14.937999725341797 13.255000114440918,4.860000133514404 24.548999786376953,16.15399932861328 C28.268999099731445,19.874000549316406 23.731000900268555,22.74799919128418 19.253999710083008,18.270999908447266z"></path></g><g opacity="1" transform="matrix(1,0,0,1,169.99600219726562,253.9770050048828)"><path fill="rgb(141,254,95)" fill-opacity="1" d=" M60.4010009765625,5.732999801635742 C41.106998443603516,2.9089999198913574 -26.187000274658203,-5.091000080108643 -64.30500030517578,-1.3259999752044678 C-26.187000274658203,-10.267000198364258 47.37200164794922,-3.4070000648498535 59.78799819946289,-1.1130000352859497 C65.875,0.012000000104308128 65.54000091552734,6.485000133514404 60.4010009765625,5.732999801635742z"></path><path stroke-linecap="round" stroke-linejoin="round" fill-opacity="0" stroke="rgb(140,253,94)" stroke-opacity="1" stroke-width="2" d=" M60.4010009765625,5.732999801635742 C41.106998443603516,2.9089999198913574 -26.187000274658203,-5.091000080108643 -64.30500030517578,-1.3259999752044678 C-26.187000274658203,-10.267000198364258 47.37200164794922,-3.4070000648498535 59.78799819946289,-1.1130000352859497 C65.875,0.012000000104308128 65.54000091552734,6.485000133514404 60.4010009765625,5.732999801635742z"></path></g><g opacity="0.5" transform="matrix(1,0,0,1,135.38800048828125,229.16400146484375)"><path fill="rgb(135,250,88)" fill-opacity="1" d=" M-2.755000114440918,-2.3959999084472656 C-4.611000061035156,-0.02199999988079071 1.2020000219345093,5.48199987411499 2.7920000553131104,2.559000015258789 C4.381999969482422,-0.36399999260902405 -0.2619999945163727,-5.585999965667725 -2.755000114440918,-2.3959999084472656z"></path></g><g opacity="0.7000000000000001" transform="matrix(1.1246761083602905,0.322495698928833,-0.1488441824913025,0.5190813541412354,118.6719970703125,172.83299255371094)"><path fill="url(#__lottie_element_38)" fill-opacity="1" d=" M-40.04399871826172,-13.083999633789062 C-45.92499923706055,8.387999534606934 -32.672000885009766,29.66699981689453 -14.350000381469727,35.209999084472656 C13.675999641418457,43.6879997253418 39.5,26.695999145507812 42.784000396728516,7.492000102996826 C47.15999984741211,-18.09600067138672 31.72599983215332,-35.30500030517578 7.447999954223633,-40.465999603271484 C-14.553000450134277,-45.143001556396484 -35.15700149536133,-30.926000595092773 -40.04399871826172,-13.083999633789062z"></path></g><g opacity="0.8" transform="matrix(1,0,0,1,125.12000274658203,249.00900268554688)"><path fill="url(#__lottie_element_39)" fill-opacity="1" d=" M25.15999984741211,95.28900146484375 C-35.19300079345703,121.76000213623047 -64.83999633789062,93.1709976196289 -68.36900329589844,61.75899887084961 C-71.15599822998047,36.95800018310547 -53.54600143432617,12.347000122070312 -21.7810001373291,1.7589999437332153 C-49.310001373291016,2.4649999141693115 -77.26300048828125,-17.277999877929688 -78.95800018310547,-52.59400177001953 C-80.58899688720703,-86.58599853515625 -47.0629997253418,-107.96399688720703 -16.84000015258789,-105.53500366210938 C29.141000747680664,-101.83999633789062 58.40800094604492,-69.49299621582031 79.01499938964844,-39.737998962402344 C47.74800109863281,-72.77100372314453 0.9470000267028809,-108.56400299072266 -47.54600143432617,-87.59400177001953 C-73.66400146484375,-76.30000305175781 -88.48699951171875,-12.770000457763672 -2.36899995803833,0.6420000195503235 C-57.428001403808594,21.113000869750977 -65.19300079345703,53.58300018310547 -50.36899948120117,78.99500274658203 C-39.86600112915039,97 -5.192999839782715,107.93599700927734 25.15999984741211,95.28900146484375z"></path><path fill="url(#__lottie_element_40)" fill-opacity="1" d=" M25.15999984741211,95.28900146484375 C-35.19300079345703,121.76000213623047 -64.83999633789062,93.1709976196289 -68.36900329589844,61.75899887084961 C-71.15599822998047,36.95800018310547 -53.54600143432617,12.347000122070312 -21.7810001373291,1.7589999437332153 C-49.310001373291016,2.4649999141693115 -77.26300048828125,-17.277999877929688 -78.95800018310547,-52.59400177001953 C-80.58899688720703,-86.58599853515625 -47.0629997253418,-107.96399688720703 -16.84000015258789,-105.53500366210938 C29.141000747680664,-101.83999633789062 58.40800094604492,-69.49299621582031 79.01499938964844,-39.737998962402344 C47.74800109863281,-72.77100372314453 0.9470000267028809,-108.56400299072266 -47.54600143432617,-87.59400177001953 C-73.66400146484375,-76.30000305175781 -88.48699951171875,-12.770000457763672 -2.36899995803833,0.6420000195503235 C-57.428001403808594,21.113000869750977 -65.19300079345703,53.58300018310547 -50.36899948120117,78.99500274658203 C-39.86600112915039,97 -5.192999839782715,107.93599700927734 25.15999984741211,95.28900146484375z"></path></g><g opacity="1" transform="matrix(1,0,0,1,142.13400268554688,249.86199951171875)"><path stroke-linecap="round" stroke-linejoin="round" fill-opacity="0" stroke="rgb(51,147,0)" stroke-opacity="1" stroke-width="8" d=" M7.086999893188477,97.61199951171875 C-50.0890007019043,121.96499633789062 -81.85399627685547,92.31800079345703 -85.38300323486328,60.90599822998047 C-88.16999816894531,36.10499954223633 -70.55999755859375,11.494000434875488 -38.79499816894531,0.906000018119812 C-66.3239974975586,1.6119999885559082 -94.2760009765625,-18.131000518798828 -95.97100067138672,-53.446998596191406 C-97.60199737548828,-87.43900299072266 -64.0770034790039,-108.81700134277344 -33.854000091552734,-106.38800048828125 C45.20500183105469,-100.03500366210938 74.85299682617188,-8.97599983215332 96.02899932861328,7.965000152587891 C68.5,23.493999481201172 57.375999450683594,76.19300079345703 7.086999893188477,97.61199951171875z"></path></g><g opacity="1" transform="matrix(1,0,0,1,142.13400268554688,249.86199951171875)"><path stroke-linecap="round" stroke-linejoin="round" fill-opacity="0" stroke="rgb(42,109,3)" stroke-opacity="1" stroke-width="8" d=" M-39.46500015258789,0.9190000295639038 C-66.13600158691406,1.281999945640564 -93,-17.5049991607666 -95.81099700927734,-51.00899887084961"></path></g><g opacity="1" transform="matrix(1,0,0,1,142.13400268554688,249.86199951171875)"><path stroke-linecap="round" stroke-linejoin="round" fill-opacity="0" stroke="rgb(42,109,3)" stroke-opacity="1" stroke-width="8" d=" M96.02899932861328,7.965000152587891 C68.5,23.493999481201172 57.375999450683594,76.19300079345703 7.086999893188477,97.61199951171875 C7.086999893188477,97.61199951171875 7.086999893188477,97.61199951171875 7.086999893188477,97.61199951171875 C-48.73899841308594,121.38999938964844 -80.33899688720703,93.68800354003906 -85.08599853515625,63.12799835205078"></path></g></g><g style="display: block;" transform="matrix(1,0,0,1,0.00037816280382685363,-0.00011008143337676302)" opacity="1"><g opacity="1" transform="matrix(1,0,0,1,348.0469970703125,306.239013671875)"><path fill="url(#__lottie_element_24)" fill-opacity="1" d=" M56.702999114990234,-101.35299682617188 C104.7030029296875,-94.29399871826172 115.99800109863281,-67.47100067138672 113.87999725341797,-43.47100067138672 C111.68599700927734,-18.611000061035156 85.24500274658203,3.177999973297119 51.762001037597656,3.117000102996826 C63.055999755859375,12.99899959564209 78.58499908447266,48.29399871826172 68.7030029296875,71.58799743652344 C56.244998931884766,100.9530029296875 22.229999542236328,109.45500183105469 -5.414000034332275,97 C-69.64900207519531,68.05899810791016 -84.4729995727539,-39.236000061035156 -114.12000274658203,-48.4119987487793 C-81.64900207519531,-49.82400131225586 -14.824999809265137,-111.87200164794922 56.702999114990234,-101.35299682617188z"></path><path fill="url(#__lottie_element_25)" fill-opacity="1" d=" M56.702999114990234,-101.35299682617188 C104.7030029296875,-94.29399871826172 115.99800109863281,-67.47100067138672 113.87999725341797,-43.47100067138672 C111.68599700927734,-18.611000061035156 85.24500274658203,3.177999973297119 51.762001037597656,3.117000102996826 C63.055999755859375,12.99899959564209 78.58499908447266,48.29399871826172 68.7030029296875,71.58799743652344 C56.244998931884766,100.9530029296875 22.229999542236328,109.45500183105469 -5.414000034332275,97 C-69.64900207519531,68.05899810791016 -84.4729995727539,-39.236000061035156 -114.12000274658203,-48.4119987487793 C-81.64900207519531,-49.82400131225586 -14.824999809265137,-111.87200164794922 56.702999114990234,-101.35299682617188z"></path><path fill="url(#__lottie_element_26)" fill-opacity="1" d=" M56.702999114990234,-101.35299682617188 C104.7030029296875,-94.29399871826172 115.99800109863281,-67.47100067138672 113.87999725341797,-43.47100067138672 C111.68599700927734,-18.611000061035156 85.24500274658203,3.177999973297119 51.762001037597656,3.117000102996826 C63.055999755859375,12.99899959564209 78.58499908447266,48.29399871826172 68.7030029296875,71.58799743652344 C56.244998931884766,100.9530029296875 22.229999542236328,109.45500183105469 -5.414000034332275,97 C-69.64900207519531,68.05899810791016 -84.4729995727539,-39.236000061035156 -114.12000274658203,-48.4119987487793 C-81.64900207519531,-49.82400131225586 -14.824999809265137,-111.87200164794922 56.702999114990234,-101.35299682617188z"></path></g><g opacity="0.4" transform="matrix(1,0,0,1,346.5150146484375,333.30999755859375)"><path fill="url(#__lottie_element_27)" fill-opacity="1" d=" M3.881999969482422,-40.18899917602539 C47.64699935913086,-47.24800109863281 99.88200378417969,-32.65999984741211 112.58799743652344,-61.83599853515625 C108.822998046875,-42.54199981689453 84.822998046875,-24.659000396728516 53.29399871826172,-23.952999114990234 C64.58799743652344,-14.071000099182129 80.11699676513672,21.222999572753906 70.23500061035156,44.516998291015625 C57.777000427246094,73.88200378417969 23.761999130249023,82.38400268554688 -3.881999969482422,69.92900085449219 C-68.11699676513672,40.987998962402344 -82.94100189208984,-66.30699920654297 -112.58799743652344,-75.48300170898438 C-81.88200378417969,-70.54199981689453 -60.70600128173828,-58.18899917602539 3.881999969482422,-40.18899917602539z"></path></g><g opacity="0.4" transform="matrix(1,0,0,1,311.8089904785156,294.2969970703125)"><path fill="rgb(135,250,88)" fill-opacity="1" d=" M-62.5880012512207,-22.823999404907227 C-67.76399993896484,-31.295000076293945 -68.70600128173828,-33.17599868774414 -69.64700317382812,-36 C-61.64699935913086,-32.70600128173828 51.29399871826172,4 69.64700317382812,10.588000297546387 C50.35300064086914,7.294000148773193 35.763999938964844,8.704999923706055 38.5880012512207,17.176000595092773 C32,13.41100025177002 17.41200065612793,2.118000030517578 14.118000030517578,3.059000015258789 C10.824000358581543,4 20.235000610351562,14.822999954223633 25.881999969482422,19.52899932861328 C20.235000610351562,19.058000564575195 13.647000312805176,14.352999687194824 17.881999969482422,36 C11.293999671936035,27.05900001525879 0,5.4120001792907715 -8.470999717712402,6.823999881744385 C-9.883000373840332,0.23600000143051147 -14.118000030517578,-9.175999641418457 -18.823999404907227,-1.1759999990463257 C-22.118000030517578,-5.881999969482422 -32.470001220703125,-13.881999969482422 -32.941001892089844,-8.706000328063965 C-39.52899932861328,-14.824000358581543 -63.058998107910156,-33.176998138427734 -62.5880012512207,-22.823999404907227z"></path></g><g opacity="0.5" transform="matrix(1,0,0,1,311.8089904785156,268.885986328125)"><path fill="rgb(135,250,88)" fill-opacity="1" d=" M-18.35300064086914,-34.5880012512207 C-30.118000030517578,-23.763999938964844 -50.35300064086914,-10.118000030517578 -43.29399871826172,-6.353000164031982 C-36.23500061035156,-2.5880000591278076 -22.118000030517578,-4 -14.118000030517578,-6.823999881744385 C-16.47100067138672,-1.1770000457763672 -8.940999984741211,1.1770000457763672 3.765000104904175,-2.5880000591278076 C-2.3529999256134033,1.6469999551773071 -1.8819999694824219,5.881999969482422 24.47100067138672,-4.4710001945495605 C16.941999435424805,4.940999984741211 19.764999389648438,13.881999969482422 42.35300064086914,9.175999641418457 C41.4119987487793,13.881999969482422 33.882999420166016,22.822999954223633 50.82400131225586,25.176000595092773 C50.82400131225586,29.410999298095703 57.88199996948242,30.822999954223633 68.70600128173828,34.5880012512207 C53.64699935913086,31.763999938964844 -65.88200378417969,-7.763999938964844 -68.70600128173828,-9.175999641418457 C-60.23500061035156,-12.940999984741211 -30.118000030517578,-26.58799934387207 -18.35300064086914,-34.5880012512207z"></path></g><g opacity="1" transform="matrix(1,0,0,1,0,0)"><g opacity="0.5" transform="matrix(1,0,0,1,354.7340087890625,319.14801025390625)"><path fill="rgb(135,250,88)" fill-opacity="1" d=" M-3.3959999084472656,-3.438999891281128 C0.5139999985694885,-6.697999954223633 7.427999973297119,0.7960000038146973 2.7219998836517334,3.619999885559082 C-1.9839999675750732,6.443999767303467 -6.21999979019165,-1.0859999656677246 -3.3959999084472656,-3.438999891281128z"></path></g><g opacity="0.5" transform="matrix(1,0,0,1,346.3890075683594,269.5790100097656)"><path fill="rgb(135,250,88)" fill-opacity="1" d=" M-4.933000087738037,3.306999921798706 C-3.181999921798706,5.758999824523926 7.302999973297119,-0.9279999732971191 4.949999809265137,-3.2809998989105225 C2.5969998836517334,-5.633999824523926 -7.285999774932861,0.013000000268220901 -4.933000087738037,3.306999921798706z"></path></g><g opacity="0.5" transform="matrix(1,0,0,1,303.8599853515625,258.8070068359375)"><path fill="rgb(135,250,88)" fill-opacity="1" d=" M-3.815999984741211,1.3730000257492065 C-2.3380000591278076,5.314000129699707 5.5960001945495605,2.313999891281128 3.7139999866485596,-1.4509999752044678 C1.8320000171661377,-5.216000080108643 -5.228000164031982,-2.3919999599456787 -3.815999984741211,1.3730000257492065z"></path></g></g><g opacity="0.2" transform="matrix(1,0,0,1,376.010986328125,327.6080017089844)"><path fill="rgb(140,253,94)" fill-opacity="1" d=" M-19.250999450683594,-26.93899917602539 C-15.472999572753906,-18.024999618530273 7.749000072479248,19.290000915527344 19.916000366210938,30.45400047302246 C4.329999923706055,13.034000396728516 -13.562000274658203,-20.576000213623047 -16.277000427246094,-26.43400001525879 C-18.992000579833984,-32.29199981689453 -21.02199935913086,-31.117000579833984 -19.250999450683594,-26.93899917602539z"></path><path stroke-linecap="round" stroke-linejoin="round" fill-opacity="0" stroke="rgb(140,253,94)" stroke-opacity="1" stroke-width="2" d=" M-19.250999450683594,-26.93899917602539 C-15.472999572753906,-18.024999618530273 7.749000072479248,19.290000915527344 19.916000366210938,30.45400047302246 C4.329999923706055,13.034000396728516 -13.562000274658203,-20.576000213623047 -16.277000427246094,-26.43400001525879 C-18.992000579833984,-32.29199981689453 -21.02199935913086,-31.117000579833984 -19.250999450683594,-26.93899917602539z"></path></g><g opacity="0.5" transform="matrix(1,0,0,1,321.9880065917969,323.57598876953125)"><path fill="rgb(140,253,94)" fill-opacity="1" d=" M-23.354999542236328,-43.1609992980957 C-2.178999900817871,-14.925999641418457 14.76200008392334,25.073999404907227 25.114999771118164,48.132999420166016 C19.68000030517578,32.91999816894531 0.6389999985694885,-22.768999099731445 -16.29599952697754,-43.1609992980957 C-21.84000015258789,-49.83599853515625 -28.29400062561035,-49.74700164794922 -23.354999542236328,-43.1609992980957z"></path><path stroke-linecap="round" stroke-linejoin="round" fill-opacity="0" stroke="rgb(140,253,94)" stroke-opacity="1" stroke-width="2" d=" M-23.354999542236328,-43.1609992980957 C-2.178999900817871,-14.925999641418457 14.76200008392334,25.073999404907227 25.114999771118164,48.132999420166016 C19.68000030517578,32.91999816894531 0.6389999985694885,-22.768999099731445 -16.29599952697754,-43.1609992980957 C-21.84000015258789,-49.83599853515625 -28.29400062561035,-49.74700164794922 -23.354999542236328,-43.1609992980957z"></path></g><g opacity="0.2" transform="matrix(1,0,0,1,289.2980041503906,312.1719970703125)"><path fill="rgb(140,253,94)" fill-opacity="1" d=" M-18.429000854492188,-40.698001861572266 C-15.668000221252441,-27.895000457763672 5.571000099182129,27.538000106811523 18.746999740600586,45.41999816894531 C2.628999948501587,18.361000061035156 -12.54699993133545,-30.815000534057617 -14.664999961853027,-39.2859992980957 C-16.783000946044922,-47.75699996948242 -19.722999572753906,-46.698001861572266 -18.429000854492188,-40.698001861572266z"></path><path stroke-linecap="round" stroke-linejoin="round" fill-opacity="0" stroke="rgb(140,253,94)" stroke-opacity="1" stroke-width="2" d=" M-18.429000854492188,-40.698001861572266 C-15.668000221252441,-27.895000457763672 5.571000099182129,27.538000106811523 18.746999740600586,45.41999816894531 C2.628999948501587,18.361000061035156 -12.54699993133545,-30.815000534057617 -14.664999961853027,-39.2859992980957 C-16.783000946044922,-47.75699996948242 -19.722999572753906,-46.698001861572266 -18.429000854492188,-40.698001861572266z"></path></g><g opacity="0.5" transform="matrix(1,0,0,1,345.2439880371094,260.968994140625)"><path fill="rgb(140,253,94)" fill-opacity="1" d=" M-31.55299949645996,17.56399917602539 C-26.860000610351562,13.34000015258789 22.565000534057617,-18.67099952697754 33.38800048828125,-22.43600082397461 C25.812999725341797,-18.290000915527344 -20.106000900268555,15.277000427246094 -26.847000122070312,20.857999801635742 C-30.899999618530273,24.21299934387207 -36.25899887084961,21.798999786376953 -31.55299949645996,17.56399917602539z"></path><path stroke-linecap="round" stroke-linejoin="round" fill-opacity="0" stroke="rgb(140,253,94)" stroke-opacity="1" stroke-width="2" d=" M-31.55299949645996,17.56399917602539 C-26.860000610351562,13.34000015258789 22.565000534057617,-18.67099952697754 33.38800048828125,-22.43600082397461 C25.812999725341797,-18.290000915527344 -20.106000900268555,15.277000427246094 -26.847000122070312,20.857999801635742 C-30.899999618530273,24.21299934387207 -36.25899887084961,21.798999786376953 -31.55299949645996,17.56399917602539z"></path></g><g opacity="0.7000000000000001" transform="matrix(1,0,0,1,358.5830078125,237.25999450683594)"><path fill="url(#__lottie_element_28)" fill-opacity="1" d=" M-67.4800033569336,11.744000434875488 C-74.78399658203125,19.409000396728516 -17.71500015258789,-15.78600025177002 1.343999981880188,-8.37399959564209 C11.647000312805176,-4.367000102996826 -27.243999481201172,12.802000045776367 -17.71500015258789,21.273000717163086 C-8.185999870300293,29.743999481201172 11.579000473022461,5.0370001792907715 38.40299987792969,7.861000061035156 C57.38600158691406,9.859000205993652 67.22599792480469,2.23799991607666 68.05000305175781,-7.315000057220459 C70.01499938964844,-30.104000091552734 -29.985000610351562,-27.604000091552734 -67.4800033569336,11.744000434875488z"></path></g><g opacity="1" transform="matrix(1,0,0,1,312.60198974609375,281.4280090332031)"><path fill="rgb(141,254,95)" fill-opacity="1" d=" M-71.8290023803711,-26.08799934387207 C-49.26300048828125,-19.365999221801758 47.678001403808594,13.574999809265137 76.85399627685547,26.2810001373291 C53.32500076293945,18.75200080871582 -60.08700180053711,-17.95400047302246 -73.26300048828125,-19.365999221801758 C-79.41699981689453,-20.024999618530273 -76.80699920654297,-27.570999145507812 -71.8290023803711,-26.08799934387207z"></path><path stroke-linecap="round" stroke-linejoin="round" fill-opacity="0" stroke="rgb(140,253,94)" stroke-opacity="1" stroke-width="2" d=" M-71.8290023803711,-26.08799934387207 C-49.26300048828125,-19.365999221801758 47.678001403808594,13.574999809265137 76.85399627685547,26.2810001373291 C53.32500076293945,18.75200080871582 -60.08700180053711,-17.95400047302246 -73.26300048828125,-19.365999221801758 C-79.41699981689453,-20.024999618530273 -76.80699920654297,-27.570999145507812 -71.8290023803711,-26.08799934387207z"></path></g><g opacity="0.5" transform="matrix(1,0,0,1,397.82501220703125,357.0830078125)"><path fill="url(#__lottie_element_29)" fill-opacity="1" d=" M1.9839999675750732,-47.72700119018555 C1.9839999675750732,-47.72700119018555 -7.511000156402588,-49.46699905395508 -13.369000434875488,-51.196998596191406 C-7.2270002365112305,-44.426998138427734 42.59700012207031,19.32200050354004 -21.815000534057617,51.196998596191406 C-12.72700023651123,51.571998596191406 20.773000717163086,35.571998596191406 21.808000564575195,9.098999977111816 C23.010000228881836,-21.64699935913086 1.9839999675750732,-47.72700119018555 1.9839999675750732,-47.72700119018555z"></path></g><g opacity="0.5" transform="matrix(1,0,0,1,358.0950012207031,249.36099243164062)"><path fill="url(#__lottie_element_30)" fill-opacity="1" d=" M85.88200378417969,44.93600082397461 C93.50399780273438,28.79400062561035 107.50399780273438,-13.206000328063965 58.65599822998047,-30.391000747680664 C3.890000104904175,-49.65800094604492 -103.8740005493164,7.025000095367432 -103.8740005493164,7.025000095367432 C-103.8740005493164,7.025000095367432 -24.0049991607666,-50.77199935913086 46.65599822998047,-44.474998474121094 C117.31700134277344,-38.178001403808594 111.50399780273438,19.29400062561035 85.88200378417969,44.93600082397461z"></path></g><g opacity="1" transform="matrix(1,0,0,1,348.0469970703125,306.239013671875)"><path stroke-linecap="round" stroke-linejoin="round" fill-opacity="0" stroke="rgb(51,147,0)" stroke-opacity="1" stroke-width="8" d=" M56.702999114990234,-101.35299682617188 C104.7030029296875,-94.29399871826172 115.99800109863281,-67.47100067138672 113.87999725341797,-43.47100067138672 C111.68599700927734,-18.611000061035156 85.24500274658203,3.177999973297119 51.762001037597656,3.117000102996826 C63.055999755859375,12.99899959564209 78.58499908447266,48.29399871826172 68.7030029296875,71.58799743652344 C56.244998931884766,100.9530029296875 22.229999542236328,109.45500183105469 -5.414000034332275,97 C-69.64900207519531,68.05899810791016 -84.4729995727539,-39.236000061035156 -114.12000274658203,-48.4119987487793 C-81.64900207519531,-49.82400131225586 -14.824999809265137,-111.87200164794922 56.702999114990234,-101.35299682617188z"></path></g><g opacity="1" transform="matrix(1,0,0,1,348.0469970703125,306.239013671875)"><path stroke-linecap="round" stroke-linejoin="round" fill-opacity="0" stroke="rgb(42,109,3)" stroke-opacity="1" stroke-width="8" d=" M69.8759994506836,68.40399932861328 C69.53399658203125,69.48699951171875 69.14399719238281,70.54900360107422 68.7030029296875,71.58799743652344 C56.244998931884766,100.9530029296875 22.229999542236328,109.45500183105469 -5.414000034332275,97 C-68.58100128173828,68.54000091552734 -83.96600341796875,-35.68899917602539 -112.65299987792969,-47.874000549316406"></path></g><g opacity="1" transform="matrix(1,0,0,1,348.0469970703125,306.239013671875)"><path stroke-linecap="round" stroke-linejoin="round" fill-opacity="0" stroke="rgb(42,109,3)" stroke-opacity="1" stroke-width="8" d=" M113.87999725341797,-43.47100067138672 C111.68599700927734,-18.611000061035156 85.24500274658203,3.177999973297119 51.762001037597656,3.117000102996826 C51.762001037597656,3.117000102996826 51.762001037597656,3.117000102996826 51.762001037597656,3.117000102996826"></path></g></g><g style="display: block;" transform="matrix(1,0,0,1,-0.00022274599177762866,0.00044975694618187845)" opacity="1"><g opacity="1" transform="matrix(1,0,0,1,278.3340148925781,150.2969970703125)"><path fill="url(#__lottie_element_8)" fill-opacity="1" d=" M-106.87799835205078,-40 C-109.89099884033203,-90.91100311279297 -75.46600341796875,-107.52899932861328 -56.40700149536133,-107.52899932861328 C-37.347999572753906,-107.52899932861328 -9.230999946594238,-90.11799621582031 -1.819000005722046,-52 C9.82800006866455,-61.52899932861328 33.94599914550781,-84.94200134277344 68.7699966430664,-78.8239974975586 C102.28800201416016,-72.93599700927734 113.23699951171875,-41.29399871826172 103.8280029296875,-12.470999717712402 C85.23999786376953,44.470001220703125 -23.465999603271484,79.29399871826172 -40.87799835205078,107.52899932861328 C-39.9370002746582,67.52899932861328 -103.46600341796875,17.64699935913086 -106.87799835205078,-40z"></path><path fill="url(#__lottie_element_9)" fill-opacity="1" d=" M-106.87799835205078,-40 C-109.89099884033203,-90.91100311279297 -75.46600341796875,-107.52899932861328 -56.40700149536133,-107.52899932861328 C-37.347999572753906,-107.52899932861328 -9.230999946594238,-90.11799621582031 -1.819000005722046,-52 C9.82800006866455,-61.52899932861328 33.94599914550781,-84.94200134277344 68.7699966430664,-78.8239974975586 C102.28800201416016,-72.93599700927734 113.23699951171875,-41.29399871826172 103.8280029296875,-12.470999717712402 C85.23999786376953,44.470001220703125 -23.465999603271484,79.29399871826172 -40.87799835205078,107.52899932861328 C-39.9370002746582,67.52899932861328 -103.46600341796875,17.64699935913086 -106.87799835205078,-40z"></path><path fill="url(#__lottie_element_10)" fill-opacity="1" d=" M-106.87799835205078,-40 C-109.89099884033203,-90.91100311279297 -75.46600341796875,-107.52899932861328 -56.40700149536133,-107.52899932861328 C-37.347999572753906,-107.52899932861328 -9.230999946594238,-90.11799621582031 -1.819000005722046,-52 C9.82800006866455,-61.52899932861328 33.94599914550781,-84.94200134277344 68.7699966430664,-78.8239974975586 C102.28800201416016,-72.93599700927734 113.23699951171875,-41.29399871826172 103.8280029296875,-12.470999717712402 C85.23999786376953,44.470001220703125 -23.465999603271484,79.29399871826172 -40.87799835205078,107.52899932861328 C-39.9370002746582,67.52899932861328 -103.46600341796875,17.64699935913086 -106.87799835205078,-40z"></path></g><g opacity="0.4" transform="matrix(1,0,0,1,223.89300537109375,150.2969970703125)"><path fill="url(#__lottie_element_11)" fill-opacity="1" d=" M-52.4370002746582,-40 C-55.45000076293945,-90.91100311279297 -21.024999618530273,-107.52899932861328 -1.965999960899353,-107.52899932861328 C17.093000411987305,-107.52899932861328 45.209999084472656,-90.11799621582031 52.62200164794922,-52 C37.37900161743164,3.2769999504089355 19.839000701904297,83.37799835205078 13.562999725341797,107.52899932861328 C14.503999710083008,67.52899932861328 -49.025001525878906,17.64699935913086 -52.4370002746582,-40z"></path></g><g opacity="0.5" transform="matrix(1,0,0,1,281.7149963378906,185.20399475097656)"><path fill="rgb(140,253,94)" fill-opacity="1" d=" M-31.55299949645996,17.56399917602539 C-26.860000610351562,13.34000015258789 22.565000534057617,-18.67099952697754 33.38800048828125,-22.43600082397461 C25.812999725341797,-18.290000915527344 -20.106000900268555,15.277000427246094 -26.847000122070312,20.857999801635742 C-30.899999618530273,24.21299934387207 -36.25899887084961,21.798999786376953 -31.55299949645996,17.56399917602539z"></path><path stroke-linecap="round" stroke-linejoin="round" fill-opacity="0" stroke="rgb(140,253,94)" stroke-opacity="1" stroke-width="2" d=" M-31.55299949645996,17.56399917602539 C-26.860000610351562,13.34000015258789 22.565000534057617,-18.67099952697754 33.38800048828125,-22.43600082397461 C25.812999725341797,-18.290000915527344 -20.106000900268555,15.277000427246094 -26.847000122070312,20.857999801635742 C-30.899999618530273,24.21299934387207 -36.25899887084961,21.798999786376953 -31.55299949645996,17.56399917602539z"></path></g><g opacity="0.5" transform="matrix(1,0,0,1,227.19500732421875,159.25100708007812)"><path fill="rgb(140,253,94)" fill-opacity="1" d=" M19.20199966430664,39.28099822998047 C15.092000007629395,34.487998962402344 -20.58799934387207,-30.277999877929688 -24.091999053955078,-41.18899917602539 C-20.128999710083008,-33.516998291015625 17.19099998474121,27.783000946044922 22.607999801635742,34.65599822998047 C25.864999771118164,38.78799819946289 23.322999954223633,44.08700180053711 19.20199966430664,39.28099822998047z"></path><path stroke-linecap="round" stroke-linejoin="round" fill-opacity="0" stroke="rgb(140,253,94)" stroke-opacity="1" stroke-width="2" d=" M19.20199966430664,39.28099822998047 C15.092000007629395,34.487998962402344 -20.58799934387207,-30.277999877929688 -24.091999053955078,-41.18899917602539 C-20.128999710083008,-33.516998291015625 17.19099998474121,27.783000946044922 22.607999801635742,34.65599822998047 C25.864999771118164,38.78799819946289 23.322999954223633,44.08700180053711 19.20199966430664,39.28099822998047z"></path></g><g opacity="0.5" transform="matrix(1,0,0,1,292.02099609375,128.8040008544922)"><path fill="rgb(140,253,94)" fill-opacity="1" d=" M-27.740999221801758,28.316999435424805 C-22.479000091552734,24.827999114990234 25.202999114990234,-20.024999618530273 31.55299949645996,-29.565000534057617 C25.645999908447266,-23.267000198364258 -21.124000549316406,18.948999404907227 -28.211999893188477,24.082000732421875 C-32.4739990234375,27.167999267578125 -33.018001556396484,31.815000534057617 -27.740999221801758,28.316999435424805z"></path><path stroke-linecap="round" stroke-linejoin="round" fill-opacity="0" stroke="rgb(140,253,94)" stroke-opacity="1" stroke-width="2" d=" M-27.740999221801758,28.316999435424805 C-22.479000091552734,24.827999114990234 25.202999114990234,-20.024999618530273 31.55299949645996,-29.565000534057617 C25.645999908447266,-23.267000198364258 -21.124000549316406,18.948999404907227 -28.211999893188477,24.082000732421875 C-32.4739990234375,27.167999267578125 -33.018001556396484,31.815000534057617 -27.740999221801758,28.316999435424805z"></path></g><g opacity="0.5" transform="matrix(1,0,0,1,249.12600708007812,123.2020034790039)"><path fill="rgb(140,253,94)" fill-opacity="1" d=" M11.388999938964844,24.507999420166016 C7.695000171661377,19.38800048828125 -12.38599967956543,-15.621000289916992 -14.96399974822998,-26.78700065612793 C-11.656999588012695,-18.809999465942383 8.5,13.406999588012695 13.322999954223633,20.709999084472656 C16.222999572753906,25.10099983215332 15.093000411987305,29.642000198364258 11.388999938964844,24.507999420166016z"></path><path stroke-linecap="round" stroke-linejoin="round" fill-opacity="0" stroke="rgb(140,253,94)" stroke-opacity="1" stroke-width="2" d=" M11.388999938964844,24.507999420166016 C7.695000171661377,19.38800048828125 -12.38599967956543,-15.621000289916992 -14.96399974822998,-26.78700065612793 C-11.656999588012695,-18.809999465942383 8.5,13.406999588012695 13.322999954223633,20.709999084472656 C16.222999572753906,25.10099983215332 15.093000411987305,29.642000198364258 11.388999938964844,24.507999420166016z"></path></g><g opacity="0.4" transform="matrix(1,0,0,1,264.45599365234375,177.17999267578125)"><path fill="rgb(135,250,88)" fill-opacity="1" d=" M-24.52899932861328,70.41200256347656 C-21.81800079345703,62.19599914550781 5.864999771118164,-51.632999420166016 11.118000030517578,-70.41200256347656 C4.886000156402588,-42.571998596191406 10.461999893188477,-27.871999740600586 24.52899932861328,-42.52899932861328 C1.9800000190734863,-22.183000564575195 -6.918000221252441,-2.177000045776367 15.706000328063965,-21 C11.118000030517578,-15.352999687194824 -1.3459999561309814,-6.396999835968018 19.94099998474121,-12.175999641418457 C7.002999782562256,-1.5700000524520874 -8.64799976348877,14.656999588012695 7.940999984741211,12.529000282287598 C-0.8809999823570251,18.59000015258789 -6.578999996185303,33.66699981689453 4.4120001792907715,30.52899932861328 C-1.2170000076293945,37.53900146484375 -11.095999717712402,46.284000396728516 -24.52899932861328,70.41200256347656z"></path></g><g opacity="0.6" transform="matrix(1,0,0,1,252.10299682617188,172.48800659179688)"><path fill="rgb(135,250,88)" fill-opacity="1" d=" M-19.58799934387207,21.10300064086914 C4.682000160217285,42.48099899291992 -13.534000396728516,8.331000328063965 -24.52899932861328,-5.71999979019165 C-16.815000534057617,3.23799991607666 -8.005000114440918,2.3919999599456787 -15.706000328063965,-12.779000282287598 C-11.118000030517578,-7.485000133514404 -1.940999984741211,6.985000133514404 -2.6470000743865967,-15.602999687194824 C7.281000137329102,-8.769000053405762 9,-17.367000579833984 5.823999881744385,-35.720001220703125 C10.585000038146973,-35.11899948120117 18.881999969482422,-41.01499938964844 12.175999641418457,-75.25 C15.704999923706055,-64.66200256347656 21.551000595092773,-60.30099868774414 24.52899932861328,-71.36699676513672 C22.79400062561035,-56.14400100708008 -12.121999740600586,72.33200073242188 -13.32699966430664,75.25 C-7.940999984741211,55.69200134277344 -10.763999938964844,32.26300048828125 -19.58799934387207,21.10300064086914z"></path></g><g opacity="0.5" transform="matrix(1,0,0,1,248.5659942626953,148.45399475097656)"><path fill="rgb(135,250,88)" fill-opacity="1" d=" M-3.815999984741211,1.3730000257492065 C-2.3380000591278076,5.314000129699707 5.5960001945495605,2.313999891281128 3.7139999866485596,-1.4509999752044678 C1.8320000171661377,-5.216000080108643 -5.228000164031982,-2.3919999599456787 -3.815999984741211,1.3730000257492065z"></path></g><g opacity="0.5" transform="matrix(1,0,0,1,275.40301513671875,204.218994140625)"><path fill="rgb(135,250,88)" fill-opacity="1" d=" M-2.4170000553131104,1.3730000257492065 C-0.9390000104904175,5.314000129699707 4.171000003814697,2.313999891281128 2.2890000343322754,-1.4509999752044678 C0.40700000524520874,-5.216000080108643 -3.8289999961853027,-2.3919999599456787 -2.4170000553131104,1.3730000257492065z"></path></g><g opacity="1" transform="matrix(1,0,0,1,254.9040069580078,181.71299743652344)"><path fill="rgb(141,254,95)" fill-opacity="1" d=" M-19.917999267578125,71.87799835205078 C-16.670000076293945,48.55699920654297 11.795999526977539,-45.599998474121094 19.964000701904297,-76.35700225830078 C16.062999725341797,-51.96200180053711 -13.645000457763672,59.04499816894531 -13.057000160217285,72.28399658203125 C-12.781999588012695,78.46800231933594 -20.634000778198242,77.02200317382812 -19.917999267578125,71.87799835205078z"></path><path stroke-linecap="round" stroke-linejoin="round" fill-opacity="0" stroke="rgb(140,253,94)" stroke-opacity="1" stroke-width="2" d=" M-19.917999267578125,71.87799835205078 C-16.670000076293945,48.55699920654297 11.795999526977539,-45.599998474121094 19.964000701904297,-76.35700225830078 C16.062999725341797,-51.96200180053711 -13.645000457763672,59.04499816894531 -13.057000160217285,72.28399658203125 C-12.781999588012695,78.46800231933594 -20.634000778198242,77.02200317382812 -19.917999267578125,71.87799835205078z"></path></g><g opacity="0.7000000000000001" transform="matrix(1,0,0,1,307.3139953613281,179.79299926757812)"><path fill="url(#__lottie_element_12)" fill-opacity="1" d=" M-62.09299850463867,66.73899841308594 C-16.211000442504883,37.09199905395508 10.61299991607666,22.974000930786133 32.494998931884766,6.738999843597412 C58.374000549316406,-12.461999893188477 65.6709976196289,-41.965999603271484 60.72999954223633,-54.672000885009766 C53.34600067138672,-73.66000366210938 21.201000213623047,-73.73200225830078 8.494999885559082,-29.26099967956543 C4.242000102996826,-14.375 15.553999900817871,-5.9670000076293945 12.729999542236328,-3.1429998874664307 C-14.177000045776367,23.763999938964844 -64.51899719238281,48.547000885009766 -62.09299850463867,66.73899841308594z"></path></g><g opacity="0.8" transform="matrix(1,0,0,1,278.3340148925781,132.9459991455078)"><path fill="url(#__lottie_element_13)" fill-opacity="1" d=" M-106.87799835205078,-22.64900016784668 C-109.89099884033203,-73.55999755859375 -75.46600341796875,-90.1780014038086 -56.40700149536133,-90.1780014038086 C-37.347999572753906,-90.1780014038086 -9.230999946594238,-72.76699829101562 -1.819000005722046,-34.64899826049805 C9.82800006866455,-44.178001403808594 33.94599914550781,-67.59100341796875 68.7699966430664,-61.472999572753906 C102.28800201416016,-55.584999084472656 113.23699951171875,-23.94300079345703 103.8280029296875,4.880000114440918 C92.09400177001953,40.82400131225586 44.45199966430664,67.9540023803711 6.531000137329102,90.1780014038086 C24.41699981689453,63.762001037597656 108.48100280761719,30.257999420166016 95.71099853515625,-23.767000198364258 C86.53500366210938,-62.590999603271484 31.47599983215332,-61.178001403808594 -6.642000198364258,-18.825000762939453 C-11.583000183105469,-76.0009994506836 -60.183998107910156,-88.76899719238281 -80.05400085449219,-69.64900207519531 C-117.46600341796875,-33.64899826049805 -80.05400085449219,29.881000518798828 -53.698001861572266,86.91999816894531 C-72.20999908447266,54.74800109863281 -104.4739990234375,17.976999282836914 -106.87799835205078,-22.64900016784668z"></path></g><g opacity="1" transform="matrix(1,0,0,1,278.3340148925781,150.2969970703125)"><path stroke-linecap="round" stroke-linejoin="round" fill-opacity="0" stroke="rgb(51,147,0)" stroke-opacity="1" stroke-width="8" d=" M-106.87799835205078,-40 C-109.89099884033203,-90.91100311279297 -75.46600341796875,-107.52899932861328 -56.40700149536133,-107.52899932861328 C-37.347999572753906,-107.52899932861328 -9.230999946594238,-90.11799621582031 -1.819000005722046,-52 C9.82800006866455,-61.52899932861328 33.94599914550781,-84.94200134277344 68.7699966430664,-78.8239974975586 C102.28800201416016,-72.93599700927734 113.23699951171875,-41.29399871826172 103.8280029296875,-12.470999717712402 C85.23999786376953,44.470001220703125 -23.465999603271484,79.29399871826172 -40.87799835205078,107.52899932861328 C-39.9370002746582,67.52899932861328 -103.46600341796875,17.64699935913086 -106.87799835205078,-40z"></path></g><g opacity="1" transform="matrix(1,0,0,1,278.3340148925781,150.2969970703125)"><path stroke-linecap="round" stroke-linejoin="round" fill-opacity="0" stroke="rgb(42,109,3)" stroke-opacity="1" stroke-width="8" d=" M90.79000091552734,10.72700023651123 C55.91400146484375,54.33100128173828 -25.96500015258789,83.34700012207031 -40.87799835205078,107.52899932861328 C-40.27299880981445,81.79299926757812 -66.35600280761719,51.965999603271484 -85.94400024414062,18.61199951171875"></path></g></g><g style="display: block;" transform="matrix(1,0,0,1,237.44732666015625,255.90786743164062)" opacity="1"><g opacity="1" transform="matrix(1,0,0,1,0,0)"><path fill="url(#__lottie_element_20)" fill-opacity="1" d=" M-16.22599983215332,-4.610000133514404 C-10.579000473022461,-4.080999851226807 -6.760000228881836,-4.1529998779296875 -3.3440001010894775,-7.080999851226807 C-0.8730000257492065,-9.199000358581543 -0.1679999977350235,-15.550999641418457 0.5379999876022339,-19.96299934387207 C1.534999966621399,-26.19700050354004 9.265999794006348,-26.832000732421875 7.77400016784668,-18.375 C7.244999885559082,-15.375 5.303999900817871,-8.027000427246094 6.5970001220703125,-4.197999954223633 C8.12600040435791,0.3310000002384186 11.126999855041504,1.0959999561309814 16.77400016784668,2.9779999256134033 C22.42099952697754,4.860000133514404 24.266000747680664,12.039999961853027 15.71500015258789,10.565999984741211 C5.480000019073486,8.800999641418457 -0.8730000257492065,0.8600000143051147 -3.872999906539917,24.68400001525879 C-1.0490000247955322,5.0960001945495605 -4.932000160217285,4.919000148773193 -15.166999816894531,3.684000015258789 C-22.141000747680664,2.8420000076293945 -24.711999893188477,-5.406000137329102 -16.22599983215332,-4.610000133514404z"></path></g></g><g style="display: none;"><g><path fill="url(#__lottie_element_16)"></path><path stroke-linecap="butt" stroke-linejoin="miter" fill-opacity="0" stroke-miterlimit="4"></path></g><g><path></path></g></g></g></svg>