<svg width="512" height="414" viewBox="0 0 512 414" fill="none" xmlns="http://www.w3.org/2000/svg">
<g clip-path="url(#clip0_440_159)">
<mask id="mask0_440_159" style="mask-type:luminance" maskUnits="userSpaceOnUse" x="0" y="-98" width="512" height="512">
<path d="M512 -98H0V414H512V-98Z" fill="white"/>
</mask>
<g mask="url(#mask0_440_159)">
<path d="M430.788 124.691C430.788 124.691 427.316 193.569 407.537 177.844C382.854 158.219 367.768 87.8101 367.768 87.8101C367.768 87.8101 376.274 80.613 376.593 67.8421C377.03 50.4056 363.583 43.3189 351.878 43.3189C339.296 43.3189 327.72 53.8597 327.718 67.2546C327.716 80.2894 334.63 84.861 334.63 84.861C334.63 84.861 309.236 161.408 255.956 165.575C206.122 169.472 177.966 84.5355 177.966 84.5355C177.966 84.5355 182.516 78.8494 182.934 68.2731C183.458 55.0549 171.312 42.8389 156.765 42.8389C144.994 42.8389 132.099 52.9582 133.048 67.1883C133.996 81.4184 143.522 86.421 143.522 86.421C135.946 107.126 122.516 162.609 103.116 177.746C88.9053 188.834 79.0595 123.314 79.0595 123.314C79.0595 123.314 73.3158 186.848 107.479 239.347C131.532 276.309 175.366 307.801 254.909 307.801C447.435 307.801 430.788 124.691 430.788 124.691Z" fill="url(#paint0_radial_440_159)"/>
<path d="M430.788 124.691C430.788 124.691 427.316 193.569 407.537 177.844C382.854 158.219 367.768 87.8101 367.768 87.8101C367.768 87.8101 376.274 80.613 376.593 67.8421C377.03 50.4056 363.583 43.3189 351.878 43.3189C339.296 43.3189 327.72 53.8597 327.718 67.2546C327.716 80.2894 334.63 84.861 334.63 84.861C334.63 84.861 309.236 161.408 255.956 165.575C206.122 169.472 177.966 84.5355 177.966 84.5355C177.966 84.5355 182.516 78.8494 182.934 68.2731C183.458 55.0549 171.312 42.8389 156.765 42.8389C144.994 42.8389 132.099 52.9582 133.048 67.1883C133.996 81.4184 143.522 86.421 143.522 86.421C135.946 107.126 122.516 162.609 103.116 177.746C88.9053 188.834 79.0595 123.314 79.0595 123.314C79.0595 123.314 73.3158 186.848 107.479 239.347C131.532 276.309 175.366 307.801 254.909 307.801C447.435 307.801 430.788 124.691 430.788 124.691Z" fill="url(#paint1_radial_440_159)"/>
<path d="M430.788 124.691C430.788 124.691 427.316 193.569 407.537 177.844C382.854 158.219 367.768 87.8101 367.768 87.8101C367.768 87.8101 376.274 80.613 376.593 67.8421C377.03 50.4056 363.583 43.3189 351.878 43.3189C339.296 43.3189 327.72 53.8597 327.718 67.2546C327.716 80.2894 334.63 84.861 334.63 84.861C334.63 84.861 309.236 161.408 255.956 165.575C206.122 169.472 177.966 84.5355 177.966 84.5355C177.966 84.5355 182.516 78.8494 182.934 68.2731C183.458 55.0549 171.312 42.8389 156.765 42.8389C144.994 42.8389 132.099 52.9582 133.048 67.1883C133.996 81.4184 143.522 86.421 143.522 86.421C135.946 107.126 122.516 162.609 103.116 177.746C88.9053 188.834 79.0595 123.314 79.0595 123.314C79.0595 123.314 73.3158 186.848 107.479 239.347C131.532 276.309 175.366 307.801 254.909 307.801C447.435 307.801 430.788 124.691 430.788 124.691Z" stroke="#996200" stroke-width="7.68" stroke-linecap="round" stroke-linejoin="round"/>
<path d="M377.296 122.191C371.137 103.533 367.768 87.8101 367.768 87.8101C367.768 87.8101 376.274 80.613 376.593 67.8421C377.03 50.4056 363.583 43.3189 351.878 43.3189C339.296 43.3189 327.72 53.8597 327.718 67.2546C327.716 80.2894 334.63 84.861 334.63 84.861C334.63 84.861 309.236 161.408 255.956 165.575C206.122 169.472 177.966 84.5355 177.966 84.5355C177.966 84.5355 182.516 78.8494 182.934 68.2731C183.458 55.0549 171.312 42.8389 156.765 42.8389C144.994 42.8389 132.099 52.9582 133.048 67.1883C133.996 81.4184 143.522 86.421 143.522 86.421C140.114 95.7358 135.521 112.089 129.732 128.642" stroke="#DD9E00" stroke-width="8.64" stroke-linecap="round" stroke-linejoin="round"/>
<g opacity="0.5">
<path d="M324.082 108.74C312.03 131.583 289.53 162.95 255.956 165.575C225.81 167.932 203.597 137.782 190.751 113.591" stroke="#996200" stroke-width="8.64" stroke-linecap="round" stroke-linejoin="round"/>
</g>
<path d="M73.3491 285.704C73.3491 285.704 66.6438 288.777 66.6438 294.572C66.6438 302.301 66.5723 314.411 67.4371 318.08C67.9331 320.183 110.319 369.594 255.957 369.594C403.758 369.594 442.509 324.084 443.182 319.661C443.985 314.389 445.181 303.803 445.181 296.704C445.181 291.105 438.979 287.71 438.979 287.71L73.3491 285.704Z" fill="url(#paint2_linear_440_159)"/>
<path d="M73.3491 285.704C73.3491 285.704 66.6438 288.777 66.6438 294.572C66.6438 302.301 66.5723 314.411 67.4371 318.08C67.9331 320.183 110.319 369.594 255.957 369.594C403.758 369.594 442.509 324.084 443.182 319.661C443.985 314.389 445.181 303.803 445.181 296.704C445.181 291.105 438.979 287.71 438.979 287.71L73.3491 285.704Z" stroke="#996200" stroke-width="8.064" stroke-linecap="round" stroke-linejoin="round"/>
<path d="M74.7313 124.605C74.2762 200.528 75.3236 247.57 75.3236 284.341C75.3236 298.208 133.415 329.58 256.916 329.58C381.091 329.58 435.781 299.647 435.781 281.451C435.781 219.228 435.956 177.008 435.507 123.001C435.507 123.001 457.556 117.968 458.091 97.0086C458.781 69.9481 435.925 68.4707 428.321 68.6473C423.87 68.751 404.757 71.8883 402.517 92.9651C400.226 114.534 423.3 121.725 423.3 121.725C423.3 121.725 417.865 173.467 397.575 205.851C377.286 238.236 345.213 232.631 326.294 212.543C300.736 185.407 278.591 137.59 278.591 137.59C282.956 131.768 285.716 125.768 285.83 115.878C286.021 99.4614 270.876 87.2473 256.246 87.2521C243.099 87.256 226.665 97.1843 226.609 113.583C226.556 129.128 233.314 136.666 233.314 136.666C233.314 136.666 229.413 147.834 206.743 187.888C186.313 223.983 165.236 234.848 139.766 227.227C102.917 216.2 93.1959 121.903 93.1959 121.903C93.1959 121.903 109.316 111.968 108.998 94.72C108.656 76.2112 91.6954 67.9648 80.2513 68.0425C61.7962 68.1683 53.3492 86.4064 53.6074 98.0761C53.9962 115.688 74.7313 124.605 74.7313 124.605Z" fill="url(#paint3_linear_440_159)"/>
<path d="M74.7313 124.605C74.2762 200.528 75.3236 247.57 75.3236 284.341C75.3236 298.208 133.415 329.58 256.916 329.58C381.091 329.58 435.781 299.647 435.781 281.451C435.781 219.228 435.956 177.008 435.507 123.001C435.507 123.001 457.556 117.968 458.091 97.0086C458.781 69.9481 435.925 68.4707 428.321 68.6473C423.87 68.751 404.757 71.8883 402.517 92.9651C400.226 114.534 423.3 121.725 423.3 121.725C423.3 121.725 417.865 173.467 397.575 205.851C377.286 238.236 345.213 232.631 326.294 212.543C300.736 185.407 278.591 137.59 278.591 137.59C282.956 131.768 285.716 125.768 285.83 115.878C286.021 99.4614 270.876 87.2473 256.246 87.2521C243.099 87.256 226.665 97.1843 226.609 113.583C226.556 129.128 233.314 136.666 233.314 136.666C233.314 136.666 229.413 147.834 206.743 187.888C186.313 223.983 165.236 234.848 139.766 227.227C102.917 216.2 93.1959 121.903 93.1959 121.903C93.1959 121.903 109.316 111.968 108.998 94.72C108.656 76.2112 91.6954 67.9648 80.2513 68.0425C61.7962 68.1683 53.3492 86.4064 53.6074 98.0761C53.9962 115.688 74.7313 124.605 74.7313 124.605Z" stroke="#996200" stroke-width="7.68" stroke-linecap="round" stroke-linejoin="round"/>
<g opacity="0.75">
<path d="M388.683 217.038C368.785 236.439 342.634 229.892 326.294 212.543C300.736 185.408 278.591 137.59 278.591 137.59C282.956 131.769 285.716 125.769 285.83 115.879C286.021 99.4617 270.876 87.2476 256.246 87.2524C243.099 87.2563 226.665 97.1846 226.609 113.583C226.556 129.129 233.314 136.667 233.314 136.667C233.314 136.667 229.413 147.834 206.743 187.888C186.313 223.983 165.236 234.849 139.767 227.227C135.04 225.813 130.761 223.029 126.891 219.251" stroke="#DD9E00" stroke-width="8.64" stroke-linecap="round" stroke-linejoin="round"/>
</g>
<g opacity="0.75">
<path d="M283.157 129.903C284.805 126.056 285.764 121.623 285.83 115.879C286.021 99.4617 270.876 87.2476 256.246 87.2524C243.099 87.2563 226.665 97.1846 226.609 113.583C226.59 119.319 227.497 123.966 228.651 127.545" stroke="#F2CE29" stroke-width="8.64" stroke-linecap="round" stroke-linejoin="round"/>
</g>
<g opacity="0.5">
<path d="M76.7635 279.541C76.5552 291.023 132.695 322.14 256.196 322.14C380.371 322.14 435.301 290.67 435.301 278.812" stroke="#996200" stroke-width="7.68" stroke-linecap="round" stroke-linejoin="round"/>
</g>
<path d="M76.7635 287.221C76.5552 298.703 132.695 329.82 256.196 329.82C380.371 329.82 435.301 298.351 435.301 286.492" stroke="#DD9E00" stroke-width="8.64" stroke-linecap="round" stroke-linejoin="round"/>
<g opacity="0.2">
<path d="M91.796 259.329C91.796 277.091 85.4562 291.489 77.636 291.489C69.8159 291.489 63.476 277.091 63.476 259.329" fill="#28BF84"/>
</g>
<path d="M91.796 248.769C91.796 266.531 85.4562 280.929 77.636 280.929C69.8159 280.929 63.476 266.531 63.476 248.769C63.476 231.007 69.8159 216.609 77.636 216.609C85.4562 216.609 91.796 231.007 91.796 248.769Z" fill="url(#paint4_linear_440_159)"/>
<g opacity="0.6">
<path d="M87.2898 236.184C87.2898 244.856 85.7826 229.66 77.636 229.66C69.692 229.66 67.9822 244.856 67.9822 236.184C67.9822 227.513 72.3042 220.482 77.636 220.482C82.9678 220.482 87.2898 227.513 87.2898 236.184Z" fill="white"/>
</g>
<path d="M91.796 248.769C91.796 266.531 85.4562 280.929 77.636 280.929C69.8159 280.929 63.476 266.531 63.476 248.769C63.476 231.007 69.8159 216.609 77.636 216.609C85.4562 216.609 91.796 231.007 91.796 248.769Z" stroke="#007C5B" stroke-width="7.68" stroke-linecap="round" stroke-linejoin="round"/>
<path d="M91.796 248.769C91.796 266.531 85.4562 280.929 77.636 280.929C69.8159 280.929 63.476 266.531 63.476 248.769" stroke="#005444" stroke-width="7.68" stroke-linecap="round" stroke-linejoin="round"/>
<g opacity="0.2">
<path d="M138.42 263.252C125.998 264.25 120.657 276.658 122.537 288.888C124.215 299.797 133.398 310.31 145.057 309.239C153.725 308.442 160.939 299.988 159.517 285.288C158.094 270.589 148.14 262.472 138.42 263.252Z" fill="#B51296"/>
</g>
<path d="M138.42 253.653C125.998 254.65 120.657 267.058 122.537 279.288C124.215 290.197 133.398 300.711 145.057 299.639C153.725 298.843 160.939 290.388 159.517 275.688C158.094 260.989 148.14 252.872 138.42 253.653Z" fill="url(#paint5_linear_440_159)"/>
<g opacity="0.5">
<path d="M131.927 259.575C124.928 263.889 126.108 271.752 127.768 273.8C129.686 276.163 127.237 268.624 134.83 263.623C142.243 258.741 152.196 265.535 148.481 260.732C144.767 255.93 137.404 256.199 131.927 259.575Z" fill="white"/>
</g>
<path d="M138.42 253.653C125.998 254.65 120.657 267.058 122.537 279.288C124.215 290.197 133.398 300.711 145.057 299.639C153.725 298.843 160.939 290.388 159.517 275.688C158.094 260.989 148.14 252.872 138.42 253.653Z" stroke="#B51296" stroke-width="7.68" stroke-linecap="round" stroke-linejoin="round"/>
<path d="M127.139 290.546C131.258 296.336 137.658 300.319 145.056 299.64C153.724 298.843 160.938 290.388 159.516 275.688" stroke="#93007E" stroke-width="7.68" stroke-linecap="round" stroke-linejoin="round"/>
<g opacity="0.2">
<path d="M293.844 291.488C293.844 310.045 279.148 325.088 261.021 325.088C242.894 325.088 228.199 310.045 228.199 291.488C228.199 272.931 242.894 257.888 261.021 257.888C279.149 257.888 293.844 272.931 293.844 291.488Z" fill="#28BF84"/>
</g>
<path d="M293.843 279.488C293.843 298.045 279.147 313.088 261.02 313.088C242.893 313.088 228.198 298.045 228.198 279.488C228.198 260.931 242.892 245.888 261.02 245.888C279.148 245.888 293.843 260.931 293.843 279.488Z" fill="url(#paint6_linear_440_159)"/>
<g opacity="0.6">
<path d="M283.397 266.34C283.397 275.401 279.902 259.524 261.02 259.524C242.605 259.524 238.644 275.401 238.644 266.34C238.644 257.28 248.662 249.936 261.02 249.936C273.378 249.936 283.397 257.28 283.397 266.34Z" fill="white"/>
</g>
<path d="M293.844 279.488C293.844 298.045 279.148 313.088 261.021 313.088C242.894 313.088 228.199 298.045 228.199 279.488C228.199 260.931 242.894 245.888 261.021 245.888C279.149 245.888 293.844 260.931 293.844 279.488Z" stroke="#007C5B" stroke-width="7.68" stroke-linecap="round" stroke-linejoin="round"/>
<path d="M293.844 279.488C293.844 298.045 279.148 313.088 261.021 313.088C242.894 313.088 228.199 298.045 228.199 279.488" stroke="#005444" stroke-width="7.68" stroke-linecap="round" stroke-linejoin="round"/>
<g opacity="0.2">
<path d="M372.576 267.408C384.997 268.406 390.339 280.814 388.458 293.044C386.781 303.953 377.597 314.467 365.938 313.395C357.27 312.599 350.056 304.144 351.479 289.444C352.901 274.745 362.856 266.628 372.576 267.408Z" fill="#D843A7"/>
</g>
<path d="M372.576 257.808C384.997 258.806 390.339 271.214 388.458 283.444C386.781 294.353 377.597 304.867 365.938 303.795C357.27 302.998 350.056 294.544 351.479 279.844C352.901 265.145 362.856 257.028 372.576 257.808Z" fill="url(#paint7_linear_440_159)"/>
<g opacity="0.5">
<path d="M367.914 261.781C375.836 259.581 380.801 265.793 381.172 268.404C381.602 271.415 377.74 264.494 368.909 266.662C360.29 268.779 358.504 280.696 357.508 274.706C356.511 268.717 361.715 263.501 367.914 261.781Z" fill="white"/>
</g>
<path d="M372.576 257.808C384.997 258.806 390.339 271.214 388.458 283.444C386.781 294.353 377.597 304.867 365.938 303.795C357.27 302.998 350.056 294.544 351.479 279.844C352.901 265.145 362.856 257.028 372.576 257.808Z" stroke="#B51296" stroke-width="7.68" stroke-linecap="round" stroke-linejoin="round"/>
<path d="M388.458 283.444C386.781 294.353 377.597 304.867 365.938 303.795C360.574 303.302 355.766 299.877 353.218 293.852" stroke="#93007E" stroke-width="7.68" stroke-linecap="round" stroke-linejoin="round"/>
<g opacity="0.2">
<path d="M450.356 257.234C450.356 275.164 443.694 289.698 435.476 289.698C427.258 289.698 420.596 275.164 420.596 257.234" fill="#28BF84"/>
</g>
<path d="M450.356 246.674C450.356 264.604 443.694 279.139 435.476 279.139C427.258 279.139 420.596 264.604 420.596 246.674C420.596 228.744 427.258 214.209 435.476 214.209C443.694 214.209 450.356 228.744 450.356 246.674Z" fill="url(#paint8_linear_440_159)"/>
<g opacity="0.6">
<path d="M445.62 233.97C445.62 242.724 444.036 227.384 435.476 227.384C427.128 227.384 425.332 242.724 425.332 233.97C425.332 225.215 429.873 218.119 435.476 218.119C441.079 218.119 445.62 225.215 445.62 233.97Z" fill="white"/>
</g>
<path d="M450.356 246.674C450.356 264.604 443.694 279.139 435.476 279.139C427.258 279.139 420.596 264.604 420.596 246.674C420.596 228.744 427.258 214.209 435.476 214.209C443.694 214.209 450.356 228.744 450.356 246.674Z" stroke="#007C5B" stroke-width="7.68" stroke-linecap="round" stroke-linejoin="round"/>
<path d="M450.356 246.674C450.356 264.604 443.694 279.139 435.476 279.139C427.258 279.139 420.596 264.604 420.596 246.674" stroke="#005444" stroke-width="7.68" stroke-linecap="round" stroke-linejoin="round"/>
</g>
</g>
<defs>
<radialGradient id="paint0_radial_440_159" cx="0" cy="0" r="1" gradientUnits="userSpaceOnUse" gradientTransform="translate(255.13 -24.0232) scale(339.854 339.854)">
<stop stop-color="#E35FB8"/>
<stop offset="0.5" stop-color="#D042A1"/>
<stop offset="1" stop-color="#BC258A"/>
</radialGradient>
<radialGradient id="paint1_radial_440_159" cx="0" cy="0" r="1" gradientUnits="userSpaceOnUse" gradientTransform="translate(255.13 -24.0232) scale(339.854 339.854)">
<stop offset="0.14" stop-color="#CF9E1D"/>
<stop offset="0.78" stop-color="#A16B12"/>
<stop offset="0.97" stop-color="#743806"/>
</radialGradient>
<linearGradient id="paint2_linear_440_159" x1="66.5945" y1="327.32" x2="445.134" y2="327.32" gradientUnits="userSpaceOnUse">
<stop stop-color="#BF9210"/>
<stop offset="0.16" stop-color="#C99A16"/>
<stop offset="0.26" stop-color="#D4A21C"/>
<stop offset="0.35" stop-color="#E7BD31"/>
<stop offset="0.5" stop-color="#F9D846"/>
<stop offset="0.71" stop-color="#CBA223"/>
<stop offset="0.81" stop-color="#9E6C01"/>
<stop offset="0.93" stop-color="#AD8611"/>
<stop offset="0.99" stop-color="#BCA121"/>
</linearGradient>
<linearGradient id="paint3_linear_440_159" x1="62.1697" y1="205.416" x2="433.481" y2="205.416" gradientUnits="userSpaceOnUse">
<stop stop-color="#BF9210"/>
<stop offset="0.16" stop-color="#C99A16"/>
<stop offset="0.26" stop-color="#D4A21C"/>
<stop offset="0.34" stop-color="#E7C023"/>
<stop offset="0.45" stop-color="#F9DD2A"/>
<stop offset="0.6" stop-color="#CBA415"/>
<stop offset="0.78" stop-color="#9E6C01"/>
<stop offset="0.95" stop-color="#AD8611"/>
<stop offset="1" stop-color="#BCA121"/>
</linearGradient>
<linearGradient id="paint4_linear_440_159" x1="260.906" y1="222.513" x2="260.906" y2="314.012" gradientUnits="userSpaceOnUse">
<stop stop-color="#E7FFF6"/>
<stop offset="0.25" stop-color="#91D7BC"/>
<stop offset="0.5" stop-color="#3AB082"/>
<stop offset="0.75" stop-color="#1D8765"/>
<stop offset="1" stop-color="#005F48"/>
</linearGradient>
<linearGradient id="paint5_linear_440_159" x1="10.4526" y1="245.258" x2="11.4529" y2="309.258" gradientUnits="userSpaceOnUse">
<stop stop-color="#E35FB8"/>
<stop offset="0.5" stop-color="#D042A1"/>
<stop offset="1" stop-color="#BC258A"/>
</linearGradient>
<linearGradient id="paint6_linear_440_159" x1="260.905" y1="220.252" x2="260.905" y2="320.252" gradientUnits="userSpaceOnUse">
<stop stop-color="#E7FFF6"/>
<stop offset="0.25" stop-color="#91D7BC"/>
<stop offset="0.5" stop-color="#3AB082"/>
<stop offset="0.75" stop-color="#1D8765"/>
<stop offset="1" stop-color="#005F48"/>
</linearGradient>
<linearGradient id="paint7_linear_440_159" x1="239.822" y1="249.654" x2="240.822" y2="313.654" gradientUnits="userSpaceOnUse">
<stop stop-color="#E35FB8"/>
<stop offset="0.5" stop-color="#D042A1"/>
<stop offset="1" stop-color="#BC258A"/>
</linearGradient>
<linearGradient id="paint8_linear_440_159" x1="260.906" y1="222.513" x2="260.906" y2="314.012" gradientUnits="userSpaceOnUse">
<stop stop-color="#E7FFF6"/>
<stop offset="0.25" stop-color="#91D7BC"/>
<stop offset="0.5" stop-color="#3AB082"/>
<stop offset="0.75" stop-color="#1D8765"/>
<stop offset="1" stop-color="#005F48"/>
</linearGradient>
<clipPath id="clip0_440_159">
<rect width="512" height="414" fill="white"/>
</clipPath>
</defs>
</svg>
