<svg width="512" height="512" viewBox="0 0 512 512" fill="none" xmlns="http://www.w3.org/2000/svg">
<g clip-path="url(#clip0_440_1656)">
<mask id="mask0_440_1656" style="mask-type:luminance" maskUnits="userSpaceOnUse" x="0" y="0" width="512" height="512">
<path d="M512 0H0V512H512V0Z" fill="white"/>
</mask>
<g mask="url(#mask0_440_1656)">
<mask id="mask1_440_1656" style="mask-type:luminance" maskUnits="userSpaceOnUse" x="0" y="0" width="512" height="512">
<path d="M0 0H512V512H0V0Z" fill="white"/>
</mask>
<g mask="url(#mask1_440_1656)">
<path d="M345.001 38.5L103.001 276.5L256.803 276.696L126.205 478.556L412.501 216.5H258.501L345.001 38.5Z" fill="url(#paint0_linear_440_1656)"/>
<path d="M345.001 38.5L103.001 276.5L256.803 276.696L126.205 478.556L412.501 216.5H258.501L345.001 38.5Z" stroke="#F78C00" stroke-width="8" stroke-linecap="round" stroke-linejoin="round"/>
<path d="M345.001 38.5L103.001 276.5L256.803 276.696L126.205 478.556L412.501 216.5H258.501L345.001 38.5Z" fill="url(#paint1_linear_440_1656)"/>
<path d="M345.001 38.5L103.001 276.5L256.803 276.696L126.205 478.556L412.501 216.5H258.501L345.001 38.5Z" stroke="#F78C00" stroke-width="8" stroke-linecap="round" stroke-linejoin="round"/>
<path d="M290.864 113.048L156.474 257.115L296.161 257.477L203.539 386.555L358.058 235.686L220.288 235.807L290.864 113.048Z" fill="#FFFFD9"/>
<path d="M290.864 113.048L156.474 257.115L296.161 257.477L203.539 386.555L358.058 235.686L220.288 235.807L290.864 113.048Z" stroke="#FEF828" stroke-width="4"/>
<path d="M103.001 276.5L256.803 276.696L126.205 478.556L412.501 216.5" stroke="#EF7C00" stroke-width="8" stroke-linecap="round" stroke-linejoin="round"/>
<path d="M366.914 226.806H368.677" stroke="white" stroke-width="6" stroke-linecap="round" stroke-linejoin="round"/>
<path d="M343.812 226.806H355.744" stroke="white" stroke-width="6" stroke-linecap="round" stroke-linejoin="round"/>
</g>
</g>
</g>
<defs>
<linearGradient id="paint0_linear_440_1656" x1="101.609" y1="259.898" x2="413.436" y2="259.898" gradientUnits="userSpaceOnUse">
<stop stop-color="#FF9900"/>
<stop offset="0.34" stop-color="#FFB601"/>
<stop offset="0.5" stop-color="#FFD302"/>
<stop offset="0.78" stop-color="#FFB202"/>
<stop offset="1" stop-color="#FF9102"/>
</linearGradient>
<linearGradient id="paint1_linear_440_1656" x1="101.609" y1="259.898" x2="413.436" y2="259.898" gradientUnits="userSpaceOnUse">
<stop stop-color="#FF9900"/>
<stop offset="0.34" stop-color="#FFB601"/>
<stop offset="0.5" stop-color="#FFD302"/>
<stop offset="0.78" stop-color="#FFB202"/>
<stop offset="1" stop-color="#FF9102"/>
</linearGradient>
<clipPath id="clip0_440_1656">
<rect width="512" height="512" fill="white"/>
</clipPath>
</defs>
</svg>
