<svg width="512" height="512" viewBox="0 0 512 512" fill="none" xmlns="http://www.w3.org/2000/svg">
<g clip-path="url(#clip0_440_1686)">
<mask id="mask0_440_1686" style="mask-type:luminance" maskUnits="userSpaceOnUse" x="0" y="0" width="512" height="512">
<path d="M512 0H0V512H512V0Z" fill="white"/>
</mask>
<g mask="url(#mask0_440_1686)">
<path d="M117.524 115.89L119.234 132.096" stroke="#FEFEFE" stroke-width="5.69934" stroke-linecap="round" stroke-linejoin="round"/>
<path d="M120.846 147.359L121.161 150.351" stroke="#FEFEFE" stroke-width="5.69934" stroke-linecap="round" stroke-linejoin="round"/>
<path d="M134.225 326.594L183.932 326.629C186.382 326.631 188.441 324.791 188.715 322.355L216.656 73.0722C216.975 70.2227 214.747 67.7277 211.879 67.7257L106.034 67.6518C103.162 67.6498 100.929 70.1493 101.252 73.003L129.447 322.326C129.723 324.756 131.779 326.593 134.225 326.594Z" fill="#FD0611"/>
<path d="M216.657 73.0713L188.718 320.45C188.441 322.892 186.388 324.732 183.937 324.73L134.229 324.696C131.78 324.694 129.728 322.859 129.454 320.428L124.942 280.492L132.253 312.298C132.508 314.502 133.784 316.165 136.582 316.167L178.436 316.196C179.774 316.197 180.905 315.207 181.081 313.882L211.748 82.6323L216.657 73.0713Z" fill="#A40000"/>
<path d="M217.604 74.0215L189.665 323.301C189.55 324.288 189.151 325.172 188.542 325.884L212.696 83.5835C212.983 80.9715 211.661 78.5607 207.762 78.558L115.223 78.4934C113.655 78.4904 112.423 79.8336 112.561 81.3953L133.325 325.741C132.775 325.056 130.505 324.209 130.401 323.278L102.202 73.9504C101.881 71.1005 104.115 68.6039 106.984 68.6059L212.83 68.6798C215.699 68.6818 217.929 71.1721 217.604 74.0215Z" fill="#F85368"/>
<path d="M134.225 326.594L183.932 326.629C186.382 326.631 188.441 324.791 188.715 322.355L216.656 73.0722C216.975 70.2227 214.747 67.7277 211.879 67.7257L106.034 67.6518C103.162 67.6498 100.929 70.1493 101.252 73.003L129.447 322.326C129.723 324.756 131.779 326.593 134.225 326.594Z" stroke="#A40000" stroke-width="7.59912" stroke-linecap="round" stroke-linejoin="round"/>
<path d="M129.448 322.326C129.724 324.757 131.779 326.594 134.225 326.596L183.932 326.63C186.382 326.632 188.442 324.792 188.716 322.355" stroke="#860001" stroke-width="7.59912" stroke-linecap="round" stroke-linejoin="round"/>
<path d="M202.778 400.22C202.761 424.122 183.371 443.486 159.468 443.47C135.565 443.453 116.201 424.062 116.218 400.16C116.235 376.257 135.625 356.893 159.528 356.91C183.431 356.927 202.794 376.317 202.778 400.22Z" fill="#FD0611"/>
<path d="M202.778 400.22C202.761 424.122 183.371 443.486 159.468 443.47C135.565 443.453 116.201 424.062 116.218 400.16C116.235 376.257 135.625 356.893 159.528 356.91C183.431 356.927 202.794 376.317 202.778 400.22Z" fill="#A40000"/>
<path d="M192.896 400.212C192.883 418.657 177.92 433.601 159.474 433.588C141.029 433.575 126.086 418.611 126.099 400.166C126.112 381.72 141.075 366.778 159.52 366.791C177.966 366.804 192.909 381.766 192.896 400.212Z" fill="#FD0611"/>
<path d="M201.497 410.699C201.707 409.018 201.822 407.309 201.823 405.571C201.838 383.742 185.114 366.15 163.285 366.028C139.293 365.893 123.766 384.637 123.751 406.466C123.74 421.826 131.549 434.198 144.359 440.742C127.911 434.605 116.2 418.752 116.213 400.163C116.23 376.254 135.621 356.89 159.53 356.906C183.428 356.923 202.793 376.314 202.777 400.224C202.774 403.833 202.325 407.348 201.497 410.699Z" fill="#F85368"/>
<path d="M202.778 400.22C202.761 424.122 183.371 443.486 159.468 443.47C135.565 443.453 116.201 424.062 116.218 400.16C116.235 376.257 135.625 356.893 159.528 356.91C183.431 356.927 202.794 376.317 202.778 400.22Z" stroke="#A40000" stroke-width="7.59912" stroke-linecap="round" stroke-linejoin="round"/>
<path d="M199.389 383.37C201.576 388.55 202.782 394.243 202.778 400.219C202.761 424.121 183.371 443.485 159.468 443.468C144.609 443.458 131.502 435.961 123.717 424.545" stroke="#860001" stroke-width="7.59912" stroke-linecap="round" stroke-linejoin="round"/>
<path d="M378.369 400.198C378.352 424.236 358.853 443.708 334.816 443.691C310.777 443.674 291.305 424.175 291.322 400.137C291.339 376.1 310.838 356.628 334.876 356.645C358.914 356.661 378.386 376.161 378.369 400.198Z" fill="#FD0611"/>
<path d="M378.368 400.198C378.351 424.236 358.852 443.708 334.815 443.691C310.776 443.674 291.304 424.175 291.321 400.137C291.338 376.1 310.837 356.628 334.875 356.645C358.913 356.661 378.385 376.161 378.368 400.198Z" fill="#A40000"/>
<path d="M368.432 400.191C368.419 418.74 353.372 433.767 334.822 433.754C316.273 433.741 301.247 418.693 301.26 400.144C301.273 381.595 316.32 366.569 334.869 366.582C353.419 366.595 368.445 381.642 368.432 400.191Z" fill="#FD0611"/>
<path d="M377.081 410.736C377.292 409.046 377.408 407.327 377.409 405.579C377.424 383.627 360.606 365.937 338.655 365.814C314.527 365.678 298.913 384.527 298.897 406.48C298.886 421.926 306.739 434.367 319.622 440.948C303.08 434.776 291.304 418.834 291.317 400.141C291.334 376.097 310.834 356.624 334.877 356.641C358.911 356.658 378.385 376.158 378.368 400.202C378.366 403.832 377.913 407.366 377.081 410.736Z" fill="#F85368"/>
<path d="M378.369 400.198C378.352 424.236 358.853 443.708 334.816 443.691C310.777 443.674 291.305 424.175 291.322 400.137C291.339 376.1 310.838 356.628 334.876 356.645C358.914 356.661 378.386 376.161 378.369 400.198Z" stroke="#A40000" stroke-width="7.64184" stroke-linecap="round" stroke-linejoin="round"/>
<path d="M374.96 383.255C377.159 388.463 378.373 394.189 378.369 400.198C378.352 424.236 358.853 443.709 334.816 443.692C319.872 443.681 306.693 436.141 298.863 424.661" stroke="#860001" stroke-width="7.64184" stroke-linecap="round" stroke-linejoin="round"/>
<path d="M312.461 325.132L359.053 325.165C361.63 325.167 363.72 323.078 363.722 320.502L363.734 302.753C363.751 278.049 371.557 264.497 397.375 235.425C423.191 206.352 439.675 181.565 439.7 145.296C439.726 107.9 408.384 65.0155 346.129 64.972C303.9 64.9426 272.009 81.5919 261.873 87.6009C259.892 88.7763 259.057 91.2126 259.912 93.3519L272.908 125.865C273.891 128.325 276.727 129.484 279.142 128.395C288.553 124.155 311.745 115.217 335.043 117.92C362.575 121.114 374.242 142.177 374.232 156.084C374.228 162.826 378.522 179.278 346.98 214.674C319.338 245.693 307.742 266.551 307.718 301.307C307.711 311.277 307.752 317.127 307.798 320.532C307.832 323.083 309.91 325.13 312.461 325.132Z" fill="#FD0611"/>
<path d="M427.506 110.638C412.676 89.5842 389.973 73.5014 351.858 73.4748C309.628 73.4453 277.73 90.0918 267.601 96.1027C265.613 97.2762 264.78 99.7115 265.639 101.852L275.956 127.669C274.629 127.286 273.474 126.302 272.911 124.907L259.914 92.391C259.056 90.2603 259.888 87.825 261.876 86.6419C272.006 80.631 303.903 63.9845 346.134 64.014C389.788 64.0445 414.418 85.1341 427.506 110.638Z" fill="#F85368"/>
<path d="M351.756 221.268C324.641 252.75 316.34 270.275 316.316 305.036C316.312 311.321 316.324 320.749 316.341 324.179L312.463 324.176C309.912 324.174 307.831 322.129 307.795 319.578C307.749 316.167 307.715 310.322 307.722 300.349C307.746 265.598 319.338 244.734 346.985 213.718C378.523 178.32 374.225 161.868 374.229 155.124C374.232 151.256 373.328 146.832 371.431 142.389C377.272 149.586 379.003 157.907 378.999 164.584C378.994 171.328 378.357 190.382 351.756 221.268Z" fill="#F85368"/>
<path d="M373.328 148.991C370.118 135.922 358.188 120.601 335.044 117.92C311.749 115.219 288.549 124.154 279.138 128.398C276.73 129.485 273.893 128.327 272.911 125.862L259.913 93.3465C259.275 91.7699 265.305 88.1251 266.3 86.8458C266.3 86.8458 274.778 107.542 277.695 114.403C279.178 117.89 279.403 118.076 282.966 116.938C300.814 111.239 314.751 106.965 334.095 109.322C362.692 112.806 375.455 136.023 376.69 147.204C376.739 147.659 373.3 148.447 373.328 148.991Z" fill="#A40000"/>
<path d="M439.699 145.293C439.674 181.563 423.188 206.349 397.377 235.428C371.556 264.496 363.751 278.046 363.734 302.757L363.722 320.505C363.72 323.08 361.631 325.166 359.057 325.164L312.461 325.131C309.91 325.13 307.829 323.084 307.793 320.533C307.775 319.062 307.758 316.178 307.75 313.665C308.59 314.822 309.965 315.577 311.512 315.578L352.872 315.607C353.59 315.608 354.173 315.025 354.174 314.306L354.183 301.795C354.205 269.183 370.608 253.033 396.429 223.964C422.241 194.886 435.859 172.963 435.884 136.693C435.885 135.604 438.723 134.508 438.666 133.409C439.362 137.393 439.702 141.377 439.699 145.293Z" fill="#A40000"/>
<path d="M312.461 325.132L359.053 325.165C361.63 325.167 363.72 323.078 363.722 320.502L363.734 302.753C363.751 278.049 371.557 264.497 397.375 235.425C423.191 206.352 439.675 181.565 439.7 145.296C439.726 107.9 408.384 65.0155 346.129 64.972C303.9 64.9426 272.009 81.5919 261.873 87.6009C259.892 88.7763 259.057 91.2126 259.912 93.3519L272.905 125.856C273.892 128.329 276.74 129.473 279.165 128.372C288.752 124.017 312.465 114.763 335.043 117.92C362.493 121.759 374.242 142.177 374.232 156.084C374.228 162.826 378.522 179.278 346.98 214.674C319.338 245.693 307.742 266.551 307.718 301.307C307.711 311.277 307.752 317.127 307.798 320.532C307.832 323.083 309.91 325.13 312.461 325.132Z" stroke="#A40000" stroke-width="7.64184" stroke-linecap="round" stroke-linejoin="round"/>
<path d="M307.798 320.534C307.832 323.084 309.909 325.132 312.46 325.133L359.052 325.166C361.628 325.168 363.72 323.079 363.722 320.503L363.734 302.754C363.751 278.05 371.556 264.498 397.374 235.425C423.191 206.352 439.675 181.565 439.7 145.295" stroke="#860001" stroke-width="7.64184" stroke-linecap="round" stroke-linejoin="round"/>
<path d="M272.905 125.855C273.893 128.328 276.742 129.473 279.166 128.372C288.753 124.017 312.465 114.763 335.043 117.92C362.493 121.759 374.243 142.177 374.233 156.085" stroke="#860001" stroke-width="7.64184" stroke-linecap="round" stroke-linejoin="round"/>
</g>
</g>
<defs>
<clipPath id="clip0_440_1686">
<rect width="512" height="512" fill="white"/>
</clipPath>
</defs>
</svg>
