<svg width="537" height="512" viewBox="0 0 537 512" fill="none" xmlns="http://www.w3.org/2000/svg">
<mask id="mask0_440_1763" style="mask-type:luminance" maskUnits="userSpaceOnUse" x="0" y="0" width="512" height="512">
<path d="M512 0H0V512H512V0Z" fill="white"/>
</mask>
<g mask="url(#mask0_440_1763)">
<mask id="mask1_440_1763" style="mask-type:luminance" maskUnits="userSpaceOnUse" x="-156" y="-203" width="847" height="847">
<path d="M-155.289 -202.471H690.307V643.125H-155.289V-202.471Z" fill="white"/>
</mask>
<g mask="url(#mask1_440_1763)">
<path d="M140.836 196.638C140.836 196.638 144.134 212.848 152.867 213.42C161.195 213.965 166.497 204.261 166.497 204.261C166.497 204.261 171.209 214.897 182.149 211.76C192.788 208.71 197.413 197.811 198.172 185.512C198.996 172.15 199.889 154.919 204.435 137.402C208.982 119.885 214.566 94.7818 195.708 79.7286C176.85 64.6754 154.464 64.2073 136.367 57.3284C118.269 50.4495 84.088 43.2754 62.5686 49.9762C41.0492 56.677 32.5874 74.5729 66.4189 94.2081C66.4189 94.2081 40.223 104.662 41.6583 120.737C42.9309 134.985 61.1726 139.198 68.1256 139.323C68.1256 139.323 54.9438 147.851 55.8459 157.558C56.782 167.636 71.3507 170.8 81.8022 167.771C81.8022 167.771 71.9675 176.541 74.0768 185.542C77.3739 199.61 96.2591 193.388 96.2591 193.388C96.2591 193.388 91.4597 204.599 96.4954 209.903C104.686 218.529 127.898 210.77 140.836 196.638Z" fill="#EAE7D6"/>
<path d="M174.771 162.573C172.269 166.038 165.365 163.82 164.434 159.859C151.67 163.463 142.791 148.672 147.026 141.143C138.043 142.491 133.921 135.315 137.451 126.863C128.041 124.725 126.181 119.655 124.708 115.45C123.589 112.205 123.523 105.335 125.923 101.756C128.515 97.8344 131.628 96.6895 131.628 96.6895C131.628 96.6895 122.926 90.3774 122.881 82.1292C122.864 69.3974 134.11 66.7932 138.491 65.5714C136.888 67.6242 132.977 68.2492 131.709 76.8062C130.48 85.3043 140.318 94.5761 147.73 95.7106C145.607 96.1785 135.972 102.198 136.052 112.396C136.09 117.499 142.26 122.038 150.198 121.748C147.011 125.932 147.82 136.992 157.178 135.905C147.25 151.445 161.092 153.237 172.122 150.464C168.583 154.096 170.884 161.739 174.771 162.573Z" fill="#AFB0A2"/>
<path d="M123.605 179.098C122.104 182.253 106.455 199.48 94.3007 202.842C93.9199 197.877 95.5115 195.147 96.4726 193.423C100.3 192.923 121.371 181.131 123.605 179.098Z" fill="#A8ADA1"/>
<path d="M107.561 159.221C83.8909 171.896 76.8884 186.392 75.9631 189.962C69.1506 179.429 80.3395 168.728 81.7463 167.99C83.1532 167.252 104.6 160.415 107.561 159.221Z" fill="#A8ADA1"/>
<path d="M95.0196 101.276C89.7222 100.985 50.3521 103.794 44.0929 110.737C49.9025 101.669 64.7556 94.3111 66.3102 93.8542C67.8977 95.1022 92.4489 100.615 95.0196 101.276Z" fill="#A8ADA1"/>
<path d="M90.9282 135.458C74.1465 142.029 58.9099 150.763 57.7197 161.789C51.2105 151.199 63.8577 141.134 67.8687 138.812C69.4314 138.782 78.8023 138.372 90.9282 135.458Z" fill="#A8ADA1"/>
<mask id="mask2_440_1763" style="mask-type:luminance" maskUnits="userSpaceOnUse" x="43" y="63" width="106" height="41">
<path d="M148.263 95.9917C146.275 96.0303 141.495 99.6705 139.283 102.839C133.339 104.091 99.0693 104.554 66.8471 94.1562C59.6575 91.7094 52.4997 83.6744 49.3135 80.6104C46.1274 77.5464 41.324 70.537 45.4058 63.7402C56.1704 77.3434 121.343 84.7129 132.405 83.6452C134.308 88.747 137.511 92.6686 148.263 95.9917Z" fill="url(#paint0_linear_440_1763)"/>
</mask>
<g mask="url(#mask2_440_1763)">
<path d="M148.263 95.9917C146.275 96.0303 141.495 99.6705 139.283 102.839C133.339 104.091 99.0693 104.554 66.8471 94.1562C59.6575 91.7094 52.4997 83.6744 49.3135 80.6104C46.1274 77.5464 41.324 70.537 45.4058 63.7402C56.1704 77.3434 121.343 84.7129 132.405 83.6452C134.308 88.747 137.511 92.6686 148.263 95.9917Z" fill="url(#paint1_linear_440_1763)" fill-opacity="0.68"/>
</g>
<mask id="mask3_440_1763" style="mask-type:luminance" maskUnits="userSpaceOnUse" x="41" y="112" width="97" height="28">
<path d="M137.63 117.586C115.442 131.368 83.1717 138.43 68.2125 139.23C56.5273 139.879 43.0231 132.294 41.8076 120.95C56.5576 127.716 132.271 114.662 135.931 112.886C135.986 115.727 137.34 117.307 137.63 117.586Z" fill="url(#paint2_linear_440_1763)"/>
</mask>
<g mask="url(#mask3_440_1763)">
<path d="M137.63 117.586C115.442 131.368 83.1717 138.43 68.2125 139.23C56.5273 139.879 43.0231 132.294 41.8076 120.95C56.5576 127.716 132.271 114.662 135.931 112.886C135.986 115.727 137.34 117.307 137.63 117.586Z" fill="url(#paint3_linear_440_1763)" fill-opacity="0.68"/>
</g>
<mask id="mask4_440_1763" style="mask-type:luminance" maskUnits="userSpaceOnUse" x="56" y="122" width="95" height="47">
<path d="M148.562 128.683C140.924 140.848 104.079 164.729 81.8715 167.797C71.0279 169.277 59.8174 169.529 56.0367 157.808C111.544 155.372 145.387 122.035 145.387 122.035C145.387 122.035 148.245 123.074 150.101 122.986C149.376 125.244 148.68 127.403 148.562 128.683Z" fill="url(#paint4_linear_440_1763)"/>
</mask>
<g mask="url(#mask4_440_1763)">
<path d="M148.562 128.683C140.924 140.848 104.079 164.729 81.8715 167.797C71.0279 169.277 59.8174 169.529 56.0367 157.808C111.544 155.372 145.387 122.035 145.387 122.035C145.387 122.035 148.245 123.074 150.101 122.986C149.376 125.244 148.68 127.403 148.562 128.683Z" fill="url(#paint5_linear_440_1763)" fill-opacity="0.68"/>
</g>
<mask id="mask5_440_1763" style="mask-type:luminance" maskUnits="userSpaceOnUse" x="74" y="135" width="84" height="61">
<path d="M157.204 136.86C156.076 137.309 152.594 142.494 153.958 146.872C139.394 165.201 134.21 178.382 96.2436 194.671C91.3761 196.632 78.0628 197.798 74.007 186.509C133.558 174.51 152.007 135.922 152.007 135.922C152.007 135.922 156.349 136.735 157.204 136.86Z" fill="url(#paint6_linear_440_1763)"/>
</mask>
<g mask="url(#mask5_440_1763)">
<path d="M157.204 136.86C156.076 137.309 152.594 142.494 153.958 146.872C139.394 165.201 134.21 178.382 96.2436 194.671C91.3761 196.632 78.0628 197.798 74.007 186.509C133.558 174.51 152.007 135.922 152.007 135.922C152.007 135.922 156.349 136.735 157.204 136.86Z" fill="url(#paint7_linear_440_1763)" fill-opacity="0.68"/>
</g>
<mask id="mask6_440_1763" style="mask-type:luminance" maskUnits="userSpaceOnUse" x="141" y="151" width="23" height="58">
<path d="M145.622 208.556C143.719 207.002 140.794 199.357 141.023 196.511C142.831 194.487 157.714 181.794 162.623 151.591C163.809 154.125 163.819 194.825 145.622 208.556Z" fill="url(#paint8_radial_440_1763)"/>
</mask>
<g mask="url(#mask6_440_1763)">
<path d="M145.622 208.556C143.719 207.002 140.794 199.357 141.023 196.511C142.831 194.487 157.714 181.794 162.623 151.591C163.809 154.125 163.819 194.825 145.622 208.556Z" fill="url(#paint9_radial_440_1763)" fill-opacity="0.68"/>
</g>
<path d="M62.5731 49.9763C46.1506 55.0887 37.5437 66.6536 48.9322 80.3649C39.272 67.5648 52.3249 58.1627 62.6499 54.8329C82.0445 48.5724 122.404 58.3491 136.939 64.1089C153.205 70.5231 171.618 73.3505 188.572 87.2683C205.526 101.186 197.772 127.729 193.647 143.987C189.522 160.235 188.688 176.22 187.923 188.613C187.285 199.039 183.727 208.382 175.799 212.091C177.619 212.479 179.734 212.451 182.15 211.763C192.786 208.708 197.414 197.807 198.173 185.513C198.993 172.144 199.887 154.921 204.437 137.397C208.985 119.883 214.571 94.7781 195.705 79.7282C176.849 64.6801 154.467 64.21 136.369 57.3263C118.269 50.4522 84.0933 43.2775 62.5731 49.9763Z" fill="#F2EFDF"/>
<path d="M66.419 94.2081C66.419 94.2081 99.2009 106.744 139.332 102.703" stroke="#BDC0B4" stroke-width="7.62114" stroke-linecap="round" stroke-linejoin="round"/>
<path d="M68.1256 139.323C68.1256 139.323 101.215 137.872 135.972 118.495" stroke="#BDC0B4" stroke-width="7.62114" stroke-linecap="round" stroke-linejoin="round"/>
<path d="M81.8022 167.771C81.8022 167.771 121.007 160.244 148.476 128.403" stroke="#BDC0B4" stroke-width="7.62114" stroke-linecap="round" stroke-linejoin="round"/>
<path d="M96.2592 193.387C96.2592 193.387 133.957 180.733 154.224 146.274" stroke="#BDC0B4" stroke-width="7.62114" stroke-linecap="round" stroke-linejoin="round"/>
<path d="M140.837 196.638C140.837 196.638 158.406 180.35 162.596 152.122" stroke="#BDC0B4" stroke-width="7.62114" stroke-linecap="round" stroke-linejoin="round"/>
<path d="M166.497 204.261C166.497 204.261 175.042 192.331 175.579 166.632" stroke="#BDC0B4" stroke-width="7.62114" stroke-linecap="round" stroke-linejoin="round"/>
<path d="M140.836 196.638C140.836 196.638 142.377 212.721 152.867 213.42C161.195 213.974 166.497 204.261 166.497 204.261C166.497 204.261 171.314 213.318 182.374 210.725C192.495 208.351 198.605 197.108 198.161 183.146C197.77 170.862 199.889 154.919 204.435 137.402C208.982 119.885 214.566 94.7818 195.708 79.7286C176.85 64.6754 154.464 64.2073 136.367 57.3284C118.269 50.4495 84.088 43.2754 62.5686 49.9762C41.0492 56.677 32.6492 74.5692 66.4189 94.2081C66.4189 94.2081 40.223 104.662 41.6583 120.737C42.9309 134.985 61.2013 139.189 68.1542 139.313C68.1542 139.313 54.9438 147.851 55.8459 157.558C56.782 167.636 71.3507 170.8 81.8022 167.771C81.8022 167.771 71.9675 176.541 74.0768 185.542C77.3739 199.61 96.2591 193.388 96.2591 193.388C96.2591 193.388 91.4596 204.599 96.4954 209.903C104.686 218.529 127.898 210.77 140.836 196.638Z" stroke="#8C9284" stroke-width="7.62114" stroke-linecap="round" stroke-linejoin="round"/>
<path d="M147.582 95.9267C147.582 95.9267 158.064 98.2996 169.258 91.4924" stroke="#BDC0B4" stroke-width="7.62114" stroke-linecap="round" stroke-linejoin="round"/>
<path d="M150.018 122.074C150.018 122.074 162.004 120.296 168.878 110.596" stroke="#BDC0B4" stroke-width="7.62114" stroke-linecap="round" stroke-linejoin="round"/>
<path d="M157.079 136.126C157.079 136.126 168.881 136.035 174.254 125.584" stroke="#BDC0B4" stroke-width="7.62114" stroke-linecap="round" stroke-linejoin="round"/>
<path d="M171.695 150.535C171.695 150.535 178.032 146.892 180.838 136.949" stroke="#BDC0B4" stroke-width="7.62114" stroke-linecap="round" stroke-linejoin="round"/>
<path d="M126.291 103.524C126.291 103.524 135.988 103.824 139.554 103.109" stroke="#8B9082" stroke-width="7.62114" stroke-linecap="round"/>
<path d="M128.647 122.124C128.647 122.124 135.85 118.306 137.543 117.705" stroke="#8B9082" stroke-width="7.62114" stroke-linecap="round"/>
<path d="M140.493 136.758C140.493 136.758 146.883 130.382 148.619 128.373" stroke="#8B9082" stroke-width="7.62114" stroke-linecap="round"/>
<path d="M149.103 153.644C149.103 153.644 152.725 148.612 154.378 146.58" stroke="#8B9082" stroke-width="7.62114" stroke-linecap="round"/>
<path d="M160.826 160.132C160.826 160.132 162.16 155.183 162.528 152.192" stroke="#8B9082" stroke-width="7.62114" stroke-linecap="round"/>
<path d="M147.646 60.8446C147.646 60.8446 131.806 64.2242 131.515 77.1293C131.224 90.0344 147.582 95.9268 147.582 95.9268C147.582 95.9268 134.719 102.991 135.898 112.213C137.077 121.436 150.018 122.074 150.018 122.074C150.018 122.074 142.92 133.887 157.079 136.127C157.079 136.127 152.973 139.892 154.193 146.34C155.262 152.639 166.335 153.733 171.694 150.534C171.694 150.534 166.081 161.595 178.759 163.709" stroke="#73796A" stroke-width="7.62114" stroke-linecap="round" stroke-linejoin="round"/>
<path d="M82.0032 168.103C82.0032 168.103 101.121 162.028 107.806 158.934" stroke="#8C9284" stroke-width="6.6685" stroke-linecap="round"/>
<path d="M66.8487 94.1433C74.2246 98.1013 92.4145 100.462 95.2723 101.259" stroke="#8C9284" stroke-width="6.6685" stroke-linecap="round"/>
<path d="M68.019 139.503C68.019 139.503 84.8488 137.991 90.8014 135.717" stroke="#8C9284" stroke-width="6.6685" stroke-linecap="round"/>
<path d="M96.223 193.304C96.223 193.304 115.269 186.144 123.612 178.936" stroke="#8C9284" stroke-width="6.6685" stroke-linecap="round"/>
<path d="M33.4977 307.357C33.4977 307.357 33.6385 315.387 36.9902 325.651L51.7406 333.449L43.7207 340.295C46.0532 344.074 48.9178 347.811 52.4348 351.276C52.4348 351.276 113.952 379.835 177.824 451.828C177.824 451.828 196.804 341.531 159.736 322.898C122.667 304.266 72.2446 296.163 33.4977 307.357Z" fill="#4A524E"/>
<mask id="mask7_440_1763" style="mask-type:luminance" maskUnits="userSpaceOnUse" x="33" y="307" width="146" height="146">
<path d="M33.7124 307.274C33.1805 315.518 37.5269 325.716 37.5269 325.716C37.5269 325.716 49.7504 331.558 53.1865 334.091C47.8047 336.137 44.575 339.572 43.7268 340.43C46.8621 342.682 51.0367 349.737 52.1809 351.434C115.544 382.363 172.692 445.657 178.12 452.155C157.243 425.115 158.725 409.041 159.285 407.332C152.433 399.707 100.014 335.933 33.7124 307.274Z" fill="url(#paint10_linear_440_1763)"/>
</mask>
<g mask="url(#mask7_440_1763)">
<path d="M33.7124 307.274C33.1805 315.518 37.5269 325.716 37.5269 325.716C37.5269 325.716 49.7504 331.558 53.1865 334.091C47.8047 336.137 44.575 339.572 43.7268 340.43C46.8621 342.682 51.0367 349.737 52.1809 351.434C115.544 382.363 172.692 445.657 178.12 452.155C157.243 425.115 158.725 409.041 159.285 407.332C152.433 399.707 100.014 335.933 33.7124 307.274Z" fill="url(#paint11_linear_440_1763)" fill-opacity="0.54"/>
</g>
<path d="M33.5736 307.527C33.5736 307.527 33.7274 315.556 37.0948 325.813L51.856 333.587L44.6902 340.298C47.0287 344.074 49.3381 348.23 52.8601 351.69C52.8601 351.69 113.87 380.007 177.886 451.837C177.886 451.837 196.804 341.531 159.736 322.898C122.667 304.266 72.2976 296.274 33.5736 307.527Z" stroke="#3C4340" stroke-width="8.00138" stroke-linecap="round" stroke-linejoin="round"/>
<path d="M428.863 174.343L440.138 182.443C440.077 182.851 437.429 195.969 437.383 196.177C437.362 196.246 437.34 196.314 437.329 196.365C437.317 196.414 437.307 196.454 437.296 196.484C437.296 196.494 437.294 196.514 437.284 196.524C437.262 196.613 437.252 196.662 437.251 196.692C437.241 196.701 437.24 196.712 437.24 196.712C339.63 200.079 323.533 288.308 283.196 348.655C237.78 416.579 178.031 451.837 178.031 451.837C158.807 431.877 158.962 407.375 158.962 407.375C233.274 134.939 432.545 128.315 439.554 145.884C439.958 146.883 440.24 147.681 440.52 148.787C440.79 149.881 441.952 163.527 441.845 166.11L428.863 174.343Z" fill="#7A7D75"/>
<path d="M265.015 328.506C233.931 367.363 181.856 396.152 159.29 407.349C157.68 428.955 178.277 452.018 178.277 452.018C178.277 452.018 248.282 409.876 282.158 349.984C278.731 346.03 275.282 336.96 265.015 328.506Z" fill="url(#paint12_linear_440_1763)" fill-opacity="0.54"/>
<path d="M440.392 146.429C440.392 146.429 369.728 160.581 334.693 209.32C341.548 217.513 353.846 233.943 353.846 233.943C353.846 233.943 395.183 193.82 437.099 197.27C437.664 192.466 439.901 182.786 439.901 182.786L428.509 174.041L441.863 165.733L440.392 146.429Z" fill="url(#paint13_linear_440_1763)" fill-opacity="0.54"/>
<path d="M428.729 148.705C431.575 146.451 434.176 144.889 436.766 143.269C438.218 144.03 439.17 144.915 439.554 145.884C439.958 146.883 440.24 147.681 440.52 148.786C440.79 149.881 441.811 163.528 441.703 166.111L429.007 174.12L439.558 182.125L437.251 196.692L426.181 197.394L427.698 181.876C427.698 181.876 422.277 177.233 420.881 174.715C418.087 169.674 429.21 164.514 429.143 162.262C428.892 153.814 428.729 148.705 428.729 148.705Z" fill="#A0A39C" fill-opacity="0.25"/>
<path d="M397.015 181.399C400.024 180.32 402.853 179.469 405.859 178.889" stroke="#4E5049" stroke-width="6.00104" stroke-linecap="round" stroke-linejoin="round"/>
<path d="M251.678 368.581C265.398 354.443 278.723 338.198 287.455 318.763C309.537 269.616 341.836 213.627 379.603 190.327" stroke="#4E5049" stroke-width="6.00104" stroke-linecap="round" stroke-linejoin="round"/>
<path d="M177.282 422.091C177.282 422.091 201.963 409.578 228.197 389.206" stroke="#4E5049" stroke-width="6.00104" stroke-linecap="round" stroke-linejoin="round"/>
<path d="M441.705 166.252L428.863 174.343L440.138 182.443C440.077 182.851 440.007 183.249 439.947 183.647C439.83 184.283 439.725 184.9 439.62 185.497C439.375 186.909 439.122 188.221 438.882 189.413C438.825 189.722 438.758 190.009 438.7 190.297C438.643 190.576 438.586 190.843 438.53 191.112C438.245 192.493 437.976 193.664 437.763 194.568C437.696 194.866 437.63 195.123 437.574 195.362C437.496 195.69 437.429 195.968 437.383 196.177C437.362 196.246 437.34 196.304 437.329 196.364C437.318 196.405 437.307 196.445 437.296 196.484C437.296 196.494 437.294 196.514 437.284 196.524C437.262 196.613 437.252 196.672 437.251 196.692C437.241 196.701 437.24 196.712 437.24 196.712C339.63 200.079 323.533 288.308 283.196 348.655C237.78 416.579 178.031 451.836 178.031 451.836C158.807 431.876 158.961 407.094 158.961 407.094C233.871 134.688 432.545 128.315 439.554 145.884C439.958 146.883 440.24 147.681 440.52 148.787C440.79 149.881 441.02 151.035 441.209 152.208C441.397 153.391 441.545 154.602 441.652 155.833C441.73 156.683 441.788 157.542 441.835 158.412C441.959 160.931 441.54 163.661 441.433 166.245L441.705 166.252Z" stroke="#4E5049" stroke-width="8.00138" stroke-linecap="round" stroke-linejoin="round"/>
<path d="M50.5443 331.962C50.5443 331.962 64.4628 338.009 75.5782 345.839" stroke="#3C433F" stroke-width="6.00104" stroke-linecap="round" stroke-linejoin="round"/>
<path d="M439.554 145.884C439.554 145.884 439.117 145.923 438.196 146.148C438.106 146.164 438.007 146.19 437.896 146.216C437.495 146.31 437.014 146.423 436.483 146.562C436.353 146.588 436.212 146.631 436.062 146.666C435.481 146.814 434.85 146.98 434.158 147.164C433.827 147.251 433.486 147.338 433.125 147.444C431.22 147.96 428.94 148.623 426.349 149.434C403.366 156.609 357.301 175.326 328.712 217.328C286.387 279.513 285.669 319.501 233.097 361.605C187.033 398.505 158.962 407.375 158.962 407.375C158.962 407.375 92.0903 328.012 33.5716 307.525C33.5716 307.525 112.883 272.258 142.13 233.441C161.123 208.229 172.217 164.376 204.163 124.357L204.304 124.444C222.294 101.917 246.049 82.3522 283.777 68.2124C285.425 67.6011 287.206 67.0214 288.902 66.4309C289.665 66.1637 290.519 65.8623 291.302 65.588C293.128 64.9799 294.92 64.4885 296.804 63.9C298.48 63.3687 300.185 62.981 301.909 62.4705C302.861 62.1973 303.844 62.0164 304.812 61.7194C304.812 61.7194 307.251 62.1033 311.61 63.1452C331.248 67.8684 390.115 87.9326 439.554 145.884Z" fill="#D1CFB6"/>
<path d="M67.4619 305.639C67.4619 305.639 148.911 275.928 185.494 184.682C225.265 85.4814 305.054 75.7022 305.054 75.7022C305.054 75.7022 363.193 87.7743 411.996 137.745C411.996 137.745 339.857 150.24 301.278 234.368C262.093 319.699 222.828 357.532 164.971 382.418C164.971 382.418 98.5222 316.587 67.4619 305.639Z" fill="#8D8A84"/>
<path d="M368.977 143.76C368.977 143.76 353.84 127.439 374.04 118.58C374.04 118.58 349.587 97.0101 315.689 88.3396C315.689 88.3396 304.805 97.9773 286.577 90.3611C286.577 90.3611 235.263 103.303 208.184 165.784C185.617 217.857 142.171 275.916 106.153 294.711C106.153 294.711 116.624 305.56 102.471 314.173C102.471 314.173 130.363 333.715 152.817 355.553C152.817 355.553 170.473 341.702 185.783 360.381C185.783 360.381 229.986 333.578 250.297 299.365C262.01 279.637 272.946 253.912 287.762 228.141C306.029 196.368 330.193 164.523 368.977 143.76Z" fill="#D0CEBA"/>
<g opacity="0.6">
<path d="M311.288 169.017C311.288 169.017 325.15 145.627 354.865 136.522" stroke="#8D8A84" stroke-width="6.00104" stroke-linecap="round" stroke-linejoin="round"/>
</g>
<g opacity="0.6">
<path d="M260.037 139.878C260.037 139.878 273.677 116.288 303.389 107.1" stroke="#8D8A84" stroke-width="6.00104" stroke-linecap="round" stroke-linejoin="round"/>
</g>
<g opacity="0.6">
<path d="M246.209 132.494C246.209 132.494 260.422 108.719 290.133 99.5299" stroke="#79856D" stroke-width="6.00104" stroke-linecap="round" stroke-linejoin="round"/>
</g>
<g opacity="0.6">
<path d="M208.464 307.951C208.464 307.951 189.171 329.98 163.402 340.307" stroke="#8D8A84" stroke-width="6.00104" stroke-linecap="round" stroke-linejoin="round"/>
</g>
<g opacity="0.6">
<path d="M197.137 297.551C197.137 297.551 177.915 319.639 152.441 329.832" stroke="#79856D" stroke-width="6.00104" stroke-linecap="round" stroke-linejoin="round"/>
</g>
<path d="M325.164 134.418C325.121 140.869 316.153 146.029 305.134 145.941C294.115 145.853 285.218 140.553 285.261 134.102C285.304 127.652 294.271 122.493 305.29 122.58C316.309 122.668 325.207 127.967 325.164 134.418Z" stroke="#8D8A84" stroke-width="4.00069" stroke-miterlimit="10"/>
<path d="M318.274 134.364C318.246 138.587 312.376 141.965 305.162 141.908C297.948 141.851 292.122 138.38 292.15 134.158C292.178 129.935 298.049 126.557 305.263 126.614C312.477 126.671 318.302 130.141 318.274 134.364Z" fill="#8D8A84"/>
<path d="M169.549 298.186C169.59 304.945 160.71 310.452 149.714 310.489C138.718 310.526 129.771 305.078 129.73 298.319C129.689 291.561 138.569 286.053 149.565 286.016C160.561 285.979 169.509 291.428 169.549 298.186Z" stroke="#8D8A84" stroke-width="4.00069" stroke-miterlimit="10"/>
<path d="M162.674 298.209C162.701 302.634 156.887 306.239 149.689 306.264C142.49 306.288 136.633 302.721 136.606 298.296C136.578 293.872 142.392 290.266 149.591 290.242C156.79 290.218 162.647 293.785 162.674 298.209Z" fill="#8D8A84"/>
<path d="M439.534 145.525C439.534 145.525 439.094 145.569 438.173 145.797C438.083 145.814 437.983 145.841 437.872 145.866C437.472 145.962 436.991 146.076 436.46 146.217C436.329 146.242 436.189 146.287 436.039 146.321C435.458 146.471 434.826 146.638 434.136 146.824C433.805 146.912 433.464 147.001 433.103 147.108C431.198 147.63 428.92 148.299 426.33 149.117C404.501 155.998 361.914 173.258 333.132 211.141C352.479 166.608 417.119 139.356 417.119 139.356C389.673 97.4205 304.028 65.1546 302.826 64.4918C303.556 64.617 308.07 62.0523 311.609 62.8995C331.247 67.6227 390.095 87.5739 439.534 145.525Z" fill="#FFFFD9"/>
<g opacity="0.16">
<path d="M221.825 105.715C221.825 105.715 300.32 134.067 352.679 188.271L379.932 168.269C379.932 168.269 315.669 100.867 243.44 89.0471L221.825 105.715Z" fill="#FFFFD9"/>
</g>
<g opacity="0.16">
<path d="M76.9166 284.525C76.9166 284.525 160.755 323.356 198.386 386.182L226.982 366.363C226.982 366.363 156.315 288.776 100.633 269.681L76.9166 284.525Z" fill="#FFFFD9"/>
</g>
<g opacity="0.48">
<path d="M133.937 244.446C133.937 244.446 252.81 327.036 260.221 332.384C262.206 331.518 263.877 328.231 263.877 328.231L136.827 241.652L133.937 244.446Z" fill="#29302E"/>
</g>
<g opacity="0.48">
<path d="M261.625 333.077C261.625 333.077 275.4 347.545 279.616 353.199C280.038 352.272 281.877 350.554 281.877 350.554L266.209 327.714L261.625 333.077Z" fill="#29302E"/>
</g>
<g opacity="0.4">
<path d="M127.434 249.007C127.434 249.007 128.749 267.664 176.975 302.116C225.201 336.567 258.595 335.95 258.595 335.95L275.043 359.99L283.196 348.655L267.613 325.395L137.309 239.322L127.434 249.007Z" fill="url(#paint14_radial_440_1763)"/>
</g>
<path d="M304.812 61.7174C304.812 61.7174 379.139 75.0649 439.553 145.884C439.553 145.884 367.493 160.354 328.715 217.328C286.388 279.515 285.638 318.862 233.101 361.604C187.311 398.831 158.964 407.096 158.964 407.096C158.964 407.096 92.2259 328.537 33.5736 307.527C33.5736 307.527 112.885 272.256 142.128 233.436C173.68 191.551 184.699 93.8098 304.812 61.7174Z" stroke="#63655D" stroke-width="8.00138" stroke-linecap="round" stroke-linejoin="round"/>
<mask id="mask8_440_1763" style="mask-type:luminance" maskUnits="userSpaceOnUse" x="201" y="116" width="146" height="94">
<path d="M210.698 116.991C206.161 120.134 201.611 128.123 201.611 128.123C201.611 128.123 296.643 187.455 334.202 209.188C336.18 204.918 346.417 195.217 346.417 195.217C346.417 195.217 338.608 167.899 295.354 141.357C252.1 114.815 214.26 114.524 210.698 116.991Z" fill="url(#paint15_radial_440_1763)"/>
</mask>
<g mask="url(#mask8_440_1763)">
<path d="M210.698 116.991C206.161 120.134 201.611 128.123 201.611 128.123C201.611 128.123 296.643 187.455 334.202 209.188C336.18 204.918 346.417 195.217 346.417 195.217C346.417 195.217 338.608 167.899 295.354 141.357C252.1 114.815 214.26 114.524 210.698 116.991Z" fill="url(#paint16_radial_440_1763)"/>
</g>
<path d="M353.676 233.308C322.754 265.435 307.428 312.404 283.196 348.655L266.112 327.419C289.508 296.402 297.812 262.843 328.706 217.289C330.605 214.484 332.591 211.791 334.646 209.179L353.676 233.308Z" fill="#C5BF95"/>
<path d="M334.646 209.179C332.591 211.791 330.605 214.485 328.706 217.289C297.809 262.84 289.508 296.402 266.112 327.419L207.062 287.03L137.306 239.32C139.076 237.396 140.647 235.417 142.136 233.443C160.395 209.246 171.231 167.595 200.472 128.985L294.482 185.145L334.646 209.179Z" fill="#D3CCA0"/>
<path d="M189.978 142.55L323.28 224.003L342.237 246.872L353.676 233.308L334.646 209.179L200.472 128.986L189.978 142.55Z" fill="#D8A018"/>
<path d="M146.673 226.739L276.659 311.788L293.439 331.99L283.196 348.655L266.112 327.419L137.306 239.32L146.673 226.739Z" fill="#D8A018"/>
<g opacity="0.3">
<path d="M353.676 233.308C322.754 265.435 307.428 312.404 283.196 348.655L266.112 327.419C289.508 296.402 297.812 262.843 328.706 217.289C330.605 214.484 332.591 211.791 334.646 209.179L353.676 233.308Z" fill="#4E5642"/>
</g>
<path d="M221.154 193.893C220.848 194.346 220.341 194.609 219.797 194.611C216.777 194.624 206.314 196.03 200.019 210.68C192.587 227.972 204.361 231.119 210.394 226.776C216.426 222.433 230.76 194.466 246.422 193.283C262.084 192.1 275.078 201.814 273.526 223.652C271.928 245.859 258.6 263.948 244.817 269.957C238.551 272.689 230.179 271.401 226.43 270.583C225.389 270.355 224.838 269.211 225.316 268.254L233.163 252.541C233.471 251.924 234.133 251.558 234.815 251.646C238.343 252.105 249.503 252.331 255.697 238.173C263.13 221.184 252.032 209.553 244.68 214.443C237.329 219.333 225.917 246.297 208.235 249.807C192.85 252.862 175.282 232.214 188.033 204.971C199.866 179.691 217.496 177.557 227.964 179.836C229.095 180.083 229.618 181.392 228.967 182.354L221.154 193.893Z" fill="#53411D"/>
<path d="M189.085 191.846L276.498 244.856C277.252 245.311 277.48 246.3 277.005 247.044L272.516 254.066C272.056 254.785 271.11 255.004 270.383 254.561L183.309 201.216C182.58 200.761 182.356 199.8 182.807 199.065L186.93 192.359C187.384 191.62 188.35 191.391 189.085 191.846Z" fill="#53411D"/>
<path d="M336.884 215.08C334.364 217.256 331.879 219.513 329.473 221.905C290.374 260.78 289.508 296.402 266.112 327.419L207.062 287.03L137.576 239.537C139.276 237.551 140.222 235.287 141.467 233.148C156.714 206.952 174.04 170.262 204.742 132.741L292.295 187.116L336.884 215.08Z" fill="url(#paint17_linear_440_1763)"/>
<path d="M353.676 233.308C322.946 265.527 307.428 312.404 283.196 348.655L266.112 327.419C289.508 296.402 297.812 262.843 328.706 217.289C330.605 214.484 332.591 211.791 334.646 209.179L353.676 233.308Z" stroke="#7E530B" stroke-width="8.00138" stroke-linecap="round" stroke-linejoin="round"/>
<path d="M334.646 209.179C332.591 211.791 330.605 214.485 328.706 217.289C297.809 262.84 289.508 296.402 266.112 327.419L207.062 287.03L137.306 239.32C139.076 237.396 140.647 235.417 142.136 233.443C160.395 209.246 171.231 167.595 200.472 128.985L294.822 185.328L334.646 209.179Z" stroke="#8A6514" stroke-width="8.00138" stroke-linecap="round" stroke-linejoin="round"/>
<path d="M323.436 225.242C301.637 259.081 291.773 287.03 276.662 311.791" stroke="#958D5A" stroke-width="8.00138" stroke-miterlimit="10"/>
<path d="M146.71 226.797C160.375 205.361 170.814 174.052 190.691 142.988" stroke="#958D5A" stroke-width="8.00138" stroke-miterlimit="10"/>
<path d="M342.146 246.801C322.417 273.018 309.477 303.939 293.441 331.99" stroke="#7A713D" stroke-width="8.00138" stroke-miterlimit="10"/>
<path d="M334.877 304.336C334.877 304.336 318.046 305.409 314.825 296.466C311.754 287.938 319.61 279.713 319.61 279.713C319.61 279.713 307.79 277.761 307.516 265.487C307.25 253.551 316.479 245.699 328.255 241.486C341.048 236.91 357.597 231.185 373.312 221.574C389.026 211.962 411.83 199.159 432.276 214.625C452.722 230.09 460.006 253.29 472.24 270.238C484.474 287.185 501.901 320.812 501.921 345.104C501.942 369.395 487.052 383.193 457.566 353.396C457.566 353.396 455.349 383.606 439.219 386.582C424.92 389.22 415.245 371.38 413.003 364.169C413.003 364.169 408.697 380.279 398.946 382.039C388.822 383.868 381.29 369.564 381.06 357.829C381.06 357.829 375.498 370.519 366.068 370.825C351.328 371.302 351.644 349.889 351.644 349.889C351.644 349.889 342.162 358.01 335.449 354.238C324.529 348.101 325.026 321.752 334.877 304.336Z" fill="#EAE7D6"/>
<path d="M501.933 345.099C501.95 363.636 493.271 375.824 476.413 367.77C491.539 369.491 499.211 363.655 499.054 351.965C498.756 322.384 476.481 289.324 465.322 274.111C454.163 258.899 439.16 233.286 425.541 225.378C405.437 213.571 384.787 225.827 370.173 234.65C355.568 243.469 340.218 248.785 328.353 253.03C318.369 256.596 310.332 262.903 309.13 272.197C308.196 270.408 307.579 268.128 307.514 265.418C307.252 253.484 316.483 245.696 328.254 241.485C341.054 236.911 357.596 231.188 373.316 221.571C389.027 211.958 411.832 199.153 432.277 214.627C452.718 230.092 460.002 253.288 472.241 270.235C484.471 287.186 501.91 320.807 501.933 345.099Z" fill="#F2EFDF"/>
<path d="M331.18 240.259C320.031 244.486 307.397 250.545 307.652 265.44C307.842 276.389 317.704 278.809 319.467 279.618C322.432 275.501 335.972 266.661 341.98 264.127C317.063 267.427 316.431 247.414 331.18 240.259Z" fill="url(#paint18_radial_440_1763)" fill-opacity="0.68"/>
<path d="M370.376 259.915C370.846 257.223 368.344 260.894 365.76 262.558C333.224 272.708 318.785 296.672 317.32 299.49C317.908 301.821 324.201 304.523 334.86 304.409C341.755 290.735 355.692 276.571 371.577 269.435C369.908 267.134 369.657 260.472 370.376 259.915Z" fill="url(#paint19_radial_440_1763)" fill-opacity="0.68"/>
<path d="M375.998 274.339C332.791 301.888 336.94 351.396 335.475 354.215C338.766 355.573 343.491 356.021 351.653 350.495C353.605 334.896 357.167 302.05 380.049 276.835C378.381 274.534 379.208 277.941 375.998 274.339Z" fill="url(#paint20_radial_440_1763)" fill-opacity="0.68"/>
<path d="M392.44 274.904C354.278 317.983 367.439 367.692 365.973 370.511C376.912 370.684 377.49 361.8 380.594 356.884C382.477 341.313 376.784 316.657 399.193 277.375C397.524 275.075 395.65 278.507 392.44 274.904Z" fill="url(#paint21_radial_440_1763)" fill-opacity="0.68"/>
<path d="M420.476 285.18C424.231 345.301 435.912 379.5 439.867 386.664C450.83 386.532 457.589 363.494 457.084 354.098C452.679 342.789 435.758 324.417 427.019 280.705C424.857 282.66 427.169 284.292 420.476 285.18Z" fill="url(#paint22_radial_440_1763)" fill-opacity="0.68"/>
<path d="M407.199 281.034C388.129 317.609 393.884 377.476 398.405 381.776C409.839 377.553 411.336 369.157 413.084 363.964C410.28 352.399 404.382 332.115 413.83 285.307C412.412 285.143 410.41 284.637 407.199 281.034Z" fill="url(#paint23_radial_440_1763)" fill-opacity="0.68"/>
<path d="M458.293 353.925C467.11 364.267 469.956 364.556 476.418 367.585C499.23 378.274 502.341 349.59 502.137 343.835C501.228 344.85 499.781 325.008 496.601 316.838C503.697 355.386 467.375 355.11 428.422 287.143C434.787 313.902 455.368 350.184 458.293 353.925Z" fill="url(#paint24_radial_440_1763)" fill-opacity="0.68"/>
<path d="M431.024 269.122C431.137 270.971 426.899 280.134 426.899 280.134C426.899 280.134 427.947 283.643 429.033 286.11C433.898 289.005 445.143 296.027 456.557 291.756C472.492 285.749 465.446 259.324 465.446 259.324C465.446 259.324 466.137 277.812 454.61 280.818C447.019 282.776 437.541 278.851 431.024 269.122Z" fill="#AEB0A1"/>
<path d="M380.901 336.094C380.263 340.489 371.867 372.132 357.745 367.22C371.873 377.349 379.986 359.877 380.876 357.476C379.812 352.912 381.428 338.66 380.901 336.094Z" fill="#A8ADA1"/>
<path d="M354.766 328.788C350.873 341.373 337.846 356.527 330.454 348.242C336.108 360.752 349.793 352.184 351.817 349.942C351.77 343.974 354.004 332.044 354.766 328.788Z" fill="#A8ADA1"/>
<path d="M308.95 257.809C304.168 277.199 318.558 279.133 319.615 279.718C320.221 277.312 331.64 269.608 332.64 269.268C329.705 270.642 308.483 273.857 308.95 257.809Z" fill="#A8ADA1"/>
<path d="M314.393 293.94C317.311 307.058 334.873 304.434 334.873 304.434C334.873 304.434 340.85 295.892 342.318 292.932C339.163 294.729 320.359 302.986 314.393 293.94Z" fill="#A8ADA1"/>
<path d="M413.584 285.046C412.652 287.339 411.854 294.811 411.854 294.811C411.854 294.811 415.7 297.889 422.516 296.495C428.416 295.291 428.543 285.707 428.543 285.707C428.543 285.707 427.168 281.539 426.736 280.149C425.594 282.225 420.886 288.767 413.584 285.046Z" fill="#AFB0A2"/>
<path d="M404.003 274.002C403.07 276.295 399.125 277.535 399.125 277.535C399.125 277.535 391.858 287.376 393.456 288.654C394.577 289.584 399.265 290.252 403.202 288.89C405.344 291.697 411.908 294.737 411.908 294.737C411.908 294.737 412.404 288.27 413.502 285.303C411.674 285.805 406.892 281.616 404.003 274.002Z" fill="#AFB0A2"/>
<path d="M388.421 270.68C387.489 272.972 379.953 276.421 379.953 276.421C379.953 276.421 375.001 282.845 374.518 283.471C378.184 284.194 383.785 283.986 387.612 282.229C388.879 286.545 393.243 288.527 393.243 288.527C393.243 288.527 397.909 280.282 399.065 277.353C397.238 277.855 391.688 277.928 388.421 270.68Z" fill="#AFB0A2"/>
<path d="M371.615 269.178C371.064 269.307 366.407 272.077 366.407 272.077C366.407 272.077 366.354 276.475 369.663 280.641C370.897 282.176 374.428 283.284 374.428 283.284C374.428 283.284 378.72 279.242 379.876 276.314C378.048 276.816 374.72 276.721 371.615 269.178Z" fill="#AFB0A2"/>
<path d="M355.61 255.745C355.107 257.832 353.535 259.715 353.535 259.715C353.535 259.715 352.529 264.407 356.135 268.223C359.507 271.792 370.761 270.553 371.55 269.789C371.55 269.789 369.587 262.189 370.743 259.261C364.608 265.419 358.704 263.205 355.61 255.745Z" fill="#AFB0A2"/>
<path d="M457.566 353.397C457.566 353.397 435.331 322.719 427.039 279.771" stroke="#BDC0B4" stroke-width="8.00134" stroke-linecap="round" stroke-linejoin="round"/>
<path d="M413.003 364.169C413.003 364.169 404.329 329.281 412.647 287.666" stroke="#BDC0B4" stroke-width="8.00134" stroke-linecap="round" stroke-linejoin="round"/>
<path d="M381.06 357.83C381.06 357.83 376.453 314.876 399.161 277.391" stroke="#BDC0B4" stroke-width="8.00134" stroke-linecap="round" stroke-linejoin="round"/>
<path d="M351.644 349.89C351.644 349.89 352.502 307.081 379.962 276.372" stroke="#BDC0B4" stroke-width="8.00134" stroke-linecap="round" stroke-linejoin="round"/>
<path d="M334.877 304.336C334.877 304.336 345.42 281.493 371.699 269.274" stroke="#BDC0B4" stroke-width="8.00134" stroke-linecap="round" stroke-linejoin="round"/>
<path d="M319.61 279.713C319.61 279.713 328.651 267.489 353.575 259.78" stroke="#BDC0B4" stroke-width="8.00134" stroke-linecap="round" stroke-linejoin="round"/>
<path d="M334.877 304.336C334.877 304.336 318.706 307.204 314.825 296.466C311.744 287.941 319.61 279.713 319.61 279.713C319.61 279.713 308.396 277.816 307.555 265.569C306.787 254.361 316.802 244.261 330.568 240.839C342.679 237.829 357.597 231.185 373.312 221.574C389.026 211.962 411.83 199.159 432.276 214.625C452.722 230.09 460.006 253.29 472.24 270.238C484.474 287.185 501.901 320.812 501.921 345.104C501.942 369.395 487.036 383.127 457.566 353.396C457.566 353.396 455.349 383.606 439.219 386.582C424.92 389.22 415.246 371.348 413.003 364.136C413.003 364.136 408.697 380.279 398.946 382.039C388.822 383.868 381.29 369.564 381.06 357.829C381.06 357.829 375.498 370.519 366.068 370.825C351.328 371.302 351.644 349.889 351.644 349.889C351.644 349.889 342.162 358.01 335.449 354.238C324.529 348.101 325.026 321.752 334.877 304.336Z" stroke="#8C9284" stroke-width="8.00134" stroke-linecap="round" stroke-linejoin="round"/>
<path d="M431.138 269.287C431.138 269.287 425.625 259.023 428.858 245.463" stroke="#BDC0B4" stroke-width="8.00134" stroke-linecap="round" stroke-linejoin="round"/>
<path d="M404.869 274.023C404.869 274.023 402.951 261.036 410.323 251.174" stroke="#BDC0B4" stroke-width="8.00134" stroke-linecap="round" stroke-linejoin="round"/>
<path d="M388.998 270.574C388.998 270.574 385.488 258.248 394.053 249.741" stroke="#BDC0B4" stroke-width="8.00134" stroke-linecap="round" stroke-linejoin="round"/>
<path d="M370.475 259.349C370.475 259.349 372.098 251.731 380.95 246.041" stroke="#BDC0B4" stroke-width="8.00134" stroke-linecap="round" stroke-linejoin="round"/>
<path d="M427.04 279.898C427.04 279.898 428.001 286.642 429.552 290.354" stroke="#8A9082" stroke-width="8.00134" stroke-linecap="round"/>
<path d="M398.936 278.041C398.936 278.041 394.887 284.765 393.441 288.917" stroke="#8A9082" stroke-width="8.00134" stroke-linecap="round"/>
<path d="M380.019 276.712C380.019 276.712 377.172 278.973 374.984 282.49" stroke="#8A9082" stroke-width="8.00134" stroke-linecap="round"/>
<path d="M371.282 269.695C371.282 269.695 367.805 271.419 365.924 272.293" stroke="#8A9082" stroke-width="8.00134" stroke-linecap="round"/>
<path d="M413.398 285.293C413.398 285.293 411.896 291.042 411.71 294.889" stroke="#8A9082" stroke-width="8.00134" stroke-linecap="round"/>
<path d="M332.552 269.269C332.552 269.269 321.563 275.202 319.473 279.715" stroke="#8C9284" stroke-width="7.00117" stroke-linecap="round"/>
<path d="M351.619 350.287C351.619 350.287 353.013 335.943 354.83 328.867" stroke="#8C9284" stroke-width="7.00117" stroke-linecap="round"/>
<path d="M381.315 336.365C381.315 336.365 380.383 352.533 380.859 358.366Z" fill="#FFD100"/>
<path d="M381.315 336.365C381.315 336.365 380.383 352.533 380.859 358.366" stroke="#8C9284" stroke-width="7.00117" stroke-linecap="round"/>
<path d="M340.122 295.646C340.122 295.646 336.121 301.451 334.939 304.345Z" fill="#FFD100"/>
<path d="M340.122 295.646C340.122 295.646 336.121 301.451 334.939 304.345" stroke="#8C9284" stroke-width="7.00117" stroke-linecap="round"/>
<path d="M465.368 259.461C465.368 259.461 467.724 276.923 455.214 280.816C442.704 284.71 431.138 269.287 431.138 269.287C431.138 269.287 428.165 284.659 418.802 285.996C409.439 287.332 404.869 274.024 404.869 274.024C404.869 274.024 395.501 284.707 388.998 270.574C388.998 270.574 386.533 275.638 379.962 276.372C373.391 277.107 368.987 265.826 370.475 259.35C370.475 259.35 361.389 268.277 355.46 255.653" stroke="#72796A" stroke-width="8.00134" stroke-linecap="round" stroke-linejoin="round"/>
</g>
</g>
<defs>
<linearGradient id="paint0_linear_440_1763" x1="90.9338" y1="79.1091" x2="81.3534" y2="105.773" gradientUnits="userSpaceOnUse">
<stop stop-color="white"/>
<stop offset="0.5" stop-color="white" stop-opacity="0.5"/>
<stop offset="1" stop-color="white" stop-opacity="0"/>
</linearGradient>
<linearGradient id="paint1_linear_440_1763" x1="90.9338" y1="79.1091" x2="81.3534" y2="105.773" gradientUnits="userSpaceOnUse">
<stop offset="0.35" stop-color="#A7B09B"/>
<stop offset="0.51" stop-color="#A7B09B"/>
<stop offset="0.67" stop-color="#A7B09B"/>
</linearGradient>
<linearGradient id="paint2_linear_440_1763" x1="89.0366" y1="116.695" x2="88.0769" y2="138.959" gradientUnits="userSpaceOnUse">
<stop stop-color="white"/>
<stop offset="0.5" stop-color="white" stop-opacity="0.5"/>
<stop offset="1" stop-color="white" stop-opacity="0"/>
</linearGradient>
<linearGradient id="paint3_linear_440_1763" x1="89.0366" y1="116.695" x2="88.0769" y2="138.959" gradientUnits="userSpaceOnUse">
<stop offset="0.35" stop-color="#A7B09B"/>
<stop offset="0.51" stop-color="#A7B09B"/>
<stop offset="0.67" stop-color="#A7B09B"/>
</linearGradient>
<linearGradient id="paint4_linear_440_1763" x1="98.5161" y1="145.863" x2="102.465" y2="161.81" gradientUnits="userSpaceOnUse">
<stop stop-color="white"/>
<stop offset="0.5" stop-color="white" stop-opacity="0.5"/>
<stop offset="1" stop-color="white" stop-opacity="0"/>
</linearGradient>
<linearGradient id="paint5_linear_440_1763" x1="98.5161" y1="145.863" x2="102.465" y2="161.81" gradientUnits="userSpaceOnUse">
<stop offset="0.35" stop-color="#A7B09B"/>
<stop offset="0.51" stop-color="#A7B09B"/>
<stop offset="0.67" stop-color="#A7B09B"/>
</linearGradient>
<linearGradient id="paint6_linear_440_1763" x1="114.815" y1="167.595" x2="122.188" y2="189.052" gradientUnits="userSpaceOnUse">
<stop stop-color="white"/>
<stop offset="0.5" stop-color="white" stop-opacity="0.5"/>
<stop offset="1" stop-color="white" stop-opacity="0"/>
</linearGradient>
<linearGradient id="paint7_linear_440_1763" x1="114.815" y1="167.595" x2="122.188" y2="189.052" gradientUnits="userSpaceOnUse">
<stop offset="0.35" stop-color="#A7B09B"/>
<stop offset="0.51" stop-color="#A7B09B"/>
<stop offset="0.67" stop-color="#A7B09B"/>
</linearGradient>
<radialGradient id="paint8_radial_440_1763" cx="0" cy="0" r="1" gradientUnits="userSpaceOnUse" gradientTransform="translate(130.353 183.503) rotate(-87.0225) scale(35.63 33.2954)">
<stop stop-color="white"/>
<stop offset="0.5" stop-color="white" stop-opacity="0.5"/>
<stop offset="1" stop-color="white" stop-opacity="0"/>
</radialGradient>
<radialGradient id="paint9_radial_440_1763" cx="0" cy="0" r="1" gradientUnits="userSpaceOnUse" gradientTransform="translate(130.353 183.503) rotate(-87.0225) scale(35.63 33.2954)">
<stop offset="0.35" stop-color="#A7B09B"/>
<stop offset="0.51" stop-color="#A7B09B"/>
<stop offset="0.67" stop-color="#A7B09B"/>
</radialGradient>
<linearGradient id="paint10_linear_440_1763" x1="65.8033" y1="341.333" x2="198.104" y2="436.232" gradientUnits="userSpaceOnUse">
<stop stop-color="white"/>
<stop offset="0.68" stop-color="white" stop-opacity="0.5"/>
<stop offset="1" stop-color="white" stop-opacity="0"/>
</linearGradient>
<linearGradient id="paint11_linear_440_1763" x1="65.8033" y1="341.333" x2="198.104" y2="436.232" gradientUnits="userSpaceOnUse">
<stop stop-color="#70725C"/>
<stop offset="0.88" stop-color="#676854"/>
<stop offset="1" stop-color="#5D5E4D"/>
</linearGradient>
<linearGradient id="paint12_linear_440_1763" x1="174.16" y1="427.539" x2="261.441" y2="354.471" gradientUnits="userSpaceOnUse">
<stop stop-color="#D6E1DE" stop-opacity="0"/>
<stop offset="0.5" stop-color="#899290" stop-opacity="0.5"/>
<stop offset="1" stop-color="#3B4341"/>
</linearGradient>
<linearGradient id="paint13_linear_440_1763" x1="495.771" y1="162.218" x2="340.547" y2="221.827" gradientUnits="userSpaceOnUse">
<stop stop-color="#D6E1DE" stop-opacity="0"/>
<stop offset="0.5" stop-color="#899290" stop-opacity="0.5"/>
<stop offset="1" stop-color="#3B4341"/>
</linearGradient>
<radialGradient id="paint14_radial_440_1763" cx="0" cy="0" r="1" gradientUnits="userSpaceOnUse" gradientTransform="translate(282.119 169.297) rotate(-0.391485) scale(174.169 174.636)">
<stop offset="0.84" stop-color="#70725C"/>
<stop offset="0.91" stop-color="#71725C" stop-opacity="0.5"/>
<stop offset="1" stop-color="#71725C" stop-opacity="0"/>
</radialGradient>
<radialGradient id="paint15_radial_440_1763" cx="0" cy="0" r="1" gradientUnits="userSpaceOnUse" gradientTransform="translate(223.385 252.102) rotate(-0.391485) scale(131.847 132.2)">
<stop stop-color="white"/>
<stop offset="0.68" stop-color="white" stop-opacity="0.5"/>
<stop offset="1" stop-color="white" stop-opacity="0"/>
</radialGradient>
<radialGradient id="paint16_radial_440_1763" cx="0" cy="0" r="1" gradientUnits="userSpaceOnUse" gradientTransform="translate(223.385 252.102) rotate(-0.391485) scale(131.847 132.2)">
<stop stop-color="#70725C"/>
<stop offset="0.88" stop-color="#676854"/>
<stop offset="1" stop-color="#5D5E4D"/>
</radialGradient>
<linearGradient id="paint17_linear_440_1763" x1="215.924" y1="234.035" x2="360.025" y2="316.425" gradientUnits="userSpaceOnUse">
<stop stop-color="#A19F7C" stop-opacity="0"/>
<stop offset="0.5" stop-color="#7F7D5F" stop-opacity="0.5"/>
<stop offset="1" stop-color="#5D5C41"/>
</linearGradient>
<radialGradient id="paint18_radial_440_1763" cx="0" cy="0" r="1" gradientUnits="userSpaceOnUse" gradientTransform="translate(331.268 250.859) rotate(-19.0921) scale(24.147 24.147)">
<stop offset="0.28" stop-color="#EDECE1"/>
<stop offset="0.85" stop-color="#CACEBE"/>
<stop offset="1" stop-color="#A7B09B"/>
</radialGradient>
<radialGradient id="paint19_radial_440_1763" cx="0" cy="0" r="1" gradientUnits="userSpaceOnUse" gradientTransform="translate(384.537 339.996) rotate(-19.0921) scale(78.9426 78.9426)">
<stop offset="0.28" stop-color="#EDECE1"/>
<stop offset="0.85" stop-color="#CACEBE"/>
<stop offset="1" stop-color="#A7B09B"/>
</radialGradient>
<radialGradient id="paint20_radial_440_1763" cx="0" cy="0" r="1" gradientUnits="userSpaceOnUse" gradientTransform="translate(445.113 351.57) rotate(-19.0921) scale(107.15 107.15)">
<stop offset="0.28" stop-color="#EDECE1"/>
<stop offset="0.85" stop-color="#CACEBE"/>
<stop offset="1" stop-color="#A7B09B"/>
</radialGradient>
<radialGradient id="paint21_radial_440_1763" cx="0" cy="0" r="1" gradientUnits="userSpaceOnUse" gradientTransform="translate(506.018 351.036) rotate(-19.0921) scale(139.86 139.86)">
<stop offset="0.28" stop-color="#EDECE1"/>
<stop offset="0.85" stop-color="#CACEBE"/>
<stop offset="1" stop-color="#A7B09B"/>
</radialGradient>
<radialGradient id="paint22_radial_440_1763" cx="0" cy="0" r="1" gradientUnits="userSpaceOnUse" gradientTransform="translate(586.534 303.93) rotate(-19.0921) scale(162.753 162.753)">
<stop offset="0.28" stop-color="#EDECE1"/>
<stop offset="0.85" stop-color="#CACEBE"/>
<stop offset="1" stop-color="#A7B09B"/>
</radialGradient>
<radialGradient id="paint23_radial_440_1763" cx="0" cy="0" r="1" gradientUnits="userSpaceOnUse" gradientTransform="translate(523.646 334.329) rotate(-19.0921) scale(130.219)">
<stop offset="0.28" stop-color="#EDECE1"/>
<stop offset="0.85" stop-color="#CACEBE"/>
<stop offset="1" stop-color="#A7B09B"/>
</radialGradient>
<radialGradient id="paint24_radial_440_1763" cx="0" cy="0" r="1" gradientUnits="userSpaceOnUse" gradientTransform="translate(475.933 298.996) rotate(-19.0921) scale(55.8856 55.8856)">
<stop offset="0.28" stop-color="#EDECE1"/>
<stop offset="0.85" stop-color="#CACEBE"/>
<stop offset="1" stop-color="#A7B09B"/>
</radialGradient>
</defs>
</svg>
