<svg width="512" height="444" viewBox="0 0 512 444" fill="none" xmlns="http://www.w3.org/2000/svg">
<g clip-path="url(#clip0_440_2279)">
<mask id="mask0_440_2279" style="mask-type:luminance" maskUnits="userSpaceOnUse" x="0" y="-68" width="512" height="512">
<path d="M512 -68H0V444H512V-68Z" fill="white"/>
</mask>
<g mask="url(#mask0_440_2279)">
<mask id="mask1_440_2279" style="mask-type:alpha" maskUnits="userSpaceOnUse" x="45" y="-46" width="420" height="468">
<path d="M464.894 421.757L45.5279 421.878V-45.879L464.894 -46V421.757Z" fill="white"/>
</mask>
<g mask="url(#mask1_440_2279)">
<mask id="mask2_440_2279" style="mask-type:luminance" maskUnits="userSpaceOnUse" x="0" y="-68" width="512" height="512">
<path d="M0 -68H512V444H0V-68Z" fill="white"/>
</mask>
<g mask="url(#mask2_440_2279)">
<path d="M529.248 385.859C528.438 380.19 526.197 344.474 496.447 323.911C468.911 304.879 409.79 310.143 402.906 287.872C399.19 275.848 399.679 262.096 402.096 256.961C404.255 252.372 407.323 249.307 409.654 247.242C436.199 223.733 440.16 191.9 440.16 191.9C450.689 192.71 459.597 157.885 442.185 151.406C448.664 86.6145 415.053 47.7402 362.411 47.7402C362.634 47.7402 363.189 47.7402 362.967 47.7402H363.574C310.932 47.7402 277.321 86.6145 283.8 151.406C266.388 157.885 275.296 192.71 285.825 191.9C285.825 191.9 289.786 223.733 316.331 247.242C318.662 249.307 321.73 252.372 323.889 256.961C326.306 262.096 326.795 275.848 323.079 287.872C316.195 310.143 257.074 304.879 229.538 323.911C199.788 344.474 197.547 380.19 196.737 385.859" fill="url(#paint0_linear_440_2279)"/>
<path d="M413.903 299.007C408.349 296.238 404.399 292.703 402.906 287.872C399.19 275.848 399.679 262.096 402.096 256.96C404.255 252.372 407.323 249.306 409.654 247.242C436.199 223.733 440.16 191.9 440.16 191.9C450.689 192.71 459.597 157.885 442.185 151.406" stroke="#335375" stroke-width="8.16" stroke-linecap="round" stroke-linejoin="round"/>
<path d="M283.8 151.406C266.388 157.885 275.296 192.71 285.825 191.9C285.825 191.9 289.786 223.733 316.331 247.242C318.662 249.306 321.73 252.372 323.889 256.96C326.306 262.096 326.795 275.848 323.079 287.872C321.444 293.162 316.861 296.9 310.454 299.777" stroke="#335375" stroke-width="8.16" stroke-linecap="round" stroke-linejoin="round"/>
<path d="M528.177 373.004C526.018 361.423 519.469 339.824 496.447 323.911C474.848 308.983 433.816 309.003 413.803 298.957" stroke="#A5D6EA" stroke-width="8.16" stroke-linecap="round" stroke-linejoin="round"/>
<path d="M312.419 298.837C292.496 309.003 251.223 308.924 229.538 323.912C206.191 340.049 199.786 362.032 197.719 373.488" stroke="#A5D6EA" stroke-width="8.16" stroke-linecap="round" stroke-linejoin="round"/>
<path d="M449.646 158.135C448.071 155.105 445.649 152.695 442.185 151.406C448.664 86.6145 415.053 47.7402 362.411 47.7402C362.634 47.7402 363.189 47.7402 362.966 47.7402H363.574C310.932 47.7402 277.321 86.6145 283.8 151.406C279.845 152.878 277.248 155.812 275.719 159.46" stroke="#A5D6EA" stroke-width="8.16" stroke-linecap="round" stroke-linejoin="round"/>
<path d="M330.868 385.859C330.058 380.19 327.818 344.474 298.068 323.911C270.532 304.879 211.41 310.143 204.526 287.872C200.81 275.848 201.299 262.096 203.716 256.961C205.875 252.372 208.944 249.307 211.275 247.242C237.82 223.733 241.78 191.9 241.78 191.9C252.309 192.71 261.217 157.885 243.805 151.406C250.284 86.6145 216.674 47.7402 164.032 47.7402C164.255 47.7402 164.809 47.7402 164.586 47.7402H165.194C112.552 47.7402 78.9412 86.6145 85.4202 151.406C68.0078 157.885 76.9165 192.71 87.4449 191.9C87.4449 191.9 91.4056 223.733 117.951 247.242C120.282 249.307 123.351 252.372 125.51 256.961C127.927 262.096 128.416 275.848 124.7 287.872C117.816 310.143 58.6942 304.879 31.1582 323.911C1.40791 344.474 -0.83202 380.19 -1.64191 385.859" fill="url(#paint1_linear_440_2279)"/>
<path d="M218.155 300.215C211.224 297.28 206.245 293.435 204.526 287.872C200.81 275.848 201.299 262.096 203.716 256.96C205.875 252.372 208.944 249.306 211.275 247.242C237.82 223.733 241.78 191.9 241.78 191.9C252.309 192.71 261.217 157.885 243.805 151.406" stroke="#335375" stroke-width="8.16" stroke-linecap="round" stroke-linejoin="round"/>
<path d="M85.4202 151.406C68.0078 157.885 76.9165 192.71 87.4449 191.9C87.4449 191.9 91.4056 223.733 117.951 247.242C120.282 249.306 123.351 252.372 125.51 256.96C127.927 262.096 128.416 275.848 124.7 287.872C123.002 293.364 118.127 297.183 111.331 300.103" stroke="#335375" stroke-width="8.16" stroke-linecap="round" stroke-linejoin="round"/>
<path d="M329.797 373.004C327.638 361.423 321.09 339.824 298.068 323.911C275.799 308.52 232.872 309.018 213.624 297.993" stroke="#A5D6EA" stroke-width="8.16" stroke-linecap="round" stroke-linejoin="round"/>
<path d="M113.827 298.945C96.3301 309.25 68.8024 310.073 48.1637 315.724" stroke="#A5D6EA" stroke-width="8.16" stroke-linecap="round" stroke-linejoin="round"/>
<path d="M251.267 158.135C249.692 155.105 247.269 152.695 243.805 151.406C250.284 86.6145 216.674 47.7402 164.032 47.7402C164.255 47.7402 164.809 47.7402 164.586 47.7402H165.194C112.552 47.7402 78.9412 86.6145 85.4202 151.406C81.4646 152.878 78.8677 155.812 77.3387 159.46" stroke="#A5D6EA" stroke-width="8.16" stroke-linecap="round" stroke-linejoin="round"/>
</g>
</g>
</g>
</g>
<defs>
<linearGradient id="paint0_linear_440_2279" x1="341.907" y1="381.566" x2="333.994" y2="83.5239" gradientUnits="userSpaceOnUse">
<stop stop-color="#44688B"/>
<stop offset="0.59" stop-color="#6086A7"/>
<stop offset="1" stop-color="#7BA3C3"/>
</linearGradient>
<linearGradient id="paint1_linear_440_2279" x1="180.332" y1="380.602" x2="167.296" y2="85.0223" gradientUnits="userSpaceOnUse">
<stop stop-color="#44688B"/>
<stop offset="0.59" stop-color="#6086A7"/>
<stop offset="1" stop-color="#7BA3C3"/>
</linearGradient>
<clipPath id="clip0_440_2279">
<rect width="512" height="444" fill="white"/>
</clipPath>
</defs>
</svg>
