<svg width="512" height="512" viewBox="0 0 512 512" fill="none" xmlns="http://www.w3.org/2000/svg">
<g clip-path="url(#clip0_440_2332)">
<mask id="mask0_440_2332" style="mask-type:luminance" maskUnits="userSpaceOnUse" x="0" y="0" width="512" height="512">
<path d="M512 0H0V512H512V0Z" fill="white"/>
</mask>
<g mask="url(#mask0_440_2332)">
<path d="M198.39 398.122C198.39 398.122 284.403 412.834 348.345 392.463C440.114 363.227 465.097 290.895 454.472 197.961C444.239 108.46 381.282 54.9375 248.425 54.9375C112.321 54.9375 51.1294 131.684 51.2269 234.838C51.2724 283.159 62.9197 309.926 76.0992 331.058C86.8796 348.345 101.974 359.531 108.804 362.301C108.804 362.301 114.891 383.202 107.735 409.722C101.104 434.296 83.3245 454.773 83.03 458.311C82.7354 461.85 118.662 461.916 152.322 439.44C188.507 415.275 198.39 398.122 198.39 398.122Z" fill="url(#paint0_radial_440_2332)"/>
<g opacity="0.5">
<path d="M432.582 331.952C449.694 298.098 453.531 255.727 448.235 207.898C438.324 118.399 377.325 64.875 248.6 64.875C116.729 64.875 57.4441 141.621 57.5389 244.774C57.5677 285.355 65.5363 310.737 75.6551 330.341C62.6558 309.316 51.2771 282.607 51.2297 234.835C51.1349 131.682 112.323 54.9355 248.43 54.9355C381.286 54.9355 444.236 108.459 454.469 197.959C460.485 250.591 455.085 296.62 432.582 331.952Z" fill="white"/>
</g>
<g opacity="0.4">
<path d="M350.814 82.8723C350.814 97.4753 307.476 109.314 254.016 109.314C200.555 109.314 157.218 97.4753 157.218 82.8723C157.218 68.2693 200.555 56.4307 254.016 56.4307C307.476 56.4307 350.814 68.2693 350.814 82.8723Z" fill="white"/>
</g>
<g opacity="0.2">
<path d="M348.342 392.469C284.406 412.839 198.393 398.125 198.393 398.125C198.393 398.125 188.511 415.275 152.326 439.444C118.662 461.918 82.7336 461.853 83.0272 458.31C83.3208 454.776 101.104 434.299 107.737 409.722C114.891 383.202 108.808 362.301 108.808 362.301C101.977 359.535 86.8833 348.344 76.1011 331.062C62.9216 309.924 51.2771 283.157 51.2297 234.835V234.201C53.2098 269.201 79.435 361.699 246.53 369.095C453.241 378.245 455.208 261.355 456.109 216.321C461.462 300.382 433.976 365.182 348.342 392.469Z" fill="#969696"/>
</g>
<path d="M104.138 456.165C104.1 456.174 105.17 458.593 105.131 458.602C103.029 459.132 105.721 458.46 103.769 458.839C103.74 458.848 105.131 458.603 106.865 458.271C106.278 458.366 105.7 458.478 105.131 458.602C91.8767 460.99 82.8748 460.089 83.0262 458.308C83.2344 455.825 92.0746 444.977 99.6075 430.225C108.656 414.686 117.088 400.017 130.358 406.546C143.1 412.817 138.883 449.031 104.138 456.165Z" fill="#BFBFBF"/>
<g opacity="0.3">
<path d="M160.891 433.503V433.513C158.219 435.436 155.367 437.417 152.325 439.444C118.661 461.918 82.7336 461.852 83.0272 458.308C83.3208 454.775 101.104 434.299 107.737 409.721C113.611 387.948 110.56 369.955 109.281 364.223C111.442 364.81 114.048 365.72 117.193 367.056C117.193 367.056 128.638 408.87 94.2545 453.751C94.2545 453.751 124.839 457.73 160.891 433.503Z" fill="white"/>
</g>
<path d="M198.39 398.122C198.39 398.122 284.403 412.834 348.345 392.463C440.114 363.227 465.097 290.895 454.472 197.961C444.239 108.46 381.282 54.9375 248.425 54.9375C112.321 54.9375 51.1294 131.684 51.2269 234.838C51.2724 283.159 62.9197 309.926 76.0992 331.058C86.8796 348.345 101.974 359.531 108.804 362.301C108.804 362.301 114.891 383.202 107.735 409.722C101.104 434.296 83.3245 454.773 83.03 458.311C82.7354 461.85 118.662 461.916 152.322 439.44C188.507 415.275 198.39 398.122 198.39 398.122Z" stroke="#9B9B9B" stroke-width="6.50426" stroke-linecap="round" stroke-linejoin="round"/>
<path d="M51.6339 249.728C53.8008 288.863 64.3405 312.204 76.0992 331.059C86.8796 348.346 101.975 359.532 108.805 362.302C108.805 362.302 114.892 383.203 107.736 409.723C101.105 434.297 83.3245 454.773 83.03 458.311C82.7354 461.85 118.663 461.917 152.323 439.441C188.508 415.276 198.391 398.123 198.391 398.123C198.391 398.123 284.403 412.835 348.345 392.464C422.241 368.922 452.833 317.436 456.398 249.751" stroke="#777777" stroke-width="6.50426" stroke-linecap="round" stroke-linejoin="round"/>
<path d="M201.366 233.038C201.366 242.268 193.884 249.75 184.653 249.75C175.423 249.75 167.941 242.268 167.941 233.038C167.941 223.807 175.423 216.326 184.653 216.326C193.884 216.326 201.366 223.807 201.366 233.038Z" fill="#363636"/>
<path d="M272.68 233.038C272.68 242.268 265.199 249.75 255.968 249.75C246.738 249.75 239.256 242.268 239.256 233.038C239.256 223.807 246.738 216.326 255.968 216.326C265.199 216.326 272.68 223.807 272.68 233.038Z" fill="#363636"/>
<path d="M343.995 233.038C343.995 242.268 336.513 249.75 327.283 249.75C318.052 249.75 310.57 242.268 310.57 233.038C310.57 223.807 318.052 216.326 327.283 216.326C336.513 216.326 343.995 223.807 343.995 233.038Z" fill="#363636"/>
<path d="M198.391 398.122C198.391 398.122 194.383 397.487 189.731 396.068" stroke="#777777" stroke-width="6.50426" stroke-linecap="round" stroke-linejoin="round"/>
<path d="M108.804 362.301C108.804 362.301 112.242 363.842 115.222 364.938" stroke="#777777" stroke-width="6.50426" stroke-linecap="round" stroke-linejoin="round"/>
</g>
</g>
<defs>
<radialGradient id="paint0_radial_440_2332" cx="0" cy="0" r="1" gradientUnits="userSpaceOnUse" gradientTransform="translate(253.706 226.597) scale(210.928 210.928)">
<stop offset="0.3" stop-color="#FCFCFC"/>
<stop offset="0.91" stop-color="#CBCBCB"/>
<stop offset="1" stop-color="#9A9A9A"/>
</radialGradient>
<clipPath id="clip0_440_2332">
<rect width="512" height="512" fill="white"/>
</clipPath>
</defs>
</svg>
