<svg width="512" height="512" viewBox="0 0 512 512" fill="none" xmlns="http://www.w3.org/2000/svg">
<g clip-path="url(#clip0_440_2376)">
<mask id="mask0_440_2376" style="mask-type:luminance" maskUnits="userSpaceOnUse" x="0" y="0" width="512" height="512">
<path d="M512 0H0V512H512V0Z" fill="white"/>
</mask>
<g mask="url(#mask0_440_2376)">
<path d="M352.053 67.5904C343.779 52.0764 314.82 46.9057 293.101 45.8712C271.382 44.8368 213.463 45.8707 207.257 50.008C199.139 55.4202 154.51 117.235 157.613 127.577C160.936 138.653 176.229 144.125 177.264 147.228C178.298 150.331 150.373 234.106 144.167 260.997C137.962 287.888 137.962 308.573 129.688 322.018C121.414 335.463 120.38 339.601 122.448 346.84C124.517 354.08 131.756 367.526 132.791 386.142C133.825 404.759 131.757 417.17 140.031 428.546C148.305 439.923 155.545 453.369 194.846 458.54C234.148 463.711 318.957 469.917 347.916 463.711C376.875 457.506 390.321 441.992 396.527 416.136C402.732 390.279 399.63 311.675 396.527 287.887C393.424 264.099 371.705 169.982 370.67 160.674C366.632 124.331 362.937 87.9961 352.053 67.5904Z" fill="url(#paint0_linear_440_2376)"/>
<path d="M352.053 67.5904C343.779 52.0764 314.82 46.9057 293.101 45.8712C271.382 44.8368 213.463 45.8707 207.257 50.008C199.139 55.4202 154.51 117.235 157.613 127.577C160.936 138.653 176.229 144.125 177.264 147.228C178.298 150.331 150.373 234.106 144.167 260.997C137.962 287.888 137.962 308.573 129.688 322.018C121.414 335.463 120.38 339.601 122.448 346.84C124.517 354.08 131.756 367.526 132.791 386.142C133.825 404.759 131.757 417.17 140.031 428.546C148.305 439.923 155.545 453.369 194.846 458.54C234.148 463.711 318.957 469.917 347.916 463.711C376.875 457.506 390.321 441.992 396.527 416.136C402.732 390.279 399.63 311.675 396.527 287.887C393.424 264.099 371.705 169.982 370.67 160.674C366.632 124.331 362.937 87.9961 352.053 67.5904Z" fill="url(#paint1_linear_440_2376)"/>
<path d="M352.053 67.5904C343.779 52.0764 314.82 46.9057 293.101 45.8712C271.382 44.8368 213.463 45.8707 207.257 50.008C199.139 55.4202 154.51 117.235 157.613 127.577C160.936 138.653 176.229 144.125 177.264 147.228C178.298 150.331 150.373 234.106 144.167 260.997C137.962 287.888 137.962 308.573 129.688 322.018C121.414 335.463 120.38 339.601 122.448 346.84C124.517 354.08 131.756 367.526 132.791 386.142C133.825 404.759 131.757 417.17 140.031 428.546C148.305 439.923 155.545 453.369 194.846 458.54C234.148 463.711 318.957 469.917 347.916 463.711C376.875 457.506 390.321 441.992 396.527 416.136C402.732 390.279 399.63 311.675 396.527 287.887C393.424 264.099 371.705 169.982 370.67 160.674C366.632 124.331 362.937 87.9961 352.053 67.5904Z" fill="url(#paint2_linear_440_2376)"/>
<path d="M204.413 160.746C203.928 163.905 160.173 323.377 153.802 331.509C144.319 343.613 128.017 337.932 122.006 331.859C141.602 315.949 155.187 211.715 177.264 147.228C176.23 144.126 160.933 138.655 157.613 127.578C157.592 127.526 157.582 127.464 157.561 127.402L192.778 126.657C192.778 126.657 205.644 152.71 204.413 160.746Z" fill="url(#paint3_linear_440_2376)"/>
<path d="M204.413 160.746C203.928 163.905 160.173 323.377 153.802 331.509C144.319 343.613 128.017 337.932 122.006 331.859C141.602 315.949 155.187 211.715 177.264 147.228C176.23 144.126 160.933 138.655 157.613 127.578C157.592 127.526 157.582 127.464 157.561 127.402L192.778 126.657C192.778 126.657 205.644 152.71 204.413 160.746Z" fill="url(#paint4_linear_440_2376)"/>
<path d="M396.527 416.135C390.321 441.992 376.875 457.506 347.916 463.711C318.957 469.917 234.148 463.711 194.846 458.54C155.545 453.369 148.305 439.923 140.031 428.546C131.757 417.169 133.825 404.758 132.791 386.142C131.756 367.525 125.617 354.561 121.704 343.541C137.394 343.799 184.813 346.429 198.048 348.341C218.142 351.244 221.729 354.595 238.942 352.885C260.011 350.792 297.681 329.697 299.562 266.075C300.534 233.209 344.017 236.05 387.435 240.477C391.686 260.666 395.379 279.086 396.527 287.887C399.63 311.675 402.732 390.279 396.527 416.135Z" fill="url(#paint5_linear_440_2376)"/>
<mask id="mask1_440_2376" style="mask-type:luminance" maskUnits="userSpaceOnUse" x="121" y="237" width="280" height="230">
<path d="M396.527 416.135C390.321 441.992 376.875 457.506 347.916 463.711C318.957 469.917 234.148 463.711 194.846 458.54C155.545 453.369 148.305 439.923 140.031 428.546C131.757 417.169 133.825 404.758 132.791 386.142C131.756 367.525 125.617 354.561 121.704 343.541C137.394 343.799 184.813 346.429 198.048 348.341C218.142 351.244 221.729 354.595 238.942 352.885C260.011 350.792 297.681 329.697 299.562 266.075C300.534 233.209 344.017 236.05 387.435 240.477C391.686 260.666 395.379 279.086 396.527 287.887C399.63 311.675 402.732 390.279 396.527 416.135Z" fill="url(#paint6_linear_440_2376)"/>
</mask>
<g mask="url(#mask1_440_2376)">
<path d="M396.527 416.135C390.321 441.992 376.875 457.506 347.916 463.711C318.957 469.917 234.148 463.711 194.846 458.54C155.545 453.369 148.305 439.923 140.031 428.546C131.757 417.169 133.825 404.758 132.791 386.142C131.756 367.525 125.617 354.561 121.704 343.541C137.394 343.799 184.813 346.429 198.048 348.341C218.142 351.244 221.729 354.595 238.942 352.885C260.011 350.792 297.681 329.697 299.562 266.075C300.534 233.209 344.017 236.05 387.435 240.477C391.686 260.666 395.379 279.086 396.527 287.887C399.63 311.675 402.732 390.279 396.527 416.135Z" fill="url(#paint7_linear_440_2376)" fill-opacity="0.64"/>
</g>
<mask id="mask2_440_2376" style="mask-type:luminance" maskUnits="userSpaceOnUse" x="122" y="341" width="122" height="123">
<path d="M243.508 463.711C236.341 463.242 208.416 460.329 194.846 458.54C155.545 453.369 148.305 439.923 140.031 428.546C131.757 417.169 133.825 404.759 132.791 386.142C131.756 367.525 124.517 354.08 122.448 346.84C121.889 344.875 126.895 341.452 129.771 341.751C167.757 343.076 202.021 350.319 207.425 352.957C244.352 370.988 217.977 389.772 209.434 408.147C202.295 423.504 225.78 452.34 243.508 463.711Z" fill="url(#paint8_linear_440_2376)"/>
</mask>
<g mask="url(#mask2_440_2376)">
<path d="M243.508 463.711C236.341 463.242 208.416 460.329 194.846 458.54C155.545 453.369 148.305 439.923 140.031 428.546C131.757 417.169 133.825 404.759 132.791 386.142C131.756 367.525 124.517 354.08 122.448 346.84C121.889 344.875 126.895 341.452 129.771 341.751C167.757 343.076 202.021 350.319 207.425 352.957C244.352 370.988 217.977 389.772 209.434 408.147C202.295 423.504 225.78 452.34 243.508 463.711Z" fill="url(#paint9_linear_440_2376)" fill-opacity="0.47"/>
</g>
<path d="M243.508 463.711C236.341 463.242 208.416 460.329 194.846 458.54C155.545 453.369 148.305 439.923 140.031 428.546C131.757 417.169 133.825 404.759 132.791 386.142C131.756 367.525 124.517 354.08 122.448 346.84C121.889 344.875 126.895 341.452 129.771 341.751C167.757 343.076 202.021 350.319 207.425 352.957C244.352 370.988 217.977 389.772 209.434 408.147C202.295 423.504 225.78 452.34 243.508 463.711Z" fill="url(#paint10_linear_440_2376)" fill-opacity="0.47"/>
<g opacity="0.5">
<mask id="mask3_440_2376" style="mask-type:luminance" maskUnits="userSpaceOnUse" x="250" y="159" width="45" height="64">
<path d="M292.051 162.87C286.495 153.961 262.423 165.748 253.114 177.407C245.47 186.981 256.228 222.325 269.976 222.325C285.934 222.325 299.242 174.4 292.051 162.87Z" fill="url(#paint11_radial_440_2376)"/>
</mask>
<g mask="url(#mask3_440_2376)">
<path d="M292.051 162.87C286.495 153.961 262.423 165.748 253.114 177.407C245.47 186.981 256.228 222.325 269.976 222.325C285.934 222.325 299.242 174.4 292.051 162.87Z" fill="url(#paint12_radial_440_2376)"/>
</g>
</g>
<path d="M188.372 396.6C176.396 393.112 178.214 402.037 179.409 407.918C180.604 413.798 173.473 420.781 183.313 422.251C193.153 423.722 206.299 401.822 188.372 396.6Z" fill="url(#paint13_linear_440_2376)"/>
<path d="M135.238 407.49C135.637 401.549 131.617 400.289 131.717 405.702C131.773 408.71 130.227 416.29 134.38 417.888C137.857 419.226 134.993 411.142 135.238 407.49Z" fill="#65685D"/>
<path d="M156.182 430.704C151.047 430.383 149.199 434.012 156.182 438.055C163.166 442.098 167.943 431.439 156.182 430.704Z" fill="#6A6D60"/>
<path d="M169.712 404.293C165.293 402.084 166.133 413.48 169.712 416.043C173.29 418.606 177.763 408.318 169.712 404.293Z" fill="#75796A"/>
<path d="M232.917 127.205C213.659 126.243 160.154 127.619 157.613 127.577C154.51 117.235 199.138 55.4173 207.257 50.008C213.463 45.8707 271.382 44.8368 293.101 45.8712C314.82 46.9057 343.779 52.0764 352.053 67.5904C362.934 87.9961 328.816 155.926 294.94 145.037C275.861 138.904 244.927 127.809 232.917 127.205Z" fill="url(#paint14_linear_440_2376)"/>
<path d="M221.561 73.2379C219.108 72.86 218.086 78.5009 216.468 79.447C214.85 80.393 219.879 85.6244 222.756 81.5168C225.632 77.4092 225.292 73.8124 221.561 73.2379Z" fill="#C6C4AC"/>
<path d="M205.07 84.972C201.523 84.4256 198.816 84.5278 198.238 88.6453C197.66 92.7628 201.386 94.5284 203.732 94.762C206.078 94.9957 207.234 91.7541 208.549 91.3055C209.864 90.857 211.22 85.9194 205.07 84.972Z" fill="#C6C4AC"/>
<path d="M217.365 95.3761C214.092 94.2987 214.892 96.0524 212.182 98.9245C209.472 101.797 213.604 103.745 216.716 101.633C219.828 99.5203 221.518 96.7435 217.365 95.3761Z" fill="#C6C4AC"/>
<path d="M197.267 97.8317C194.508 94.8548 194.301 91.9071 189.96 90.6025C185.618 89.2978 185.92 96.0765 182.344 96.5695C178.768 97.062 176.55 100.627 180.573 101.951C184.595 103.275 187.229 102.71 189.829 105.952C192.428 109.193 201.369 102.256 197.267 97.8317Z" fill="#C6C4AC"/>
<path d="M294.544 79.2263C287.329 79.4451 293.916 83.9341 292.974 89.5835C292.033 95.2329 294.09 102.138 300.908 100.569C307.725 98.9991 303.645 92.7224 306.47 88.0146C309.295 83.3067 304.901 78.9126 294.544 79.2263Z" fill="#A8A696"/>
<path d="M277.891 72.7145C271.74 74.0325 277.891 76.6531 277.891 80.0291C277.891 83.4051 285.205 80.5913 284.924 76.3716C284.643 72.1518 281.83 71.8707 277.891 72.7145Z" fill="#C6C4AC"/>
<path d="M280.737 94.098C274.744 93.8994 273.256 102.71 277.117 107.164C280.977 111.619 283.353 100.334 288.104 100.631C292.855 100.928 289.702 94.3949 280.737 94.098Z" fill="#BEBCA9"/>
<path d="M258.43 75.1556C253.816 75.8724 251.904 77.9774 253.559 84.016C255.215 90.0547 256.885 81.1404 260.464 79.5275C264.043 77.9146 262.049 74.5935 258.43 75.1556Z" fill="#C6C4AC"/>
<g opacity="0.4">
<mask id="mask4_440_2376" style="mask-type:luminance" maskUnits="userSpaceOnUse" x="202" y="45" width="89" height="99">
<path d="M202.6 124.446C202.6 124.446 226.163 121.655 235.112 99.5184C244.062 77.3818 256.652 45.4976 256.652 45.4976H281.911C281.911 45.4976 264.729 69.9802 263.073 102.259C262.141 120.432 274.359 131.105 290.307 143.773C290.307 143.773 258.97 130.195 242.656 126.658C227.473 123.366 202.6 124.446 202.6 124.446Z" fill="url(#paint15_linear_440_2376)"/>
</mask>
<g mask="url(#mask4_440_2376)">
<path d="M202.6 124.446C202.6 124.446 226.163 121.655 235.112 99.5184C244.062 77.3818 256.652 45.4976 256.652 45.4976H281.911C281.911 45.4976 264.729 69.9802 263.073 102.259C262.141 120.432 274.359 131.105 290.307 143.773C290.307 143.773 258.97 130.195 242.656 126.658C227.473 123.366 202.6 124.446 202.6 124.446Z" fill="url(#paint16_linear_440_2376)"/>
</g>
</g>
<path d="M299.577 278.701C300.191 239.939 305.52 208.344 304.478 195.838C302.409 171.016 299.268 159.346 297.238 147.228C290.306 105.859 338.918 72.2545 311.717 47.7427C311.715 47.7407 346.013 56.2647 352.053 67.5901C362.934 87.9958 366.637 124.329 370.67 160.674C371.705 169.982 393.424 264.099 396.527 287.887C399.63 311.675 298.915 320.492 299.577 278.701Z" fill="url(#paint17_linear_440_2376)"/>
<mask id="mask5_440_2376" style="mask-type:luminance" maskUnits="userSpaceOnUse" x="294" y="206" width="107" height="259">
<path d="M396.527 416.135C390.321 441.992 376.875 457.505 347.916 463.711C338.773 465.666 299.775 467.284 294.973 439.881C290.171 412.479 315.831 371.06 305.512 329.257C294.77 285.742 296.935 209.372 328.795 206.976C347.839 205.545 376.545 212.138 396.527 287.887C399.63 311.675 402.732 390.279 396.527 416.135Z" fill="url(#paint18_linear_440_2376)"/>
</mask>
<g mask="url(#mask5_440_2376)">
<path d="M396.527 416.135C390.321 441.992 376.875 457.505 347.916 463.711C338.773 465.666 299.775 467.284 294.973 439.881C290.171 412.479 315.831 371.06 305.512 329.257C294.77 285.742 296.935 209.372 328.795 206.976C347.839 205.545 376.545 212.138 396.527 287.887C399.63 311.675 402.732 390.279 396.527 416.135Z" fill="url(#paint19_linear_440_2376)"/>
</g>
<path d="M342.171 158.708C337.238 158.236 341.025 162.754 343.206 166.186C345.387 169.617 349.487 167.898 348.596 162.964C347.705 158.03 345.16 158.994 342.171 158.708Z" fill="#8E8B7E"/>
<path d="M347.382 178.345C344.193 177.237 342.328 174.241 337.105 175.734C331.882 177.226 338.037 181.516 334.12 184.687C330.202 187.859 330.575 194.574 338.037 195.507C345.499 196.44 347.551 191.596 352.028 191.033C356.505 190.471 355.811 181.274 347.382 178.345Z" fill="#8E8B7E"/>
<path d="M325.117 152.882C319.653 150.744 321.183 157.94 320.621 162.436C320.059 166.932 312.753 174.519 320.621 179.296C328.489 184.073 338.043 157.94 325.117 152.882Z" fill="#8E8B7E"/>
<path d="M326.305 131.009C322.687 129.858 323.63 123.237 314.375 124.326C305.119 125.415 314.582 129.864 313.893 133.753C313.205 137.641 310.843 141.474 316.638 143.622C322.434 145.771 322.342 143.477 328.266 146.803C334.19 150.129 341.09 147.414 336.872 142.46C332.655 137.506 337.004 134.41 326.305 131.009Z" fill="#8E8B7E"/>
<g opacity="0.33">
<path d="M328.901 431.098C325.203 431.44 325.159 434.716 328.248 437.495C331.336 440.274 332.726 442.282 334.579 438.576C336.432 434.87 332.952 430.724 328.901 431.098Z" fill="#696760"/>
</g>
<g opacity="0.33">
<path d="M370.141 397.996C365.649 398.2 367.301 402.255 364.934 407.935C362.568 413.614 371.561 411.721 372.744 407.935C373.927 404.148 375.347 397.759 370.141 397.996Z" fill="#6D6C65"/>
</g>
<g opacity="0.33">
<path d="M354.995 388.056C350.789 387.383 350.735 393.263 354.995 394.919C359.255 396.576 360.911 389.003 354.995 388.056Z" fill="#6F6E6A"/>
</g>
<g opacity="0.33">
<path d="M379.684 370.899C373.296 371.038 376.608 379.182 373.295 380.838C369.982 382.495 371.639 390.54 376.49 389.831C381.341 389.121 383.973 385.328 389.15 383.205C394.327 381.081 390.57 370.662 379.684 370.899Z" fill="#706F68"/>
</g>
<g opacity="0.33">
<path d="M336.29 337.135C330.623 339.198 324.972 336.74 319.271 339.48C313.568 342.221 318.783 347.651 324.743 348.847C330.703 350.043 328.095 355.631 336.29 354.886C344.485 354.141 346.3 346.318 349.118 344.456C351.935 342.593 352.307 331.304 336.29 337.135Z" fill="#7C7B74"/>
</g>
<g opacity="0.33">
<path d="M323.359 315.916C318.309 313.552 317.243 321.695 323.359 325.67C329.475 329.646 331.921 319.923 323.359 315.916Z" fill="#8E8C83"/>
</g>
<path d="M165.45 224.197C168.291 224.368 167.79 220.21 170.02 214.777C172.251 209.344 166.368 210.473 165.128 214.128C163.888 217.783 162.157 223.998 165.45 224.197Z" fill="#A19E87"/>
<path d="M156.538 259.117C160.576 258.978 158.482 250.834 160.577 249.177C162.671 247.521 161.624 239.475 158.558 240.185C155.491 240.895 153.828 244.687 150.555 246.811C147.283 248.935 149.658 259.353 156.538 259.117Z" fill="#908E7D"/>
<mask id="mask6_440_2376" style="mask-type:luminance" maskUnits="userSpaceOnUse" x="143" y="408" width="255" height="59">
<path d="M397.964 408.099C391.356 442.006 376.875 457.506 347.916 463.711C318.957 469.917 234.148 463.711 194.846 458.54C163.549 454.423 146.586 440.638 143.56 431.331C155.072 437.382 207.369 445.023 285.861 443.026C334.445 441.79 391.086 422.816 397.964 408.099Z" fill="url(#paint20_linear_440_2376)"/>
</mask>
<g mask="url(#mask6_440_2376)">
<path d="M397.964 408.099C391.356 442.006 376.875 457.506 347.916 463.711C318.957 469.917 234.148 463.711 194.846 458.54C163.549 454.423 146.586 440.638 143.56 431.331C155.072 437.382 207.369 445.023 285.861 443.026C334.445 441.79 391.086 422.816 397.964 408.099Z" fill="url(#paint21_linear_440_2376)"/>
</g>
<mask id="mask7_440_2376" style="mask-type:luminance" maskUnits="userSpaceOnUse" x="143" y="408" width="255" height="59">
<path d="M397.964 408.099C391.356 442.006 376.875 457.506 347.916 463.711C318.957 469.917 234.148 463.711 194.846 458.54C163.549 454.423 146.586 440.638 143.56 431.331C155.072 437.382 207.369 445.023 285.861 443.026C334.445 441.79 391.086 422.816 397.964 408.099Z" fill="url(#paint22_linear_440_2376)"/>
</mask>
<g mask="url(#mask7_440_2376)">
<path d="M397.964 408.099C391.356 442.006 376.875 457.506 347.916 463.711C318.957 469.917 234.148 463.711 194.846 458.54C163.549 454.423 146.586 440.638 143.56 431.331C155.072 437.382 207.369 445.023 285.861 443.026C334.445 441.79 391.086 422.816 397.964 408.099Z" fill="url(#paint23_linear_440_2376)"/>
</g>
<mask id="mask8_440_2376" style="mask-type:luminance" maskUnits="userSpaceOnUse" x="143" y="408" width="255" height="59">
<path d="M397.964 408.099C391.356 442.006 376.875 457.506 347.916 463.711C318.957 469.917 234.148 463.711 194.846 458.54C163.549 454.423 146.586 440.638 143.56 431.331C155.072 437.382 207.369 445.023 285.861 443.026C334.445 441.79 391.086 422.816 397.964 408.099Z" fill="url(#paint24_linear_440_2376)"/>
</mask>
<g mask="url(#mask8_440_2376)">
<path d="M397.964 408.099C391.356 442.006 376.875 457.506 347.916 463.711C318.957 469.917 234.148 463.711 194.846 458.54C163.549 454.423 146.586 440.638 143.56 431.331C155.072 437.382 207.369 445.023 285.861 443.026C334.445 441.79 391.086 422.816 397.964 408.099Z" fill="url(#paint25_linear_440_2376)"/>
</g>
<g opacity="0.9">
<mask id="mask9_440_2376" style="mask-type:luminance" maskUnits="userSpaceOnUse" x="120" y="343" width="91" height="48">
<path d="M201.59 349.452C212.409 356.376 213.195 376.131 203.241 382.045C195.079 386.895 184.494 391.784 158.189 389.515C140.406 387.981 132.483 384.195 132.483 384.195C128.678 351.578 120.38 343.255 120.38 343.255C120.38 343.255 191.029 346.385 201.59 349.452Z" fill="url(#paint26_linear_440_2376)"/>
</mask>
<g mask="url(#mask9_440_2376)">
<path d="M201.59 349.452C212.409 356.376 213.195 376.131 203.241 382.045C195.079 386.895 184.494 391.784 158.189 389.515C140.406 387.981 132.483 384.195 132.483 384.195C128.678 351.578 120.38 343.255 120.38 343.255C120.38 343.255 191.029 346.385 201.59 349.452Z" fill="url(#paint27_linear_440_2376)"/>
</g>
</g>
<mask id="mask10_440_2376" style="mask-type:luminance" maskUnits="userSpaceOnUse" x="120" y="300" width="161" height="54">
<path d="M237.023 305.502C224.758 307.887 150.487 304.48 136.859 303.117C133.452 318.448 125.616 324.921 120.847 342.637C129.705 345.363 178.083 345.022 205.838 348.991C245.416 362.812 274.189 340.918 279.818 324.874C285.731 308.023 254.622 291.533 237.023 305.502Z" fill="url(#paint28_radial_440_2376)"/>
</mask>
<g mask="url(#mask10_440_2376)">
<path d="M237.023 305.502C224.758 307.887 150.487 304.48 136.859 303.117C133.452 318.448 125.616 324.921 120.847 342.637C129.705 345.363 178.083 345.022 205.838 348.991C245.416 362.812 274.189 340.918 279.818 324.874C285.731 308.023 254.622 291.533 237.023 305.502Z" fill="url(#paint29_radial_440_2376)"/>
</g>
<mask id="mask11_440_2376" style="mask-type:luminance" maskUnits="userSpaceOnUse" x="120" y="300" width="161" height="54">
<path d="M237.023 305.502C224.758 307.887 150.487 304.48 136.859 303.117C133.452 318.448 125.616 324.921 120.847 342.637C129.705 345.363 178.083 345.022 205.838 348.991C245.416 362.812 274.189 340.918 279.818 324.874C285.731 308.023 254.622 291.533 237.023 305.502Z" fill="url(#paint30_linear_440_2376)"/>
</mask>
<g mask="url(#mask11_440_2376)">
<path d="M237.023 305.502C224.758 307.887 150.487 304.48 136.859 303.117C133.452 318.448 125.616 324.921 120.847 342.637C129.705 345.363 178.083 345.022 205.838 348.991C245.416 362.812 274.189 340.918 279.818 324.874C285.731 308.023 254.622 291.533 237.023 305.502Z" fill="url(#paint31_linear_440_2376)"/>
</g>
<mask id="mask12_440_2376" style="mask-type:luminance" maskUnits="userSpaceOnUse" x="120" y="300" width="161" height="54">
<path d="M237.023 305.502C224.758 307.887 150.487 304.48 136.859 303.117C133.452 318.448 125.616 324.921 120.847 342.637C129.705 345.363 178.083 345.022 205.838 348.991C245.416 362.812 274.189 340.918 279.818 324.874C285.731 308.023 254.622 291.533 237.023 305.502Z" fill="url(#paint32_linear_440_2376)"/>
</mask>
<g mask="url(#mask12_440_2376)">
<path d="M237.023 305.502C224.758 307.887 150.487 304.48 136.859 303.117C133.452 318.448 125.616 324.921 120.847 342.637C129.705 345.363 178.083 345.022 205.838 348.991C245.416 362.812 274.189 340.918 279.818 324.874C285.731 308.023 254.622 291.533 237.023 305.502Z" fill="url(#paint33_linear_440_2376)"/>
</g>
<path d="M241.388 307.538C241.388 307.538 217.587 325.079 207.257 328.223C183.469 335.463 148.448 326.937 125.242 333.794L136.907 302.671C136.907 302.671 152.442 305.469 241.388 307.538Z" fill="url(#paint34_linear_440_2376)"/>
<path d="M121.726 343.354C121.726 343.354 163.637 343.786 182.913 346.348C192.277 347.592 204.221 349.278 204.221 349.278" stroke="#2D2D2C" stroke-width="8.27401" stroke-linecap="round" stroke-linejoin="round"/>
<path d="M396.527 416.136C391.293 437.948 380.899 452.407 360.39 460.112C379.278 446.233 385.114 412.413 386.419 376.558C388.009 332.862 382.366 285.107 379.099 267.771C372.453 232.496 360.624 184.366 357.897 163.921C353.929 134.169 350.587 86.6252 338.919 72.2548C331.265 62.8298 303.82 59.9443 277.164 59.0259C247.598 58.0073 218.209 58.5374 211.746 63.9086C190.545 81.5301 171.038 127.215 171.038 127.215C171.038 127.215 160.708 128.002 157.613 127.577C154.51 117.235 199.138 55.4173 207.257 50.008C213.463 45.8707 271.382 44.8368 293.101 45.8712C314.82 46.9057 343.779 52.0764 352.053 67.5904C362.934 87.9961 366.637 124.33 370.67 160.674C371.705 169.982 393.424 264.099 396.527 287.887C399.63 311.675 402.732 390.279 396.527 416.136Z" fill="url(#paint35_linear_440_2376)"/>
<path d="M352.053 67.5904C343.779 52.0764 314.82 46.9057 293.101 45.8712C271.382 44.8368 213.463 45.8707 207.257 50.008C199.139 55.4202 154.51 117.235 157.613 127.577C160.936 138.653 176.229 144.125 177.264 147.228C178.298 150.331 150.373 234.106 144.167 260.997C137.962 287.888 137.962 308.573 129.688 322.018C121.414 335.463 120.38 339.601 122.448 346.84C124.517 354.08 131.756 367.526 132.791 386.142C133.825 404.759 131.757 417.17 140.031 428.546C148.305 439.923 155.545 453.369 194.846 458.54C234.148 463.711 318.957 469.917 347.916 463.711C376.875 457.506 390.321 441.992 396.527 416.136C402.732 390.279 399.63 311.675 396.527 287.887C393.424 264.099 371.705 169.982 370.67 160.674C366.632 124.331 362.937 87.9961 352.053 67.5904Z" stroke="#6D6C67" stroke-width="8.27401" stroke-linecap="round" stroke-linejoin="round"/>
<path d="M333.876 465.542C339.364 465.125 344.12 464.525 347.916 463.711C376.875 457.506 390.321 441.992 396.527 416.136C402.732 390.279 399.63 311.675 396.527 287.887C393.424 264.099 371.705 169.982 370.67 160.674C366.632 124.331 362.937 87.9961 352.053 67.5904C346.324 56.8474 330.676 51.0641 314.382 48.1797" stroke="#595855" stroke-width="8.27401" stroke-linecap="round" stroke-linejoin="round"/>
<path d="M139.05 288.52C136.803 302.353 134.866 313.603 129.688 322.018C121.414 335.463 120.38 339.601 122.448 346.84C124.517 354.08 131.756 367.525 132.791 386.142C133.825 404.759 131.757 417.169 140.031 428.546C148.305 439.923 155.545 453.369 194.846 458.54C234.148 463.711 318.957 469.917 347.916 463.711C376.875 457.506 390.321 441.992 396.527 416.136" stroke="#2D2D2C" stroke-width="8.27401" stroke-linecap="round" stroke-linejoin="round"/>
<path d="M145.545 436.058C152.891 445.315 163.983 454.479 194.846 458.54C234.148 463.711 318.957 469.917 347.916 463.711C376.875 457.506 390.321 441.992 396.527 416.136" stroke="#2D2D2C" stroke-width="8.27401" stroke-linecap="round" stroke-linejoin="round"/>
<path d="M193.812 255.825C204.156 256.839 243.674 267.636 247.811 300.732C247.811 300.732 179.61 311.302 143.412 296.823C107.213 282.343 141.065 250.654 193.812 255.825Z" fill="#BBB99F"/>
<mask id="mask13_440_2376" style="mask-type:luminance" maskUnits="userSpaceOnUse" x="128" y="255" width="120" height="50">
<path d="M193.812 255.825C204.156 256.839 243.674 267.636 247.811 300.732C247.811 300.732 179.61 311.302 143.412 296.823C107.213 282.343 141.065 250.654 193.812 255.825Z" fill="url(#paint36_linear_440_2376)"/>
</mask>
<g mask="url(#mask13_440_2376)">
<path d="M193.812 255.825C204.156 256.839 243.674 267.636 247.811 300.732C247.811 300.732 179.61 311.302 143.412 296.823C107.213 282.343 141.065 250.654 193.812 255.825Z" fill="url(#paint37_linear_440_2376)"/>
</g>
<mask id="mask14_440_2376" style="mask-type:luminance" maskUnits="userSpaceOnUse" x="128" y="255" width="120" height="50">
<path d="M193.812 255.825C204.156 256.839 243.674 267.636 247.811 300.732C247.811 300.732 179.61 311.302 143.412 296.823C107.213 282.343 141.065 250.654 193.812 255.825Z" fill="url(#paint38_linear_440_2376)"/>
</mask>
<g mask="url(#mask14_440_2376)">
<path d="M193.812 255.825C204.156 256.839 243.674 267.636 247.811 300.732C247.811 300.732 179.61 311.302 143.412 296.823C107.213 282.343 141.065 250.654 193.812 255.825Z" fill="url(#paint39_linear_440_2376)"/>
</g>
<path d="M193.812 255.825C204.156 256.839 243.674 267.636 247.811 300.732C247.811 300.732 179.61 311.302 143.412 296.823C107.213 282.343 141.065 250.654 193.812 255.825Z" fill="url(#paint40_linear_440_2376)"/>
<path d="M232.679 171.388C232.679 171.388 227.641 196.011 220.703 223.763C214.497 248.585 214.497 259.875 209.326 259.962C195.707 260.189 182.304 264.321 172.674 267.108C156.573 271.767 153.342 267.385 155.173 263.667C156.271 261.435 159.33 258.11 162.695 254.249C173.644 241.685 195.704 216.627 219.937 188.257C225.731 181.474 230.021 175.35 232.679 171.388Z" fill="url(#paint41_linear_440_2376)"/>
<path d="M232.679 171.388C232.679 171.388 227.641 196.011 220.703 223.763C214.497 248.585 214.497 259.875 209.326 259.962C195.707 260.189 182.304 264.321 172.674 267.108C156.573 271.767 153.342 267.385 155.173 263.667C156.271 261.435 159.33 258.11 162.695 254.249C173.644 241.685 195.704 216.627 219.937 188.257C225.731 181.474 230.021 175.35 232.679 171.388Z" fill="url(#paint42_linear_440_2376)"/>
<path d="M232.679 171.388C232.679 171.388 227.641 196.011 220.703 223.763C214.497 248.585 214.497 259.875 209.326 259.962C195.707 260.189 182.304 264.321 172.674 267.108C156.573 271.767 153.342 267.385 155.173 263.667C156.271 261.435 159.33 258.11 162.695 254.249C173.644 241.685 195.704 216.627 219.937 188.257C225.731 181.474 230.021 175.35 232.679 171.388Z" fill="url(#paint43_linear_440_2376)"/>
<path d="M232.08 169.982C231.339 172.352 225.368 180.645 216.835 191.36C195.994 217.496 162.843 242.663 149.329 257.314C141.874 265.395 126.254 280.734 135.304 284.996C140.734 287.55 116.304 292.101 110.037 287.887C106.934 280.647 110.926 275.341 135.893 248.585C164.853 217.558 180.977 196.366 190.709 184.461C200.018 173.084 203.12 166.879 204.155 160.674C204.382 159.277 192.777 129.646 192.777 129.646H217.6C217.6 129.646 237.251 153.434 232.08 169.982Z" fill="url(#paint44_linear_440_2376)"/>
<path d="M172.852 166.632C172.852 166.632 190.747 168.779 207.02 165.986C207.197 165.956 208.809 163.941 213.862 163.459C222.176 162.665 229.599 166.343 233.768 166.348C251.506 166.373 255.346 164.163 266.455 158.869C277.736 153.494 286.048 150.179 296.203 148.262L292.743 146.232L229.649 146.829L215.64 129.202L192.777 129.645L202.215 146.967L177.264 147.228L172.852 166.632Z" fill="url(#paint45_linear_440_2376)"/>
<path d="M177.639 148.228C177.639 148.228 199.753 149.061 218.851 148.779C237.75 148.5 297.238 146.194 297.238 146.194C297.238 146.194 248.628 129.645 236.216 127.577C223.805 125.509 157.613 127.577 157.613 127.577C157.613 127.577 166.262 143.057 177.639 148.228Z" fill="url(#paint46_linear_440_2376)"/>
<path d="M238.285 300.298C202.086 309.606 140.031 304.435 136.514 302.739C132.998 301.053 113.14 295.126 110.037 287.887C110.037 287.887 106.993 287.291 113.283 283.559C121.698 278.565 138.634 283.846 165.887 289.956C208.076 299.414 238.285 300.298 238.285 300.298Z" fill="url(#paint47_linear_440_2376)"/>
<path d="M212.234 127.119C212.234 127.119 223.661 136.766 230.039 148.725C233.67 155.532 234.022 161.933 233.653 166.185" stroke="#353535" stroke-width="8.27401" stroke-linecap="round" stroke-linejoin="round"/>
<path d="M233.256 169.067C232.974 170.545 232.679 171.388 232.679 171.388C232.679 171.388 213.982 249.21 211.265 257.608" stroke="#B1B0A5" stroke-width="8.27401" stroke-linecap="round" stroke-linejoin="round"/>
<path d="M232.679 171.388C232.679 171.388 160.738 249.704 146.864 266.074" stroke="#B9B8A6" stroke-width="8.27401" stroke-linecap="round" stroke-linejoin="round"/>
<path d="M203.026 165.125C201.315 170.089 197.825 175.764 190.709 184.461C180.973 196.361 164.853 217.558 135.893 248.585C110.923 275.339 106.934 280.647 110.037 287.887C113.14 295.127 132.998 301.048 136.514 302.742C140.03 304.435 187.282 307.546 238.285 304.435C242.822 304.159 265.981 301.924 228.165 267.344" stroke="#6D6C67" stroke-width="8.27401" stroke-linecap="round" stroke-linejoin="round"/>
<path d="M113.283 283.559C113.283 283.559 109.746 285.332 108.187 287.693L114.695 287.449C114.695 287.449 113.139 285.893 113.283 283.559Z" fill="#2D2D2C"/>
<path d="M192.777 129.646C192.777 129.646 205.357 153.46 204.155 160.674C204.111 160.938 204.063 161.202 204.011 161.467" stroke="#353535" stroke-width="8.27401" stroke-linecap="round" stroke-linejoin="round"/>
<path d="M111.648 290.25C117.355 296.391 133.389 301.236 136.514 302.741C140.03 304.435 187.282 307.546 238.285 304.435" stroke="#2D2D2C" stroke-width="8.27401" stroke-linecap="round" stroke-linejoin="round"/>
<path d="M229.546 165.652C229.546 165.652 231.886 166.355 233.768 166.348C235.651 166.342 237.811 166.31 237.811 166.31C237.811 166.31 237.615 169.388 236.672 172.568L228.858 169.427C228.858 169.427 229.293 168.516 229.546 165.652Z" fill="#B9B8A6"/>
<path d="M197.713 167.091C197.713 167.091 204.625 166.881 207.12 165.932C207.12 165.932 207.974 163.64 208.276 161.013L200.151 159.441C200.151 159.441 199.608 163.237 197.713 167.091Z" fill="#353535"/>
<path d="M157.613 127.577C157.613 127.577 220.303 126.837 232.914 127.207C245.525 127.578 294.804 145.371 294.804 145.371" stroke="#2D2D2C" stroke-width="8.27401" stroke-miterlimit="10" stroke-linecap="round"/>
<g opacity="0.61">
<path d="M325.22 305.046C325.22 305.046 333.681 333.866 365.343 336.309C405.369 339.399 387.445 295.235 387.445 295.235L325.22 305.046Z" fill="url(#paint48_linear_440_2376)"/>
</g>
<path d="M337.007 207.547C326.792 209.767 319.399 223.114 318.928 236.244C318.456 249.375 322.573 293.006 328.795 304.347C335.018 315.689 378.166 320.001 382.643 308.248C386.826 297.269 376.305 247.347 372.92 236.105C369.535 224.862 357.053 203.189 337.007 207.547Z" fill="url(#paint49_linear_440_2376)"/>
<path d="M337.007 207.547C326.792 209.767 319.399 223.114 318.928 236.244C318.456 249.375 322.573 293.006 328.795 304.347C335.018 315.689 378.166 320.001 382.643 308.248C386.826 297.269 376.305 247.347 372.92 236.105C369.535 224.862 357.053 203.189 337.007 207.547Z" fill="url(#paint50_linear_440_2376)"/>
<path d="M369.373 227.547C360.365 216.452 352.123 215.254 345.158 217.944C340.356 219.799 330.642 226.54 333.374 255.964C335.715 281.171 343.148 311.123 343.148 311.123C343.148 311.123 330.502 307.461 328.795 304.347C322.573 293.006 318.456 249.375 318.928 236.244C319.399 223.114 326.792 209.769 337.007 207.547C352.633 204.147 363.667 216.577 369.373 227.547Z" fill="url(#paint51_linear_440_2376)" fill-opacity="0.3"/>
<path d="M337.007 207.547C326.792 209.767 319.399 223.114 318.928 236.244C318.456 249.375 322.573 293.006 328.795 304.347C335.018 315.689 378.166 320.001 382.643 308.248C386.826 297.269 376.305 247.347 372.92 236.105C369.535 224.862 357.053 203.189 337.007 207.547Z" stroke="#595855" stroke-width="8.27401" stroke-linecap="round" stroke-linejoin="round"/>
<path d="M329.427 305.315C337.485 315.925 378.296 319.66 382.643 308.248C383.516 305.958 383.748 301.975 383.54 297.001" stroke="#3D3D3B" stroke-width="8.27401" stroke-linecap="round" stroke-linejoin="round"/>
<path d="M354.755 266.512C350.872 265.831 350.934 271.829 354.755 272.07C358.576 272.312 363.017 267.962 354.755 266.512Z" fill="#82827A"/>
<path d="M349.634 243.959C344.075 244.05 346.202 249.354 343.206 251.53C340.21 253.705 341.264 259.504 347.383 258.054C353.501 256.604 356.248 256.979 356.204 252.805C356.159 248.63 354.468 243.88 349.634 243.959Z" fill="#89897D"/>
<path d="M157.613 127.577C160.936 138.653 176.229 144.125 177.264 147.228C177.522 148.004 175.971 153.821 173.401 162.532" stroke="#2D2D2C" stroke-width="8.27401" stroke-linecap="round" stroke-linejoin="round"/>
<g opacity="0.9">
<path d="M158.805 380.774C166.393 379.042 158.921 376.262 156.971 371.833C155.021 367.403 152.928 362.409 146.566 366.085C140.204 369.762 149.664 382.86 158.805 380.774Z" fill="#4F4F41"/>
<path d="M168.603 370.795C173.09 371.718 168.374 363.547 164.376 363.552C160.378 363.558 163.126 369.668 168.603 370.795Z" fill="#4F4F41"/>
</g>
<path d="M284.039 395.39C276.579 394.395 278.135 388.829 271.695 389.836C265.255 390.843 271.245 395.672 267.232 402.445C263.218 409.218 264.723 408.973 268.987 414.066C273.252 419.16 272.966 423.896 276.715 423.394C280.465 422.892 281.866 419.367 287.003 415.101C289.627 412.921 282.032 406.961 285.294 404.954C288.555 402.946 291.565 396.393 284.039 395.39Z" fill="url(#paint52_linear_440_2376)"/>
<path d="M249.67 412.058C246.143 410.819 245.479 415.318 249.67 418.577C253.861 421.837 255.413 414.076 249.67 412.058Z" fill="#777C68"/>
<path d="M253.705 388.698C249.05 387.422 251.532 391.569 251.532 395.294C251.532 399.02 250.912 401.814 256.189 400.572C261.467 399.33 260.225 390.484 253.705 388.698Z" fill="#818674"/>
<path d="M280.519 354.468C275.29 353.168 273.606 359.272 280.519 364.513C287.431 369.754 294.57 357.962 280.519 354.468Z" fill="#848974"/>
<path d="M207.074 274.992C200.601 273.723 196.914 276.544 199.052 284.501C201.191 292.458 204.042 291.514 212.597 284.501C221.151 277.487 216.166 276.775 207.074 274.992Z" fill="#B2B098"/>
<path d="M187.289 270.227C182.901 269.565 180.16 276.811 181.811 279.244C183.463 281.677 189.34 276.429 192.099 276.215C194.857 276.001 194.715 271.347 187.289 270.227Z" fill="#C2BFA6"/>
<path d="M269.422 252.805C264.268 251.387 261.026 248.343 255.176 249.62C249.326 250.896 251.11 261.258 259.481 261.101C267.852 260.944 265.654 260.142 270.678 259.444C275.702 258.745 276.055 254.629 269.422 252.805Z" fill="#AFADA6"/>
<path d="M268.428 240.99C264.329 242.186 263.804 247.278 268.428 247.278C273.052 247.278 270.832 245.984 273.607 244.135C276.381 242.285 272.867 239.695 268.428 240.99Z" fill="#B4B3AC"/>
<path d="M251.047 328.43C248.056 326.934 244.154 325.86 240.593 328.43C237.032 330.999 240.769 337.306 244.273 336.372C247.777 335.437 260.391 333.101 251.047 328.43Z" fill="#949284"/>
<path d="M246.79 315.582C243.885 316.264 244.097 320.254 248.39 321.655C252.682 323.057 250.537 320.611 251.968 318.618C253.398 316.625 251.745 314.419 246.79 315.582Z" fill="#939181"/>
</g>
</g>
<defs>
<linearGradient id="paint0_linear_440_2376" x1="235.716" y1="228.315" x2="303.116" y2="242.705" gradientUnits="userSpaceOnUse">
<stop stop-color="#999991"/>
<stop offset="0.16" stop-color="#A3A39B"/>
<stop offset="0.31" stop-color="#AEAEA6"/>
<stop offset="0.48" stop-color="#AEAEA6"/>
<stop offset="0.64" stop-color="#AEAEA6"/>
<stop offset="0.82" stop-color="#9B9A92"/>
<stop offset="1" stop-color="#87867E"/>
</linearGradient>
<linearGradient id="paint1_linear_440_2376" x1="272.716" y1="316.704" x2="269.116" y2="231.705" gradientUnits="userSpaceOnUse">
<stop stop-color="#838477"/>
<stop offset="0.5" stop-color="#83847B" stop-opacity="0.5"/>
<stop offset="1" stop-color="#838380" stop-opacity="0"/>
</linearGradient>
<linearGradient id="paint2_linear_440_2376" x1="304.216" y1="167.205" x2="272.616" y2="176.705" gradientUnits="userSpaceOnUse">
<stop stop-color="#87867E"/>
<stop offset="0.5" stop-color="#85857F" stop-opacity="0.5"/>
<stop offset="1" stop-color="#838380" stop-opacity="0"/>
</linearGradient>
<linearGradient id="paint3_linear_440_2376" x1="155.082" y1="346.884" x2="185.846" y2="189.411" gradientUnits="userSpaceOnUse">
<stop stop-color="#8A8874"/>
<stop offset="0.5" stop-color="#93907A"/>
<stop offset="1" stop-color="#9C9980"/>
</linearGradient>
<linearGradient id="paint4_linear_440_2376" x1="168.293" y1="219.66" x2="153.14" y2="214.653" gradientUnits="userSpaceOnUse">
<stop stop-color="#6B6959" stop-opacity="0"/>
<stop offset="0.5" stop-color="#626157" stop-opacity="0.5"/>
<stop offset="1" stop-color="#595856"/>
</linearGradient>
<linearGradient id="paint5_linear_440_2376" x1="264.869" y1="401.972" x2="270.116" y2="464.705" gradientUnits="userSpaceOnUse">
<stop stop-color="#838477"/>
<stop offset="0.5" stop-color="#61625B"/>
<stop offset="1" stop-color="#40403E"/>
</linearGradient>
<linearGradient id="paint6_linear_440_2376" x1="271.046" y1="338.478" x2="336.116" y2="411.704" gradientUnits="userSpaceOnUse">
<stop stop-color="white" stop-opacity="0"/>
<stop offset="0.36" stop-color="white" stop-opacity="0.5"/>
<stop offset="0.72" stop-color="white"/>
</linearGradient>
<linearGradient id="paint7_linear_440_2376" x1="271.046" y1="338.478" x2="336.116" y2="411.704" gradientUnits="userSpaceOnUse">
<stop stop-color="#838477"/>
<stop offset="0.5" stop-color="#61625B"/>
<stop offset="1" stop-color="#40403E"/>
</linearGradient>
<linearGradient id="paint8_linear_440_2376" x1="164.716" y1="443.704" x2="167.116" y2="368.204" gradientUnits="userSpaceOnUse">
<stop stop-color="white"/>
<stop offset="0.15" stop-color="white" stop-opacity="0.67"/>
<stop offset="0.3" stop-color="white" stop-opacity="0.34"/>
<stop offset="0.41" stop-color="white" stop-opacity="0.605"/>
<stop offset="0.53" stop-color="white" stop-opacity="0.87"/>
</linearGradient>
<linearGradient id="paint9_linear_440_2376" x1="164.716" y1="443.704" x2="167.116" y2="368.204" gradientUnits="userSpaceOnUse">
<stop stop-color="#42423F"/>
<stop offset="0.15" stop-color="#51514C"/>
<stop offset="0.3" stop-color="#5F5F58"/>
<stop offset="0.6" stop-color="#383832"/>
<stop offset="0.9" stop-color="#11110B"/>
</linearGradient>
<linearGradient id="paint10_linear_440_2376" x1="192.771" y1="386.862" x2="222.098" y2="369.011" gradientUnits="userSpaceOnUse">
<stop stop-color="#AEAF9D" stop-opacity="0"/>
<stop offset="0.5" stop-color="#AEAF9D" stop-opacity="0.395"/>
<stop offset="1" stop-color="#AEAF9D" stop-opacity="0.79"/>
</linearGradient>
<radialGradient id="paint11_radial_440_2376" cx="0" cy="0" r="1" gradientUnits="userSpaceOnUse" gradientTransform="translate(271.716 190.705) scale(38.2202)">
<stop offset="0.38" stop-color="white"/>
<stop offset="0.69" stop-color="white" stop-opacity="0.5"/>
<stop offset="1" stop-color="white" stop-opacity="0"/>
</radialGradient>
<radialGradient id="paint12_radial_440_2376" cx="0" cy="0" r="1" gradientUnits="userSpaceOnUse" gradientTransform="translate(271.716 190.705) scale(38.2202)">
<stop stop-color="#CBCAB2"/>
<stop offset="0.5" stop-color="#CBCAB2"/>
<stop offset="1" stop-color="#CBCAB2"/>
</radialGradient>
<linearGradient id="paint13_linear_440_2376" x1="186.716" y1="425.204" x2="188.616" y2="394.204" gradientUnits="userSpaceOnUse">
<stop stop-color="#7C8070"/>
<stop offset="0.5" stop-color="#737768"/>
<stop offset="1" stop-color="#6A6D5F"/>
</linearGradient>
<linearGradient id="paint14_linear_440_2376" x1="218.716" y1="83.7042" x2="307.116" y2="97.7047" gradientUnits="userSpaceOnUse">
<stop stop-color="#B9B79A"/>
<stop offset="0.25" stop-color="#C2C1AB"/>
<stop offset="0.5" stop-color="#CBCABC"/>
<stop offset="0.75" stop-color="#A9A89D"/>
<stop offset="1" stop-color="#87867E"/>
</linearGradient>
<linearGradient id="paint15_linear_440_2376" x1="235.716" y1="88.7043" x2="266.163" y2="97.7376" gradientUnits="userSpaceOnUse">
<stop stop-color="white" stop-opacity="0"/>
<stop offset="0.25" stop-color="white" stop-opacity="0.5"/>
<stop offset="0.5" stop-color="white"/>
<stop offset="0.75" stop-color="white" stop-opacity="0.5"/>
<stop offset="1" stop-color="white" stop-opacity="0"/>
</linearGradient>
<linearGradient id="paint16_linear_440_2376" x1="235.716" y1="88.7043" x2="266.163" y2="97.7376" gradientUnits="userSpaceOnUse">
<stop stop-color="#B9B79A"/>
<stop offset="0.5" stop-color="#DCDBCD"/>
<stop offset="1" stop-color="white"/>
</linearGradient>
<linearGradient id="paint17_linear_440_2376" x1="323.716" y1="119.704" x2="374.116" y2="105.704" gradientUnits="userSpaceOnUse">
<stop stop-color="#87867E"/>
<stop offset="0.5" stop-color="#75746B"/>
<stop offset="1" stop-color="#626157"/>
</linearGradient>
<linearGradient id="paint18_linear_440_2376" x1="310.716" y1="302.704" x2="426.116" y2="309.704" gradientUnits="userSpaceOnUse">
<stop stop-color="white" stop-opacity="0"/>
<stop offset="0.28" stop-color="white" stop-opacity="0.5"/>
<stop offset="0.56" stop-color="white"/>
</linearGradient>
<linearGradient id="paint19_linear_440_2376" x1="310.716" y1="302.704" x2="426.116" y2="309.704" gradientUnits="userSpaceOnUse">
<stop stop-color="#54524A"/>
<stop offset="0.5" stop-color="#53524D"/>
<stop offset="1" stop-color="#52514F"/>
</linearGradient>
<linearGradient id="paint20_linear_440_2376" x1="170.695" y1="431.986" x2="159.8" y2="474.058" gradientUnits="userSpaceOnUse">
<stop stop-color="white" stop-opacity="0"/>
<stop offset="0.27" stop-color="white" stop-opacity="0.5"/>
<stop offset="0.55" stop-color="white"/>
</linearGradient>
<linearGradient id="paint21_linear_440_2376" x1="170.695" y1="431.986" x2="159.8" y2="474.058" gradientUnits="userSpaceOnUse">
<stop stop-color="#3D3D3B"/>
<stop offset="0.5" stop-color="#3D3D3B"/>
<stop offset="1" stop-color="#3D3D3B"/>
</linearGradient>
<linearGradient id="paint22_linear_440_2376" x1="346.534" y1="421.934" x2="403.99" y2="523.958" gradientUnits="userSpaceOnUse">
<stop stop-color="white" stop-opacity="0"/>
<stop offset="0.27" stop-color="white" stop-opacity="0.5"/>
<stop offset="0.55" stop-color="white"/>
</linearGradient>
<linearGradient id="paint23_linear_440_2376" x1="346.534" y1="421.934" x2="403.99" y2="523.958" gradientUnits="userSpaceOnUse">
<stop stop-color="#3D3D3B"/>
<stop offset="0.5" stop-color="#3D3D3B"/>
<stop offset="1" stop-color="#3D3D3B"/>
</linearGradient>
<linearGradient id="paint24_linear_440_2376" x1="272.783" y1="438.518" x2="276.209" y2="490.704" gradientUnits="userSpaceOnUse">
<stop stop-color="white" stop-opacity="0"/>
<stop offset="0.27" stop-color="white" stop-opacity="0.5"/>
<stop offset="0.55" stop-color="white"/>
</linearGradient>
<linearGradient id="paint25_linear_440_2376" x1="272.783" y1="438.518" x2="276.209" y2="490.704" gradientUnits="userSpaceOnUse">
<stop stop-color="#3D3D3B"/>
<stop offset="0.5" stop-color="#3D3D3B"/>
<stop offset="1" stop-color="#3D3D3B"/>
</linearGradient>
<linearGradient id="paint26_linear_440_2376" x1="167.716" y1="391.704" x2="150.342" y2="338.745" gradientUnits="userSpaceOnUse">
<stop stop-color="white" stop-opacity="0.55"/>
<stop offset="0.23" stop-color="white" stop-opacity="0.775"/>
<stop offset="0.46" stop-color="white"/>
</linearGradient>
<linearGradient id="paint27_linear_440_2376" x1="167.716" y1="391.704" x2="150.342" y2="338.745" gradientUnits="userSpaceOnUse">
<stop stop-color="#54544E"/>
<stop offset="0.5" stop-color="#41413C"/>
<stop offset="1" stop-color="#2E2E29"/>
</linearGradient>
<radialGradient id="paint28_radial_440_2376" cx="0" cy="0" r="1" gradientUnits="userSpaceOnUse" gradientTransform="translate(155.871 338.124) scale(90.7105 90.7105)">
<stop offset="0.47" stop-color="white"/>
<stop offset="0.74" stop-color="white" stop-opacity="0.5"/>
<stop offset="1" stop-color="white" stop-opacity="0"/>
</radialGradient>
<radialGradient id="paint29_radial_440_2376" cx="0" cy="0" r="1" gradientUnits="userSpaceOnUse" gradientTransform="translate(155.871 338.124) scale(90.7105 90.7105)">
<stop stop-color="#B9B8A6"/>
<stop offset="0.5" stop-color="#9E9E8F"/>
<stop offset="1" stop-color="#838477"/>
</radialGradient>
<linearGradient id="paint30_linear_440_2376" x1="239.886" y1="370.003" x2="229.312" y2="333.331" gradientUnits="userSpaceOnUse">
<stop offset="0.47" stop-color="white"/>
<stop offset="0.74" stop-color="white" stop-opacity="0.5"/>
<stop offset="1" stop-color="white" stop-opacity="0"/>
</linearGradient>
<linearGradient id="paint31_linear_440_2376" x1="239.886" y1="370.003" x2="229.312" y2="333.331" gradientUnits="userSpaceOnUse">
<stop stop-color="#838477"/>
<stop offset="0.5" stop-color="#838477"/>
<stop offset="1" stop-color="#838477"/>
</linearGradient>
<linearGradient id="paint32_linear_440_2376" x1="100.043" y1="302.075" x2="126.022" y2="312.946" gradientUnits="userSpaceOnUse">
<stop offset="0.47" stop-color="white"/>
<stop offset="0.74" stop-color="white" stop-opacity="0.5"/>
<stop offset="1" stop-color="white" stop-opacity="0"/>
</linearGradient>
<linearGradient id="paint33_linear_440_2376" x1="100.043" y1="302.075" x2="126.022" y2="312.946" gradientUnits="userSpaceOnUse">
<stop stop-color="#8A8874"/>
<stop offset="0.5" stop-color="#8A8874"/>
<stop offset="1" stop-color="#8A8874"/>
</linearGradient>
<linearGradient id="paint34_linear_440_2376" x1="179.716" y1="343.126" x2="178.116" y2="308.234" gradientUnits="userSpaceOnUse">
<stop stop-color="#3D3D3B" stop-opacity="0"/>
<stop offset="0.5" stop-color="#3D3D3B" stop-opacity="0.5"/>
<stop offset="1" stop-color="#3D3D3B"/>
</linearGradient>
<linearGradient id="paint35_linear_440_2376" x1="285.716" y1="55.7043" x2="291.116" y2="461.705" gradientUnits="userSpaceOnUse">
<stop stop-color="white" stop-opacity="0.24"/>
<stop offset="0.5" stop-color="white" stop-opacity="0.145"/>
<stop offset="1" stop-color="white" stop-opacity="0.05"/>
</linearGradient>
<linearGradient id="paint36_linear_440_2376" x1="194.033" y1="290.927" x2="231.663" y2="259.69" gradientUnits="userSpaceOnUse">
<stop stop-color="white" stop-opacity="0"/>
<stop offset="0.31" stop-color="white" stop-opacity="0.5"/>
<stop offset="0.63" stop-color="white"/>
</linearGradient>
<linearGradient id="paint37_linear_440_2376" x1="194.033" y1="290.927" x2="231.663" y2="259.69" gradientUnits="userSpaceOnUse">
<stop stop-color="#92928A"/>
<stop offset="0.5" stop-color="#8E8E83"/>
<stop offset="1" stop-color="#89897C"/>
</linearGradient>
<linearGradient id="paint38_linear_440_2376" x1="206.032" y1="278.927" x2="217.663" y2="251.69" gradientUnits="userSpaceOnUse">
<stop stop-color="white" stop-opacity="0"/>
<stop offset="0.31" stop-color="white" stop-opacity="0.5"/>
<stop offset="0.63" stop-color="white"/>
</linearGradient>
<linearGradient id="paint39_linear_440_2376" x1="206.032" y1="278.927" x2="217.663" y2="251.69" gradientUnits="userSpaceOnUse">
<stop stop-color="#99998B"/>
<stop offset="0.5" stop-color="#99998B"/>
<stop offset="1" stop-color="#99998B"/>
</linearGradient>
<linearGradient id="paint40_linear_440_2376" x1="198.966" y1="288.954" x2="198.116" y2="295.704" gradientUnits="userSpaceOnUse">
<stop stop-color="#474745" stop-opacity="0"/>
<stop offset="0.5" stop-color="#424240" stop-opacity="0.5"/>
<stop offset="1" stop-color="#3D3D3B"/>
</linearGradient>
<linearGradient id="paint41_linear_440_2376" x1="162.912" y1="265.033" x2="207.085" y2="190.042" gradientUnits="userSpaceOnUse">
<stop stop-color="#BBBA9F"/>
<stop offset="0.09" stop-color="#A8A895"/>
<stop offset="0.19" stop-color="#95958A"/>
<stop offset="0.59" stop-color="#86867C"/>
<stop offset="1" stop-color="#78776D"/>
</linearGradient>
<linearGradient id="paint42_linear_440_2376" x1="207.662" y1="229.783" x2="216.085" y2="231.792" gradientUnits="userSpaceOnUse">
<stop stop-color="#B1B0A6" stop-opacity="0"/>
<stop offset="0.5" stop-color="#B9B9AF" stop-opacity="0.5"/>
<stop offset="1" stop-color="#C2C1B9"/>
</linearGradient>
<linearGradient id="paint43_linear_440_2376" x1="220.662" y1="201.521" x2="214.585" y2="195.792" gradientUnits="userSpaceOnUse">
<stop stop-color="#B1B0A6" stop-opacity="0"/>
<stop offset="0.5" stop-color="#B5B4A6" stop-opacity="0.5"/>
<stop offset="1" stop-color="#B9B8A6"/>
</linearGradient>
<linearGradient id="paint44_linear_440_2376" x1="175.716" y1="227.704" x2="164.576" y2="218.164" gradientUnits="userSpaceOnUse">
<stop stop-color="#B9B8A6"/>
<stop offset="0.5" stop-color="#939286"/>
<stop offset="1" stop-color="#6D6C67"/>
</linearGradient>
<linearGradient id="paint45_linear_440_2376" x1="228.466" y1="176.954" x2="228.616" y2="155.704" gradientUnits="userSpaceOnUse">
<stop stop-color="#6E6E65" stop-opacity="0.7"/>
<stop offset="0.5" stop-color="#555550" stop-opacity="0.85"/>
<stop offset="1" stop-color="#3D3D3B"/>
</linearGradient>
<linearGradient id="paint46_linear_440_2376" x1="219.216" y1="145.204" x2="218.116" y2="127.704" gradientUnits="userSpaceOnUse">
<stop stop-color="#40403D"/>
<stop offset="0.5" stop-color="#3A3A36"/>
<stop offset="1" stop-color="#353530"/>
</linearGradient>
<linearGradient id="paint47_linear_440_2376" x1="156.716" y1="304.704" x2="159.116" y2="289.704" gradientUnits="userSpaceOnUse">
<stop stop-color="#515148"/>
<stop offset="0.5" stop-color="#474742"/>
<stop offset="1" stop-color="#3D3D3B"/>
</linearGradient>
<linearGradient id="paint48_linear_440_2376" x1="373.58" y1="358.126" x2="371.617" y2="319.308" gradientUnits="userSpaceOnUse">
<stop stop-color="#4A4A45" stop-opacity="0"/>
<stop offset="0.5" stop-color="#41413D" stop-opacity="0.5"/>
<stop offset="1" stop-color="#383835"/>
</linearGradient>
<linearGradient id="paint49_linear_440_2376" x1="400.216" y1="245.204" x2="344.116" y2="238.704" gradientUnits="userSpaceOnUse">
<stop stop-color="#494844"/>
<stop offset="0.5" stop-color="#686661"/>
<stop offset="1" stop-color="#87857D"/>
</linearGradient>
<linearGradient id="paint50_linear_440_2376" x1="363.947" y1="312.773" x2="363.989" y2="301.305" gradientUnits="userSpaceOnUse">
<stop stop-color="#474643"/>
<stop offset="0.5" stop-color="#474643" stop-opacity="0.5"/>
<stop offset="1" stop-color="#474643" stop-opacity="0"/>
</linearGradient>
<linearGradient id="paint51_linear_440_2376" x1="330.716" y1="213.204" x2="338.116" y2="305.704" gradientUnits="userSpaceOnUse">
<stop stop-color="white"/>
<stop offset="0.5" stop-color="white" stop-opacity="0.55"/>
<stop offset="1" stop-color="white" stop-opacity="0.1"/>
</linearGradient>
<linearGradient id="paint52_linear_440_2376" x1="267.063" y1="386.658" x2="278.229" y2="424.398" gradientUnits="userSpaceOnUse">
<stop stop-color="#848875"/>
<stop offset="0.5" stop-color="#747866"/>
<stop offset="1" stop-color="#646857"/>
</linearGradient>
<clipPath id="clip0_440_2376">
<rect width="512" height="512" fill="white"/>
</clipPath>
</defs>
</svg>
