<svg width="512" height="512" viewBox="0 0 512 512" fill="none" xmlns="http://www.w3.org/2000/svg">
<g clip-path="url(#clip0_440_2620)">
<mask id="mask0_440_2620" style="mask-type:luminance" maskUnits="userSpaceOnUse" x="0" y="0" width="512" height="512">
<path d="M512 0H0V512H512V0Z" fill="white"/>
</mask>
<g mask="url(#mask0_440_2620)">
<path d="M69.8075 238.015C45.6922 259.489 24.3611 297.592 85.7051 365.731C118.111 401.725 118.156 427.163 108.486 446.49" stroke="#004BB7" stroke-width="16.2" stroke-linecap="round" stroke-linejoin="round"/>
<path d="M78.5696 239.401C52.8278 259.79 21.4959 292.25 85.7052 363.571C113.991 394.989 117.621 418.816 111.656 437.595" stroke="#235DFD" stroke-width="16.2" stroke-linecap="round" stroke-linejoin="round"/>
<path d="M232.496 71.1821C227.494 100.462 234.193 126.141 274.449 123.844C306.72 122.002 234.473 163.096 265.877 184.398C266.741 184.984 267.579 185.56 268.39 186.123" stroke="#BCBC42" stroke-width="12.2113" stroke-linecap="round" stroke-linejoin="round"/>
<path d="M235.559 73.9302C233.565 100.005 242.878 121.705 280.623 119.55C312.894 117.708 238.795 159.876 270.199 181.178C271.55 182.095 272.835 182.99 274.057 183.865" stroke="#F8F74A" stroke-width="12.2113" stroke-linecap="round" stroke-linejoin="round"/>
<path d="M392.075 332.649L383.403 337.113C383.392 337.113 383.392 337.114 383.381 337.113C359.676 341.466 305.938 312.001 253.211 264.043C200.467 216.071 166.045 165.345 168.166 141.334L171.784 132.275C187.655 114.832 249.832 145.551 310.66 200.881C371.487 256.212 407.945 315.206 392.075 332.649Z" fill="#D19A1F"/>
<mask id="mask1_440_2620" style="mask-type:luminance" maskUnits="userSpaceOnUse" x="343" y="301" width="53" height="37">
<path d="M343.221 326.921L391.018 301.748C391.018 301.748 398.703 317.601 394.957 327.457C391.211 337.313 382.096 345.18 343.221 326.921Z" fill="url(#paint0_linear_440_2620)"/>
</mask>
<g mask="url(#mask1_440_2620)">
<path d="M343.221 326.921L391.018 301.748C391.018 301.748 398.703 317.601 394.957 327.457C391.211 337.313 382.096 345.18 343.221 326.921Z" fill="url(#paint1_linear_440_2620)"/>
</g>
<mask id="mask2_440_2620" style="mask-type:luminance" maskUnits="userSpaceOnUse" x="230" y="171" width="134" height="129">
<path d="M363.608 255.638L297.449 299.394C284.554 289.248 246 258.499 230.386 240.925L273.214 171.633C273.214 171.633 341.688 228.33 363.608 255.638Z" fill="url(#paint2_linear_440_2620)"/>
</mask>
<g mask="url(#mask2_440_2620)">
<path d="M363.608 255.638L297.449 299.394C284.554 289.248 246 258.499 230.386 240.925L273.214 171.633C273.214 171.633 341.688 228.33 363.608 255.638Z" fill="url(#paint3_linear_440_2620)"/>
</g>
<mask id="mask3_440_2620" style="mask-type:luminance" maskUnits="userSpaceOnUse" x="169" y="127" width="70" height="84">
<path d="M238.472 147.602L205.554 210.405C205.554 210.405 196.969 204.922 183.222 183.104C161.327 148.355 168.17 127.39 187.75 127.47L187.988 127.472C190.753 127.509 193.74 127.916 196.854 128.605C210.94 131.721 227.672 140.641 238.472 147.602Z" fill="url(#paint4_linear_440_2620)"/>
</mask>
<g mask="url(#mask3_440_2620)">
<path d="M238.472 147.602L205.554 210.405C205.554 210.405 196.969 204.922 183.222 183.104C161.327 148.355 168.17 127.39 187.75 127.47L187.988 127.472C190.753 127.509 193.74 127.916 196.854 128.605C210.94 131.721 227.672 140.641 238.472 147.602Z" fill="url(#paint5_linear_440_2620)"/>
</g>
<path d="M383.381 337.113L117.871 473.594C81.9662 492.054 42.4036 456.065 57.3763 418.569L168.166 141.334C166.045 165.345 200.472 216.066 253.211 264.043C305.934 312.006 359.676 341.466 383.381 337.113Z" fill="url(#paint6_linear_440_2620)"/>
<mask id="mask4_440_2620" style="mask-type:luminance" maskUnits="userSpaceOnUse" x="92" y="320" width="290" height="158">
<path d="M330.922 320.584L92.6508 477.186L106.308 476.021L381.919 335.748C381.919 335.748 355.344 341.29 330.922 320.584Z" fill="url(#paint7_linear_440_2620)"/>
</mask>
<g mask="url(#mask4_440_2620)">
<path d="M330.922 320.584L92.6508 477.186L106.308 476.021L381.919 335.748C381.919 335.748 355.344 341.29 330.922 320.584Z" fill="url(#paint8_linear_440_2620)"/>
</g>
<path d="M325.649 366.79L296.072 382.643C261.026 373.559 231.831 354.148 198.924 324.21C165.677 293.964 141.699 259.889 130.56 235.438L145.603 197.778C149.619 222.841 178.358 264.153 220.807 302.744C259.696 338.099 299.733 361.811 325.649 366.79Z" fill="url(#paint9_linear_440_2620)"/>
<path d="M218.141 422.053L187.684 437.703C181.993 435.358 175.922 432.412 169.635 428.922C162.941 425.208 156.032 420.837 149.12 415.862C142.64 411.2 136.17 406.004 129.882 400.288C110.223 382.419 95.2163 363.223 86.6755 345.254L98.4183 315.872C106.18 333.216 123.858 355.979 147.586 377.57C155.263 384.556 163.011 390.906 170.583 396.487C171.119 396.881 171.65 397.267 172.169 397.647C173.746 398.796 175.334 399.898 176.879 400.987C177.92 401.721 178.961 402.422 179.991 403.111C182.674 404.908 185.326 406.597 187.925 408.177C188.666 408.638 189.416 409.077 190.158 409.516C191.79 410.483 193.391 411.391 194.98 412.262C203.511 416.934 211.387 420.271 218.141 422.053Z" fill="url(#paint10_linear_440_2620)"/>
<path d="M134.131 465.239L131.049 466.819L117.872 473.594C114.518 475.322 112.039 475.839 108.673 476.66C106.271 475.914 103.839 474.941 101.4 473.771C98.0456 472.162 94.6816 470.198 91.3561 467.972C86.4953 464.718 81.7149 460.892 77.2396 456.82C66.479 447.029 59.4666 438.278 54.8527 427.228C55.3687 424.09 56.103 421.754 57.3763 418.569L62.5102 405.723L63.8713 402.312C64.4308 403.743 65.1347 405.258 65.9556 406.836C70.9296 416.388 80.4581 428.222 92.8495 439.506C98.1711 444.352 103.557 448.625 108.734 452.294C110.526 453.563 112.307 454.759 114.046 455.867C114.389 456.086 114.733 456.295 115.066 456.502C117.385 457.939 119.643 459.22 121.811 460.347C124.562 461.779 127.18 462.949 129.608 463.846C131.201 464.433 132.709 464.901 134.131 465.239Z" fill="url(#paint11_linear_440_2620)"/>
<path d="M383.381 337.113L117.871 473.594C112.369 476.423 105.495 479.588 100.022 480.868C82.0741 485.065 51.7471 459.535 51.9505 439.527C52.0089 433.797 54.9706 424.593 57.3763 418.569L168.166 141.335C166.045 165.345 200.472 216.066 253.211 264.044C305.934 312.006 359.676 341.466 383.381 337.113Z" stroke="#9B5C00" stroke-width="8.64" stroke-linecap="round" stroke-linejoin="round"/>
<path d="M133.097 240.73L128.342 229.346L142.82 193.117L147.431 204.863L133.097 240.73Z" fill="#4F0082"/>
<path d="M89.2747 350.39C89.2747 350.39 85.2435 342.761 84.6604 338.656L95.4957 311.539L100.901 321.297L89.2747 350.39Z" fill="#4F0082"/>
<path d="M57.3499 432.549C52.8458 424.528 51.9938 420.62 51.9938 420.62C51.9938 420.62 51.9174 420.59 53.3643 416.968L61.1828 397.266L66.3898 407.654L61.3867 420.174C60.1885 423.174 57.3499 432.549 57.3499 432.549Z" fill="#4F0082"/>
<path d="M117.646 478.535C117.646 478.535 111.232 478.182 104.244 475.045C104.099 474.98 113.268 471.104 115.897 469.753L128.332 463.358L139.363 467.377L119.847 477.436C118.523 478.113 117.646 478.535 117.646 478.535Z" fill="#44006B"/>
<path d="M195.546 438.524C188.713 437.712 182.569 435.48 182.569 435.48L212.273 420.211L222.754 424.538L195.546 438.524Z" fill="#44006B"/>
<path d="M303.158 383.207C296.558 382.648 289.151 380.692 289.151 380.692L319.198 365.248L331.175 368.838L303.158 383.207Z" fill="#44006B"/>
<path d="M262.296 279.446C219 247.5 169.251 183.249 169.503 161.682" stroke="#F4C439" stroke-width="8.64" stroke-linecap="round" stroke-linejoin="round"/>
<path d="M392.075 332.649L383.403 337.113C383.392 337.113 383.392 337.114 383.381 337.113C359.676 341.466 305.938 312.001 253.211 264.043C200.467 216.071 166.045 165.345 168.166 141.334L171.784 132.275C187.655 114.832 249.832 145.551 310.66 200.881C371.487 256.212 407.945 315.206 392.075 332.649Z" stroke="#9B5C00" stroke-width="8.64" stroke-linecap="round" stroke-linejoin="round"/>
<mask id="mask5_440_2620" style="mask-type:luminance" maskUnits="userSpaceOnUse" x="-16" y="-38" width="554" height="554">
<path d="M-15.48 -37.48H537.48V515.48H-15.48V-37.48Z" fill="white"/>
</mask>
<g mask="url(#mask5_440_2620)">
<path d="M188.038 178.643L189.975 200.245C190.143 202.12 188.76 203.777 186.885 203.945L165.283 205.882C163.407 206.05 161.751 204.667 161.583 202.792L159.646 181.189C159.478 179.314 160.861 177.657 162.736 177.49L184.338 175.552C186.214 175.385 187.87 176.767 188.038 178.643Z" fill="#184D9B"/>
<path d="M188.038 178.643L189.73 197.503C189.898 199.378 188.514 201.035 186.639 201.203L167.778 202.894C165.903 203.062 164.247 201.68 164.079 199.804L162.387 180.944C162.22 179.068 163.603 177.412 165.478 177.244L184.338 175.552C186.214 175.385 187.87 176.767 188.038 178.643Z" fill="#2C67EA"/>
</g>
<mask id="mask6_440_2620" style="mask-type:luminance" maskUnits="userSpaceOnUse" x="-124" y="-28" width="554" height="554">
<path d="M-123.48 -27.4805H429.48V525.48H-123.48V-27.4805Z" fill="white"/>
</mask>
<g mask="url(#mask6_440_2620)">
<path d="M163.579 37.8954L156.274 53.9333C155.64 55.325 153.998 55.9386 152.606 55.305L136.569 47.9997C135.177 47.366 134.563 45.7238 135.197 44.3321L142.502 28.2942C143.135 26.9025 144.779 26.2887 146.17 26.9223L162.207 34.2276C163.599 34.8613 164.213 36.5037 163.579 37.8954Z" fill="#CE194D"/>
<path d="M163.579 37.8953L157.201 51.8972C156.568 53.2889 154.925 53.9036 153.533 53.2699L139.532 46.8913C138.14 46.2577 137.526 44.6155 138.159 43.2238L144.537 29.2218C145.17 27.8301 146.814 27.2155 148.205 27.8491L162.207 34.2275C163.599 34.8612 164.213 36.5036 163.579 37.8953Z" fill="#D62F58"/>
</g>
<mask id="mask7_440_2620" style="mask-type:luminance" maskUnits="userSpaceOnUse" x="49" y="-38" width="554" height="554">
<path d="M49.3199 -37.48H602.28V515.48H49.3199V-37.48Z" fill="white"/>
</mask>
<g mask="url(#mask7_440_2620)">
<path d="M367.816 168.084L363.292 146.872C362.899 145.031 364.074 143.22 365.915 142.827L387.127 138.303C388.969 137.91 390.779 139.084 391.172 140.925L395.696 162.138C396.089 163.98 394.915 165.789 393.073 166.182L371.861 170.706C370.02 171.099 368.209 169.925 367.816 168.084Z" fill="#BCBC42"/>
<path d="M367.816 168.084L363.867 149.563C363.474 147.722 364.649 145.912 366.49 145.519L385.009 141.569C386.851 141.176 388.661 142.351 389.054 144.192L393.003 162.712C393.396 164.553 392.222 166.363 390.381 166.756L371.861 170.706C370.02 171.099 368.209 169.925 367.816 168.084Z" fill="#F8F74A"/>
</g>
<mask id="mask8_440_2620" style="mask-type:luminance" maskUnits="userSpaceOnUse" x="-81" y="-38" width="554" height="554">
<path d="M-80.28 -37.48H472.68V515.48H-80.28V-37.48Z" fill="white"/>
</mask>
<g mask="url(#mask8_440_2620)">
<path d="M72.6421 144.15L74.7623 122.565C74.9466 120.692 76.6145 119.321 78.4877 119.505L100.073 121.626C101.947 121.811 103.316 123.478 103.132 125.351L101.011 146.937C100.826 148.81 99.1592 150.18 97.286 149.995L75.7007 147.875C73.8275 147.691 72.4579 146.024 72.6421 144.15Z" fill="#CE194D"/>
<path d="M72.6421 144.15L74.4931 125.304C74.6774 123.431 76.3457 122.061 78.2189 122.246L97.0638 124.097C98.937 124.281 100.307 125.949 100.123 127.823L98.2714 146.668C98.0872 148.541 96.4189 149.911 94.5457 149.727L75.7007 147.875C73.8276 147.691 72.4579 146.024 72.6421 144.15Z" fill="#F95890"/>
</g>
<mask id="mask9_440_2620" style="mask-type:luminance" maskUnits="userSpaceOnUse" x="114" y="-38" width="554" height="554">
<path d="M114.12 -37.48H667.08V515.48H114.12V-37.48Z" fill="white"/>
</mask>
<g mask="url(#mask9_440_2620)">
<path d="M386.807 118.053L365.259 120.508C363.388 120.722 361.699 119.378 361.485 117.508L359.029 95.9577C358.816 94.087 360.16 92.3987 362.031 92.1852L383.58 89.7293C385.451 89.5159 387.139 90.8599 387.353 92.7307L389.808 114.28C390.022 116.15 388.678 117.839 386.807 118.053Z" fill="#D18927"/>
<path d="M386.807 118.053L367.993 120.196C366.122 120.409 364.435 119.066 364.221 117.196L362.076 98.381C361.863 96.5102 363.207 94.8219 365.078 94.6085L383.892 92.4643C385.762 92.2508 387.451 93.5943 387.665 95.465L389.808 114.279C390.022 116.15 388.678 117.839 386.807 118.053Z" fill="#FC9826"/>
</g>
<mask id="mask10_440_2620" style="mask-type:luminance" maskUnits="userSpaceOnUse" x="-16" y="-38" width="554" height="554">
<path d="M537.48 -37.48H-15.48V515.48H537.48V-37.48Z" fill="white"/>
</mask>
<g mask="url(#mask10_440_2620)">
<path d="M259.85 48.4238L275.046 63.9004C276.365 65.2435 278.523 65.2643 279.866 63.9449L295.343 48.7498C296.686 47.4304 296.707 45.2725 295.387 43.9294L280.192 28.4527C278.873 27.1097 276.715 27.0889 275.372 28.4082L259.895 43.6034C258.552 44.9228 258.531 47.0807 259.85 48.4238Z" fill="#184D9B"/>
<path d="M259.85 48.4235L273.117 61.9362C274.436 63.2792 276.594 63.299 277.937 61.9796L291.45 48.7133C292.793 47.3939 292.814 45.237 291.494 43.894L278.228 30.3813C276.909 29.0383 274.751 29.0175 273.408 30.3369L259.895 43.6032C258.552 44.9225 258.531 47.0805 259.85 48.4235Z" fill="#2C67EA"/>
</g>
<mask id="mask11_440_2620" style="mask-type:luminance" maskUnits="userSpaceOnUse" x="-124" y="-38" width="554" height="554">
<path d="M429.48 -37.48H-123.48V515.48H429.48V-37.48Z" fill="white"/>
</mask>
<g mask="url(#mask11_440_2620)">
<path d="M152.858 97.1509L156.529 118.528C156.847 120.383 158.61 121.628 160.465 121.31L181.841 117.638C183.696 117.319 184.942 115.557 184.623 113.702L180.952 92.3251C180.634 90.4701 178.87 89.2248 177.015 89.5431L155.639 93.215C153.784 93.5333 152.539 95.296 152.858 97.1509Z" fill="#CE194D"/>
<path d="M152.858 97.1511L156.063 115.814C156.381 117.669 158.144 118.916 159.999 118.597L178.662 115.391C180.517 115.072 181.763 113.31 181.444 111.455L178.239 92.792C177.921 90.9371 176.158 89.6908 174.303 90.0091L155.639 93.2152C153.784 93.5335 152.539 95.2961 152.858 97.1511Z" fill="#D62F58"/>
</g>
<mask id="mask12_440_2620" style="mask-type:luminance" maskUnits="userSpaceOnUse" x="49" y="-38" width="554" height="554">
<path d="M602.28 -37.48H49.32V515.48H602.28V-37.48Z" fill="white"/>
</mask>
<g mask="url(#mask12_440_2620)">
<path d="M292.767 82.9831L314.203 86.2902C316.064 86.5775 317.804 85.3017 318.091 83.4409L321.398 62.0054C321.686 60.1446 320.411 58.404 318.55 58.1166L297.114 54.8099C295.253 54.5225 293.513 55.798 293.226 57.6588L289.919 79.0943C289.632 80.9551 290.906 82.6957 292.767 82.9831Z" fill="#BCBC42"/>
<path d="M292.767 82.9834L311.483 85.8702C313.344 86.1575 315.084 84.8817 315.371 83.0209L318.258 64.3064C318.546 62.4456 317.27 60.7053 315.409 60.4179L296.695 57.5308C294.834 57.2434 293.093 58.5193 292.806 60.38L289.919 79.0946C289.632 80.9553 290.906 82.696 292.767 82.9834Z" fill="#F8F74A"/>
</g>
<mask id="mask13_440_2620" style="mask-type:luminance" maskUnits="userSpaceOnUse" x="-81" y="-38" width="554" height="554">
<path d="M472.68 -37.48H-80.2801V515.48H472.68V-37.48Z" fill="white"/>
</mask>
<g mask="url(#mask13_440_2620)">
<path d="M300.389 27.3085L282.459 21.0873C280.903 20.5476 279.203 21.3709 278.663 22.9269L272.443 40.8569C271.903 42.4129 272.726 44.1121 274.282 44.6517L292.212 50.8722C293.768 51.4119 295.468 50.5886 296.007 49.0326L302.228 31.1033C302.768 29.5472 301.945 27.8481 300.389 27.3085Z" fill="#CE194D"/>
<path d="M300.389 27.3085L284.735 21.8767C283.179 21.3371 281.479 22.161 280.939 23.717L275.508 39.3703C274.969 40.9263 275.793 42.6261 277.349 43.1657L293.002 48.5968C294.558 49.1365 296.258 48.3126 296.797 46.7566L302.228 31.1033C302.768 29.5473 301.945 27.8482 300.389 27.3085Z" fill="#F95890"/>
</g>
<path d="M419.07 124.339C419.033 134.433 493.418 164.538 448.943 181.89C369 213.08 419.183 212.118 445.537 232.507C448.831 235.056 452.212 237.895 455.47 241.062" stroke="#C1214A" stroke-width="16.2" stroke-linecap="round" stroke-linejoin="round"/>
<path d="M416.619 116.708C377.988 118.947 493.84 158.183 441.383 178.65C361.44 209.84 413.783 216.438 440.137 236.827C442.183 238.409 444.294 240.064 446.417 241.806" stroke="#FB4984" stroke-width="16.2" stroke-linecap="round" stroke-linejoin="round"/>
</g>
</g>
<defs>
<linearGradient id="paint0_linear_440_2620" x1="387.882" y1="327.933" x2="375.878" y2="310.877" gradientUnits="userSpaceOnUse">
<stop stop-color="white"/>
<stop offset="0.71" stop-color="white" stop-opacity="0.5"/>
<stop offset="1" stop-color="white" stop-opacity="0"/>
</linearGradient>
<linearGradient id="paint1_linear_440_2620" x1="387.882" y1="327.933" x2="375.878" y2="310.877" gradientUnits="userSpaceOnUse">
<stop offset="0.19" stop-color="#FCD642"/>
<stop offset="0.88" stop-color="#E7B831"/>
<stop offset="1" stop-color="#D29A20"/>
</linearGradient>
<linearGradient id="paint2_linear_440_2620" x1="253.382" y1="210.058" x2="320.128" y2="274.627" gradientUnits="userSpaceOnUse">
<stop stop-color="white" stop-opacity="0"/>
<stop offset="0.11" stop-color="white" stop-opacity="0.5"/>
<stop offset="0.49" stop-color="white"/>
<stop offset="0.86" stop-color="white" stop-opacity="0.505"/>
<stop offset="1" stop-color="white" stop-opacity="0.01"/>
</linearGradient>
<linearGradient id="paint3_linear_440_2620" x1="253.382" y1="210.058" x2="320.128" y2="274.627" gradientUnits="userSpaceOnUse">
<stop stop-color="#FCD642"/>
<stop offset="0.14" stop-color="#FCD642"/>
<stop offset="0.5" stop-color="#FCD642"/>
<stop offset="0.84" stop-color="#FCD642"/>
<stop offset="0.99" stop-color="#FCD642"/>
</linearGradient>
<linearGradient id="paint4_linear_440_2620" x1="178.383" y1="143.932" x2="221.879" y2="174.376" gradientUnits="userSpaceOnUse">
<stop stop-color="white"/>
<stop offset="0.71" stop-color="white" stop-opacity="0.5"/>
<stop offset="1" stop-color="white" stop-opacity="0"/>
</linearGradient>
<linearGradient id="paint5_linear_440_2620" x1="178.383" y1="143.932" x2="221.879" y2="174.376" gradientUnits="userSpaceOnUse">
<stop offset="0.29" stop-color="#9A6C07"/>
<stop offset="0.9" stop-color="#B68314"/>
<stop offset="1" stop-color="#D29A20"/>
</linearGradient>
<linearGradient id="paint6_linear_440_2620" x1="158.882" y1="264.057" x2="250.127" y2="350.626" gradientUnits="userSpaceOnUse">
<stop offset="0.11" stop-color="#C0951B"/>
<stop offset="0.42" stop-color="#DBAD2A"/>
<stop offset="0.72" stop-color="#F5C539"/>
<stop offset="0.82" stop-color="#FAE24F"/>
<stop offset="1" stop-color="#FFFF64"/>
</linearGradient>
<linearGradient id="paint7_linear_440_2620" x1="239.67" y1="403.567" x2="230.166" y2="388.761" gradientUnits="userSpaceOnUse">
<stop stop-color="white"/>
<stop offset="0.71" stop-color="white" stop-opacity="0.5"/>
<stop offset="1" stop-color="white" stop-opacity="0"/>
</linearGradient>
<linearGradient id="paint8_linear_440_2620" x1="239.67" y1="403.567" x2="230.166" y2="388.761" gradientUnits="userSpaceOnUse">
<stop offset="0.29" stop-color="#9A6C07"/>
<stop offset="0.9" stop-color="#CDB636"/>
<stop offset="1" stop-color="#FFFF64"/>
</linearGradient>
<linearGradient id="paint9_linear_440_2620" x1="151.133" y1="238.557" x2="261.627" y2="396.876" gradientUnits="userSpaceOnUse">
<stop offset="0.27" stop-color="#8A48BE"/>
<stop offset="0.63" stop-color="#C579DE"/>
<stop offset="0.88" stop-color="#FFABFD"/>
<stop offset="0.92" stop-color="#B064BC"/>
<stop offset="0.99" stop-color="#611E7B"/>
</linearGradient>
<linearGradient id="paint10_linear_440_2620" x1="103.131" y1="351.557" x2="168.627" y2="448.375" gradientUnits="userSpaceOnUse">
<stop offset="0.27" stop-color="#8A48BE"/>
<stop offset="0.62" stop-color="#C579DE"/>
<stop offset="0.85" stop-color="#FFABFD"/>
<stop offset="0.92" stop-color="#B064BC"/>
<stop offset="0.99" stop-color="#611E7B"/>
</linearGradient>
<linearGradient id="paint11_linear_440_2620" x1="71.3812" y1="431.556" x2="103.877" y2="478.125" gradientUnits="userSpaceOnUse">
<stop offset="0.27" stop-color="#8A48BE"/>
<stop offset="0.7" stop-color="#B76BD9"/>
<stop offset="0.88" stop-color="#E38EF4"/>
<stop offset="0.92" stop-color="#A256B7"/>
<stop offset="0.99" stop-color="#611E7B"/>
</linearGradient>
<clipPath id="clip0_440_2620">
<rect width="512" height="512" fill="white"/>
</clipPath>
</defs>
</svg>
