<svg width="512" height="512" viewBox="0 0 512 512" fill="none" xmlns="http://www.w3.org/2000/svg">
<g clip-path="url(#clip0_440_3550)">
<mask id="mask0_440_3550" style="mask-type:luminance" maskUnits="userSpaceOnUse" x="0" y="0" width="512" height="512">
<path d="M512 0H0V512H512V0Z" fill="white"/>
</mask>
<g mask="url(#mask0_440_3550)">
<path d="M307.474 160.886L302.485 169.318C299.994 173.525 295.512 176.1 290.675 176.1H272.433" stroke="#5E5E5E" stroke-width="7.19981" stroke-linecap="round" stroke-linejoin="round"/>
<path d="M327.785 148.436C327.785 156.332 321.476 162.733 313.694 162.733C305.911 162.733 299.603 156.332 299.603 148.436C299.603 140.54 305.911 134.139 313.694 134.139C321.476 134.139 327.785 140.54 327.785 148.436Z" fill="#A3A3A3"/>
<path d="M317.404 143.951C317.404 147.186 314.82 149.809 311.631 149.809C308.443 149.809 305.857 147.186 305.857 143.951C305.857 140.715 308.443 138.093 311.631 138.093C314.82 138.093 317.404 140.715 317.404 143.951Z" fill="#E1E1E1"/>
<path d="M327.785 148.436C327.785 156.332 321.476 162.733 313.694 162.733C305.911 162.733 299.603 156.332 299.603 148.436C299.603 140.54 305.911 134.139 313.694 134.139C321.476 134.139 327.785 140.54 327.785 148.436Z" stroke="#5E5E5E" stroke-width="7.19981" stroke-miterlimit="10"/>
<path d="M413.067 308.497C388.513 273.007 408.129 225.988 388.141 212.76C362.018 195.47 230.231 195.487 204.133 212.76C184.145 225.988 157.969 257.283 134.535 277.848C111.1 298.412 73.5926 320.125 73.8812 370.29C74.1519 417.484 117.068 440.755 149.008 447.369C179.846 453.755 243.974 454.31 254.892 454.358V454.363H256.501V454.358C267.419 454.31 331.547 453.755 362.384 447.369C394.325 440.755 436.063 417.462 437.511 370.29C438.828 327.4 418.07 315.728 413.067 308.497Z" stroke="#BC0067" stroke-width="7.19981" stroke-miterlimit="10"/>
<path d="M413.067 308.497C388.513 273.007 408.129 225.988 388.141 212.76C362.018 195.47 230.231 195.487 204.133 212.76C184.145 225.988 157.969 257.283 134.535 277.848C111.1 298.412 73.5926 320.125 73.8812 370.29C74.1519 417.484 117.068 440.755 149.008 447.369C179.846 453.755 243.974 454.31 254.892 454.358V454.363H256.501V454.358C267.419 454.31 331.547 453.755 362.384 447.369C394.325 440.755 436.063 417.462 437.511 370.29C438.828 327.4 418.07 315.728 413.067 308.497Z" fill="#BC0067"/>
<path d="M126.823 284.333C126.823 284.333 152.007 231.629 164.566 213.291C177.125 194.953 209.904 184.385 280.666 182.521C351.428 180.656 393.039 194.589 403.504 208.531C415.809 224.923 399.293 268.02 388.557 288.312C379.57 305.299 134.352 318.273 126.823 284.333Z" fill="#A4A4A4"/>
<path d="M137.11 285.633C137.11 285.633 158.967 236.222 170.491 219.656C182.014 203.089 212.087 195.807 277.013 194.123C341.937 192.438 380.919 204.95 387.367 217.514C393.703 229.862 372.989 273.8 367.85 291.385C362.968 308.085 144.019 316.296 137.11 285.633Z" fill="#BC0067"/>
<path d="M137.11 285.633C137.11 285.633 158.967 236.222 170.491 219.656C182.014 203.089 212.087 195.807 277.013 194.123C341.937 192.438 380.919 204.95 387.367 217.514C393.703 229.862 372.989 273.8 367.85 291.385C362.968 308.085 144.019 316.296 137.11 285.633Z" stroke="#740241" stroke-width="7.05581"/>
<path d="M126.822 284.332C126.822 284.332 151.113 229.136 163.672 210.798C176.232 192.46 209.009 181.892 279.772 180.028C350.534 178.163 393.845 192.897 402.61 206.038C414.929 224.505 394.379 269.38 388.557 288.312C382.898 306.717 134.352 318.273 126.822 284.332Z" stroke="#5E5E5E" stroke-width="7.19981" stroke-miterlimit="10"/>
<mask id="mask1_440_3550" style="mask-type:luminance" maskUnits="userSpaceOnUse" x="-153" y="264" width="462" height="462">
<path d="M-152.4 264.6H308.4V725.4H-152.4V264.6Z" fill="white"/>
</mask>
<g mask="url(#mask1_440_3550)">
<mask id="mask2_440_3550" style="mask-type:luminance" maskUnits="userSpaceOnUse" x="-170" y="233" width="565" height="565">
<path d="M-169.028 351.982L276.195 233.185L394.993 678.408L-50.2307 797.206L-169.028 351.982Z" fill="white"/>
</mask>
<g mask="url(#mask2_440_3550)">
<path d="M174.232 427.135C173.042 427.452 170.448 422.086 167.021 412.761C161.471 397.744 154.96 375.102 150.02 353.696C145.066 332.237 143.21 318.581 145.182 318.055C145.255 318.035 158.129 314.086 158.41 314.805C162.206 319.101 170.434 341.307 177.428 367.52C181.488 382.734 184.697 396.856 186.459 407.273C187.662 415.09 188.237 421.52 187.548 423.459C187.589 423.906 174.305 427.115 174.232 427.135Z" fill="#DEA915"/>
<path d="M174.232 427.132C173.046 427.447 170.446 422.085 167.019 412.762C161.473 397.74 154.955 375.098 150.016 353.693C145.065 332.235 143.21 318.581 145.178 318.056C145.257 318.035 158.133 314.087 158.408 314.809C162.209 319.104 170.431 341.304 177.425 367.519C181.486 382.737 184.694 396.856 186.46 407.273C187.657 415.089 188.236 421.517 187.55 423.463C187.594 423.909 174.303 427.113 174.232 427.132Z" stroke="#AA6E06" stroke-width="6.48" stroke-miterlimit="10"/>
<path d="M189.666 422.37C188.479 422.686 186.04 417.924 182.613 408.601C177.067 393.579 170.548 370.937 165.61 349.533C160.659 328.074 158.804 314.42 160.772 313.895C163.359 313.205 171.956 336.971 179.935 366.873C183.996 382.092 187.204 396.21 188.969 406.628C190.611 416.314 190.864 422.051 189.666 422.37Z" fill="#ECB823"/>
<path d="M188.797 422.602C187.61 422.918 185.171 418.156 181.744 408.833C176.197 393.811 169.679 371.169 164.741 349.764C159.79 328.306 157.935 314.652 159.903 314.127C162.49 313.437 171.087 337.203 179.066 367.105C183.126 382.323 186.335 396.442 188.1 406.86C189.742 416.545 189.995 422.283 188.797 422.602Z" stroke="#AA6E06" stroke-width="6.65359" stroke-linecap="round" stroke-linejoin="round"/>
<path d="M165.651 330.151C162.612 330.962 172.391 373.538 180.836 396.257C188.928 418.109 187.94 400.202 179.106 367.095C173.528 346.188 167.505 329.656 165.651 330.151Z" fill="#FFD35C"/>
<path d="M179.651 368.233C179.546 367.835 179.439 367.435 179.332 367.033C179.27 366.799 179.207 366.566 179.145 366.334" stroke="#FFDB45" stroke-width="0.520762" stroke-linecap="round" stroke-linejoin="round"/>
<path d="M177.056 358.756C173.652 346.736 170.279 336.426 167.604 329.667" stroke="#FFDB45" stroke-width="0.520762" stroke-linecap="round" stroke-linejoin="round"/>
<path d="M165.88 325.596C165.79 325.401 165.701 325.21 165.613 325.026" stroke="#FFDB45" stroke-width="0.520762" stroke-linecap="round" stroke-linejoin="round"/>
<path d="M167.392 352.44C167.166 351.73 167.027 351.106 166.977 350.87C166.928 350.634 166.82 350.085 166.892 350.065L170.802 349.022C170.874 349.003 171.054 349.533 171.128 349.762C171.203 349.991 171.393 350.602 171.552 351.33L181.334 396.342L167.392 352.44Z" stroke="#AA6E06" stroke-width="2.50717" stroke-linecap="round" stroke-linejoin="round"/>
<path d="M181.51 396.296L169.022 349.496" stroke="#AA6E06" stroke-width="2.42038" stroke-linecap="round" stroke-linejoin="round"/>
</g>
</g>
<mask id="mask3_440_3550" style="mask-type:luminance" maskUnits="userSpaceOnUse" x="-108" y="-28" width="462" height="461">
<path d="M-107.705 -27.874H353.095V432.926H-107.705V-27.874Z" fill="white"/>
</mask>
<g mask="url(#mask3_440_3550)">
<mask id="mask4_440_3550" style="mask-type:luminance" maskUnits="userSpaceOnUse" x="-123" y="-54" width="546" height="546">
<path d="M-122.724 40.687L328.378 -53.3549L422.42 397.747L-28.682 491.789L-122.724 40.687Z" fill="white"/>
</mask>
<g mask="url(#mask4_440_3550)">
<path d="M216.92 134.385C214.478 134.894 211.044 129.697 207.218 120.389C201.004 105.401 195.277 82.5336 192.287 60.7286C189.286 38.8706 189.942 24.7671 193.991 23.9229C194.129 23.8942 205.996 20.9679 206.274 21.6159C212.38 25.1861 221.485 47.4816 227.084 74.3362C230.297 89.7512 232.172 104.143 232.363 114.849C232.284 123.04 231.304 129.665 229.291 131.707C229.246 132.124 217.047 134.359 216.92 134.385Z" fill="#DEA915"/>
<path d="M216.921 134.386C214.475 134.895 211.045 129.695 207.217 120.389C201.004 105.397 195.279 82.5273 192.285 60.7252C189.284 38.8685 189.938 24.7676 193.993 23.9221C194.133 23.893 205.994 20.9659 206.274 21.6186C212.381 25.1824 221.482 47.4785 227.081 74.3375C230.295 89.7568 232.173 104.145 232.368 114.851C232.281 123.044 231.306 129.661 229.293 131.701C229.246 132.12 217.051 134.359 216.921 134.386Z" stroke="#AA6E06" stroke-width="6.48" stroke-miterlimit="10"/>
<path d="M231.058 130.866C228.612 131.375 225.296 126.724 221.469 117.418C215.256 102.426 209.531 79.5562 206.537 57.7542C203.535 35.8974 204.189 21.7966 208.245 20.9511C213.578 19.8391 223.057 43.5836 229.373 73.8807C232.588 89.2999 234.465 103.688 234.66 114.394C234.841 124.348 233.527 130.351 231.058 130.866Z" fill="#ECB823"/>
<path d="M230.177 131.05C227.732 131.558 224.416 126.908 220.588 117.601C214.375 102.61 208.65 79.7398 205.656 57.9378C202.654 36.081 203.308 21.9802 207.364 21.1347C212.698 20.0227 222.176 43.7672 228.492 74.0643C231.707 89.4835 233.584 103.872 233.779 114.578C233.961 124.532 232.647 130.535 230.177 131.05Z" stroke="#AA6E06" stroke-width="6.84826" stroke-linecap="round" stroke-linejoin="round"/>
<path d="M212.238 37.4477C205.94 38.7607 211.782 82.1062 221.325 104.797C230.434 126.596 234.184 107.881 227.191 74.3367C222.775 53.1528 216.08 36.6467 212.238 37.4477Z" fill="#FFD35C"/>
<path d="M230.611 87.9253C230.509 87.2669 230.403 86.6016 230.293 85.9296" stroke="#FFDB45" stroke-width="1.10477" stroke-linecap="round" stroke-linejoin="round"/>
<path d="M228.865 77.9751C228.621 76.7176 228.363 75.4408 228.094 74.1467C225.898 63.6142 223.269 54.0104 220.611 46.3477" stroke="#FFDB45" stroke-width="1.10477" stroke-linecap="round" stroke-linejoin="round"/>
<path d="M217.089 37.3801C216.895 36.9506 216.701 36.5354 216.509 36.1343" stroke="#FFDB45" stroke-width="1.10477" stroke-linecap="round" stroke-linejoin="round"/>
<path d="M210.735 60.2185C210.515 59.5042 210.436 58.8676 210.412 58.6265C210.388 58.3855 210.348 57.8235 210.495 57.7929L218.451 56.1343C218.598 56.1036 218.786 56.6348 218.86 56.8654C218.935 57.0959 219.117 57.711 219.2 58.4537L224.358 104.38L210.735 60.2185Z" stroke="#AA6E06" stroke-width="2.89651" stroke-linecap="round" stroke-linejoin="round"/>
<path d="M224.519 104.348L214.634 56.9292" stroke="#AA6E06" stroke-width="2.71238" stroke-linecap="round" stroke-linejoin="round"/>
</g>
</g>
<mask id="mask5_440_3550" style="mask-type:luminance" maskUnits="userSpaceOnUse" x="-10" y="37" width="462" height="462">
<path d="M-9.60461 37.6343H451.195V498.434H-9.60461V37.6343Z" fill="white"/>
</mask>
<g mask="url(#mask5_440_3550)">
<mask id="mask6_440_3550" style="mask-type:luminance" maskUnits="userSpaceOnUse" x="-142" y="-108" width="629" height="628">
<path d="M84.3345 -107.629L486.218 117.817L260.772 519.701L-141.112 294.254L84.3345 -107.629Z" fill="white"/>
</mask>
<g mask="url(#mask6_440_3550)">
<path d="M285.621 189.467C275.938 184.035 269.659 174.346 267.331 161.697C263.412 141.221 271.301 118.638 287.93 102.791C304.604 86.9082 324.933 82.6346 341.002 91.649C341.491 91.9237 344.794 93.6525 345.183 94.1062C364.632 107.382 369.101 137.937 354.67 163.66C346.961 177.403 335.623 187.636 322.744 192.472C311.51 196.449 299.559 196.32 289.867 191.787C289.347 191.632 286.092 189.731 285.621 189.467Z" fill="#DEA915"/>
<path d="M285.623 189.467C275.936 184.032 269.658 174.345 267.332 161.698C263.412 141.217 271.303 118.634 287.931 102.789C304.601 86.9043 324.935 82.6363 341.001 91.649C341.487 91.9215 344.798 93.6555 345.18 94.1021C364.628 107.381 369.105 137.936 354.671 163.667C346.965 177.404 335.627 187.634 322.746 192.47C311.509 196.453 299.562 196.32 289.871 191.788C289.344 191.635 286.093 189.731 285.626 189.469L285.623 189.467Z" stroke="#AA6E06" stroke-width="6.48" stroke-miterlimit="10"/>
<path d="M285.833 189.415C276.145 183.98 269.796 174.422 267.469 161.775C263.549 141.294 271.441 118.711 288.069 102.866C304.738 86.9814 325.072 82.7134 341.138 91.7261C362.267 103.579 367.138 135.181 351.996 162.173C344.29 175.91 332.952 186.14 320.071 190.976C308.095 195.473 295.617 194.904 285.835 189.417L285.833 189.415Z" fill="#ECB823"/>
<path d="M285.048 188.975C275.361 183.539 269.011 173.981 266.684 161.334C262.764 140.854 270.656 118.271 287.284 102.426C303.954 86.541 324.288 82.273 340.354 91.2857C361.482 103.138 366.353 134.741 351.211 161.732C343.505 175.469 332.168 185.699 319.286 190.535C307.31 195.033 294.832 194.464 285.051 188.976L285.048 188.975Z" stroke="#AA6E06" stroke-width="8.16766" stroke-linecap="round" stroke-linejoin="round"/>
<path d="M333.422 106.85C308.373 92.7975 274.962 123.827 281.377 155.377C287.427 185.371 325.18 186.419 341.944 156.535C352.531 137.662 348.704 115.422 333.422 106.85Z" fill="#FFD35C"/>
<path d="M327.949 179.777C328.708 179.292 329.461 178.781 330.206 178.245" stroke="#FFDB45" stroke-width="5.06298" stroke-linecap="round" stroke-linejoin="round"/>
<path d="M338.351 171.005C341.458 167.636 344.316 163.723 346.817 159.266C352.193 149.683 354.658 139.45 354.437 130.003" stroke="#FFDB45" stroke-width="5.06298" stroke-linecap="round" stroke-linejoin="round"/>
<path d="M351.008 113.737C350.69 113.008 350.351 112.292 349.99 111.592" stroke="#FFDB45" stroke-width="5.06298" stroke-linecap="round" stroke-linejoin="round"/>
<path d="M305.477 116.38C305.572 115.58 306.086 115.135 306.303 114.981C306.52 114.826 307.085 114.503 307.661 114.826L338.869 132.333C339.445 132.656 339.464 133.307 339.445 133.573C339.427 133.839 339.315 134.509 338.682 135.007L299.568 165.823L305.477 116.38Z" stroke="#AA6E06" stroke-width="5.53532" stroke-linecap="round" stroke-linejoin="round"/>
<path d="M299.578 165.83L323.277 123.585" stroke="#AA6E06" stroke-width="4.69149" stroke-linecap="round" stroke-linejoin="round"/>
</g>
</g>
<path d="M126.823 284.333C126.823 284.333 92.1453 231.472 104.705 213.134C117.264 194.796 150.047 181.735 220.809 179.871C291.572 178.006 327.818 188.337 340.744 197.269C357.53 208.867 389.171 269.041 388.558 288.312C387.946 307.582 134.352 318.273 126.823 284.333Z" fill="#E1E1E1"/>
<path d="M135.157 285.469C135.157 285.469 101.595 230.588 113.353 213.683C125.112 196.778 156.269 191.568 222.519 189.849C288.769 188.13 324.786 197.519 335.067 207.935C348.402 221.444 380.775 271.372 380.201 289.136C379.628 306.901 142.206 316.758 135.157 285.469Z" fill="#A3A3A3"/>
<path d="M126.823 284.332C126.823 284.332 93.9322 228.979 106.492 210.641C119.051 192.303 151.829 181.735 222.591 179.871C293.353 178.006 332.214 189.824 343.196 201.122C357.439 215.776 389.171 269.041 388.558 288.311C387.946 307.582 134.353 318.272 126.823 284.332Z" stroke="#5E5E5E" stroke-width="7.19981" stroke-miterlimit="10"/>
<path d="M376.858 277.848C353.424 257.283 339.779 225.743 319.791 212.515C293.668 195.224 152.476 195.241 126.378 212.515C106.391 225.743 141.977 271.645 134.535 277.848C110.593 297.802 73.5926 320.125 73.8812 370.29C74.1519 417.484 117.068 440.755 149.008 447.369C179.846 453.755 243.974 454.31 254.892 454.358V454.363H256.5V454.358C267.418 454.31 331.547 453.755 362.384 447.369C394.325 440.755 437.24 417.484 437.511 370.29C437.799 320.125 400.293 298.413 376.858 277.848Z" fill="#FFBCDB"/>
<path d="M335.028 273.666C309.665 262.869 310.418 232.666 292.325 221.24C275.306 210.491 229.626 211.799 222.192 211.952C214.757 211.799 158.896 209.676 141.877 220.425C123.785 231.852 154.331 265.237 142.742 280.18C125.733 302.112 81.2218 307 81.3799 365.473C81.4907 406.24 121.611 432.793 164.483 436.689C217.494 441.506 318.997 442.205 346.911 436.689C375.824 430.976 429.116 418.109 429.116 362.754C429.116 302.727 376.065 291.135 335.028 273.666Z" fill="#FF73B3"/>
<path d="M356.932 435.492C316.887 444.092 199.044 443.689 154.455 435.492C116.289 428.476 75.1606 410.357 74.9014 363.868C74.8032 346.053 87.6324 327.576 94.5478 315.78L104.01 306.341C65.9489 348.757 92.4089 378.844 121.044 386.099C160.113 395.997 261.795 390.251 304.767 386.117C340.325 382.696 432.268 344.012 397.557 298.809C401.971 303.328 417.535 318.986 421.993 325.129C448.462 377.557 412.762 423.483 356.932 435.492Z" fill="#EA4A93"/>
<g opacity="0.1">
<path d="M309.09 266.835C233.691 248.431 189.796 263.12 152.91 270.67C141.234 273.06 139.155 268.516 131.486 251.388C125.756 238.589 116.9 219.699 124.005 215.532C153.45 198.259 283.866 192.319 309.959 209.596C321.299 217.098 329.488 233.676 330.604 247.571C331.574 259.654 320.707 269.67 309.09 266.835Z" fill="#CC0052"/>
</g>
<path d="M416.821 313.848C383.414 272.304 333.624 285.243 315.609 233.326C307.703 210.541 322.903 204.561 337.767 229.219C348.525 247.063 361.042 263.97 376.856 277.849C388.811 288.338 404.437 299.126 416.821 313.848Z" fill="#EA4A9F"/>
<path d="M416.821 313.848C383.414 272.304 333.624 285.243 315.609 233.326C307.703 210.541 322.903 204.561 337.767 229.219C348.525 247.063 361.042 263.97 376.856 277.849C388.811 288.338 404.437 299.126 416.821 313.848Z" stroke="#BB0067" stroke-width="7.19981" stroke-miterlimit="10"/>
<path d="M94.4987 313.848C127.905 272.304 150.206 292.56 127.995 241.123C118.442 218.998 120.98 220.879 122.625 228.34C122.768 228.349 122.656 228.481 122.625 228.34C126.788 251.701 140.636 272.551 134.463 277.849C122.397 288.205 106.882 299.126 94.4987 313.848Z" fill="#EA4A9F"/>
<path d="M122.625 228.34C120.98 220.879 118.442 218.998 127.995 241.123C150.206 292.56 127.905 272.304 94.4987 313.848C106.882 299.126 122.397 288.205 134.463 277.849C140.636 272.551 126.788 251.701 122.625 228.34ZM122.625 228.34C122.656 228.481 122.768 228.349 122.625 228.34Z" stroke="#BB0067" stroke-width="7.19981" stroke-miterlimit="10"/>
<path d="M376.858 277.848C353.424 257.283 340.673 225.969 320.684 212.741C294.561 195.451 153.37 195.468 127.272 212.741C107.284 225.969 144.658 268.926 134.535 277.848C111.144 298.464 73.5926 320.125 73.8812 370.29C74.1519 417.484 117.068 440.755 149.008 447.369C179.846 453.755 243.974 454.31 254.892 454.358V454.363H256.5V454.358C267.418 454.31 331.547 453.755 362.384 447.369C394.325 440.755 437.24 417.484 437.511 370.29C437.799 320.125 400.293 298.412 376.858 277.848Z" stroke="#BB0067" stroke-width="7.19981" stroke-miterlimit="10"/>
<g opacity="0.3">
<path d="M311.592 321.336C252.626 311.095 181.835 311.612 130.079 321.336C70.3207 332.564 95.9774 369.54 220.327 368.897C365.849 368.144 387.936 334.595 311.592 321.336Z" fill="#FFAFD7"/>
</g>
<path d="M437.514 370.289C437.237 417.483 394.324 440.754 362.382 447.371C320.271 456.085 195.689 457.031 149.005 447.371C117.064 440.754 74.1509 417.483 73.8829 370.289C73.74 345.721 82.6567 327.981 94.5487 313.857C78.6219 332.795 74.2742 347.692 74.3725 365.778C74.6316 412.972 120.858 428.903 151.164 435.521C195.547 445.201 303.74 444.247 343.765 435.521C374.071 428.903 417.453 407.47 425.73 361.028C428.953 342.939 423.754 325.823 416.821 313.848C428.731 327.971 437.657 345.721 437.514 370.289Z" fill="#DD1877"/>
<path d="M437.514 370.289C437.237 417.483 394.324 440.754 362.382 447.371C320.271 456.085 195.689 457.031 149.005 447.371C117.064 440.754 74.1509 417.483 73.8829 370.289C73.74 345.721 82.6567 327.981 94.5487 313.857C78.6219 332.795 74.2742 347.692 74.3725 365.778C74.6316 412.972 120.858 428.903 151.164 435.521C195.547 445.201 303.74 444.247 343.765 435.521C374.071 428.903 417.453 407.47 425.73 361.028C428.953 342.939 423.754 325.823 416.821 313.848C428.731 327.971 437.657 345.721 437.514 370.289Z" stroke="#BB0067" stroke-width="7.19981" stroke-linecap="round" stroke-linejoin="round"/>
<path d="M193.734 164.84L198.009 171.546C200.144 174.892 203.985 176.939 208.13 176.939H223.763" stroke="#5E5E5E" stroke-width="7.19981" stroke-linecap="round" stroke-linejoin="round"/>
<path d="M172.717 152.391C172.717 160.287 179.025 166.688 186.807 166.688C194.59 166.688 200.899 160.287 200.899 152.391C200.899 144.495 194.59 138.094 186.807 138.094C179.025 138.094 172.717 144.495 172.717 152.391Z" fill="#A3A3A3"/>
<path d="M195.058 148.437C195.058 151.672 192.472 154.295 189.284 154.295C186.096 154.295 183.511 151.672 183.511 148.437C183.511 145.201 186.096 142.579 189.284 142.579C192.472 142.579 195.058 145.201 195.058 148.437Z" fill="#E1E1E1"/>
<path d="M172.717 152.391C172.717 160.287 179.025 166.688 186.807 166.688C194.59 166.688 200.899 160.287 200.899 152.391C200.899 144.495 194.59 138.094 186.807 138.094C179.025 138.094 172.717 144.495 172.717 152.391Z" stroke="#5E5E5E" stroke-width="7.19981" stroke-miterlimit="10"/>
</g>
</g>
<defs>
<clipPath id="clip0_440_3550">
<rect width="512" height="512" fill="white"/>
</clipPath>
</defs>
</svg>
